<?xml version="1.0" standalone="no"?><!DOCTYPE svg PUBLIC "-//W3C//DTD SVG 1.1//EN" "http://www.w3.org/Graphics/SVG/1.1/DTD/svg11.dtd"><svg t="1698933016263" class="icon" viewBox="0 0 1024 1024" version="1.1" xmlns="http://www.w3.org/2000/svg" p-id="24360" width="16" height="16" data-spm-anchor-id="a313x.search_index.0.i38.59033a81riGCmv" xmlns:xlink="http://www.w3.org/1999/xlink"><path d="M958.976 403.968c-3.584-11.264-13.824-19.456-25.6-21.504l-270.848-41.472L541.696 82.944c-5.12-11.264-16.384-18.432-29.184-18.432-12.288 0-23.552 7.168-29.184 18.432L361.472 339.968l-271.36 40.96c-11.776 1.536-22.016 10.24-25.6 21.504-4.096 11.264-1.024 24.064 7.168 32.256l196.608 201.728-47.104 284.672c-2.048 12.288 3.072 24.064 13.312 31.232 10.24 7.168 23.04 7.68 33.792 2.048L510.464 821.76l241.664 133.632c4.608 2.56 10.24 4.096 15.36 4.096H768c17.92 0 32.256-14.336 32.256-31.744 0-4.096-0.512-7.68-2.048-11.264l-45.056-278.528 197.12-201.216c9.728-9.216 12.8-21.504 8.704-32.768z" fill="#fac030" p-id="24361" data-spm-anchor-id="a313x.search_index.0.i39.59033a81riGCmv" class="selected"></path><path d="M513.024 64c-12.288 0-23.552 7.168-29.184 18.432L361.472 339.968l-271.36 40.96c-11.776 1.536-22.016 10.24-25.6 21.504-4.096 11.264-1.024 24.064 7.168 32.256l196.608 201.728-47.104 284.672c-2.048 12.288 3.072 24.064 13.312 31.232 10.24 7.168 23.04 7.68 33.792 2.048L510.464 821.76c1.024-0.512 14.848-757.76 2.56-757.76z" fill="#fac030" p-id="24362" data-spm-anchor-id="a313x.search_index.0.i37.59033a81riGCmv" class="selected"></path></svg>