<svg xmlns="http://www.w3.org/2000/svg" viewBox="0 0 1024 1024" version="1.1"><path d="M170.688 170.688h42.688v42.688h-42.688z" p-id="561"></path><path d="M213.312 170.688H256v42.688h-42.688z" fill="#EE7500" p-id="562"></path><path d="M256 170.688h42.688v42.688H256zM298.688 170.688h42.688v42.688h-42.688z" p-id="563"></path><path d="M341.312 170.688H384v42.688h-42.688zM384 170.688h42.688v42.688H384zM426.688 170.688h42.688v42.688h-42.688z" fill="#6FBA2C" p-id="564"></path><path d="M469.312 170.688H512v42.688h-42.688zM213.312 213.312H256V256h-42.688zM341.312 213.312H384V256h-42.688zM384 213.312h42.688V256H384z" p-id="565"></path><path d="M426.688 213.312h42.688V256h-42.688z" fill="#6FBA2C" p-id="566"></path><path d="M469.312 213.312H512V256h-42.688z" fill="#6FBA2C" p-id="567"></path><path d="M256 256h42.688v42.688H256zM426.688 256h42.688v42.688h-42.688z" p-id="568"></path><path d="M469.312 256H512v42.688h-42.688zM298.688 298.688h42.688v42.688h-42.688z" p-id="569"></path><path d="M512 170.688h42.688v42.688H512z" fill="#6FBA2C" p-id="570"></path><path d="M512 213.312h42.688V256H512zM512 256h42.688v42.688H512z" fill="#6FBA2C" p-id="571"></path><path d="M512 298.688h42.688v42.688H512z" p-id="572"></path><path d="M554.688 170.688h42.688v42.688h-42.688z" fill="#6FBA2C" p-id="573"></path><path d="M554.688 213.312h42.688V256h-42.688z" fill="#6FBA2C" p-id="574"></path><path d="M554.688 256h42.688v42.688h-42.688z" p-id="575"></path><path d="M554.688 298.688h42.688v42.688h-42.688zM597.312 170.688H640v42.624h-42.688zM597.312 213.312H640V256h-42.688z" fill="#6FBA2C" p-id="576"></path><path d="M597.312 256H640v42.688h-42.688z" p-id="577"></path><path d="M597.312 298.688H640v42.688h-42.688zM640 213.312h42.688V256H640zM640 256h42.688v42.688H640zM682.688 213.312h42.624V256h-42.624z" fill="#6FBA2C" p-id="578"></path><path d="M640 170.688h42.688v42.624H640zM682.688 170.688h42.688v42.624h-42.688zM213.312 42.688H256v42.688h-42.688zM256 42.688h42.688v42.688H256zM298.688 42.688h42.688v42.688h-42.688zM384 42.688h42.688v42.688H384z" p-id="579"></path><path d="M426.688 42.688h42.688v42.688h-42.688z" fill="#6FBA2C" p-id="580"></path><path d="M469.312 42.688H512v42.688h-42.688zM213.312 85.312H256V128h-42.688zM256 85.312h42.688V128H256zM298.688 85.312h42.688V128h-42.688z" fill="#6FBA2C" p-id="581"></path><path d="M341.312 85.312H384V128h-42.688z" p-id="582"></path><path d="M384 85.312h42.688V128H384zM426.688 85.312h42.688V128h-42.688z" fill="#6FBA2C" p-id="583"></path><path d="M469.312 85.312H512V128h-42.688z" fill="#6FBA2C" p-id="584"></path><path d="M512 42.688h42.688v42.688H512z" p-id="585"></path><path d="M512 85.312h42.688V128H512z" fill="#6FBA2C" p-id="586"></path><path d="M554.688 85.312h42.688V128h-42.688z" p-id="587"></path><path d="M682.688 298.688h42.688v42.688h-42.688z" fill="#6FBA2C" p-id="588"></path><path d="M725.312 256H768v42.688h-42.688zM725.312 298.688H768v42.688h-42.688z" p-id="589"></path><path d="M682.688 384h42.688v42.688h-42.688zM682.688 426.688h42.688v42.688h-42.688z" fill="#6FBA2C" p-id="590"></path><path d="M682.688 469.312h42.688V512h-42.688z" fill="#6FBA2C" p-id="591"></path><path d="M725.312 384H768v42.688h-42.688zM725.312 426.688H768v42.688h-42.688z" p-id="592"></path><path d="M725.312 469.312H768V512h-42.688zM682.688 512h42.688v42.688h-42.688zM768 384h42.688v42.688H768zM682.688 682.688h42.688v42.688h-42.688z" p-id="593"></path><path d="M725.312 725.312H768V768h-42.688zM768 768h42.688v42.688H768zM810.688 426.688h42.688v42.688h-42.688zM810.688 810.688h42.688v42.688h-42.688z" p-id="594"></path><path d="M853.312 426.688H896v42.688h-42.688zM896 469.312h42.688V512H896zM896 512h42.688v42.688H896zM938.688 554.688h42.688v42.688h-42.688z" p-id="595"></path><path d="M938.688 597.312h42.688V640h-42.688zM938.688 640h42.688v42.688h-42.688zM896 682.688h42.688v42.688H896zM853.312 768H896v42.688h-42.688z" p-id="596"></path><path d="M896 725.312h42.688V768H896zM384 384h42.688v42.688H384zM426.688 426.688h42.688v42.688h-42.688zM554.688 384h42.688v42.688h-42.688zM554.688 426.688h42.688v42.688h-42.688z" p-id="597"></path><path d="M597.312 384H640v42.688h-42.688zM597.312 426.688H640v42.688h-42.688z" fill="#6FBA2C" p-id="598"></path><path d="M597.312 469.312H640V512h-42.688zM597.312 512H640v42.688h-42.688zM597.312 597.312H640V640h-42.688zM896 810.688h42.688v42.688H896zM853.312 853.312H896V896h-42.688z" p-id="599"></path><path d="M896 853.312h42.688V896H896z" fill="#EE7500" p-id="600"></path><path d="M938.688 853.312h42.688V896h-42.688zM896 896h42.688v42.688H896z" p-id="601"></path><path d="M938.688 896h42.688v42.688h-42.688z" fill="#EE7500" p-id="602"></path><path d="M938.688 938.688h42.688v42.688h-42.688z" p-id="603"></path><path d="M853.312 810.688H896v42.688h-42.688z" fill="#EE7500" p-id="604"></path><path d="M426.688 0h42.688v42.688h-42.688z" p-id="605"></path><path d="M469.312 0H512v42.688h-42.688zM170.688 85.312h42.688V128h-42.688z" p-id="606"></path><path d="M170.688 128h42.688v42.688h-42.688z" fill="#EE7500" p-id="607"></path><path d="M213.312 128H256v42.688h-42.688z" p-id="608"></path><path d="M256 128h42.688v42.688H256zM298.688 128h42.688v42.688h-42.688z" fill="#6FBA2C" p-id="609"></path><path d="M341.312 128H384v42.688h-42.688z" fill="#6FBA2C" p-id="610"></path><path d="M384 128h42.688v42.688H384zM426.688 128h42.688v42.688h-42.688z" p-id="611"></path><path d="M469.312 128H512v42.688h-42.688z" fill="#6FBA2C" p-id="612"></path><path d="M128 170.688h42.688v42.688H128z" fill="#F9C151" p-id="613"></path><path d="M0 298.688h42.688v42.688H0zM0 256h42.688v42.688H0zM0 213.312h42.688V256H0z" p-id="614"></path><path d="M0 170.688h42.688v42.688H0zM0 128h42.688v42.688H0zM42.688 85.312h42.688V128H42.688z" p-id="615"></path><path d="M85.312 42.688H128v42.688h-42.688zM128 42.688h42.688v42.688H128z" p-id="616"></path><path d="M85.312 85.312H128V128h-42.688zM128 128h42.688v42.688H128z" p-id="617"></path><path d="M128 85.312h42.688V128H128z" fill="#EE7500" p-id="618"></path><path d="M0 341.312h42.688V384H0zM341.312 341.312H384V384h-42.688zM0 384h42.688v42.688H0zM0 426.688h42.688v42.688H0z" p-id="619"></path><path d="M0 469.312h42.688V512H0z" p-id="620"></path><path d="M512 128h42.688v42.688H512z" fill="#6FBA2C" p-id="621"></path><path d="M512 341.312h42.688V384H512zM0 512h42.688v42.688H0z" p-id="622"></path><path d="M554.688 128h42.688v42.688h-42.688zM554.688 341.312h42.688V384h-42.688z" fill="#6FBA2C" p-id="623"></path><path d="M597.312 128H640v42.688h-42.688z" p-id="624"></path><path d="M597.312 341.312H640V384h-42.688z" fill="#6FBA2C" p-id="625"></path><path d="M640 298.688h42.688v42.688H640z" p-id="626"></path><path d="M640 341.312h42.688V384H640zM640 384h42.688v42.688H640zM640 426.688h42.688v42.688H640z" fill="#6FBA2C" p-id="627"></path><path d="M640 469.312h42.688V512H640z" fill="#6FBA2C" p-id="628"></path><path d="M640 512h42.688v42.688H640zM0 554.688h42.688v42.688H0z" p-id="629"></path><path d="M0 597.312h42.688V640H0zM0 640h42.688v42.688H0z" p-id="630"></path><path d="M725.312 512H768v42.688h-42.688zM768 426.688h42.688v42.688H768z" fill="#D0493A" p-id="631"></path><path d="M768 469.312h42.688V512H768zM682.688 554.688h42.688v42.688h-42.688z" fill="#D0493A" p-id="632"></path><path d="M682.688 597.312h42.688V640h-42.688zM725.312 640H768v42.688h-42.688zM768 640h42.688v42.688H768zM810.688 469.312h42.688V512h-42.688zM810.688 597.312h42.688V640h-42.688zM810.688 640h42.688v42.688h-42.688zM810.688 768h42.688v42.688h-42.688z" fill="#D0493A" p-id="633"></path><path d="M853.312 469.312H896V512h-42.688zM853.312 512H896v42.688h-42.688zM853.312 554.688H896v42.688h-42.688z" fill="#D0493A" p-id="634"></path><path d="M853.312 597.312H896V640h-42.688zM896 554.688h42.688v42.688H896z" fill="#D0493A" p-id="635"></path><path d="M896 597.312h42.688V640H896zM896 640h42.688v42.688H896zM853.312 725.312H896V768h-42.688z" fill="#D0493A" p-id="636"></path><path d="M768 512h42.688v42.688H768zM725.312 554.688H768v42.688h-42.688z" fill="#B81F23" p-id="637"></path><path d="M725.312 597.312H768V640h-42.688zM682.688 640h42.688v42.688h-42.688zM768 554.688h42.688v42.688H768z" fill="#B81F23" p-id="638"></path><path d="M768 597.312h42.688V640H768zM725.312 682.688H768v42.688h-42.688zM768 682.688h42.688v42.688H768z" fill="#B81F23" p-id="639"></path><path d="M768 725.312h42.688V768H768zM810.688 512h42.688v42.688h-42.688zM810.688 554.688h42.688v42.688h-42.688zM810.688 682.688h42.688v42.688h-42.688z" fill="#B81F23" p-id="640"></path><path d="M810.688 725.312h42.688V768h-42.688zM853.312 640H896v42.688h-42.688z" fill="#B81F23" p-id="641"></path><path d="M853.312 682.688H896v42.688h-42.688zM597.312 554.688H640v42.688h-42.688zM640 554.688h42.688v42.688H640z" fill="#B81F23" p-id="642"></path><path d="M640 597.312h42.688V640H640z" fill="#D0493A" p-id="643"></path><path d="M640 640h42.688v42.688H640z" p-id="644"></path><path d="M682.688 256h42.688v42.688h-42.688z" fill="#6FBA2C" p-id="645"></path><path d="M682.688 341.312h42.688V384h-42.688zM725.312 213.312H768V256h-42.688zM0 682.688h42.688v42.688H0z" p-id="646"></path><path d="M0 725.312h42.688V768H0zM0 768h42.688v42.688H0zM0 810.688h42.688v42.688H0z" p-id="647"></path><path d="M0 853.312h42.688V896H0zM0 896h42.688v42.688H0zM0 938.688h42.688v42.624H0zM42.688 981.312h42.688V1024H42.688z" p-id="648"></path><path d="M85.312 981.312H128V1024h-42.688zM128 981.312h42.688V1024H128zM170.688 981.312h42.688V1024h-42.688z" p-id="649"></path><path d="M213.312 981.312H256V1024h-42.688zM256 981.312h42.688V1024H256zM298.688 981.312h42.688V1024h-42.688z" p-id="650"></path><path d="M341.312 981.312H384V1024h-42.688zM384 981.312h42.688V1024H384zM426.688 981.312h42.688V1024h-42.688z" p-id="651"></path><path d="M469.312 981.312H512V1024h-42.688zM512 981.312h42.688V1024H512zM554.688 981.312h42.688V1024h-42.688z" p-id="652"></path><path d="M597.312 981.312H640V1024h-42.688zM640 981.312h42.688V1024H640zM682.688 981.312h42.688V1024h-42.688z" p-id="653"></path><path d="M725.312 981.312H768V1024h-42.688zM768 981.312h42.688V1024H768zM810.688 981.312h42.688V1024h-42.688z" p-id="654"></path><path d="M853.312 981.312H896V1024h-42.688zM896 981.312h42.688V1024H896zM981.312 896H1024v42.688h-42.688zM981.312 938.688H1024v42.624h-42.688zM469.312 469.312H512V512h-42.688zM512 512h42.688v42.688H512z" p-id="655"></path><path d="M256 213.312h42.688V256H256zM298.688 213.312h42.688V256h-42.688zM298.688 256h42.688v42.688h-42.688z" fill="#FED200" p-id="656"></path><path d="M341.312 256H384v42.688h-42.688zM384 256h42.688v42.688H384zM341.312 298.688H384v42.688h-42.688zM384 298.688h42.688v42.688H384zM426.688 298.688h42.688v42.688h-42.688z" fill="#FED200" p-id="657"></path><path d="M469.312 298.688H512v42.688h-42.688zM426.688 384h42.688v42.688h-42.688z" fill="#FED200" p-id="658"></path><path d="M469.312 384H512v42.688h-42.688zM469.312 426.688H512v42.688h-42.688zM512 384h42.688v42.688H512zM512 426.688h42.688v42.688H512z" fill="#FED200" p-id="659"></path><path d="M512 469.312h42.688V512H512zM554.688 512h42.688v42.688h-42.688zM384 341.312h42.688V384H384zM426.688 341.312h42.688V384h-42.688z" fill="#FED200" p-id="660"></path><path d="M469.312 341.312H512V384h-42.688zM554.688 469.312h42.688V512h-42.688z" fill="#FED200" p-id="661"></path><path d="M554.688 554.688h42.688v42.688h-42.688z" p-id="662"></path><path d="M128 213.312h42.688V256H128zM170.688 213.312h42.688V256h-42.688zM85.312 256H128v42.688h-42.688zM128 256h42.688v42.688H128zM170.688 256h42.688v42.688h-42.688z" fill="#F9C151" p-id="663"></path><path d="M213.312 256H256v42.688h-42.688zM42.688 298.688h42.688v42.688H42.688z" fill="#F9C151" p-id="664"></path><path d="M85.312 298.688H128v42.688h-42.688z" fill="#F18D00" p-id="665"></path><path d="M128 298.688h42.688v42.688H128zM170.688 298.688h42.688v42.688h-42.688z" fill="#F9C151" p-id="666"></path><path d="M213.312 298.688H256v42.688h-42.688zM256 298.688h42.688v42.688H256zM682.688 725.312h42.688V768h-42.688zM725.312 768H768v42.688h-42.688zM768 810.688h42.688v42.688H768zM42.688 384h42.688v42.688H42.688z" fill="#F9C151" p-id="667"></path><path d="M85.312 384H128v42.688h-42.688zM128 384h42.688v42.688H128zM170.688 384h42.688v42.688h-42.688z" fill="#F9C151" p-id="668"></path><path d="M213.312 384H256v42.688h-42.688zM256 384h42.688v42.688H256zM298.688 384h42.688v42.688h-42.688z" fill="#F9C151" p-id="669"></path><path d="M341.312 384H384v42.688h-42.688zM42.688 426.688h42.688v42.688H42.688z" fill="#F9C151" p-id="670"></path><path d="M85.312 426.688H128v42.688h-42.688zM128 426.688h42.688v42.688H128zM170.688 426.688h42.688v42.688h-42.688z" fill="#F9C151" p-id="671"></path><path d="M213.312 426.688H256v42.688h-42.688zM256 426.688h42.688v42.688H256zM298.688 426.688h42.688v42.688h-42.688z" fill="#F9C151" p-id="672"></path><path d="M341.312 426.688H384v42.688h-42.688zM384 426.688h42.688v42.688H384zM42.688 469.312h42.688V512H42.688zM213.312 469.312H256V512h-42.688z" fill="#F9C151" p-id="673"></path><path d="M298.688 469.312h42.688V512h-42.688zM384 469.312h42.688V512H384zM426.688 469.312h42.688V512h-42.688zM42.688 512h42.688v42.688H42.688zM213.312 512H256v42.688h-42.688zM298.688 512h42.688v42.688h-42.688zM384 512h42.688v42.688H384zM426.688 512h42.688v42.688h-42.688zM42.688 554.688h42.688v42.688H42.688zM128 554.688h42.688v42.688H128zM213.312 554.688H256v42.688h-42.688zM298.688 554.688h42.688v42.688h-42.688zM384 554.688h42.688v42.688H384zM426.688 554.688h42.688v42.688h-42.688z" fill="#F9C151" p-id="674"></path><path d="M42.688 597.312h42.688V640H42.688zM128 597.312h42.688V640H128zM213.312 597.312H256V640h-42.688zM298.688 597.312h42.688V640h-42.688zM426.688 597.312h42.688V640h-42.688zM512 554.688h42.688v42.688H512z" fill="#F9C151" p-id="675"></path><path d="M512 597.312h42.688V640H512zM42.688 640h42.688v42.688H42.688z" fill="#F9C151" p-id="676"></path><path d="M85.312 640H128v42.688h-42.688zM128 640h42.688v42.688H128zM170.688 640h42.688v42.688h-42.688z" fill="#F9C151" p-id="677"></path><path d="M213.312 640H256v42.688h-42.688zM256 640h42.688v42.688H256zM298.688 640h42.688v42.688h-42.688z" fill="#F9C151" p-id="678"></path><path d="M341.312 640H384v42.688h-42.688zM384 640h42.688v42.688H384z" fill="#F9C151" p-id="679"></path><path d="M426.688 640h42.688v42.688h-42.688z" fill="#F18D00" p-id="680"></path><path d="M469.312 640H512v42.688h-42.688zM512 640h42.688v42.688H512zM554.688 640h42.688v42.688h-42.688z" fill="#F9C151" p-id="681"></path><path d="M597.312 640H640v42.688h-42.688zM42.688 682.688h42.688v42.688H42.688z" fill="#F9C151" p-id="682"></path><path d="M85.312 682.688H128v42.688h-42.688zM128 682.688h42.688v42.688H128zM170.688 682.688h42.688v42.688h-42.688z" fill="#F9C151" p-id="683"></path><path d="M213.312 682.688H256v42.688h-42.688zM256 682.688h42.688v42.688H256zM298.688 682.688h42.688v42.688h-42.688z" fill="#F9C151" p-id="684"></path><path d="M341.312 682.688H384v42.688h-42.688zM384 682.688h42.688v42.688H384zM426.688 682.688h42.688v42.688h-42.688z" fill="#F9C151" p-id="685"></path><path d="M469.312 682.688H512v42.688h-42.688zM512 682.688h42.688v42.688H512zM554.688 682.688h42.688v42.688h-42.688z" fill="#F9C151" p-id="686"></path><path d="M597.312 682.688H640v42.688h-42.688zM42.688 725.312h42.688V768H42.688z" fill="#F9C151" p-id="687"></path><path d="M85.312 725.312H128V768h-42.688zM128 725.312h42.688V768H128zM170.688 725.312h42.688V768h-42.688zM341.312 725.312H384V768h-42.688zM384 725.312h42.688V768H384zM426.688 725.312h42.688V768h-42.688z" fill="#F9C151" p-id="688"></path><path d="M469.312 725.312H512V768h-42.688zM42.688 768h42.688v42.688H42.688z" fill="#F9C151" p-id="689"></path><path d="M85.312 768H128v42.688h-42.688zM128 768h42.688v42.688H128zM384 768h42.688v42.688H384zM426.688 768h42.688v42.688h-42.688z" fill="#F9C151" p-id="690"></path><path d="M469.312 768H512v42.688h-42.688zM512 725.312h42.688V768H512zM512 768h42.688v42.688H512zM42.688 810.688h42.688v42.688H42.688zM554.688 725.312h42.688V768h-42.688zM426.688 810.688h42.688v42.688h-42.688z" fill="#F9C151" p-id="691"></path><path d="M469.312 810.688H512v42.688h-42.688zM213.312 768H256v42.688h-42.688zM256 768h42.688v42.688H256zM298.688 768h42.688v42.688h-42.688zM170.688 810.688h42.688v42.688h-42.688z" fill="#F9C151" p-id="692"></path><path d="M213.312 810.688H256v42.688h-42.688zM256 810.688h42.688v42.688H256zM298.688 810.688h42.688v42.688h-42.688z" fill="#F9C151" p-id="693"></path><path d="M341.312 810.688H384v42.688h-42.688z" fill="#F18D00" p-id="694"></path><path d="M597.312 768H640v42.688h-42.688zM554.688 810.688h42.688v42.688h-42.688z" fill="#F9C151" p-id="695"></path><path d="M597.312 810.688H640v42.688h-42.688zM85.312 853.312H128V896h-42.688zM128 853.312h42.688V896H128zM170.688 853.312h42.688V896h-42.688z" fill="#F9C151" p-id="696"></path><path d="M213.312 853.312H256V896h-42.688zM256 853.312h42.688V896H256zM298.688 853.312h42.688V896h-42.688z" fill="#F9C151" p-id="697"></path><path d="M341.312 853.312H384V896h-42.688zM384 853.312h42.688V896H384zM512 853.312h42.688V896H512zM554.688 853.312h42.688V896h-42.688z" fill="#F9C151" p-id="698"></path><path d="M597.312 853.312H640V896h-42.688zM42.688 896h42.688v42.688H42.688z" fill="#F9C151" p-id="699"></path><path d="M85.312 896H128v42.688h-42.688z" fill="#F9C151" p-id="700"></path><path d="M128 896h42.688v42.688H128z" fill="#F18D00" p-id="701"></path><path d="M170.688 896h42.688v42.688h-42.688z" fill="#F9C151" p-id="702"></path><path d="M213.312 896H256v42.688h-42.688zM256 896h42.688v42.688H256zM298.688 896h42.688v42.688h-42.688z" fill="#F9C151" p-id="703"></path><path d="M341.312 896H384v42.688h-42.688zM384 896h42.688v42.688H384zM426.688 896h42.688v42.688h-42.688z" fill="#F9C151" p-id="704"></path><path d="M469.312 896H512v42.688h-42.688zM42.688 938.688h42.688v42.688H42.688z" fill="#F9C151" p-id="705"></path><path d="M85.312 938.688H128v42.688h-42.688zM128 938.688h42.688v42.688H128zM170.688 938.688h42.688v42.688h-42.688z" fill="#F9C151" p-id="706"></path><path d="M213.312 938.688H256v42.688h-42.688zM256 938.688h42.688v42.688H256zM298.688 938.688h42.688v42.688h-42.688z" fill="#F9C151" p-id="707"></path><path d="M341.312 938.688H384v42.688h-42.688zM384 938.688h42.688v42.688H384zM426.688 938.688h42.688v42.688h-42.688z" fill="#F9C151" p-id="708"></path><path d="M469.312 938.688H512v42.688h-42.688zM512 896h42.688v42.688H512zM512 938.688h42.688v42.688H512zM554.688 896h42.688v42.688h-42.688zM554.688 938.688h42.688v42.688h-42.688z" fill="#F9C151" p-id="709"></path><path d="M597.312 896H640v42.688h-42.688zM597.312 938.688H640v42.688h-42.688zM682.688 853.312h42.688V896h-42.688zM682.688 896h42.688v42.688h-42.688zM682.688 938.688h42.688v42.688h-42.688z" fill="#F9C151" p-id="710"></path><path d="M682.688 810.688h42.688v42.688h-42.688z" fill="#F9C151" p-id="711"></path><path d="M725.312 853.312H768V896h-42.688zM725.312 896H768v42.688h-42.688zM725.312 938.688H768v42.688h-42.688zM768 896h42.688v42.688H768zM768 938.688h42.688v42.688H768zM810.688 896h42.688v42.688h-42.688zM810.688 938.688h42.688v42.688h-42.688z" fill="#F9C151" p-id="712"></path><path d="M853.312 896H896v42.688h-42.688zM853.312 938.688H896v42.688h-42.688zM896 938.688h42.688v42.688H896zM512 810.688h42.688v42.688H512zM554.688 768h42.688v42.688h-42.688zM597.312 725.312H640V768h-42.688zM682.688 768h42.688v42.688h-42.688zM725.312 810.688H768v42.688h-42.688zM42.688 853.312h42.688V896H42.688zM426.688 853.312h42.688V896h-42.688z" fill="#F9C151" p-id="713"></path><path d="M469.312 853.312H512V896h-42.688zM768 853.312h42.688V896H768zM810.688 853.312h42.688V896h-42.688zM85.312 170.688H128v42.688h-42.688z" fill="#F9C151" p-id="714"></path><path d="M85.312 213.312H128V256h-42.688zM42.688 256h42.688v42.688H42.688z" fill="#F9C151" p-id="715"></path><path d="M42.688 213.312h42.688V256H42.688z" fill="#F9C151" p-id="716"></path><path d="M42.688 170.688h42.688v42.688H42.688zM42.688 128h42.688v42.688H42.688z" fill="#F9C151" p-id="717"></path><path d="M85.312 128H128v42.688h-42.688zM42.688 341.312h42.688V384H42.688z" fill="#F9C151" p-id="718"></path><path d="M85.312 341.312H128V384h-42.688zM128 341.312h42.688V384H128zM170.688 341.312h42.688V384h-42.688z" fill="#F9C151" p-id="719"></path><path d="M213.312 341.312H256V384h-42.688zM256 341.312h42.688V384H256zM298.688 341.312h42.688V384h-42.688zM640 682.688h42.688v42.688H640z" fill="#F9C151" p-id="720"></path><path d="M640 725.312h42.688V768H640zM640 768h42.688v42.688H640zM640 810.688h42.688v42.688H640z" fill="#F9C151" p-id="721"></path><path d="M640 853.312h42.688V896H640z" fill="#F18D00" p-id="722"></path><path d="M640 896h42.688v42.688H640zM640 938.688h42.688v42.688H640zM85.312 469.312H128V512h-42.688zM128 469.312h42.688V512H128zM170.688 469.312h42.688V512h-42.688zM256 469.312h42.688V512H256z" fill="#F9C151" p-id="723"></path><path d="M341.312 469.312H384V512h-42.688z" fill="#F18D00" p-id="724"></path><path d="M85.312 512H128v42.688h-42.688zM128 512h42.688v42.688H128zM170.688 512h42.688v42.688h-42.688zM256 512h42.688v42.688H256zM341.312 512H384v42.688h-42.688zM469.312 512H512v42.688h-42.688zM85.312 554.688H128v42.688h-42.688z" fill="#F9C151" p-id="725"></path><path d="M170.688 554.688h42.688v42.688h-42.688z" fill="#F18D00" p-id="726"></path><path d="M256 554.688h42.688v42.688H256zM341.312 554.688H384v42.688h-42.688zM469.312 554.688H512v42.688h-42.688zM85.312 597.312H128V640h-42.688zM170.688 597.312h42.688V640h-42.688z" fill="#F9C151" p-id="727"></path><path d="M256 597.312h42.688V640H256zM341.312 597.312H384V640h-42.688zM384 597.312h42.688V640H384zM469.312 597.312H512V640h-42.688zM554.688 597.312h42.688V640h-42.688zM213.312 725.312H256V768h-42.688zM256 725.312h42.688V768H256zM298.688 725.312h42.688V768h-42.688zM170.688 768h42.688v42.688h-42.688zM341.312 768H384v42.688h-42.688zM85.312 810.688H128v42.688h-42.688zM128 810.688h42.688v42.688H128zM384 810.688h42.688v42.688H384z" fill="#F9C151" p-id="728"></path></svg>