<svg xmlns="http://www.w3.org/2000/svg" viewBox="0 0 1024 1024" version="1.1"><path d="M384 170.688h42.688v42.688H384zM426.688 170.688h42.688v42.688h-42.688z" fill="#F19BAD" p-id="1229"></path><path d="M469.312 170.688H512v42.688h-42.688zM298.688 213.312h42.688V256h-42.688z" fill="#F19BAD" p-id="1230"></path><path d="M341.312 213.312H384V256h-42.688zM384 213.312h42.688V256H384z" fill="#F19BAD" p-id="1231"></path><path d="M426.688 213.312h42.688V256h-42.688z" fill="#F2902F" p-id="1232"></path><path d="M469.312 213.312H512V256h-42.688zM298.688 256h42.688v42.688h-42.688z" fill="#F19BAD" p-id="1233"></path><path d="M341.312 256H384v42.688h-42.688zM384 256h42.688v42.688H384zM426.688 256h42.688v42.688h-42.688zM512 170.688h42.688v42.688H512z" fill="#F19BAD" p-id="1234"></path><path d="M512 213.312h42.688V256H512zM554.688 170.688h42.688v42.688h-42.688z" fill="#F19BAD" p-id="1235"></path><path d="M554.688 213.312h42.688V256h-42.688zM597.312 170.688H640v42.624h-42.688z" fill="#F19BAD" p-id="1236"></path><path d="M597.312 213.312H640V256h-42.688zM640 170.688h42.688v42.624H640zM469.312 42.688H512v42.688h-42.688z" fill="#F19BAD" p-id="1237"></path><path d="M426.688 85.312h42.688V128h-42.688z" fill="#F19BAD" p-id="1238"></path><path d="M469.312 85.312H512V128h-42.688zM512 85.312h42.688V128H512zM554.688 85.312h42.688V128h-42.688zM426.688 128h42.688v42.688h-42.688z" fill="#F19BAD" p-id="1239"></path><path d="M469.312 128H512v42.688h-42.688zM512 128h42.688v42.688H512z" fill="#F19BAD" p-id="1240"></path><path d="M554.688 128h42.688v42.688h-42.688z" fill="#F2902F" p-id="1241"></path><path d="M597.312 128H640v42.688h-42.688zM640 128h42.688v42.688H640z" fill="#F19BAD" p-id="1242"></path><path d="M469.312 298.688H512v42.688h-42.688zM512 298.688h42.688v42.688H512zM554.688 298.688h42.688v42.688h-42.688z" fill="#ED7F9D" p-id="1243"></path><path d="M597.312 298.688H640v42.688h-42.688zM640 256h42.688v42.688H640zM682.688 298.688h42.688v42.688h-42.688zM256 384h42.688v42.688H256z" fill="#ED7F9D" p-id="1244"></path><path d="M298.688 384h42.688v42.688h-42.688z" fill="#ED6B2C" p-id="1245"></path><path d="M341.312 384H384v42.688h-42.688zM384 384h42.688v42.688H384zM426.688 384h42.688v42.688h-42.688z" fill="#ED7F9D" p-id="1246"></path><path d="M469.312 384H512v42.688h-42.688zM256 426.688h42.688v42.688H256zM298.688 426.688h42.688v42.688h-42.688z" fill="#ED7F9D" p-id="1247"></path><path d="M341.312 426.688H384v42.688h-42.688zM384 426.688h42.688v42.688H384zM426.688 426.688h42.688v42.688h-42.688z" fill="#ED7F9D" p-id="1248"></path><path d="M469.312 426.688H512v42.688h-42.688zM298.688 469.312h42.688V512h-42.688zM384 469.312h42.688V512H384z" fill="#ED7F9D" p-id="1249"></path><path d="M426.688 469.312h42.688V512h-42.688z" fill="#ED6B2C" p-id="1250"></path><path d="M512 384h42.688v42.688H512zM512 426.688h42.688v42.688H512zM298.688 512h42.688v42.688h-42.688zM384 512h42.688v42.688H384zM554.688 384h42.688v42.688h-42.688zM554.688 426.688h42.688v42.688h-42.688z" fill="#ED7F9D" p-id="1251"></path><path d="M597.312 384H640v42.688h-42.688zM597.312 426.688H640v42.688h-42.688zM298.688 341.312h42.688V384h-42.688z" fill="#ED7F9D" p-id="1252"></path><path d="M341.312 341.312H384V384h-42.688zM384 341.312h42.688V384H384zM426.688 341.312h42.688V384h-42.688z" fill="#ED7F9D" p-id="1253"></path><path d="M469.312 341.312H512V384h-42.688zM512 341.312h42.688V384H512z" fill="#ED7F9D" p-id="1254"></path><path d="M554.688 341.312h42.688V384h-42.688z" fill="#ED6B2C" p-id="1255"></path><path d="M597.312 341.312H640V384h-42.688zM640 298.688h42.688v42.688H640z" fill="#ED7F9D" p-id="1256"></path><path d="M640 341.312h42.688V384H640zM640 384h42.688v42.688H640zM682.688 341.312h42.688V384h-42.688zM256 469.312h42.688V512H256zM341.312 469.312H384V512h-42.688zM341.312 512H384v42.688h-42.688z" fill="#ED7F9D" p-id="1257"></path><path d="M682.688 469.312h42.688V512h-42.688zM725.312 384H768v42.688h-42.688z" fill="#E95389" p-id="1258"></path><path d="M725.312 426.688H768v42.688h-42.688z" fill="#E95389" p-id="1259"></path><path d="M725.312 469.312H768V512h-42.688zM682.688 512h42.688v42.688h-42.688zM554.688 512h42.688v42.688h-42.688z" fill="#E95389" p-id="1260"></path><path d="M597.312 512H640v42.688h-42.688zM640 469.312h42.688V512H640zM640 512h42.688v42.688H640zM469.312 512H512v42.688h-42.688zM512 512h42.688v42.688H512z" fill="#E95389" p-id="1261"></path><path d="M682.688 597.312h42.688V640h-42.688zM298.688 597.312h42.688V640h-42.688zM426.688 597.312h42.688V640h-42.688zM512 597.312h42.688V640H512zM341.312 640H384v42.688h-42.688zM384 640h42.688v42.688H384z" fill="#FCCD48" p-id="1262"></path><path d="M426.688 640h42.688v42.688h-42.688z" fill="#F7B345" p-id="1263"></path><path d="M469.312 640H512v42.688h-42.688z" fill="#FCCD48" p-id="1264"></path><path d="M512 640h42.688v42.688H512z" fill="#F7B345" p-id="1265"></path><path d="M597.312 597.312H640V640h-42.688zM554.688 640h42.688v42.688h-42.688z" fill="#FCCD48" p-id="1266"></path><path d="M597.312 640H640v42.688h-42.688z" fill="#F7B345" p-id="1267"></path><path d="M341.312 682.688H384v42.688h-42.688zM384 682.688h42.688v42.688H384zM426.688 682.688h42.688v42.688h-42.688z" fill="#FCCD48" p-id="1268"></path><path d="M469.312 682.688H512v42.688h-42.688z" fill="#F7B345" p-id="1269"></path><path d="M512 682.688h42.688v42.688H512zM554.688 682.688h42.688v42.688h-42.688z" fill="#FCCD48" p-id="1270"></path><path d="M597.312 682.688H640v42.688h-42.688zM384 725.312h42.688V768H384z" fill="#FCCD48" p-id="1271"></path><path d="M426.688 725.312h42.688V768h-42.688z" fill="#F7B345" p-id="1272"></path><path d="M469.312 725.312H512V768h-42.688z" fill="#FCCD48" p-id="1273"></path><path d="M384 768h42.688v42.688H384z" fill="#F7B345" p-id="1274"></path><path d="M426.688 768h42.688v42.688h-42.688z" fill="#FCCD48" p-id="1275"></path><path d="M469.312 768H512v42.688h-42.688z" fill="#FCCD48" p-id="1276"></path><path d="M512 725.312h42.688V768H512z" fill="#F7B345" p-id="1277"></path><path d="M512 768h42.688v42.688H512zM554.688 725.312h42.688V768h-42.688z" fill="#FCCD48" p-id="1278"></path><path d="M426.688 810.688h42.688v42.688h-42.688z" fill="#F7B345" p-id="1279"></path><path d="M469.312 810.688H512v42.688h-42.688zM597.312 768H640v42.688h-42.688zM554.688 810.688h42.688v42.688h-42.688zM512 853.312h42.688V896H512z" fill="#FCCD48" p-id="1280"></path><path d="M554.688 853.312h42.688V896h-42.688zM469.312 896H512v42.688h-42.688zM469.312 938.688H512v42.688h-42.688z" fill="#FCCD48" p-id="1281"></path><path d="M512 896h42.688v42.688H512z" fill="#F7B345" p-id="1282"></path><path d="M512 938.688h42.688v42.688H512z" fill="#FCCD48" p-id="1283"></path><path d="M512 810.688h42.688v42.688H512zM554.688 768h42.688v42.688h-42.688zM597.312 725.312H640V768h-42.688z" fill="#F7B345" p-id="1284"></path><path d="M426.688 853.312h42.688V896h-42.688z" fill="#FCCD48" p-id="1285"></path><path d="M469.312 853.312H512V896h-42.688z" fill="#F7B345" p-id="1286"></path><path d="M640 597.312h42.688V640H640zM640 640h42.688v42.688H640z" fill="#FCCD48" p-id="1287"></path><path d="M640 682.688h42.688v42.688H640z" fill="#F7B345" p-id="1288"></path><path d="M341.312 597.312H384V640h-42.688z" fill="#FCCD48" p-id="1289"></path><path d="M384 597.312h42.688V640H384z" fill="#F7B345" p-id="1290"></path><path d="M469.312 597.312H512V640h-42.688z" fill="#FCCD48" p-id="1291"></path><path d="M554.688 597.312h42.688V640h-42.688z" fill="#F7B345" p-id="1292"></path><path d="M256 512h42.688v42.688H256zM554.688 469.312h42.688V512h-42.688zM256 554.688h42.688v42.688H256zM341.312 554.688H384v42.688h-42.688zM469.312 554.688H512v42.688h-42.688z" p-id="1293"></path><path d="M256 597.312h42.688V640H256zM554.688 554.688h42.688v42.688h-42.688zM341.312 768H384v42.688h-42.688zM384 810.688h42.688v42.688H384zM469.312 0H512v42.688h-42.688zM384 128h42.688v42.688H384zM256 341.312h42.688V384H256zM640 426.688h42.688v42.688H640zM640 554.688h42.688v42.688H640zM682.688 128h42.688v42.688h-42.688zM682.688 256h42.688v42.688h-42.688zM725.312 341.312H768V384h-42.688zM640 725.312h42.688V768H640zM640 768h42.688v42.688H640zM469.312 981.312H512V1024h-42.688zM512 981.312h42.688V1024H512zM469.312 469.312H512V512h-42.688zM213.312 469.312H256V512h-42.688zM512 469.312h42.688V512H512zM426.688 512h42.688v42.688h-42.688zM597.312 469.312H640V512h-42.688zM298.688 554.688h42.688v42.688h-42.688zM384 554.688h42.688v42.688H384zM426.688 554.688h42.688v42.688h-42.688zM512 554.688h42.688v42.688H512zM298.688 640h42.688v42.688h-42.688z" p-id="1294"></path><path d="M597.312 554.688H640v42.688h-42.688zM298.688 682.688h42.688v42.688h-42.688z" p-id="1295"></path><path d="M341.312 725.312H384V768h-42.688zM597.312 810.688H640v42.688h-42.688zM384 853.312h42.688V896H384z" p-id="1296"></path><path d="M597.312 853.312H640V896h-42.688zM426.688 896h42.688v42.688h-42.688zM426.688 938.688h42.688v42.688h-42.688zM554.688 896h42.688v42.688h-42.688zM554.688 938.688h42.688v42.688h-42.688zM298.688 170.688h42.688v42.688h-42.688z" p-id="1297"></path><path d="M341.312 170.688H384v42.688h-42.688zM256 213.312h42.688V256H256zM256 256h42.688v42.688H256zM469.312 256H512v42.688h-42.688zM298.688 298.688h42.688v42.688h-42.688z" p-id="1298"></path><path d="M341.312 298.688H384v42.688h-42.688zM384 298.688h42.688v42.688H384zM426.688 298.688h42.688v42.688h-42.688zM512 256h42.688v42.688H512zM554.688 256h42.688v42.688h-42.688z" p-id="1299"></path><path d="M597.312 256H640v42.688h-42.688zM640 213.312h42.688V256H640zM682.688 170.688h42.688v42.624h-42.688zM426.688 42.688h42.688v42.688h-42.688zM384 85.312h42.688V128H384zM512 42.688h42.688v42.688H512zM554.688 42.688h42.688v42.688h-42.688z" p-id="1300"></path><path d="M597.312 85.312H640V128h-42.688zM640 85.312h42.688V128H640zM725.312 298.688H768v42.688h-42.688zM682.688 384h42.688v42.688h-42.688zM682.688 426.688h42.688v42.688h-42.688zM725.312 512H768v42.688h-42.688zM768 384h42.688v42.688H768zM768 426.688h42.688v42.688H768z" p-id="1301"></path><path d="M768 469.312h42.688V512H768zM682.688 554.688h42.688v42.688h-42.688z" p-id="1302"></path><path d="M725.312 554.688H768v42.688h-42.688z" p-id="1303"></path><path d="M725.312 597.312H768V640h-42.688zM682.688 640h42.688v42.688h-42.688zM682.688 682.688h42.688v42.688h-42.688zM213.312 384H256v42.688h-42.688zM213.312 426.688H256v42.688h-42.688z" p-id="1304"></path></svg>