<svg xmlns="http://www.w3.org/2000/svg" viewBox="0 0 1024 1024" version="1.1"><path d="M725.312 170.688H768v42.624h-42.688zM768 213.312h42.688V256H768zM810.688 213.312h42.688V256h-42.688zM810.688 256h42.688v42.688h-42.688z" fill="#E60018" p-id="5770"></path><path d="M853.312 213.312H896V256h-42.688zM853.312 256H896v42.688h-42.688zM725.312 128H768v42.688h-42.688zM938.624 128h42.688v42.688h-42.688zM896 170.688h42.688v42.688H896z" fill="#E60018" p-id="5771"></path><path d="M938.624 170.688h42.688v42.688h-42.688zM768 170.688h42.688v42.688H768z" fill="#E60018" p-id="5772"></path><path d="M896 213.312h42.688V256H896z" fill="#E60018" p-id="5773"></path><path d="M768 469.312h42.688V512H768zM768 512h42.688v42.688H768z" fill="#F9B700" p-id="5774"></path><path d="M725.312 597.312H768V640h-42.688z" fill="#F39A00" p-id="5775"></path><path d="M682.688 640h42.688v42.688h-42.688z" fill="#F9B700" p-id="5776"></path><path d="M725.312 640H768v42.688h-42.688zM768 554.688h42.688v42.688H768z" fill="#F39A00" p-id="5777"></path><path d="M768 597.312h42.688V640H768zM768 640h42.688v42.688H768zM682.688 682.688h42.688v42.688h-42.688z" fill="#F9B700" p-id="5778"></path><path d="M725.312 682.688H768v42.688h-42.688z" fill="#F9B700" p-id="5779"></path><path d="M768 682.688h42.688v42.688H768z" fill="#F39A00" p-id="5780"></path><path d="M682.688 725.312h42.688V768h-42.688z" fill="#F9B700" p-id="5781"></path><path d="M725.312 725.312H768V768h-42.688zM725.312 768H768v42.688h-42.688zM768 725.312h42.688V768H768zM768 768h42.688v42.688H768zM768 810.688h42.688v42.688H768zM810.688 384h42.688v42.688h-42.688z" fill="#F9B700" p-id="5782"></path><path d="M810.688 426.688h42.688v42.688h-42.688z" fill="#F39A00" p-id="5783"></path><path d="M810.688 469.312h42.688V512h-42.688zM810.688 512h42.688v42.688h-42.688zM810.688 554.688h42.688v42.688h-42.688z" fill="#F9B700" p-id="5784"></path><path d="M810.688 597.312h42.688V640h-42.688zM810.688 640h42.688v42.688h-42.688zM810.688 682.688h42.688v42.688h-42.688z" fill="#F9B700" p-id="5785"></path><path d="M810.688 725.312h42.688V768h-42.688z" fill="#F39A00" p-id="5786"></path><path d="M810.688 768h42.688v42.688h-42.688zM853.312 384H896v42.688h-42.688zM853.312 426.688H896v42.688h-42.688z" fill="#F9B700" p-id="5787"></path><path d="M853.312 469.312H896V512h-42.688zM896 469.312h42.688V512H896z" fill="#F39A00" p-id="5788"></path><path d="M853.312 512H896v42.688h-42.688zM896 512h42.688v42.688H896zM853.312 554.688H896v42.688h-42.688z" fill="#F9B700" p-id="5789"></path><path d="M853.312 597.312H896V640h-42.688zM896 554.688h42.688v42.688H896z" fill="#F9B700" p-id="5790"></path><path d="M896 597.312h42.688V640H896zM853.312 640H896v42.688h-42.688zM896 640h42.688v42.688H896zM938.688 554.688h42.688v42.688h-42.688z" fill="#F9B700" p-id="5791"></path><path d="M938.688 597.312h42.688V640h-42.688zM853.312 682.688H896v42.688h-42.688z" fill="#F9B700" p-id="5792"></path><path d="M853.312 725.312H896V768h-42.688z" fill="#F39A00" p-id="5793"></path><path d="M85.312 384H128v42.688h-42.688zM128 384h42.688v42.688H128zM170.688 384h42.688v42.688h-42.688z" fill="#F9B700" p-id="5794"></path><path d="M213.312 384H256v42.688h-42.688zM256 384h42.688v42.688H256zM298.688 384h42.688v42.688h-42.688zM85.312 426.688H128v42.688h-42.688zM128 426.688h42.688v42.688H128zM170.688 426.688h42.688v42.688h-42.688z" fill="#F9B700" p-id="5795"></path><path d="M213.312 426.688H256v42.688h-42.688zM256 426.688h42.688v42.688H256zM298.688 426.688h42.688v42.688h-42.688z" fill="#F9B700" p-id="5796"></path><path d="M341.312 426.688H384v42.688h-42.688zM42.688 469.312h42.688V512H42.688z" fill="#F9B700" p-id="5797"></path><path d="M213.312 469.312H256V512h-42.688zM298.688 469.312h42.688V512h-42.688z" fill="#F39A00" p-id="5798"></path><path d="M42.688 512h42.688v42.688H42.688zM213.312 512H256v42.688h-42.688zM298.688 512h42.688v42.688h-42.688z" fill="#F9B700" p-id="5799"></path><path d="M384 512h42.688v42.688H384z" fill="#F39A00" p-id="5800"></path><path d="M42.688 554.688h42.688v42.688H42.688z" fill="#F9B700" p-id="5801"></path><path d="M128 554.688h42.688v42.688H128z" fill="#F39A00" p-id="5802"></path><path d="M213.312 554.688H256v42.688h-42.688zM298.688 554.688h42.688v42.688h-42.688zM384 554.688h42.688v42.688H384z" fill="#F9B700" p-id="5803"></path><path d="M128 597.312h42.688V640H128z" fill="#F39A00" p-id="5804"></path><path d="M213.312 597.312H256V640h-42.688zM298.688 597.312h42.688V640h-42.688z" fill="#F9B700" p-id="5805"></path><path d="M85.312 640H128v42.688h-42.688z" fill="#F39A00" p-id="5806"></path><path d="M128 640h42.688v42.688H128zM170.688 640h42.688v42.688h-42.688z" fill="#F9B700" p-id="5807"></path><path d="M213.312 640H256v42.688h-42.688zM256 640h42.688v42.688H256zM298.688 640h42.688v42.688h-42.688z" fill="#F9B700" p-id="5808"></path><path d="M341.312 640H384v42.688h-42.688z" fill="#F9B700" p-id="5809"></path><path d="M384 640h42.688v42.688H384zM426.688 640h42.688v42.688h-42.688z" fill="#F39A00" p-id="5810"></path><path d="M128 682.688h42.688v42.688H128zM170.688 682.688h42.688v42.688h-42.688z" fill="#F9B700" p-id="5811"></path><path d="M213.312 682.688H256v42.688h-42.688zM256 682.688h42.688v42.688H256zM298.688 682.688h42.688v42.688h-42.688z" fill="#F9B700" p-id="5812"></path><path d="M341.312 682.688H384v42.688h-42.688z" fill="#F39A00" p-id="5813"></path><path d="M384 682.688h42.688v42.688H384zM426.688 682.688h42.688v42.688h-42.688z" fill="#F9B700" p-id="5814"></path><path d="M469.312 682.688H512v42.688h-42.688zM128 725.312h42.688V768H128zM170.688 725.312h42.688V768h-42.688zM341.312 725.312H384V768h-42.688zM384 725.312h42.688V768H384z" fill="#F9B700" p-id="5815"></path><path d="M426.688 725.312h42.688V768h-42.688z" fill="#F9B700" p-id="5816"></path><path d="M469.312 725.312H512V768h-42.688zM384 768h42.688v42.688H384zM426.688 768h42.688v42.688h-42.688z" fill="#F9B700" p-id="5817"></path><path d="M469.312 768H512v42.688h-42.688zM512 725.312h42.688V768H512zM512 768h42.688v42.688H512zM554.688 725.312h42.688V768h-42.688zM426.688 810.688h42.688v42.688h-42.688z" fill="#F9B700" p-id="5818"></path><path d="M469.312 810.688H512v42.688h-42.688zM213.312 768H256v42.688h-42.688zM256 768h42.688v42.688H256z" fill="#F9B700" p-id="5819"></path><path d="M298.688 768h42.688v42.688h-42.688z" fill="#F39A00" p-id="5820"></path><path d="M213.312 810.688H256v42.688h-42.688zM256 810.688h42.688v42.688H256z" fill="#F9B700" p-id="5821"></path><path d="M298.688 810.688h42.688v42.688h-42.688z" fill="#F39A00" p-id="5822"></path><path d="M341.312 810.688H384v42.688h-42.688zM597.312 768H640v42.688h-42.688z" fill="#F9B700" p-id="5823"></path><path d="M554.688 810.688h42.688v42.688h-42.688z" fill="#F39A00" p-id="5824"></path><path d="M597.312 810.688H640v42.688h-42.688zM298.688 853.312h42.688V896h-42.688z" fill="#F9B700" p-id="5825"></path><path d="M341.312 853.312H384V896h-42.688z" fill="#F39A00" p-id="5826"></path><path d="M384 853.312h42.688V896H384zM512 853.312h42.688V896H512zM554.688 853.312h42.688V896h-42.688z" fill="#F9B700" p-id="5827"></path><path d="M597.312 853.312H640V896h-42.688z" fill="#F39A00" p-id="5828"></path><path d="M384 896h42.688v42.688H384zM426.688 896h42.688v42.688h-42.688z" fill="#F9B700" p-id="5829"></path><path d="M469.312 896H512v42.688h-42.688zM512 896h42.688v42.688H512zM554.688 896h42.688v42.688h-42.688zM682.688 853.312h42.688V896h-42.688z" fill="#F9B700" p-id="5830"></path><path d="M682.688 810.688h42.688v42.688h-42.688zM512 810.688h42.688v42.688H512z" fill="#F9B700" p-id="5831"></path><path d="M554.688 768h42.688v42.688h-42.688zM597.312 725.312H640V768h-42.688z" fill="#F39A00" p-id="5832"></path><path d="M682.688 768h42.688v42.688h-42.688zM725.312 810.688H768v42.688h-42.688zM426.688 853.312h42.688V896h-42.688z" fill="#F9B700" p-id="5833"></path><path d="M469.312 853.312H512V896h-42.688zM170.688 341.312h42.688V384h-42.688z" fill="#F9B700" p-id="5834"></path><path d="M213.312 341.312H256V384h-42.688zM640 682.688h42.688v42.688H640z" fill="#F9B700" p-id="5835"></path><path d="M640 725.312h42.688V768H640zM640 768h42.688v42.688H640zM640 810.688h42.688v42.688H640zM810.688 341.312h42.688V384h-42.688z" fill="#F9B700" p-id="5836"></path><path d="M853.312 341.312H896V384h-42.688zM640 853.312h42.688V896H640zM85.312 469.312H128V512h-42.688zM128 469.312h42.688V512H128zM170.688 469.312h42.688V512h-42.688z" fill="#F9B700" p-id="5837"></path><path d="M256 469.312h42.688V512H256z" fill="#F39A00" p-id="5838"></path><path d="M341.312 469.312H384V512h-42.688zM85.312 512H128v42.688h-42.688zM128 512h42.688v42.688H128z" fill="#F9B700" p-id="5839"></path><path d="M170.688 512h42.688v42.688h-42.688z" fill="#F39A00" p-id="5840"></path><path d="M256 512h42.688v42.688H256z" fill="#F9B700" p-id="5841"></path><path d="M341.312 512H384v42.688h-42.688z" fill="#F39A00" p-id="5842"></path><path d="M85.312 554.688H128v42.688h-42.688zM170.688 554.688h42.688v42.688h-42.688zM256 554.688h42.688v42.688H256zM341.312 554.688H384v42.688h-42.688z" fill="#F9B700" p-id="5843"></path><path d="M85.312 597.312H128V640h-42.688zM170.688 597.312h42.688V640h-42.688zM256 597.312h42.688V640H256zM341.312 597.312H384V640h-42.688zM384 597.312h42.688V640H384zM213.312 725.312H256V768h-42.688zM256 725.312h42.688V768H256z" fill="#F9B700" p-id="5844"></path><path d="M298.688 725.312h42.688V768h-42.688z" fill="#F39A00" p-id="5845"></path><path d="M170.688 768h42.688v42.688h-42.688zM341.312 768H384v42.688h-42.688zM384 810.688h42.688v42.688H384z" fill="#F9B700" p-id="5846"></path><path d="M170.688 298.688h42.688v42.688h-42.688z" p-id="5847"></path><path d="M213.312 298.688H256v42.688h-42.688zM682.688 170.688h42.688v42.624h-42.688zM725.312 85.312H768V128h-42.688zM768 256h42.688v42.688H768zM810.688 170.688h42.688v42.688h-42.688zM810.688 298.688h42.688v42.688h-42.688z" p-id="5848"></path><path d="M853.312 298.688H896v42.688h-42.688zM896 256h42.688v42.688H896zM725.312 469.312H768V512h-42.688zM725.312 512H768v42.688h-42.688zM768 384h42.688v42.688H768zM768 426.688h42.688v42.688H768zM682.688 597.312h42.688V640h-42.688z" p-id="5849"></path><path d="M725.312 554.688H768v42.688h-42.688zM810.688 810.688h42.688v42.688h-42.688zM896 384h42.688v42.688H896zM896 426.688h42.688v42.688H896zM938.688 469.312h42.688V512h-42.688zM938.688 512h42.688v42.688h-42.688zM938.688 640h42.688v42.688h-42.688zM896 682.688h42.688v42.688H896zM853.312 768H896v42.688h-42.688z" p-id="5850"></path><path d="M896 725.312h42.688V768H896zM42.688 384h42.688v42.688H42.688zM341.312 384H384v42.688h-42.688zM42.688 426.688h42.688v42.688H42.688zM384 426.688h42.688v42.688H384z" p-id="5851"></path><path d="M384 469.312h42.688V512H384zM426.688 512h42.688v42.688h-42.688zM426.688 554.688h42.688v42.688h-42.688zM42.688 597.312h42.688V640H42.688z" p-id="5852"></path><path d="M426.688 597.312h42.688V640h-42.688zM42.688 640h42.688v42.688H42.688zM469.312 640H512v42.688h-42.688zM85.312 682.688H128v42.688h-42.688zM512 682.688h42.688v42.688H512zM554.688 682.688h42.688v42.688h-42.688z" p-id="5853"></path><path d="M597.312 682.688H640v42.688h-42.688zM85.312 725.312H128V768h-42.688zM128 768h42.688v42.688H128zM170.688 810.688h42.688v42.688h-42.688z" p-id="5854"></path><path d="M213.312 853.312H256V896h-42.688zM256 853.312h42.688V896H256zM298.688 896h42.688v42.688h-42.688z" p-id="5855"></path><path d="M341.312 896H384v42.688h-42.688zM384 938.688h42.688v42.688H384zM426.688 938.688h42.688v42.688h-42.688z" p-id="5856"></path><path d="M469.312 938.688H512v42.688h-42.688zM512 938.688h42.688v42.688H512zM554.688 938.688h42.688v42.688h-42.688zM597.312 896H640v42.688h-42.688zM682.688 896h42.688v42.688h-42.688zM725.312 853.312H768V896h-42.688zM768 853.312h42.688V896H768zM85.312 341.312H128V384h-42.688zM128 341.312h42.688V384H128zM256 341.312h42.688V384H256zM298.688 341.312h42.688V384h-42.688zM0 469.312h42.688V512H0zM0 512h42.688v42.688H0zM0 554.688h42.688v42.688H0zM640 640h42.688v42.688H640zM682.688 128h42.688v42.688h-42.688zM725.312 213.312H768V256h-42.688zM938.624 85.312h42.688V128h-42.688zM896 128h42.688v42.688H896zM981.312 128H1024v42.688h-42.688zM981.312 170.688H1024v42.688h-42.688zM938.624 213.312h42.688V256h-42.688zM768 128h42.688v42.688H768zM768 341.312h42.688V384H768zM853.312 170.688H896v42.688h-42.688zM896 341.312h42.688V384H896zM981.312 554.688H1024v42.688h-42.688z" p-id="5857"></path><path d="M981.312 597.312H1024V640h-42.688zM640 896h42.688v42.688H640z" p-id="5858"></path></svg>