<svg xmlns="http://www.w3.org/2000/svg" viewBox="0 0 1024 1024" version="1.1"><path d="M597.312 938.688H640v42.688h-42.688z" fill="#F6B793" p-id="4098"></path><path d="M682.688 384h42.688v42.688h-42.688z" fill="#C2E5F3" p-id="4099"></path><path d="M725.312 384H768v42.688h-42.688zM768 384h42.688v42.688H768zM810.688 384h42.688v42.688h-42.688zM170.688 384h42.688v42.688h-42.688z" fill="#C2E5F3" p-id="4100"></path><path d="M213.312 384H256v42.688h-42.688zM256 384h42.688v42.688H256zM298.688 384h42.688v42.688h-42.688z" fill="#C2E5F3" p-id="4101"></path><path d="M341.312 384H384v42.688h-42.688zM384 384h42.688v42.688H384zM426.688 384h42.688v42.688h-42.688z" fill="#C2E5F3" p-id="4102"></path><path d="M469.312 384H512v42.688h-42.688zM512 384h42.688v42.688H512zM554.688 384h42.688v42.688h-42.688z" fill="#C2E5F3" p-id="4103"></path><path d="M597.312 384H640v42.688h-42.688zM640 384h42.688v42.688H640z" fill="#C2E5F3" p-id="4104"></path><path d="M341.312 170.688H384v42.688h-42.688zM384 170.688h42.688v42.688H384z" fill="#FFFFFF" p-id="4105"></path><path d="M298.688 213.312h42.688V256h-42.688zM298.688 256h42.688v42.688h-42.688zM426.688 128h42.688v42.688h-42.688z" fill="#FFFFFF" p-id="4106"></path><path d="M298.688 170.688h42.688v42.688h-42.688zM426.688 170.688h42.688v42.688h-42.688z" fill="#E9F5F8" p-id="4107"></path><path d="M469.312 170.688H512v42.688h-42.688zM256 213.312h42.688V256H256zM341.312 213.312H384V256h-42.688zM384 213.312h42.688V256H384z" fill="#E9F5F8" p-id="4108"></path><path d="M426.688 213.312h42.688V256h-42.688z" fill="#E9F5F8" p-id="4109"></path><path d="M469.312 213.312H512V256h-42.688zM256 256h42.688v42.688H256zM341.312 256H384v42.688h-42.688zM384 256h42.688v42.688H384zM426.688 256h42.688v42.688h-42.688z" fill="#E9F5F8" p-id="4110"></path><path d="M469.312 256H512v42.688h-42.688zM256 298.688h42.688v42.688H256zM298.688 298.688h42.688v42.688h-42.688z" fill="#E9F5F8" p-id="4111"></path><path d="M341.312 298.688H384v42.688h-42.688zM384 298.688h42.688v42.688H384zM426.688 298.688h42.688v42.688h-42.688z" fill="#E9F5F8" p-id="4112"></path><path d="M469.312 298.688H512v42.688h-42.688zM512 170.688h42.688v42.688H512z" fill="#E9F5F8" p-id="4113"></path><path d="M512 213.312h42.688V256H512zM512 256h42.688v42.688H512zM512 298.688h42.688v42.688H512zM554.688 170.688h42.688v42.688h-42.688z" fill="#E9F5F8" p-id="4114"></path><path d="M554.688 213.312h42.688V256h-42.688zM554.688 256h42.688v42.688h-42.688zM554.688 298.688h42.688v42.688h-42.688zM597.312 170.688H640v42.624h-42.688z" fill="#E9F5F8" p-id="4115"></path><path d="M597.312 213.312H640V256h-42.688zM640 256h42.688v42.688H640zM682.688 213.312h42.624V256h-42.624zM682.688 170.688h42.688v42.624h-42.688zM426.688 85.312h42.688V128h-42.688z" fill="#E9F5F8" p-id="4116"></path><path d="M469.312 85.312H512V128h-42.688zM512 85.312h42.688V128H512zM554.688 85.312h42.688V128h-42.688zM682.688 298.688h42.688v42.688h-42.688zM725.312 256H768v42.688h-42.688z" fill="#E9F5F8" p-id="4117"></path><path d="M725.312 298.688H768v42.688h-42.688zM341.312 128H384v42.688h-42.688zM384 128h42.688v42.688H384zM469.312 128H512v42.688h-42.688zM512 128h42.688v42.688H512zM554.688 128h42.688v42.688h-42.688z" fill="#E9F5F8" p-id="4118"></path><path d="M597.312 128H640v42.688h-42.688zM640 298.688h42.688v42.688H640zM682.688 256h42.688v42.688h-42.688zM725.312 213.312H768V256h-42.688z" fill="#E9F5F8" p-id="4119"></path><path d="M682.688 469.312h42.688V512h-42.688z" fill="#F6B793" p-id="4120"></path><path d="M725.312 469.312H768V512h-42.688zM682.688 512h42.688v42.688h-42.688z" fill="#F6B793" p-id="4121"></path><path d="M725.312 512H768v42.688h-42.688zM682.688 554.688h42.688v42.688h-42.688z" fill="#F6B793" p-id="4122"></path><path d="M682.688 597.312h42.688V640h-42.688z" fill="#F6B793" p-id="4123"></path><path d="M725.312 554.688H768v42.688h-42.688zM682.688 640h42.688v42.688h-42.688zM682.688 682.688h42.688v42.688h-42.688z" fill="#F6B793" p-id="4124"></path><path d="M682.688 725.312h42.688V768h-42.688zM682.688 853.312h42.688V896h-42.688zM682.688 896h42.688v42.688h-42.688z" fill="#F6B793" p-id="4125"></path><path d="M682.688 810.688h42.688v42.688h-42.688zM682.688 768h42.688v42.688h-42.688z" fill="#F6B793" p-id="4126"></path><path d="M640 469.312h42.688V512H640zM640 512h42.688v42.688H640zM640 554.688h42.688v42.688H640z" fill="#FBD7B7" p-id="4127"></path><path d="M640 597.312h42.688V640H640zM640 640h42.688v42.688H640zM640 682.688h42.688v42.688H640z" fill="#F6B793" p-id="4128"></path><path d="M640 725.312h42.688V768H640zM640 768h42.688v42.688H640z" fill="#F6B793" p-id="4129"></path><path d="M640 810.688h42.688v42.688H640z" fill="#7F5437" p-id="4130"></path><path d="M640 853.312h42.688V896H640zM640 938.688h42.688v42.688H640z" fill="#F6B793" p-id="4131"></path><path d="M298.688 469.312h42.688V512h-42.688zM384 469.312h42.688V512H384zM426.688 469.312h42.688V512h-42.688zM512 469.312h42.688V512H512z" fill="#FBD7B7" p-id="4132"></path><path d="M298.688 512h42.688v42.688h-42.688z" fill="#FFFFFF" p-id="4133"></path><path d="M384 512h42.688v42.688H384zM426.688 512h42.688v42.688h-42.688zM554.688 512h42.688v42.688h-42.688z" fill="#FBD7B7" p-id="4134"></path><path d="M298.688 554.688h42.688v42.688h-42.688z" fill="#FFFFFF" p-id="4135"></path><path d="M384 554.688h42.688v42.688H384zM426.688 554.688h42.688v42.688h-42.688zM298.688 597.312h42.688V640h-42.688z" fill="#FBD7B7" p-id="4136"></path><path d="M426.688 597.312h42.688V640h-42.688zM512 554.688h42.688v42.688H512z" fill="#FBD7B7" p-id="4137"></path><path d="M512 597.312h42.688V640H512zM298.688 640h42.688v42.688h-42.688z" fill="#FBD7B7" p-id="4138"></path><path d="M341.312 640H384v42.688h-42.688z" fill="#FFFFFF" p-id="4139"></path><path d="M384 640h42.688v42.688H384zM426.688 640h42.688v42.688h-42.688z" fill="#FBD7B7" p-id="4140"></path><path d="M469.312 640H512v42.688h-42.688zM512 640h42.688v42.688H512zM597.312 640H640v42.688h-42.688zM298.688 682.688h42.688v42.688h-42.688z" fill="#FBD7B7" p-id="4141"></path><path d="M341.312 682.688H384v42.688h-42.688z" fill="#FFFFFF" p-id="4142"></path><path d="M384 682.688h42.688v42.688H384zM426.688 682.688h42.688v42.688h-42.688z" fill="#FBD7B7" p-id="4143"></path><path d="M469.312 682.688H512v42.688h-42.688zM512 682.688h42.688v42.688H512zM597.312 682.688H640v42.688h-42.688z" fill="#FBD7B7" p-id="4144"></path><path d="M341.312 725.312H384V768h-42.688z" fill="#FFFFFF" p-id="4145"></path><path d="M384 725.312h42.688V768H384zM426.688 725.312h42.688V768h-42.688z" fill="#FBD7B7" p-id="4146"></path><path d="M469.312 725.312H512V768h-42.688zM384 768h42.688v42.688H384z" fill="#FBD7B7" p-id="4147"></path><path d="M426.688 768h42.688v42.688h-42.688z" fill="#7F5437" p-id="4148"></path><path d="M469.312 768H512v42.688h-42.688zM512 725.312h42.688V768H512zM512 768h42.688v42.688H512zM469.312 810.688H512v42.688h-42.688zM298.688 768h42.688v42.688h-42.688zM298.688 810.688h42.688v42.688h-42.688zM597.312 768H640v42.688h-42.688zM554.688 810.688h42.688v42.688h-42.688z" fill="#FBD7B7" p-id="4149"></path><path d="M298.688 853.312h42.688V896h-42.688z" fill="#FBD7B7" p-id="4150"></path><path d="M341.312 853.312H384V896h-42.688zM384 853.312h42.688V896H384zM512 853.312h42.688V896H512zM554.688 853.312h42.688V896h-42.688z" fill="#FBD7B7" p-id="4151"></path><path d="M597.312 853.312H640V896h-42.688zM298.688 896h42.688v42.688h-42.688z" fill="#FBD7B7" p-id="4152"></path><path d="M341.312 896H384v42.688h-42.688zM426.688 896h42.688v42.688h-42.688z" fill="#FBD7B7" p-id="4153"></path><path d="M341.312 938.688H384v42.688h-42.688zM384 938.688h42.688v42.688H384zM426.688 938.688h42.688v42.688h-42.688z" fill="#F6B793" p-id="4154"></path><path d="M469.312 938.688H512v42.688h-42.688z" fill="#F6B793" p-id="4155"></path><path d="M512 896h42.688v42.688H512z" fill="#FBD7B7" p-id="4156"></path><path d="M512 938.688h42.688v42.688H512zM554.688 938.688h42.688v42.688h-42.688z" fill="#F6B793" p-id="4157"></path><path d="M597.312 896H640v42.688h-42.688z" fill="#FBD7B7" p-id="4158"></path><path d="M554.688 768h42.688v42.688h-42.688z" fill="#221714" p-id="4159"></path><path d="M597.312 725.312H640V768h-42.688zM426.688 853.312h42.688V896h-42.688z" fill="#FBD7B7" p-id="4160"></path><path d="M469.312 853.312H512V896h-42.688z" fill="#7F5437" p-id="4161"></path><path d="M256 469.312h42.688V512H256zM341.312 469.312H384V512h-42.688zM469.312 469.312H512V512h-42.688zM256 512h42.688v42.688H256zM341.312 512H384v42.688h-42.688zM469.312 512H512v42.688h-42.688zM512 512h42.688v42.688H512zM554.688 469.312h42.688V512h-42.688zM256 554.688h42.688v42.688H256zM341.312 554.688H384v42.688h-42.688zM469.312 554.688H512v42.688h-42.688z" fill="#FBD7B7" p-id="4162"></path><path d="M341.312 597.312H384V640h-42.688z" fill="#FFFFFF" p-id="4163"></path><path d="M384 597.312h42.688V640H384zM469.312 597.312H512V640h-42.688zM554.688 554.688h42.688v42.688h-42.688z" fill="#FBD7B7" p-id="4164"></path><path d="M554.688 597.312h42.688V640h-42.688zM298.688 725.312h42.688V768h-42.688zM341.312 768H384v42.688h-42.688zM384 810.688h42.688v42.688H384z" fill="#FBD7B7" p-id="4165"></path><path d="M256 170.688h42.688v42.688H256zM213.312 213.312H256V256h-42.688zM213.312 256H256v42.688h-42.688zM213.312 298.688H256v42.688h-42.688zM597.312 256H640v42.688h-42.688zM597.312 298.688H640v42.688h-42.688zM640 213.312h42.688V256H640zM640 170.688h42.688v42.624H640zM725.312 170.688H768v42.624h-42.688zM426.688 42.688h42.688v42.688h-42.688z" fill="#221714" p-id="4166"></path><path d="M469.312 42.688H512v42.688h-42.688zM341.312 85.312H384V128h-42.688zM384 85.312h42.688V128H384zM512 42.688h42.688v42.688H512zM554.688 42.688h42.688v42.688h-42.688z" fill="#221714" p-id="4167"></path><path d="M597.312 85.312H640V128h-42.688zM640 42.688h42.688v42.688H640z" fill="#221714" p-id="4168"></path><path d="M640 85.312h42.688V128H640zM768 213.312h42.688V256H768zM768 256h42.688v42.688H768zM768 298.688h42.688v42.688H768zM682.688 426.688h42.688v42.688h-42.688z" fill="#221714" p-id="4169"></path><path d="M725.312 426.688H768v42.688h-42.688zM768 426.688h42.688v42.688H768z" fill="#221714" p-id="4170"></path><path d="M768 469.312h42.688V512H768zM768 512h42.688v42.688H768zM725.312 597.312H768V640h-42.688zM725.312 640H768v42.688h-42.688zM768 554.688h42.688v42.688H768zM725.312 682.688H768v42.688h-42.688z" fill="#221714" p-id="4171"></path><path d="M725.312 725.312H768V768h-42.688zM725.312 768H768v42.688h-42.688zM810.688 426.688h42.688v42.688h-42.688zM853.312 384H896v42.688h-42.688zM128 384h42.688v42.688H128zM170.688 426.688h42.688v42.688h-42.688z" fill="#221714" p-id="4172"></path><path d="M213.312 426.688H256v42.688h-42.688zM256 426.688h42.688v42.688H256zM298.688 426.688h42.688v42.688h-42.688z" fill="#221714" p-id="4173"></path><path d="M341.312 426.688H384v42.688h-42.688zM384 426.688h42.688v42.688H384zM426.688 426.688h42.688v42.688h-42.688z" fill="#221714" p-id="4174"></path><path d="M469.312 426.688H512v42.688h-42.688zM213.312 469.312H256V512h-42.688zM512 426.688h42.688v42.688H512zM213.312 512H256v42.688h-42.688zM554.688 426.688h42.688v42.688h-42.688z" fill="#221714" p-id="4175"></path><path d="M597.312 426.688H640v42.688h-42.688z" fill="#221714" p-id="4176"></path><path d="M597.312 469.312H640V512h-42.688zM597.312 512H640v42.688h-42.688zM213.312 554.688H256v42.688h-42.688zM256 640h42.688v42.688H256zM597.312 554.688H640v42.688h-42.688z" fill="#221714" p-id="4177"></path><path d="M597.312 597.312H640V640h-42.688zM554.688 640h42.688v42.688h-42.688zM256 682.688h42.688v42.688H256zM554.688 682.688h42.688v42.688h-42.688z" fill="#221714" p-id="4178"></path><path d="M554.688 725.312h42.688V768h-42.688z" fill="#221714" p-id="4179"></path><path d="M426.688 810.688h42.688v42.688h-42.688z" fill="#FBD7B7" p-id="4180"></path><path d="M256 768h42.688v42.688H256zM256 810.688h42.688v42.688H256z" fill="#221714" p-id="4181"></path><path d="M341.312 810.688H384v42.688h-42.688z" fill="#7F5437" p-id="4182"></path><path d="M256 896h42.688v42.688H256z" fill="#221714" p-id="4183"></path><path d="M384 896h42.688v42.688H384z" fill="#7F5437" p-id="4184"></path><path d="M469.312 896H512v42.688h-42.688z" fill="#FBD7B7" p-id="4185"></path><path d="M298.688 938.688h42.688v42.688h-42.688z" fill="#221714" p-id="4186"></path><path d="M554.688 896h42.688v42.688h-42.688z" fill="#7F5437" p-id="4187"></path><path d="M682.688 938.688h42.688v42.688h-42.688zM725.312 853.312H768V896h-42.688zM725.312 896H768v42.688h-42.688z" fill="#221714" p-id="4188"></path><path d="M512 810.688h42.688v42.688H512z" fill="#FBD7B7" p-id="4189"></path><path d="M725.312 810.688H768v42.688h-42.688zM298.688 128h42.688v42.688h-42.688zM170.688 341.312h42.688V384h-42.688z" fill="#221714" p-id="4190"></path><path d="M213.312 341.312H256V384h-42.688zM256 341.312h42.688V384H256zM298.688 341.312h42.688V384h-42.688z" fill="#221714" p-id="4191"></path><path d="M341.312 341.312H384V384h-42.688zM384 341.312h42.688V384H384zM426.688 341.312h42.688V384h-42.688z" fill="#221714" p-id="4192"></path><path d="M469.312 341.312H512V384h-42.688zM512 341.312h42.688V384H512zM554.688 341.312h42.688V384h-42.688z" fill="#221714" p-id="4193"></path><path d="M597.312 341.312H640V384h-42.688zM640 128h42.688v42.688H640zM640 341.312h42.688V384H640zM640 426.688h42.688v42.688H640zM682.688 0h42.688v42.688h-42.688zM682.688 128h42.688v42.688h-42.688zM682.688 341.312h42.688V384h-42.688z" fill="#221714" p-id="4194"></path><path d="M725.312 0H768v42.688h-42.688zM725.312 341.312H768V384h-42.688zM768 0h42.688v42.688H768zM768 341.312h42.688V384H768zM810.688 341.312h42.688V384h-42.688zM298.688 981.312h42.688V1024h-42.688z" fill="#221714" p-id="4195"></path><path d="M341.312 981.312H384V1024h-42.688zM384 981.312h42.688V1024H384zM426.688 981.312h42.688V1024h-42.688z" fill="#221714" p-id="4196"></path><path d="M469.312 981.312H512V1024h-42.688zM512 981.312h42.688V1024H512zM554.688 981.312h42.688V1024h-42.688z" fill="#221714" p-id="4197"></path><path d="M597.312 981.312H640V1024h-42.688z" fill="#221714" p-id="4198"></path><path d="M640 896h42.688v42.688H640z" fill="#7F5437" p-id="4199"></path><path d="M640 981.312h42.688V1024H640zM682.688 981.312h42.688V1024h-42.688zM256 597.312h42.688V640H256zM256 725.312h42.688V768H256z" fill="#221714" p-id="4200"></path><path d="M597.312 810.688H640v42.688h-42.688z" fill="#FBD7B7" p-id="4201"></path><path d="M256 853.312h42.688V896H256z" fill="#221714" p-id="4202"></path></svg>