<svg xmlns="http://www.w3.org/2000/svg" viewBox="0 0 1024 1024" version="1.1"><path d="M682.688 426.688h42.688v42.688h-42.688z" fill="#632525" p-id="5021"></path><path d="M682.688 469.312h42.688V512h-42.688zM469.312 170.688H512v42.688h-42.688zM341.312 213.312H384V256h-42.688zM384 213.312h42.688V256H384z" fill="#632525" p-id="5022"></path><path d="M426.688 213.312h42.688V256h-42.688z" fill="#632525" p-id="5023"></path><path d="M469.312 213.312H512V256h-42.688zM469.312 256H512v42.688h-42.688zM469.312 298.688H512v42.688h-42.688zM554.688 213.312h42.688V256h-42.688z" fill="#632525" p-id="5024"></path><path d="M597.312 213.312H640V256h-42.688zM640 213.312h42.688V256H640zM682.688 213.312h42.624V256h-42.624zM682.688 170.688h42.688v42.624h-42.688zM469.312 85.312H512V128h-42.688zM682.688 85.312h42.688V128h-42.688zM682.688 298.688h42.688v42.688h-42.688zM682.688 384h42.688v42.688h-42.688zM426.688 384h42.688v42.688h-42.688z" fill="#632525" p-id="5025"></path><path d="M469.312 384H512v42.688h-42.688zM554.688 384h42.688v42.688h-42.688z" fill="#632525" p-id="5026"></path><path d="M597.312 384H640v42.688h-42.688zM469.312 128H512v42.688h-42.688zM469.312 341.312H512V384h-42.688zM640 384h42.688v42.688H640zM682.688 128h42.688v42.688h-42.688zM682.688 256h42.688v42.688h-42.688zM682.688 341.312h42.688V384h-42.688zM682.688 554.688h42.688v42.688h-42.688z" fill="#632525" p-id="5027"></path><path d="M298.688 426.688h42.688v42.688h-42.688z" fill="#812320" p-id="5028"></path><path d="M341.312 426.688H384v42.688h-42.688zM384 426.688h42.688v42.688H384z" fill="#DD6E50" p-id="5029"></path><path d="M384 469.312h42.688V512H384z" p-id="5030"></path><path d="M426.688 469.312h42.688V512h-42.688z" fill="#BB4A2A" p-id="5031"></path><path d="M512 469.312h42.688V512H512z" fill="#812320" p-id="5032"></path><path d="M384 512h42.688v42.688H384z" fill="#ECB147" p-id="5033"></path><path d="M426.688 512h42.688v42.688h-42.688z" p-id="5034"></path><path d="M554.688 512h42.688v42.688h-42.688z" fill="#BB4A2A" p-id="5035"></path><path d="M597.312 512H640v42.688h-42.688z" fill="#BB4A2A" p-id="5036"></path><path d="M384 554.688h42.688v42.688H384zM426.688 554.688h42.688v42.688h-42.688zM512 554.688h42.688v42.688H512z" fill="#ECB147" p-id="5037"></path><path d="M512 597.312h42.688V640H512zM469.312 640H512v42.688h-42.688zM512 640h42.688v42.688H512z" fill="#ECB147" p-id="5038"></path><path d="M597.312 554.688H640v42.688h-42.688z" p-id="5039"></path><path d="M597.312 597.312H640V640h-42.688zM554.688 640h42.688v42.688h-42.688zM512 682.688h42.688v42.688H512z" fill="#ECB147" p-id="5040"></path><path d="M640 512h42.688v42.688H640z" fill="#BB4A2A" p-id="5041"></path><path d="M640 554.688h42.688v42.688H640z" p-id="5042"></path><path d="M640 597.312h42.688V640H640z" fill="#ECB147" p-id="5043"></path><path d="M341.312 469.312H384V512h-42.688z" p-id="5044"></path><path d="M469.312 469.312H512V512h-42.688z" fill="#632525" p-id="5045"></path><path d="M341.312 512H384v42.688h-42.688z" fill="#ECB147" p-id="5046"></path><path d="M469.312 512H512v42.688h-42.688zM512 512h42.688v42.688H512z" p-id="5047"></path><path d="M469.312 554.688H512v42.688h-42.688z" fill="#ECB147" p-id="5048"></path><path d="M469.312 597.312H512V640h-42.688z" fill="#ECB147" p-id="5049"></path><path d="M554.688 554.688h42.688v42.688h-42.688z" p-id="5050"></path><path d="M554.688 597.312h42.688V640h-42.688z" fill="#ECB147" p-id="5051"></path><path d="M298.688 170.688h42.688v42.688h-42.688z" fill="#812320" p-id="5052"></path><path d="M298.688 213.312h42.688V256h-42.688zM298.688 256h42.688v42.688h-42.688zM298.688 298.688h42.688v42.688h-42.688zM512 170.688h42.688v42.688H512z" fill="#812320" p-id="5053"></path><path d="M512 213.312h42.688V256H512zM512 256h42.688v42.688H512zM512 298.688h42.688v42.688H512zM298.688 42.688h42.688v42.688h-42.688z" fill="#812320" p-id="5054"></path><path d="M341.312 42.688H384v42.688h-42.688zM384 42.688h42.688v42.688H384zM426.688 42.688h42.688v42.688h-42.688z" fill="#812320" p-id="5055"></path><path d="M469.312 42.688H512v42.688h-42.688zM298.688 85.312h42.688V128h-42.688zM512 42.688h42.688v42.688H512z" fill="#812320" p-id="5056"></path><path d="M512 85.312h42.688V128H512zM554.688 42.688h42.688v42.688h-42.688z" fill="#812320" p-id="5057"></path><path d="M597.312 42.688H640v42.688h-42.688zM640 42.688h42.688v42.688H640zM682.688 42.688h42.688v42.688h-42.688zM512 384h42.688v42.688H512zM298.688 128h42.688v42.688h-42.688zM298.688 341.312h42.688V384h-42.688zM512 128h42.688v42.688H512zM512 341.312h42.688V384H512z" fill="#812320" p-id="5058"></path><path d="M725.312 597.312H768V640h-42.688z" p-id="5059"></path><path d="M682.688 640h42.688v42.688h-42.688z" fill="#ECB147" p-id="5060"></path><path d="M725.312 640H768v42.688h-42.688zM682.688 682.688h42.688v42.688h-42.688z" p-id="5061"></path><path d="M725.312 682.688H768v42.688h-42.688z" fill="#D9302B" p-id="5062"></path><path d="M682.688 725.312h42.688V768h-42.688z" fill="#D9302B" p-id="5063"></path><path d="M725.312 725.312H768V768h-42.688zM725.312 768H768v42.688h-42.688z" fill="#D9302B" p-id="5064"></path><path d="M298.688 554.688h42.688v42.688h-42.688z" p-id="5065"></path><path d="M298.688 597.312h42.688V640h-42.688z" p-id="5066"></path><path d="M256 640h42.688v42.688H256zM298.688 640h42.688v42.688h-42.688z" fill="#D9302B" p-id="5067"></path><path d="M341.312 640H384v42.688h-42.688z" p-id="5068"></path><path d="M384 640h42.688v42.688H384z" fill="#ECB147" p-id="5069"></path><path d="M256 682.688h42.688v42.688H256zM298.688 682.688h42.688v42.688h-42.688z" fill="#D9302B" p-id="5070"></path><path d="M341.312 682.688H384v42.688h-42.688z" fill="#D9302B" p-id="5071"></path><path d="M384 682.688h42.688v42.688H384zM426.688 682.688h42.688v42.688h-42.688z" p-id="5072"></path><path d="M597.312 682.688H640v42.688h-42.688z" fill="#ECB147" p-id="5073"></path><path d="M341.312 725.312H384V768h-42.688zM384 725.312h42.688V768H384z" fill="#D9302B" p-id="5074"></path><path d="M426.688 725.312h42.688V768h-42.688z" p-id="5075"></path><path d="M469.312 725.312H512V768h-42.688z" fill="#ECB147" p-id="5076"></path><path d="M384 768h42.688v42.688H384zM426.688 768h42.688v42.688h-42.688z" fill="#D9302B" p-id="5077"></path><path d="M469.312 768H512v42.688h-42.688z" p-id="5078"></path><path d="M512 768h42.688v42.688H512zM554.688 725.312h42.688V768h-42.688z" fill="#ECB147" p-id="5079"></path><path d="M426.688 810.688h42.688v42.688h-42.688z" fill="#D9302B" p-id="5080"></path><path d="M469.312 810.688H512v42.688h-42.688zM256 768h42.688v42.688H256zM298.688 768h42.688v42.688h-42.688zM256 810.688h42.688v42.688H256zM298.688 810.688h42.688v42.688h-42.688z" fill="#D9302B" p-id="5081"></path><path d="M341.312 810.688H384v42.688h-42.688zM597.312 768H640v42.688h-42.688zM554.688 810.688h42.688v42.688h-42.688z" fill="#D9302B" p-id="5082"></path><path d="M597.312 810.688H640v42.688h-42.688zM256 853.312h42.688V896H256zM298.688 853.312h42.688V896h-42.688z" fill="#D9302B" p-id="5083"></path><path d="M341.312 853.312H384V896h-42.688zM384 853.312h42.688V896H384zM512 853.312h42.688V896H512zM554.688 853.312h42.688V896h-42.688z" fill="#D9302B" p-id="5084"></path><path d="M597.312 853.312H640V896h-42.688zM256 896h42.688v42.688H256zM298.688 896h42.688v42.688h-42.688z" fill="#D9302B" p-id="5085"></path><path d="M341.312 896H384v42.688h-42.688zM384 896h42.688v42.688H384zM426.688 896h42.688v42.688h-42.688z" fill="#D9302B" p-id="5086"></path><path d="M469.312 896H512v42.688h-42.688zM256 938.688h42.688v42.688H256zM298.688 938.688h42.688v42.688h-42.688z" fill="#D9302B" p-id="5087"></path><path d="M341.312 938.688H384v42.688h-42.688zM384 938.688h42.688v42.688H384zM426.688 938.688h42.688v42.688h-42.688z" fill="#D9302B" p-id="5088"></path><path d="M469.312 938.688H512v42.688h-42.688zM512 896h42.688v42.688H512zM512 938.688h42.688v42.688H512zM554.688 896h42.688v42.688h-42.688zM554.688 938.688h42.688v42.688h-42.688z" fill="#D9302B" p-id="5089"></path><path d="M597.312 896H640v42.688h-42.688zM597.312 938.688H640v42.688h-42.688zM682.688 853.312h42.688V896h-42.688zM682.688 896h42.688v42.688h-42.688zM682.688 938.688h42.688v42.688h-42.688z" fill="#D9302B" p-id="5090"></path><path d="M682.688 810.688h42.688v42.688h-42.688z" fill="#D9302B" p-id="5091"></path><path d="M725.312 853.312H768V896h-42.688zM725.312 896H768v42.688h-42.688zM725.312 938.688H768v42.688h-42.688z" fill="#D9302B" p-id="5092"></path><path d="M512 810.688h42.688v42.688H512zM554.688 768h42.688v42.688h-42.688zM597.312 725.312H640V768h-42.688z" p-id="5093"></path><path d="M682.688 768h42.688v42.688h-42.688zM725.312 810.688H768v42.688h-42.688zM426.688 853.312h42.688V896h-42.688z" fill="#D9302B" p-id="5094"></path><path d="M469.312 853.312H512V896h-42.688z" fill="#D9302B" p-id="5095"></path><path d="M640 682.688h42.688v42.688H640z" fill="#ECB147" p-id="5096"></path><path d="M640 725.312h42.688V768H640z" p-id="5097"></path><path d="M640 768h42.688v42.688H640zM640 810.688h42.688v42.688H640z" fill="#D9302B" p-id="5098"></path><path d="M640 853.312h42.688V896H640zM640 896h42.688v42.688H640zM640 938.688h42.688v42.688H640z" fill="#D9302B" p-id="5099"></path><path d="M256 469.312h42.688V512H256zM256 512h42.688v42.688H256z" p-id="5100"></path><path d="M256 554.688h42.688v42.688H256z" fill="#D9302B" p-id="5101"></path><path d="M256 597.312h42.688V640H256z" fill="#D9302B" p-id="5102"></path><path d="M341.312 597.312H384V640h-42.688z" fill="#ECB147" p-id="5103"></path><path d="M256 725.312h42.688V768H256zM298.688 725.312h42.688V768h-42.688zM341.312 768H384v42.688h-42.688zM384 810.688h42.688v42.688H384z" fill="#D9302B" p-id="5104"></path><path d="M341.312 170.688H384v42.688h-42.688zM384 170.688h42.688v42.688H384zM426.688 170.688h42.688v42.688h-42.688z" fill="#BB4A2A" p-id="5105"></path><path d="M341.312 256H384v42.688h-42.688zM384 256h42.688v42.688H384z" fill="#DD6E50" p-id="5106"></path><path d="M426.688 256h42.688v42.688h-42.688z" fill="#BB4A2A" p-id="5107"></path><path d="M341.312 298.688H384v42.688h-42.688z" fill="#DD6E50" p-id="5108"></path><path d="M384 298.688h42.688v42.688H384zM426.688 298.688h42.688v42.688h-42.688zM554.688 170.688h42.688v42.688h-42.688z" fill="#BB4A2A" p-id="5109"></path><path d="M554.688 256h42.688v42.688h-42.688zM554.688 298.688h42.688v42.688h-42.688z" fill="#DD6E50" p-id="5110"></path><path d="M597.312 170.688H640v42.624h-42.688z" fill="#BB4A2A" p-id="5111"></path><path d="M597.312 256H640v42.688h-42.688z" fill="#DD6E50" p-id="5112"></path><path d="M597.312 298.688H640v42.688h-42.688zM640 256h42.688v42.688H640zM640 170.688h42.688v42.624H640z" fill="#BB4A2A" p-id="5113"></path><path d="M341.312 85.312H384V128h-42.688zM384 85.312h42.688V128H384z" fill="#DD6E50" p-id="5114"></path><path d="M426.688 85.312h42.688V128h-42.688z" fill="#BB4A2A" p-id="5115"></path><path d="M554.688 85.312h42.688V128h-42.688z" fill="#DD6E50" p-id="5116"></path><path d="M597.312 85.312H640V128h-42.688z" fill="#DD6E50" p-id="5117"></path><path d="M640 85.312h42.688V128H640z" fill="#BB4A2A" p-id="5118"></path><path d="M554.688 426.688h42.688v42.688h-42.688z" fill="#DD6E50" p-id="5119"></path><path d="M597.312 426.688H640v42.688h-42.688zM341.312 128H384v42.688h-42.688z" fill="#DD6E50" p-id="5120"></path><path d="M384 128h42.688v42.688H384zM426.688 128h42.688v42.688h-42.688zM341.312 341.312H384V384h-42.688zM384 341.312h42.688V384H384zM426.688 341.312h42.688V384h-42.688z" fill="#BB4A2A" p-id="5121"></path><path d="M554.688 128h42.688v42.688h-42.688z" fill="#DD6E50" p-id="5122"></path><path d="M554.688 341.312h42.688V384h-42.688zM597.312 128H640v42.688h-42.688z" fill="#BB4A2A" p-id="5123"></path><path d="M597.312 341.312H640V384h-42.688zM640 128h42.688v42.688H640zM640 298.688h42.688v42.688H640z" fill="#BB4A2A" p-id="5124"></path><path d="M640 341.312h42.688V384H640zM640 426.688h42.688v42.688H640z" fill="#BB4A2A" p-id="5125"></path><path d="M256 170.688h42.688v42.688H256z" p-id="5126"></path><path d="M256 213.312h42.688V256H256zM256 256h42.688v42.688H256zM256 298.688h42.688v42.688H256zM725.312 170.688H768v42.624h-42.688zM256 42.688h42.688v42.688H256z" p-id="5127"></path><path d="M256 85.312h42.688V128H256zM725.312 42.688H768v42.688h-42.688z" p-id="5128"></path><path d="M725.312 85.312H768V128h-42.688zM725.312 256H768v42.688h-42.688zM725.312 298.688H768v42.688h-42.688zM725.312 384H768v42.688h-42.688zM725.312 426.688H768v42.688h-42.688z" p-id="5129"></path><path d="M725.312 469.312H768V512h-42.688z" p-id="5130"></path><path d="M682.688 512h42.688v42.688h-42.688z" fill="#632525" p-id="5131"></path><path d="M725.312 512H768v42.688h-42.688zM768 597.312h42.688V640H768zM768 640h42.688v42.688H768zM768 682.688h42.688v42.688H768z" p-id="5132"></path><path d="M768 725.312h42.688V768H768zM768 768h42.688v42.688H768zM768 810.688h42.688v42.688H768zM256 384h42.688v42.688H256z" p-id="5133"></path><path d="M298.688 384h42.688v42.688h-42.688z" fill="#812320" p-id="5134"></path><path d="M341.312 384H384v42.688h-42.688zM384 384h42.688v42.688H384z" fill="#632525" p-id="5135"></path><path d="M426.688 426.688h42.688v42.688h-42.688z" fill="#BB4A2A" p-id="5136"></path><path d="M469.312 426.688H512v42.688h-42.688z" fill="#632525" p-id="5137"></path><path d="M213.312 469.312H256V512h-42.688z" p-id="5138"></path><path d="M512 426.688h42.688v42.688H512z" fill="#812320" p-id="5139"></path><path d="M213.312 512H256v42.688h-42.688z" p-id="5140"></path><path d="M597.312 469.312H640V512h-42.688z" fill="#BB4A2A" p-id="5141"></path><path d="M213.312 554.688H256v42.688h-42.688z" p-id="5142"></path><path d="M213.312 597.312H256V640h-42.688zM213.312 640H256v42.688h-42.688zM213.312 682.688H256v42.688h-42.688zM213.312 768H256v42.688h-42.688zM213.312 810.688H256v42.688h-42.688z" p-id="5143"></path><path d="M213.312 853.312H256V896h-42.688zM213.312 896H256v42.688h-42.688zM213.312 938.688H256v42.688h-42.688zM768 896h42.688v42.688H768zM768 938.688h42.688v42.688H768zM768 853.312h42.688V896H768zM256 0h42.688v42.688H256zM298.688 0h42.688v42.688h-42.688z" p-id="5144"></path><path d="M341.312 0H384v42.688h-42.688zM384 0h42.688v42.688H384zM426.688 0h42.688v42.688h-42.688z" p-id="5145"></path><path d="M469.312 0H512v42.688h-42.688zM256 128h42.688v42.688H256zM256 341.312h42.688V384H256zM512 0h42.688v42.688H512zM554.688 0h42.688v42.688h-42.688z" p-id="5146"></path><path d="M597.312 0H640v42.688h-42.688zM640 0h42.688v42.688H640z" p-id="5147"></path><path d="M640 469.312h42.688V512H640z" fill="#BB4A2A" p-id="5148"></path><path d="M682.688 0h42.688v42.688h-42.688z" p-id="5149"></path><path d="M725.312 0H768v42.688h-42.688zM725.312 128H768v42.688h-42.688zM725.312 213.312H768V256h-42.688zM725.312 341.312H768V384h-42.688zM213.312 981.312H256V1024h-42.688zM256 981.312h42.688V1024H256zM298.688 981.312h42.688V1024h-42.688z" p-id="5150"></path><path d="M341.312 981.312H384V1024h-42.688zM384 981.312h42.688V1024H384zM426.688 981.312h42.688V1024h-42.688z" p-id="5151"></path><path d="M469.312 981.312H512V1024h-42.688zM512 981.312h42.688V1024H512zM554.688 981.312h42.688V1024h-42.688z" p-id="5152"></path><path d="M597.312 981.312H640V1024h-42.688zM640 981.312h42.688V1024H640zM682.688 981.312h42.688V1024h-42.688z" p-id="5153"></path><path d="M725.312 981.312H768V1024h-42.688zM768 981.312h42.688V1024H768z" p-id="5154"></path><path d="M554.688 469.312h42.688V512h-42.688z" fill="#DD6E50" p-id="5155"></path><path d="M213.312 725.312H256V768h-42.688zM682.688 597.312h42.688V640h-42.688z" p-id="5156"></path><path d="M725.312 554.688H768v42.688h-42.688zM256 426.688h42.688v42.688H256zM298.688 469.312h42.688V512h-42.688z" p-id="5157"></path><path d="M298.688 512h42.688v42.688h-42.688zM426.688 597.312h42.688V640h-42.688zM426.688 640h42.688v42.688h-42.688zM597.312 640H640v42.688h-42.688zM469.312 682.688H512v42.688h-42.688zM554.688 682.688h42.688v42.688h-42.688zM512 725.312h42.688V768H512zM640 640h42.688v42.688H640zM341.312 554.688H384v42.688h-42.688zM384 597.312h42.688V640H384z" fill="#ECB147" p-id="5158"></path></svg>