<svg xmlns="http://www.w3.org/2000/svg" viewBox="0 0 1024 1024" version="1.1"><path d="M938.624 170.688h42.688v42.688h-42.688z" fill="#FFFFFF" p-id="6227"></path><path d="M682.688 426.688h42.688v42.688h-42.688z" fill="#F6C752" p-id="6228"></path><path d="M682.688 469.312h42.688V512h-42.688zM725.312 512H768v42.688h-42.688zM768 512h42.688v42.688H768zM682.688 554.688h42.688v42.688h-42.688z" fill="#F6C752" p-id="6229"></path><path d="M725.312 554.688H768v42.688h-42.688zM768 597.312h42.688V640H768zM810.688 512h42.688v42.688h-42.688zM810.688 554.688h42.688v42.688h-42.688z" fill="#F6C752" p-id="6230"></path><path d="M853.312 554.688H896v42.688h-42.688z" fill="#F6C752" p-id="6231"></path><path d="M853.312 597.312H896V640h-42.688z" fill="#F6C752" p-id="6232"></path><path d="M384 384h42.688v42.688H384zM426.688 384h42.688v42.688h-42.688z" fill="#EA5641" p-id="6233"></path><path d="M256 426.688h42.688v42.688H256zM298.688 426.688h42.688v42.688h-42.688z" fill="#F6C752" p-id="6234"></path><path d="M341.312 426.688H384v42.688h-42.688zM469.312 426.688H512v42.688h-42.688zM213.312 469.312H256V512h-42.688zM384 469.312h42.688V512H384z" fill="#F6C752" p-id="6235"></path><path d="M426.688 469.312h42.688V512h-42.688zM512 384h42.688v42.688H512zM512 469.312h42.688V512H512zM298.688 512h42.688v42.688h-42.688zM426.688 512h42.688v42.688h-42.688zM554.688 384h42.688v42.688h-42.688z" fill="#F6C752" p-id="6236"></path><path d="M597.312 384H640v42.688h-42.688zM597.312 469.312H640V512h-42.688zM128 554.688h42.688v42.688H128zM213.312 554.688H256v42.688h-42.688zM384 554.688h42.688v42.688H384z" fill="#F6C752" p-id="6237"></path><path d="M128 597.312h42.688V640H128zM213.312 597.312H256V640h-42.688zM298.688 597.312h42.688V640h-42.688z" fill="#F6C752" p-id="6238"></path><path d="M512 597.312h42.688V640H512zM597.312 554.688H640v42.688h-42.688z" fill="#EA5641" p-id="6239"></path><path d="M597.312 597.312H640V640h-42.688zM341.312 341.312H384V384h-42.688zM384 341.312h42.688V384H384zM426.688 341.312h42.688V384h-42.688z" fill="#EA5641" p-id="6240"></path><path d="M640 384h42.688v42.688H640zM640 426.688h42.688v42.688H640zM640 512h42.688v42.688H640z" fill="#F6C752" p-id="6241"></path><path d="M640 597.312h42.688V640H640z" fill="#EA5641" p-id="6242"></path><path d="M170.688 469.312h42.688V512h-42.688zM128 512h42.688v42.688H128zM170.688 512h42.688v42.688h-42.688zM256 512h42.688v42.688H256zM341.312 512H384v42.688h-42.688zM512 512h42.688v42.688H512zM554.688 469.312h42.688V512h-42.688zM256 554.688h42.688v42.688H256zM341.312 554.688H384v42.688h-42.688zM469.312 554.688H512v42.688h-42.688zM384 597.312h42.688V640H384z" fill="#F6C752" p-id="6243"></path><path d="M554.688 554.688h42.688v42.688h-42.688z" fill="#EA5641" p-id="6244"></path><path d="M554.688 597.312h42.688V640h-42.688z" fill="#EA5641" p-id="6245"></path><path d="M682.688 682.688h42.688v42.688h-42.688z" fill="#93CA9F" p-id="6246"></path><path d="M725.312 682.688H768v42.688h-42.688zM768 682.688h42.688v42.688H768z" fill="#93CA9F" p-id="6247"></path><path d="M682.688 725.312h42.688V768h-42.688z" fill="#93CA9F" p-id="6248"></path><path d="M725.312 725.312H768V768h-42.688zM725.312 768H768v42.688h-42.688zM768 725.312h42.688V768H768zM768 768h42.688v42.688H768z" fill="#93CA9F" p-id="6249"></path><path d="M768 810.688h42.688v42.688H768z" fill="#7DC39A" p-id="6250"></path><path d="M810.688 682.688h42.688v42.688h-42.688z" fill="#93CA9F" p-id="6251"></path><path d="M810.688 725.312h42.688V768h-42.688zM810.688 768h42.688v42.688h-42.688z" fill="#93CA9F" p-id="6252"></path><path d="M810.688 810.688h42.688v42.688h-42.688z" fill="#7DC39A" p-id="6253"></path><path d="M853.312 682.688H896v42.688h-42.688zM896 682.688h42.688v42.688H896z" fill="#93CA9F" p-id="6254"></path><path d="M938.688 682.688h42.688v42.688h-42.688z" fill="#7DC39A" p-id="6255"></path><path d="M853.312 725.312H896V768h-42.688z" fill="#93CA9F" p-id="6256"></path><path d="M853.312 768H896v42.688h-42.688zM896 725.312h42.688V768H896zM42.688 682.688h42.688v42.688H42.688z" fill="#7DC39A" p-id="6257"></path><path d="M85.312 682.688H128v42.688h-42.688z" fill="#7DC39A" p-id="6258"></path><path d="M128 682.688h42.688v42.688H128z" fill="#FFFFFF" p-id="6259"></path><path d="M170.688 682.688h42.688v42.688h-42.688z" fill="#93CA9F" p-id="6260"></path><path d="M213.312 682.688H256v42.688h-42.688zM256 682.688h42.688v42.688H256zM298.688 682.688h42.688v42.688h-42.688z" fill="#93CA9F" p-id="6261"></path><path d="M341.312 682.688H384v42.688h-42.688zM384 682.688h42.688v42.688H384zM426.688 682.688h42.688v42.688h-42.688z" fill="#93CA9F" p-id="6262"></path><path d="M469.312 682.688H512v42.688h-42.688zM512 682.688h42.688v42.688H512zM554.688 682.688h42.688v42.688h-42.688z" fill="#93CA9F" p-id="6263"></path><path d="M597.312 682.688H640v42.688h-42.688z" fill="#93CA9F" p-id="6264"></path><path d="M85.312 725.312H128V768h-42.688z" fill="#7DC39A" p-id="6265"></path><path d="M128 725.312h42.688V768H128z" fill="#FFFFFF" p-id="6266"></path><path d="M170.688 725.312h42.688V768h-42.688zM341.312 725.312H384V768h-42.688zM384 725.312h42.688V768H384zM426.688 725.312h42.688V768h-42.688z" fill="#93CA9F" p-id="6267"></path><path d="M469.312 725.312H512V768h-42.688z" fill="#93CA9F" p-id="6268"></path><path d="M128 768h42.688v42.688H128z" fill="#7DC39A" p-id="6269"></path><path d="M384 768h42.688v42.688H384zM426.688 768h42.688v42.688h-42.688z" fill="#93CA9F" p-id="6270"></path><path d="M469.312 768H512v42.688h-42.688zM512 725.312h42.688V768H512zM512 768h42.688v42.688H512zM554.688 725.312h42.688V768h-42.688z" fill="#93CA9F" p-id="6271"></path><path d="M426.688 810.688h42.688v42.688h-42.688z" fill="#7DC39A" p-id="6272"></path><path d="M469.312 810.688H512v42.688h-42.688z" fill="#7DC39A" p-id="6273"></path><path d="M213.312 768H256v42.688h-42.688zM256 768h42.688v42.688H256zM298.688 768h42.688v42.688h-42.688z" fill="#93CA9F" p-id="6274"></path><path d="M170.688 810.688h42.688v42.688h-42.688z" fill="#7DC39A" p-id="6275"></path><path d="M213.312 810.688H256v42.688h-42.688zM256 810.688h42.688v42.688H256zM298.688 810.688h42.688v42.688h-42.688z" fill="#7DC39A" p-id="6276"></path><path d="M341.312 810.688H384v42.688h-42.688z" fill="#7DC39A" p-id="6277"></path><path d="M597.312 768H640v42.688h-42.688z" fill="#93CA9F" p-id="6278"></path><path d="M554.688 810.688h42.688v42.688h-42.688z" fill="#7DC39A" p-id="6279"></path><path d="M597.312 810.688H640v42.688h-42.688zM682.688 810.688h42.688v42.688h-42.688zM512 810.688h42.688v42.688H512z" fill="#7DC39A" p-id="6280"></path><path d="M554.688 768h42.688v42.688h-42.688zM597.312 725.312H640V768h-42.688zM682.688 768h42.688v42.688h-42.688z" fill="#93CA9F" p-id="6281"></path><path d="M725.312 810.688H768v42.688h-42.688z" fill="#7DC39A" p-id="6282"></path><path d="M640 682.688h42.688v42.688H640z" fill="#93CA9F" p-id="6283"></path><path d="M640 725.312h42.688V768H640zM640 768h42.688v42.688H640z" fill="#93CA9F" p-id="6284"></path><path d="M640 810.688h42.688v42.688H640z" fill="#7DC39A" p-id="6285"></path><path d="M213.312 725.312H256V768h-42.688zM256 725.312h42.688V768H256zM298.688 725.312h42.688V768h-42.688z" fill="#93CA9F" p-id="6286"></path><path d="M170.688 768h42.688v42.688h-42.688z" fill="#FFFFFF" p-id="6287"></path><path d="M341.312 768H384v42.688h-42.688z" fill="#93CA9F" p-id="6288"></path><path d="M384 810.688h42.688v42.688H384z" fill="#7DC39A" p-id="6289"></path><path d="M341.312 298.688H384v42.688h-42.688zM384 298.688h42.688v42.688H384zM426.688 298.688h42.688v42.688h-42.688zM725.312 298.688H768v42.688h-42.688zM768 256h42.688v42.688H768zM810.688 256h42.688v42.688h-42.688zM810.688 298.688h42.688v42.688h-42.688z" p-id="6290"></path><path d="M853.312 256H896v42.688h-42.688zM853.312 298.688H896v42.688h-42.688zM682.688 384h42.688v42.688h-42.688z" p-id="6291"></path><path d="M725.312 384H768v42.688h-42.688zM725.312 426.688H768v42.688h-42.688z" p-id="6292"></path><path d="M725.312 469.312H768V512h-42.688zM682.688 512h42.688v42.688h-42.688zM768 426.688h42.688v42.688H768z" p-id="6293"></path><path d="M768 469.312h42.688V512H768zM682.688 597.312h42.688V640h-42.688z" p-id="6294"></path><path d="M725.312 597.312H768V640h-42.688zM682.688 640h42.688v42.688h-42.688z" p-id="6295"></path><path d="M725.312 640H768v42.688h-42.688zM768 554.688h42.688v42.688H768zM768 640h42.688v42.688H768zM810.688 384h42.688v42.688h-42.688zM810.688 469.312h42.688V512h-42.688zM810.688 597.312h42.688V640h-42.688zM810.688 640h42.688v42.688h-42.688zM853.312 512H896v42.688h-42.688zM896 554.688h42.688v42.688H896z" p-id="6296"></path><path d="M896 597.312h42.688V640H896zM853.312 640H896v42.688h-42.688zM896 640h42.688v42.688H896zM938.688 640h42.688v42.688h-42.688zM256 384h42.688v42.688H256zM298.688 384h42.688v42.688h-42.688z" p-id="6297"></path><path d="M341.312 384H384v42.688h-42.688zM469.312 384H512v42.688h-42.688zM170.688 426.688h42.688v42.688h-42.688z" p-id="6298"></path><path d="M213.312 426.688H256v42.688h-42.688zM384 426.688h42.688v42.688H384zM426.688 426.688h42.688v42.688h-42.688zM298.688 469.312h42.688V512h-42.688zM512 426.688h42.688v42.688H512zM213.312 512H256v42.688h-42.688zM384 512h42.688v42.688H384zM554.688 426.688h42.688v42.688h-42.688z" p-id="6299"></path><path d="M597.312 426.688H640v42.688h-42.688zM554.688 512h42.688v42.688h-42.688z" p-id="6300"></path><path d="M597.312 512H640v42.688h-42.688zM298.688 554.688h42.688v42.688h-42.688zM426.688 554.688h42.688v42.688h-42.688z" p-id="6301"></path><path d="M426.688 597.312h42.688V640h-42.688zM512 554.688h42.688v42.688H512zM42.688 640h42.688v42.688H42.688z" p-id="6302"></path><path d="M85.312 640H128v42.688h-42.688zM128 640h42.688v42.688H128zM170.688 640h42.688v42.688h-42.688z" p-id="6303"></path><path d="M213.312 640H256v42.688h-42.688zM256 640h42.688v42.688H256zM298.688 640h42.688v42.688h-42.688z" p-id="6304"></path><path d="M341.312 640H384v42.688h-42.688zM384 640h42.688v42.688H384zM426.688 640h42.688v42.688h-42.688z" p-id="6305"></path><path d="M469.312 640H512v42.688h-42.688zM512 640h42.688v42.688H512zM554.688 640h42.688v42.688h-42.688z" p-id="6306"></path><path d="M597.312 640H640v42.688h-42.688zM42.688 725.312h42.688V768H42.688zM85.312 768H128v42.688h-42.688zM170.688 853.312h42.688V896h-42.688z" p-id="6307"></path><path d="M213.312 853.312H256V896h-42.688zM256 853.312h42.688V896H256zM298.688 853.312h42.688V896h-42.688z" p-id="6308"></path><path d="M341.312 853.312H384V896h-42.688zM384 853.312h42.688V896H384zM512 853.312h42.688V896H512zM554.688 853.312h42.688V896h-42.688z" p-id="6309"></path><path d="M597.312 853.312H640V896h-42.688zM682.688 853.312h42.688V896h-42.688z" p-id="6310"></path><path d="M725.312 853.312H768V896h-42.688zM896 768h42.688v42.688H896zM853.312 810.688H896v42.688h-42.688zM938.688 725.312h42.688V768h-42.688zM426.688 853.312h42.688V896h-42.688z" p-id="6311"></path><path d="M469.312 853.312H512V896h-42.688zM768 853.312h42.688V896H768zM810.688 853.312h42.688V896h-42.688zM298.688 341.312h42.688V384h-42.688zM469.312 341.312H512V384h-42.688zM512 341.312h42.688V384H512zM554.688 341.312h42.688V384h-42.688z" p-id="6312"></path><path d="M597.312 341.312H640V384h-42.688zM640 341.312h42.688V384H640zM640 469.312h42.688V512H640zM0 640h42.688v42.688H0zM640 554.688h42.688v42.688H640zM640 640h42.688v42.688H640zM682.688 341.312h42.688V384h-42.688zM938.624 128h42.688v42.688h-42.688zM981.312 128H1024v42.688h-42.688zM896 170.688h42.688v42.688H896zM981.312 170.688H1024v42.624h-42.688z" p-id="6313"></path><path d="M938.624 213.312h42.688V256h-42.688zM768 341.312h42.688V384H768zM0 682.688h42.688v42.688H0zM853.312 341.312H896V384h-42.688z" p-id="6314"></path><path d="M896 213.312h42.688V256H896zM981.312 640H1024v42.688h-42.688zM981.312 682.688H1024v42.688h-42.688zM640 853.312h42.688V896H640zM128 469.312h42.688V512H128zM256 469.312h42.688V512H256zM341.312 469.312H384V512h-42.688zM469.312 469.312H512V512h-42.688zM85.312 512H128v42.688h-42.688zM469.312 512H512v42.688h-42.688zM85.312 554.688H128v42.688h-42.688zM170.688 554.688h42.688v42.688h-42.688z" p-id="6315"></path><path d="M85.312 597.312H128V640h-42.688zM170.688 597.312h42.688V640h-42.688zM256 597.312h42.688V640H256zM341.312 597.312H384V640h-42.688zM469.312 597.312H512V640h-42.688zM128 810.688h42.688v42.688H128z" p-id="6316"></path></svg>