<svg xmlns="http://www.w3.org/2000/svg" viewBox="0 0 1024 1024" version="1.1"><path d="M213.312 170.688H256v42.688h-42.688zM256 170.688h42.688v42.688H256zM298.688 170.688h42.688v42.688h-42.688z" fill="#F2A0BA" p-id="3875"></path><path d="M341.312 170.688H384v42.688h-42.688z" fill="#F2A0BA" p-id="3876"></path><path d="M384 170.688h42.688v42.688H384z" fill="#EE86A6" p-id="3877"></path><path d="M426.688 170.688h42.688v42.688h-42.688z" fill="#F2A0BA" p-id="3878"></path><path d="M469.312 170.688H512v42.688h-42.688zM213.312 213.312H256V256h-42.688zM256 213.312h42.688V256H256zM298.688 213.312h42.688V256h-42.688z" fill="#F2A0BA" p-id="3879"></path><path d="M341.312 213.312H384V256h-42.688zM384 213.312h42.688V256H384z" fill="#F2A0BA" p-id="3880"></path><path d="M426.688 213.312h42.688V256h-42.688z" fill="#EE86A6" p-id="3881"></path><path d="M469.312 213.312H512V256h-42.688z" fill="#EE86A6" p-id="3882"></path><path d="M213.312 256H256v42.688h-42.688zM256 256h42.688v42.688H256zM298.688 256h42.688v42.688h-42.688z" fill="#F2A0BA" p-id="3883"></path><path d="M341.312 256H384v42.688h-42.688zM384 256h42.688v42.688H384zM426.688 256h42.688v42.688h-42.688z" fill="#F2A0BA" p-id="3884"></path><path d="M469.312 256H512v42.688h-42.688z" fill="#F2A0BA" p-id="3885"></path><path d="M213.312 298.688H256v42.688h-42.688z" fill="#EE86A6" p-id="3886"></path><path d="M256 298.688h42.688v42.688H256zM298.688 298.688h42.688v42.688h-42.688z" fill="#F2A0BA" p-id="3887"></path><path d="M341.312 298.688H384v42.688h-42.688zM384 298.688h42.688v42.688H384zM426.688 298.688h42.688v42.688h-42.688z" fill="#F2A0BA" p-id="3888"></path><path d="M469.312 298.688H512v42.688h-42.688zM512 170.688h42.688v42.688H512z" fill="#F2A0BA" p-id="3889"></path><path d="M512 213.312h42.688V256H512z" fill="#EE86A6" p-id="3890"></path><path d="M512 256h42.688v42.688H512zM512 298.688h42.688v42.688H512z" fill="#F2A0BA" p-id="3891"></path><path d="M554.688 170.688h42.688v42.688h-42.688z" fill="#EE86A6" p-id="3892"></path><path d="M554.688 213.312h42.688V256h-42.688zM554.688 256h42.688v42.688h-42.688zM554.688 298.688h42.688v42.688h-42.688zM597.312 170.688H640v42.624h-42.688z" fill="#F2A0BA" p-id="3893"></path><path d="M597.312 213.312H640V256h-42.688zM597.312 256H640v42.688h-42.688zM597.312 298.688H640v42.688h-42.688zM640 213.312h42.688V256H640zM640 256h42.688v42.688H640zM682.688 213.312h42.624V256h-42.624zM640 170.688h42.688v42.624H640zM682.688 170.688h42.688v42.624h-42.688z" fill="#F2A0BA" p-id="3894"></path><path d="M725.312 170.688H768v42.624h-42.688zM426.688 42.688h42.688v42.688h-42.688z" fill="#F2A0BA" p-id="3895"></path><path d="M469.312 42.688H512v42.688h-42.688zM384 85.312h42.688V128H384z" fill="#F2A0BA" p-id="3896"></path><path d="M426.688 85.312h42.688V128h-42.688z" fill="#F2A0BA" p-id="3897"></path><path d="M469.312 85.312H512V128h-42.688zM512 42.688h42.688v42.688H512z" fill="#F2A0BA" p-id="3898"></path><path d="M512 85.312h42.688V128H512z" fill="#F2A0BA" p-id="3899"></path><path d="M554.688 42.688h42.688v42.688h-42.688z" fill="#EE86A6" p-id="3900"></path><path d="M554.688 85.312h42.688V128h-42.688z" fill="#F2A0BA" p-id="3901"></path><path d="M597.312 85.312H640V128h-42.688z" fill="#EE86A6" p-id="3902"></path><path d="M682.688 298.688h42.688v42.688h-42.688zM725.312 256H768v42.688h-42.688z" fill="#F2A0BA" p-id="3903"></path><path d="M725.312 298.688H768v42.688h-42.688zM768 213.312h42.688V256H768zM768 256h42.688v42.688H768z" fill="#F2A0BA" p-id="3904"></path><path d="M768 298.688h42.688v42.688H768z" fill="#EE86A6" p-id="3905"></path><path d="M682.688 384h42.688v42.688h-42.688zM682.688 426.688h42.688v42.688h-42.688z" fill="#F2A0BA" p-id="3906"></path><path d="M682.688 469.312h42.688V512h-42.688zM725.312 384H768v42.688h-42.688z" fill="#EE86A6" p-id="3907"></path><path d="M725.312 426.688H768v42.688h-42.688z" fill="#EE86A6" p-id="3908"></path><path d="M725.312 469.312H768V512h-42.688zM682.688 512h42.688v42.688h-42.688z" fill="#F2A0BA" p-id="3909"></path><path d="M725.312 512H768v42.688h-42.688zM768 384h42.688v42.688H768zM768 426.688h42.688v42.688H768z" fill="#F2A0BA" p-id="3910"></path><path d="M768 469.312h42.688V512H768z" fill="#F2A0BA" p-id="3911"></path><path d="M768 512h42.688v42.688H768z" fill="#EE86A6" p-id="3912"></path><path d="M682.688 554.688h42.688v42.688h-42.688z" fill="#F2A0BA" p-id="3913"></path><path d="M682.688 597.312h42.688V640h-42.688z" fill="#EE86A6" p-id="3914"></path><path d="M725.312 554.688H768v42.688h-42.688z" fill="#EE86A6" p-id="3915"></path><path d="M725.312 597.312H768V640h-42.688zM682.688 640h42.688v42.688h-42.688zM768 554.688h42.688v42.688H768zM682.688 682.688h42.688v42.688h-42.688z" fill="#EE86A6" p-id="3916"></path><path d="M810.688 384h42.688v42.688h-42.688zM810.688 426.688h42.688v42.688h-42.688z" fill="#F2A0BA" p-id="3917"></path><path d="M810.688 469.312h42.688V512h-42.688zM810.688 512h42.688v42.688h-42.688zM853.312 384H896v42.688h-42.688z" fill="#EE86A6" p-id="3918"></path><path d="M853.312 426.688H896v42.688h-42.688z" fill="#EE86A6" p-id="3919"></path><path d="M853.312 469.312H896V512h-42.688zM128 384h42.688v42.688H128z" fill="#EE86A6" p-id="3920"></path><path d="M170.688 384h42.688v42.688h-42.688z" fill="#F2A0BA" p-id="3921"></path><path d="M213.312 384H256v42.688h-42.688z" fill="#F2A0BA" p-id="3922"></path><path d="M256 384h42.688v42.688H256z" fill="#EE86A6" p-id="3923"></path><path d="M298.688 384h42.688v42.688h-42.688z" fill="#F2A0BA" p-id="3924"></path><path d="M341.312 384H384v42.688h-42.688zM384 384h42.688v42.688H384zM426.688 384h42.688v42.688h-42.688z" fill="#F2A0BA" p-id="3925"></path><path d="M469.312 384H512v42.688h-42.688zM128 426.688h42.688v42.688H128z" fill="#EE86A6" p-id="3926"></path><path d="M170.688 426.688h42.688v42.688h-42.688z" fill="#F2A0BA" p-id="3927"></path><path d="M213.312 426.688H256v42.688h-42.688zM256 426.688h42.688v42.688H256z" fill="#F2A0BA" p-id="3928"></path><path d="M298.688 426.688h42.688v42.688h-42.688z" fill="#EE86A6" p-id="3929"></path><path d="M341.312 426.688H384v42.688h-42.688zM384 426.688h42.688v42.688H384zM426.688 426.688h42.688v42.688h-42.688z" fill="#EE86A6" p-id="3930"></path><path d="M469.312 426.688H512v42.688h-42.688zM213.312 469.312H256V512h-42.688zM298.688 469.312h42.688V512h-42.688zM384 469.312h42.688V512H384z" fill="#F2A0BA" p-id="3931"></path><path d="M426.688 469.312h42.688V512h-42.688zM512 384h42.688v42.688H512zM512 426.688h42.688v42.688H512z" fill="#F2A0BA" p-id="3932"></path><path d="M512 469.312h42.688V512H512z" fill="#F2A0BA" p-id="3933"></path><path d="M213.312 512H256v42.688h-42.688z" fill="#EE86A6" p-id="3934"></path><path d="M298.688 512h42.688v42.688h-42.688zM384 512h42.688v42.688H384zM426.688 512h42.688v42.688h-42.688zM554.688 384h42.688v42.688h-42.688zM554.688 426.688h42.688v42.688h-42.688z" fill="#F2A0BA" p-id="3935"></path><path d="M597.312 384H640v42.688h-42.688zM597.312 426.688H640v42.688h-42.688z" fill="#F2A0BA" p-id="3936"></path><path d="M597.312 469.312H640V512h-42.688zM554.688 512h42.688v42.688h-42.688z" fill="#F2A0BA" p-id="3937"></path><path d="M597.312 512H640v42.688h-42.688zM213.312 554.688H256v42.688h-42.688z" fill="#EE86A6" p-id="3938"></path><path d="M298.688 554.688h42.688v42.688h-42.688zM384 554.688h42.688v42.688H384zM426.688 554.688h42.688v42.688h-42.688z" fill="#F2A0BA" p-id="3939"></path><path d="M298.688 597.312h42.688V640h-42.688z" fill="#EE86A6" p-id="3940"></path><path d="M426.688 597.312h42.688V640h-42.688zM512 554.688h42.688v42.688H512z" fill="#F2A0BA" p-id="3941"></path><path d="M512 597.312h42.688V640H512z" fill="#F2A0BA" p-id="3942"></path><path d="M298.688 640h42.688v42.688h-42.688z" fill="#EE86A6" p-id="3943"></path><path d="M341.312 640H384v42.688h-42.688z" fill="#EE86A6" p-id="3944"></path><path d="M384 640h42.688v42.688H384zM426.688 640h42.688v42.688h-42.688z" fill="#F2A0BA" p-id="3945"></path><path d="M469.312 640H512v42.688h-42.688zM512 640h42.688v42.688H512zM597.312 554.688H640v42.688h-42.688z" fill="#F2A0BA" p-id="3946"></path><path d="M597.312 597.312H640V640h-42.688zM554.688 640h42.688v42.688h-42.688z" fill="#F2A0BA" p-id="3947"></path><path d="M597.312 640H640v42.688h-42.688z" fill="#F2A0BA" p-id="3948"></path><path d="M298.688 682.688h42.688v42.688h-42.688z" fill="#EE86A6" p-id="3949"></path><path d="M341.312 682.688H384v42.688h-42.688zM384 682.688h42.688v42.688H384zM426.688 682.688h42.688v42.688h-42.688z" fill="#EE86A6" p-id="3950"></path><path d="M469.312 682.688H512v42.688h-42.688zM512 682.688h42.688v42.688H512zM554.688 682.688h42.688v42.688h-42.688z" fill="#EE86A6" p-id="3951"></path><path d="M597.312 682.688H640v42.688h-42.688z" fill="#EE86A6" p-id="3952"></path><path d="M469.312 725.312H512V768h-42.688zM512 725.312h42.688V768H512z" p-id="3953"></path><path d="M256 128h42.688v42.688H256zM298.688 128h42.688v42.688h-42.688z" fill="#F2A0BA" p-id="3954"></path><path d="M341.312 128H384v42.688h-42.688z" fill="#EE86A6" p-id="3955"></path><path d="M384 128h42.688v42.688H384zM426.688 128h42.688v42.688h-42.688z" fill="#F2A0BA" p-id="3956"></path><path d="M469.312 128H512v42.688h-42.688zM170.688 341.312h42.688V384h-42.688z" fill="#F2A0BA" p-id="3957"></path><path d="M213.312 341.312H256V384h-42.688z" fill="#EE86A6" p-id="3958"></path><path d="M256 341.312h42.688V384H256zM298.688 341.312h42.688V384h-42.688z" fill="#F2A0BA" p-id="3959"></path><path d="M341.312 341.312H384V384h-42.688zM384 341.312h42.688V384H384zM426.688 341.312h42.688V384h-42.688z" fill="#F2A0BA" p-id="3960"></path><path d="M469.312 341.312H512V384h-42.688zM512 128h42.688v42.688H512zM512 341.312h42.688V384H512zM554.688 128h42.688v42.688h-42.688zM554.688 341.312h42.688V384h-42.688z" fill="#F2A0BA" p-id="3961"></path><path d="M597.312 128H640v42.688h-42.688zM597.312 341.312H640V384h-42.688zM640 128h42.688v42.688H640zM640 298.688h42.688v42.688H640z" fill="#F2A0BA" p-id="3962"></path><path d="M640 341.312h42.688V384H640zM640 384h42.688v42.688H640zM640 426.688h42.688v42.688H640z" fill="#F2A0BA" p-id="3963"></path><path d="M640 469.312h42.688V512H640z" fill="#F2A0BA" p-id="3964"></path><path d="M640 512h42.688v42.688H640z" fill="#EE86A6" p-id="3965"></path><path d="M640 554.688h42.688v42.688H640z" fill="#F2A0BA" p-id="3966"></path><path d="M640 597.312h42.688V640H640z" fill="#F2A0BA" p-id="3967"></path><path d="M640 640h42.688v42.688H640z" fill="#EE86A6" p-id="3968"></path><path d="M682.688 128h42.688v42.688h-42.688zM682.688 256h42.688v42.688h-42.688zM682.688 341.312h42.688V384h-42.688z" fill="#F2A0BA" p-id="3969"></path><path d="M725.312 128H768v42.688h-42.688z" fill="#EE86A6" p-id="3970"></path><path d="M725.312 213.312H768V256h-42.688zM725.312 341.312H768V384h-42.688z" fill="#F2A0BA" p-id="3971"></path><path d="M768 170.688h42.688v42.688H768zM768 341.312h42.688V384H768zM640 682.688h42.688v42.688H640z" fill="#EE86A6" p-id="3972"></path><path d="M810.688 341.312h42.688V384h-42.688z" fill="#F2A0BA" p-id="3973"></path><path d="M128 469.312h42.688V512H128zM170.688 469.312h42.688V512h-42.688z" fill="#EE86A6" p-id="3974"></path><path d="M256 469.312h42.688V512H256zM341.312 469.312H384V512h-42.688zM469.312 469.312H512V512h-42.688z" fill="#F2A0BA" p-id="3975"></path><path d="M170.688 512h42.688v42.688h-42.688z" fill="#EE86A6" p-id="3976"></path><path d="M256 512h42.688v42.688H256zM341.312 512H384v42.688h-42.688zM469.312 512H512v42.688h-42.688zM512 512h42.688v42.688H512z" fill="#F2A0BA" p-id="3977"></path><path d="M554.688 469.312h42.688V512h-42.688zM256 554.688h42.688v42.688H256z" fill="#EE86A6" p-id="3978"></path><path d="M341.312 554.688H384v42.688h-42.688zM469.312 554.688H512v42.688h-42.688z" fill="#F2A0BA" p-id="3979"></path><path d="M256 597.312h42.688V640H256z" fill="#EE86A6" p-id="3980"></path><path d="M341.312 597.312H384V640h-42.688zM384 597.312h42.688V640H384zM469.312 597.312H512V640h-42.688zM554.688 554.688h42.688v42.688h-42.688z" fill="#F2A0BA" p-id="3981"></path><path d="M554.688 597.312h42.688V640h-42.688z" fill="#F2A0BA" p-id="3982"></path><path d="M170.688 170.688h42.688v42.688h-42.688z" p-id="3983"></path><path d="M170.688 213.312h42.688V256h-42.688zM170.688 256h42.688v42.688h-42.688zM170.688 298.688h42.688v42.688h-42.688zM384 42.688h42.688v42.688H384zM256 85.312h42.688V128H256zM298.688 85.312h42.688V128h-42.688z" p-id="3984"></path><path d="M341.312 85.312H384V128h-42.688zM597.312 42.688H640v42.688h-42.688zM640 85.312h42.688V128H640zM682.688 85.312h42.688V128h-42.688z" p-id="3985"></path><path d="M725.312 85.312H768V128h-42.688zM810.688 170.688h42.688v42.688h-42.688z" p-id="3986"></path><path d="M810.688 213.312h42.688V256h-42.688zM810.688 256h42.688v42.688h-42.688zM810.688 298.688h42.688v42.688h-42.688zM725.312 640H768v42.688h-42.688zM768 597.312h42.688V640H768zM725.312 682.688H768v42.688h-42.688z" p-id="3987"></path><path d="M682.688 725.312h42.688V768h-42.688zM810.688 554.688h42.688v42.688h-42.688zM896 384h42.688v42.688H896zM896 426.688h42.688v42.688H896z" p-id="3988"></path><path d="M896 469.312h42.688V512H896zM853.312 512H896v42.688h-42.688zM85.312 384H128v42.688h-42.688zM85.312 426.688H128v42.688h-42.688zM213.312 597.312H256V640h-42.688zM256 640h42.688v42.688H256zM256 682.688h42.688v42.688H256zM341.312 725.312H384V768h-42.688zM384 725.312h42.688V768H384zM426.688 725.312h42.688V768h-42.688zM469.312 768H512v42.688h-42.688zM554.688 725.312h42.688V768h-42.688zM469.312 810.688H512v42.688h-42.688zM469.312 896H512v42.688h-42.688zM469.312 938.688H512v42.688h-42.688z" p-id="3989"></path><path d="M597.312 725.312H640V768h-42.688zM469.312 853.312H512V896h-42.688zM426.688 0h42.688v42.688h-42.688z" p-id="3990"></path><path d="M469.312 0H512v42.688h-42.688zM213.312 128H256v42.688h-42.688zM128 341.312h42.688V384H128zM512 0h42.688v42.688H512zM554.688 0h42.688v42.688h-42.688zM768 128h42.688v42.688H768zM640 725.312h42.688V768H640zM853.312 341.312H896V384h-42.688zM469.312 981.312H512V1024h-42.688zM85.312 469.312H128V512h-42.688zM128 512h42.688v42.688H128zM170.688 554.688h42.688v42.688h-42.688zM298.688 725.312h42.688V768h-42.688z" p-id="3991"></path></svg>