<svg xmlns="http://www.w3.org/2000/svg" viewBox="0 0 1024 1024" version="1.1"><path d="M298.688 170.688h42.688v42.688h-42.688z" p-id="739"></path><path d="M341.312 170.688H384v42.688h-42.688z" fill="#FFF100" p-id="740"></path><path d="M384 170.688h42.688v42.688H384zM426.688 170.688h42.688v42.688h-42.688z" fill="#E50046" p-id="741"></path><path d="M469.312 170.688H512v42.688h-42.688z" fill="#E50046" p-id="742"></path><path d="M298.688 213.312h42.688V256h-42.688z" p-id="743"></path><path d="M341.312 213.312H384V256h-42.688zM384 213.312h42.688V256H384zM426.688 213.312h42.688V256h-42.688z" fill="#E50046" p-id="744"></path><path d="M469.312 213.312H512V256h-42.688z" fill="#E50046" p-id="745"></path><path d="M256 256h42.688v42.688H256z" p-id="746"></path><path d="M298.688 256h42.688v42.688h-42.688z" fill="#E50046" p-id="747"></path><path d="M341.312 256H384v42.688h-42.688zM384 256h42.688v42.688H384z" fill="#E50046" p-id="748"></path><path d="M426.688 256h42.688v42.688h-42.688z" fill="#FFF100" p-id="749"></path><path d="M469.312 256H512v42.688h-42.688z" fill="#FFF100" p-id="750"></path><path d="M256 298.688h42.688v42.688H256z" p-id="751"></path><path d="M298.688 298.688h42.688v42.688h-42.688z" fill="#E50046" p-id="752"></path><path d="M341.312 298.688H384v42.688h-42.688zM384 298.688h42.688v42.688H384z" fill="#E50046" p-id="753"></path><path d="M426.688 298.688h42.688v42.688h-42.688z" fill="#FFF100" p-id="754"></path><path d="M469.312 298.688H512v42.688h-42.688z" fill="#FFF100" p-id="755"></path><path d="M512 170.688h42.688v42.688H512z" fill="#E50046" p-id="756"></path><path d="M512 213.312h42.688V256H512zM512 256h42.688v42.688H512zM512 298.688h42.688v42.688H512z" fill="#FFF100" p-id="757"></path><path d="M554.688 170.688h42.688v42.688h-42.688z" fill="#E50046" p-id="758"></path><path d="M554.688 213.312h42.688V256h-42.688zM554.688 256h42.688v42.688h-42.688z" fill="#FFF100" p-id="759"></path><path d="M554.688 298.688h42.688v42.688h-42.688zM597.312 170.688H640v42.624h-42.688z" fill="#E50046" p-id="760"></path><path d="M597.312 213.312H640V256h-42.688zM597.312 256H640v42.688h-42.688z" fill="#FFF100" p-id="761"></path><path d="M597.312 298.688H640v42.688h-42.688z" fill="#E50046" p-id="762"></path><path d="M640 213.312h42.688V256H640zM640 256h42.688v42.688H640zM682.688 213.312h42.624V256h-42.624z" fill="#FFF100" p-id="763"></path><path d="M640 170.688h42.688v42.624H640zM682.688 170.688h42.688v42.624h-42.688z" fill="#E50046" p-id="764"></path><path d="M725.312 170.688H768v42.624h-42.688z" fill="#E50046" p-id="765"></path><path d="M426.688 42.688h42.688v42.688h-42.688z" p-id="766"></path><path d="M469.312 42.688H512v42.688h-42.688zM384 85.312h42.688V128H384z" p-id="767"></path><path d="M426.688 85.312h42.688V128h-42.688z" fill="#FFF100" p-id="768"></path><path d="M469.312 85.312H512V128h-42.688zM512 42.688h42.688v42.688H512z" fill="#FFF100" p-id="769"></path><path d="M512 85.312h42.688V128H512zM554.688 42.688h42.688v42.688h-42.688z" fill="#FFF100" p-id="770"></path><path d="M554.688 85.312h42.688V128h-42.688z" fill="#FFF100" p-id="771"></path><path d="M597.312 42.688H640v42.688h-42.688z" fill="#FFF100" p-id="772"></path><path d="M597.312 85.312H640V128h-42.688zM640 42.688h42.688v42.688H640z" fill="#FFF100" p-id="773"></path><path d="M640 85.312h42.688V128H640zM682.688 42.688h42.688v42.688h-42.688z" fill="#FFF100" p-id="774"></path><path d="M682.688 85.312h42.688V128h-42.688z" fill="#FFF100" p-id="775"></path><path d="M725.312 42.688H768v42.688h-42.688z" fill="#FFF100" p-id="776"></path><path d="M725.312 85.312H768V128h-42.688z" fill="#FFF100" p-id="777"></path><path d="M768 42.688h42.688v42.688H768z" p-id="778"></path><path d="M768 85.312h42.688V128H768zM682.688 298.688h42.688v42.688h-42.688zM725.312 256H768v42.688h-42.688z" fill="#FFF100" p-id="779"></path><path d="M725.312 298.688H768v42.688h-42.688z" fill="#FFF100" p-id="780"></path><path d="M768 213.312h42.688V256H768zM768 256h42.688v42.688H768zM768 298.688h42.688v42.688H768z" fill="#E50046" p-id="781"></path><path d="M810.688 170.688h42.688v42.688h-42.688z" fill="#FFF100" p-id="782"></path><path d="M810.688 213.312h42.688V256h-42.688z" fill="#FFF100" p-id="783"></path><path d="M810.688 256h42.688v42.688h-42.688zM810.688 298.688h42.688v42.688h-42.688z" fill="#E50046" p-id="784"></path><path d="M853.312 213.312H896V256h-42.688zM853.312 256H896v42.688h-42.688zM853.312 298.688H896v42.688h-42.688zM896 256h42.688v42.688H896zM896 298.688h42.688v42.688H896z" fill="#FFF100" p-id="785"></path><path d="M938.624 298.688h42.688v42.688h-42.688z" fill="#E50046" p-id="786"></path><path d="M682.688 384h42.688v42.688h-42.688zM682.688 426.688h42.688v42.688h-42.688z" fill="#FFF100" p-id="787"></path><path d="M682.688 469.312h42.688V512h-42.688zM725.312 384H768v42.688h-42.688z" fill="#FFF100" p-id="788"></path><path d="M725.312 426.688H768v42.688h-42.688z" fill="#FFF100" p-id="789"></path><path d="M725.312 469.312H768V512h-42.688zM682.688 512h42.688v42.688h-42.688z" fill="#E50046" p-id="790"></path><path d="M725.312 512H768v42.688h-42.688zM768 384h42.688v42.688H768zM768 426.688h42.688v42.688H768z" fill="#E50046" p-id="791"></path><path d="M768 469.312h42.688V512H768z" fill="#E50046" p-id="792"></path><path d="M768 512h42.688v42.688H768z" fill="#FFF100" p-id="793"></path><path d="M682.688 554.688h42.688v42.688h-42.688z" fill="#E50046" p-id="794"></path><path d="M682.688 597.312h42.688V640h-42.688z" fill="#FFF100" p-id="795"></path><path d="M725.312 554.688H768v42.688h-42.688z" fill="#FFF100" p-id="796"></path><path d="M725.312 597.312H768V640h-42.688zM682.688 640h42.688v42.688h-42.688z" fill="#FFF100" p-id="797"></path><path d="M725.312 640H768v42.688h-42.688zM768 554.688h42.688v42.688H768z" fill="#FFF100" p-id="798"></path><path d="M768 597.312h42.688V640H768z" fill="#FFF100" p-id="799"></path><path d="M768 640h42.688v42.688H768zM682.688 682.688h42.688v42.688h-42.688z" fill="#E50046" p-id="800"></path><path d="M725.312 682.688H768v42.688h-42.688z" fill="#E50046" p-id="801"></path><path d="M768 682.688h42.688v42.688H768zM682.688 725.312h42.688V768h-42.688z" p-id="802"></path><path d="M725.312 725.312H768V768h-42.688z" p-id="803"></path><path d="M810.688 384h42.688v42.688h-42.688zM810.688 426.688h42.688v42.688h-42.688z" fill="#E50046" p-id="804"></path><path d="M810.688 469.312h42.688V512h-42.688zM810.688 512h42.688v42.688h-42.688zM810.688 554.688h42.688v42.688h-42.688z" fill="#FFF100" p-id="805"></path><path d="M810.688 597.312h42.688V640h-42.688z" fill="#FFF100" p-id="806"></path><path d="M810.688 640h42.688v42.688h-42.688z" fill="#E50046" p-id="807"></path><path d="M810.688 682.688h42.688v42.688h-42.688z" p-id="808"></path><path d="M853.312 384H896v42.688h-42.688zM853.312 426.688H896v42.688h-42.688z" fill="#FFF100" p-id="809"></path><path d="M853.312 469.312H896V512h-42.688zM896 384h42.688v42.688H896zM896 426.688h42.688v42.688H896z" fill="#FFF100" p-id="810"></path><path d="M896 469.312h42.688V512H896zM853.312 512H896v42.688h-42.688z" fill="#FFF100" p-id="811"></path><path d="M896 512h42.688v42.688H896zM938.624 384h42.688v42.688h-42.688zM938.688 426.688h42.688v42.688h-42.688z" fill="#E50046" p-id="812"></path><path d="M938.688 469.312h42.688V512h-42.688z" fill="#E50046" p-id="813"></path><path d="M938.688 512h42.688v42.688h-42.688z" p-id="814"></path><path d="M853.312 554.688H896v42.688h-42.688z" fill="#FFF100" p-id="815"></path><path d="M853.312 597.312H896V640h-42.688zM896 554.688h42.688v42.688H896z" fill="#E50046" p-id="816"></path><path d="M896 597.312h42.688V640H896zM853.312 640H896v42.688h-42.688zM938.688 554.688h42.688v42.688h-42.688zM256 384h42.688v42.688H256z" p-id="817"></path><path d="M298.688 384h42.688v42.688h-42.688z" fill="#E50046" p-id="818"></path><path d="M341.312 384H384v42.688h-42.688z" fill="#E50046" p-id="819"></path><path d="M384 384h42.688v42.688H384zM426.688 384h42.688v42.688h-42.688z" fill="#FFF100" p-id="820"></path><path d="M469.312 384H512v42.688h-42.688z" fill="#E50046" p-id="821"></path><path d="M256 426.688h42.688v42.688H256z" p-id="822"></path><path d="M298.688 426.688h42.688v42.688h-42.688z" fill="#E50046" p-id="823"></path><path d="M341.312 426.688H384v42.688h-42.688z" fill="#E50046" p-id="824"></path><path d="M384 426.688h42.688v42.688H384zM426.688 426.688h42.688v42.688h-42.688z" fill="#FFF100" p-id="825"></path><path d="M469.312 426.688H512v42.688h-42.688zM298.688 469.312h42.688V512h-42.688z" fill="#E50046" p-id="826"></path><path d="M384 469.312h42.688V512H384zM426.688 469.312h42.688V512h-42.688z" fill="#FFF100" p-id="827"></path><path d="M512 384h42.688v42.688H512zM512 426.688h42.688v42.688H512z" fill="#E50046" p-id="828"></path><path d="M512 469.312h42.688V512H512z" fill="#E50046" p-id="829"></path><path d="M298.688 512h42.688v42.688h-42.688z" p-id="830"></path><path d="M384 512h42.688v42.688H384z" fill="#E50046" p-id="831"></path><path d="M426.688 512h42.688v42.688h-42.688z" fill="#FFF100" p-id="832"></path><path d="M554.688 384h42.688v42.688h-42.688zM554.688 426.688h42.688v42.688h-42.688z" fill="#E50046" p-id="833"></path><path d="M597.312 384H640v42.688h-42.688zM597.312 426.688H640v42.688h-42.688z" fill="#E50046" p-id="834"></path><path d="M597.312 469.312H640V512h-42.688zM554.688 512h42.688v42.688h-42.688z" fill="#E50046" p-id="835"></path><path d="M597.312 512H640v42.688h-42.688z" fill="#E50046" p-id="836"></path><path d="M298.688 554.688h42.688v42.688h-42.688z" p-id="837"></path><path d="M384 554.688h42.688v42.688H384z" fill="#E50046" p-id="838"></path><path d="M426.688 554.688h42.688v42.688h-42.688z" fill="#FFF100" p-id="839"></path><path d="M298.688 597.312h42.688V640h-42.688z" p-id="840"></path><path d="M426.688 597.312h42.688V640h-42.688z" fill="#E50046" p-id="841"></path><path d="M512 554.688h42.688v42.688H512z" fill="#FFF100" p-id="842"></path><path d="M512 597.312h42.688V640H512z" fill="#FFF100" p-id="843"></path><path d="M256 640h42.688v42.688H256z" p-id="844"></path><path d="M298.688 640h42.688v42.688h-42.688z" fill="#FFFFFF" p-id="845"></path><path d="M341.312 640H384v42.688h-42.688z" p-id="846"></path><path d="M384 640h42.688v42.688H384zM426.688 640h42.688v42.688h-42.688z" fill="#E50046" p-id="847"></path><path d="M469.312 640H512v42.688h-42.688zM512 640h42.688v42.688H512zM597.312 554.688H640v42.688h-42.688z" fill="#E50046" p-id="848"></path><path d="M597.312 597.312H640V640h-42.688zM554.688 640h42.688v42.688h-42.688z" fill="#FFF100" p-id="849"></path><path d="M597.312 640H640v42.688h-42.688z" fill="#FFF100" p-id="850"></path><path d="M213.312 682.688H256v42.688h-42.688z" p-id="851"></path><path d="M256 682.688h42.688v42.688H256zM298.688 682.688h42.688v42.688h-42.688z" fill="#FFFFFF" p-id="852"></path><path d="M341.312 682.688H384v42.688h-42.688z" fill="#E3E7E6" p-id="853"></path><path d="M384 682.688h42.688v42.688H384zM426.688 682.688h42.688v42.688h-42.688z" p-id="854"></path><path d="M469.312 682.688H512v42.688h-42.688z" p-id="855"></path><path d="M512 682.688h42.688v42.688H512zM554.688 682.688h42.688v42.688h-42.688z" fill="#E50046" p-id="856"></path><path d="M597.312 682.688H640v42.688h-42.688z" fill="#E50046" p-id="857"></path><path d="M170.688 725.312h42.688V768h-42.688zM341.312 725.312H384V768h-42.688zM128 768h42.688v42.688H128zM512 725.312h42.688V768H512zM554.688 725.312h42.688V768h-42.688z" p-id="858"></path><path d="M213.312 768H256v42.688h-42.688z" fill="#FFFFFF" p-id="859"></path><path d="M256 768h42.688v42.688H256z" fill="#E3E7E6" p-id="860"></path><path d="M298.688 768h42.688v42.688h-42.688z" p-id="861"></path><path d="M170.688 810.688h42.688v42.688h-42.688z" fill="#FFFFFF" p-id="862"></path><path d="M213.312 810.688H256v42.688h-42.688z" fill="#E3E7E6" p-id="863"></path><path d="M256 810.688h42.688v42.688H256z" p-id="864"></path><path d="M85.312 853.312H128V896h-42.688zM128 853.312h42.688V896H128z" fill="#FFFFFF" p-id="865"></path><path d="M170.688 853.312h42.688V896h-42.688z" fill="#E3E7E6" p-id="866"></path><path d="M213.312 853.312H256V896h-42.688z" p-id="867"></path><path d="M42.688 896h42.688v42.688H42.688z" fill="#FFFFFF" p-id="868"></path><path d="M85.312 896H128v42.688h-42.688z" fill="#FFFFFF" p-id="869"></path><path d="M128 896h42.688v42.688H128z" fill="#E3E7E6" p-id="870"></path><path d="M170.688 896h42.688v42.688h-42.688z" p-id="871"></path><path d="M42.688 938.688h42.688v42.688H42.688z" fill="#E3E7E6" p-id="872"></path><path d="M85.312 938.688H128v42.688h-42.688z" fill="#E3E7E6" p-id="873"></path><path d="M128 938.688h42.688v42.688H128zM597.312 725.312H640V768h-42.688zM42.688 853.312h42.688V896H42.688zM341.312 128H384v42.688h-42.688z" p-id="874"></path><path d="M384 128h42.688v42.688H384z" fill="#FFF100" p-id="875"></path><path d="M426.688 128h42.688v42.688h-42.688z" fill="#E50046" p-id="876"></path><path d="M469.312 128H512v42.688h-42.688z" fill="#E50046" p-id="877"></path><path d="M256 341.312h42.688V384H256z" p-id="878"></path><path d="M298.688 341.312h42.688V384h-42.688z" fill="#E50046" p-id="879"></path><path d="M341.312 341.312H384V384h-42.688z" fill="#E50046" p-id="880"></path><path d="M384 341.312h42.688V384H384zM426.688 341.312h42.688V384h-42.688z" fill="#FFF100" p-id="881"></path><path d="M469.312 341.312H512V384h-42.688z" fill="#FFF100" p-id="882"></path><path d="M512 0h42.688v42.688H512z" p-id="883"></path><path d="M512 128h42.688v42.688H512zM512 341.312h42.688V384H512z" fill="#E50046" p-id="884"></path><path d="M554.688 0h42.688v42.688h-42.688z" p-id="885"></path><path d="M554.688 128h42.688v42.688h-42.688zM554.688 341.312h42.688V384h-42.688z" fill="#E50046" p-id="886"></path><path d="M597.312 0H640v42.688h-42.688z" p-id="887"></path><path d="M597.312 128H640v42.688h-42.688zM597.312 341.312H640V384h-42.688z" fill="#E50046" p-id="888"></path><path d="M640 0h42.688v42.688H640z" p-id="889"></path><path d="M640 128h42.688v42.688H640zM640 298.688h42.688v42.688H640z" fill="#E50046" p-id="890"></path><path d="M640 341.312h42.688V384H640zM640 384h42.688v42.688H640z" fill="#E50046" p-id="891"></path><path d="M640 426.688h42.688v42.688H640z" fill="#FFF100" p-id="892"></path><path d="M640 469.312h42.688V512H640z" fill="#FFF100" p-id="893"></path><path d="M640 512h42.688v42.688H640zM640 554.688h42.688v42.688H640z" fill="#E50046" p-id="894"></path><path d="M640 597.312h42.688V640H640zM640 640h42.688v42.688H640z" fill="#FFF100" p-id="895"></path><path d="M682.688 0h42.688v42.688h-42.688z" p-id="896"></path><path d="M682.688 128h42.688v42.688h-42.688z" fill="#E50046" p-id="897"></path><path d="M682.688 256h42.688v42.688h-42.688zM682.688 341.312h42.688V384h-42.688z" fill="#FFF100" p-id="898"></path><path d="M725.312 0H768v42.688h-42.688z" p-id="899"></path><path d="M725.312 128H768v42.688h-42.688z" fill="#FFF100" p-id="900"></path><path d="M725.312 213.312H768V256h-42.688z" fill="#E50046" p-id="901"></path><path d="M725.312 341.312H768V384h-42.688z" fill="#FFF100" p-id="902"></path><path d="M853.312 85.312H896V128h-42.688z" p-id="903"></path><path d="M853.312 128H896v42.688h-42.688z" fill="#E50046" p-id="904"></path><path d="M896 128h42.688v42.688H896z" p-id="905"></path><path d="M896 170.688h42.688v42.688H896z" fill="#E50046" p-id="906"></path><path d="M938.624 170.688h42.688v42.688h-42.688z" p-id="907"></path><path d="M938.624 213.312h42.688V256h-42.688zM981.312 256H1024v42.688h-42.688z" p-id="908"></path><path d="M768 128h42.688v42.688H768zM768 170.688h42.688v42.688H768z" fill="#FFF100" p-id="909"></path><path d="M768 341.312h42.688V384H768zM640 682.688h42.688v42.688H640z" fill="#E50046" p-id="910"></path><path d="M640 725.312h42.688V768H640zM810.688 42.688h42.688v42.688h-42.688z" p-id="911"></path><path d="M810.624 85.312h42.688V128h-42.688z" fill="#E50046" p-id="912"></path><path d="M810.688 128h42.688v42.688h-42.688z" fill="#FFF100" p-id="913"></path><path d="M810.688 341.312h42.688V384h-42.688z" fill="#E50046" p-id="914"></path><path d="M853.312 170.688H896v42.688h-42.688zM853.312 341.312H896V384h-42.688zM896 213.312h42.688V256H896zM896 341.312h42.688V384H896z" fill="#FFF100" p-id="915"></path><path d="M938.624 256h42.688v42.688h-42.688zM938.624 341.312h42.688V384h-42.688z" fill="#E50046" p-id="916"></path><path d="M981.312 298.688H1024v42.688h-42.688z" p-id="917"></path><path d="M981.312 341.312H1024V384h-42.688zM981.312 384H1024v42.688h-42.688zM981.312 426.688H1024v42.688h-42.688z" p-id="918"></path><path d="M981.312 469.312H1024V512h-42.688zM0 896h42.688v42.688H0zM0 938.688h42.688v42.624H0zM42.688 981.312h42.688V1024H42.688z" p-id="919"></path><path d="M85.312 981.312H128V1024h-42.688zM256 469.312h42.688V512H256z" p-id="920"></path><path d="M341.312 469.312H384V512h-42.688z" fill="#E50046" p-id="921"></path><path d="M469.312 469.312H512V512h-42.688z" fill="#FFF100" p-id="922"></path><path d="M341.312 512H384v42.688h-42.688z" fill="#E50046" p-id="923"></path><path d="M469.312 512H512v42.688h-42.688z" fill="#FFF100" p-id="924"></path><path d="M512 512h42.688v42.688H512zM554.688 469.312h42.688V512h-42.688zM341.312 554.688H384v42.688h-42.688z" fill="#E50046" p-id="925"></path><path d="M469.312 554.688H512v42.688h-42.688z" fill="#FFF100" p-id="926"></path><path d="M341.312 597.312H384V640h-42.688zM384 597.312h42.688V640H384z" fill="#E50046" p-id="927"></path><path d="M469.312 597.312H512V640h-42.688zM554.688 554.688h42.688v42.688h-42.688z" fill="#FFF100" p-id="928"></path><path d="M554.688 597.312h42.688V640h-42.688z" fill="#FFF100" p-id="929"></path><path d="M213.312 725.312H256V768h-42.688zM256 725.312h42.688V768H256z" fill="#FFFFFF" p-id="930"></path><path d="M298.688 725.312h42.688V768h-42.688z" fill="#E3E7E6" p-id="931"></path><path d="M170.688 768h42.688v42.688h-42.688z" fill="#FFFFFF" p-id="932"></path><path d="M85.312 810.688H128v42.688h-42.688z" p-id="933"></path><path d="M128 810.688h42.688v42.688H128z" fill="#FFFFFF" p-id="934"></path></svg>