<svg xmlns="http://www.w3.org/2000/svg" viewBox="0 0 1024 1024" version="1.1"><path d="M341.312 170.688H384v42.688h-42.688z" fill="#EE7A1B" p-id="3478"></path><path d="M426.688 170.688h42.688v42.688h-42.688z" fill="#994E24" p-id="3479"></path><path d="M469.312 170.688H512v42.688h-42.688z" fill="#EE7A1B" p-id="3480"></path><path d="M384 213.312h42.688V256H384z" fill="#994E24" p-id="3481"></path><path d="M426.688 213.312h42.688V256h-42.688z" fill="#EE7A1B" p-id="3482"></path><path d="M469.312 213.312H512V256h-42.688z" fill="#F8CE74" p-id="3483"></path><path d="M341.312 256H384v42.688h-42.688z" fill="#994E24" p-id="3484"></path><path d="M384 256h42.688v42.688H384z" fill="#EE7A1B" p-id="3485"></path><path d="M426.688 256h42.688v42.688h-42.688z" fill="#F8CE74" p-id="3486"></path><path d="M469.312 256H512v42.688h-42.688z" fill="#F5A217" p-id="3487"></path><path d="M298.688 298.688h42.688v42.688h-42.688z" fill="#994E24" p-id="3488"></path><path d="M341.312 298.688H384v42.688h-42.688z" fill="#EE7A1B" p-id="3489"></path><path d="M384 298.688h42.688v42.688H384z" fill="#F8CE74" p-id="3490"></path><path d="M426.688 298.688h42.688v42.688h-42.688z" fill="#F5A217" p-id="3491"></path><path d="M469.312 298.688H512v42.688h-42.688z" fill="#F5A217" p-id="3492"></path><path d="M512 170.688h42.688v42.688H512z" fill="#F8CE74" p-id="3493"></path><path d="M512 213.312h42.688V256H512zM512 256h42.688v42.688H512zM512 298.688h42.688v42.688H512zM554.688 170.688h42.688v42.688h-42.688z" fill="#F5A217" p-id="3494"></path><path d="M554.688 213.312h42.688V256h-42.688zM554.688 256h42.688v42.688h-42.688zM554.688 298.688h42.688v42.688h-42.688zM597.312 170.688H640v42.624h-42.688z" fill="#F5A217" p-id="3495"></path><path d="M597.312 213.312H640V256h-42.688zM597.312 256H640v42.688h-42.688zM597.312 298.688H640v42.688h-42.688zM640 213.312h42.688V256H640zM640 256h42.688v42.688H640zM682.688 213.312h42.624V256h-42.624zM640 170.688h42.688v42.624H640z" fill="#F5A217" p-id="3496"></path><path d="M682.688 170.688h42.688v42.624h-42.688z" fill="#F8CE74" p-id="3497"></path><path d="M725.312 170.688H768v42.624h-42.688z" fill="#EE7A1B" p-id="3498"></path><path d="M384 42.688h42.688v42.688H384z" fill="#F8CE74" p-id="3499"></path><path d="M426.688 42.688h42.688v42.688h-42.688z" fill="#EE7A1B" p-id="3500"></path><path d="M341.312 85.312H384V128h-42.688z" fill="#F8CE74" p-id="3501"></path><path d="M384 85.312h42.688V128H384z" fill="#F5A217" p-id="3502"></path><path d="M426.688 85.312h42.688V128h-42.688zM554.688 85.312h42.688V128h-42.688z" fill="#EE7A1B" p-id="3503"></path><path d="M597.312 85.312H640V128h-42.688zM640 85.312h42.688V128H640z" fill="#EE7A1B" p-id="3504"></path><path d="M682.688 298.688h42.688v42.688h-42.688zM725.312 256H768v42.688h-42.688z" fill="#F5A217" p-id="3505"></path><path d="M725.312 298.688H768v42.688h-42.688z" fill="#F5A217" p-id="3506"></path><path d="M768 213.312h42.688V256H768z" fill="#EE7A1B" p-id="3507"></path><path d="M768 256h42.688v42.688H768zM768 298.688h42.688v42.688H768z" fill="#F5A217" p-id="3508"></path><path d="M810.688 256h42.688v42.688h-42.688z" fill="#EE7A1B" p-id="3509"></path><path d="M810.688 298.688h42.688v42.688h-42.688z" fill="#F5A217" p-id="3510"></path><path d="M853.312 298.688H896v42.688h-42.688z" fill="#EE7A1B" p-id="3511"></path><path d="M682.688 384h42.688v42.688h-42.688zM682.688 426.688h42.688v42.688h-42.688z" fill="#F5A217" p-id="3512"></path><path d="M682.688 469.312h42.688V512h-42.688zM725.312 384H768v42.688h-42.688z" fill="#F5A217" p-id="3513"></path><path d="M725.312 426.688H768v42.688h-42.688z" fill="#F5A217" p-id="3514"></path><path d="M725.312 469.312H768V512h-42.688zM682.688 512h42.688v42.688h-42.688z" fill="#F5A217" p-id="3515"></path><path d="M725.312 512H768v42.688h-42.688zM768 384h42.688v42.688H768zM768 426.688h42.688v42.688H768z" fill="#F5A217" p-id="3516"></path><path d="M768 469.312h42.688V512H768zM768 512h42.688v42.688H768zM682.688 554.688h42.688v42.688h-42.688z" fill="#F5A217" p-id="3517"></path><path d="M682.688 597.312h42.688V640h-42.688z" fill="#F5A217" p-id="3518"></path><path d="M725.312 554.688H768v42.688h-42.688z" fill="#F5A217" p-id="3519"></path><path d="M725.312 597.312H768V640h-42.688zM682.688 640h42.688v42.688h-42.688z" fill="#EE7A1B" p-id="3520"></path><path d="M725.312 640H768v42.688h-42.688z" fill="#994E24" p-id="3521"></path><path d="M768 554.688h42.688v42.688H768z" fill="#EE7A1B" p-id="3522"></path><path d="M768 597.312h42.688V640H768zM682.688 682.688h42.688v42.688h-42.688z" fill="#994E24" p-id="3523"></path><path d="M810.688 384h42.688v42.688h-42.688zM810.688 426.688h42.688v42.688h-42.688z" fill="#F5A217" p-id="3524"></path><path d="M810.688 469.312h42.688V512h-42.688z" fill="#F5A217" p-id="3525"></path><path d="M810.688 512h42.688v42.688h-42.688z" fill="#EE7A1B" p-id="3526"></path><path d="M810.688 554.688h42.688v42.688h-42.688z" fill="#994E24" p-id="3527"></path><path d="M810.688 640h42.688v42.688h-42.688z" fill="#EE7A1B" p-id="3528"></path><path d="M853.312 384H896v42.688h-42.688zM853.312 426.688H896v42.688h-42.688z" fill="#F5A217" p-id="3529"></path><path d="M853.312 469.312H896V512h-42.688zM896 384h42.688v42.688H896zM896 426.688h42.688v42.688H896z" fill="#EE7A1B" p-id="3530"></path><path d="M853.312 512H896v42.688h-42.688z" fill="#994E24" p-id="3531"></path><path d="M853.312 597.312H896V640h-42.688zM896 554.688h42.688v42.688H896z" fill="#EE7A1B" p-id="3532"></path><path d="M896 597.312h42.688V640H896zM853.312 640H896v42.688h-42.688z" fill="#F5A217" p-id="3533"></path><path d="M896 640h42.688v42.688H896z" fill="#F8CE74" p-id="3534"></path><path d="M938.688 554.688h42.688v42.688h-42.688z" fill="#EE7A1B" p-id="3535"></path><path d="M938.688 597.312h42.688V640h-42.688zM85.312 384H128v42.688h-42.688z" fill="#F8CE74" p-id="3536"></path><path d="M128 384h42.688v42.688H128z" fill="#F5A217" p-id="3537"></path><path d="M170.688 384h42.688v42.688h-42.688zM256 384h42.688v42.688H256z" fill="#EE7A1B" p-id="3538"></path><path d="M298.688 384h42.688v42.688h-42.688z" fill="#F5A217" p-id="3539"></path><path d="M341.312 384H384v42.688h-42.688zM384 384h42.688v42.688H384zM426.688 384h42.688v42.688h-42.688z" fill="#F5A217" p-id="3540"></path><path d="M469.312 384H512v42.688h-42.688z" fill="#F5A217" p-id="3541"></path><path d="M42.688 426.688h42.688v42.688H42.688z" fill="#F8CE74" p-id="3542"></path><path d="M85.312 426.688H128v42.688h-42.688zM128 426.688h42.688v42.688H128z" fill="#F5A217" p-id="3543"></path><path d="M170.688 426.688h42.688v42.688h-42.688zM256 426.688h42.688v42.688H256z" fill="#EE7A1B" p-id="3544"></path><path d="M298.688 426.688h42.688v42.688h-42.688z" fill="#F5A217" p-id="3545"></path><path d="M341.312 426.688H384v42.688h-42.688zM384 426.688h42.688v42.688H384zM426.688 426.688h42.688v42.688h-42.688z" fill="#F5A217" p-id="3546"></path><path d="M469.312 426.688H512v42.688h-42.688zM42.688 469.312h42.688V512H42.688z" fill="#F5A217" p-id="3547"></path><path d="M213.312 469.312H256V512h-42.688z" fill="#994E24" p-id="3548"></path><path d="M298.688 469.312h42.688V512h-42.688zM384 469.312h42.688V512H384zM426.688 469.312h42.688V512h-42.688zM512 384h42.688v42.688H512zM512 426.688h42.688v42.688H512z" fill="#F5A217" p-id="3549"></path><path d="M512 469.312h42.688V512H512zM42.688 512h42.688v42.688H42.688z" fill="#F5A217" p-id="3550"></path><path d="M213.312 512H256v42.688h-42.688z" fill="#994E24" p-id="3551"></path><path d="M298.688 512h42.688v42.688h-42.688zM384 512h42.688v42.688H384zM426.688 512h42.688v42.688h-42.688zM554.688 384h42.688v42.688h-42.688zM554.688 426.688h42.688v42.688h-42.688z" fill="#F5A217" p-id="3552"></path><path d="M597.312 384H640v42.688h-42.688zM597.312 426.688H640v42.688h-42.688z" fill="#F5A217" p-id="3553"></path><path d="M597.312 469.312H640V512h-42.688zM554.688 512h42.688v42.688h-42.688z" fill="#F5A217" p-id="3554"></path><path d="M597.312 512H640v42.688h-42.688zM42.688 554.688h42.688v42.688H42.688z" fill="#F5A217" p-id="3555"></path><path d="M213.312 554.688H256v42.688h-42.688z" fill="#EE7A1B" p-id="3556"></path><path d="M298.688 554.688h42.688v42.688h-42.688zM384 554.688h42.688v42.688H384zM426.688 554.688h42.688v42.688h-42.688zM42.688 597.312h42.688V640H42.688z" fill="#F5A217" p-id="3557"></path><path d="M213.312 597.312H256V640h-42.688z" fill="#EE7A1B" p-id="3558"></path><path d="M298.688 597.312h42.688V640h-42.688zM426.688 597.312h42.688V640h-42.688zM512 554.688h42.688v42.688H512z" fill="#F5A217" p-id="3559"></path><path d="M512 597.312h42.688V640H512zM42.688 640h42.688v42.688H42.688z" fill="#F5A217" p-id="3560"></path><path d="M85.312 640H128v42.688h-42.688z" fill="#EE7A1B" p-id="3561"></path><path d="M170.688 640h42.688v42.688h-42.688z" fill="#994E24" p-id="3562"></path><path d="M213.312 640H256v42.688h-42.688z" fill="#EE7A1B" p-id="3563"></path><path d="M256 640h42.688v42.688H256zM298.688 640h42.688v42.688h-42.688z" fill="#F5A217" p-id="3564"></path><path d="M341.312 640H384v42.688h-42.688zM384 640h42.688v42.688H384zM426.688 640h42.688v42.688h-42.688z" fill="#F5A217" p-id="3565"></path><path d="M469.312 640H512v42.688h-42.688zM512 640h42.688v42.688H512zM597.312 554.688H640v42.688h-42.688z" fill="#F5A217" p-id="3566"></path><path d="M597.312 597.312H640V640h-42.688zM554.688 640h42.688v42.688h-42.688z" fill="#F5A217" p-id="3567"></path><path d="M597.312 640H640v42.688h-42.688zM42.688 682.688h42.688v42.688H42.688z" fill="#F5A217" p-id="3568"></path><path d="M85.312 682.688H128v42.688h-42.688z" fill="#EE7A1B" p-id="3569"></path><path d="M170.688 682.688h42.688v42.688h-42.688z" fill="#994E24" p-id="3570"></path><path d="M213.312 682.688H256v42.688h-42.688z" fill="#EE7A1B" p-id="3571"></path><path d="M256 682.688h42.688v42.688H256zM298.688 682.688h42.688v42.688h-42.688z" fill="#F5A217" p-id="3572"></path><path d="M341.312 682.688H384v42.688h-42.688zM384 682.688h42.688v42.688H384zM426.688 682.688h42.688v42.688h-42.688z" fill="#F5A217" p-id="3573"></path><path d="M469.312 682.688H512v42.688h-42.688zM512 682.688h42.688v42.688H512zM554.688 682.688h42.688v42.688h-42.688z" fill="#F5A217" p-id="3574"></path><path d="M597.312 682.688H640v42.688h-42.688z" fill="#F5A217" p-id="3575"></path><path d="M42.688 725.312h42.688V768H42.688z" fill="#994E24" p-id="3576"></path><path d="M85.312 725.312H128V768h-42.688zM170.688 725.312h42.688V768h-42.688z" fill="#994E24" p-id="3577"></path><path d="M341.312 725.312H384V768h-42.688zM384 725.312h42.688V768H384zM426.688 725.312h42.688V768h-42.688z" fill="#F5A217" p-id="3578"></path><path d="M469.312 725.312H512V768h-42.688zM384 768h42.688v42.688H384zM426.688 768h42.688v42.688h-42.688z" fill="#EE7A1B" p-id="3579"></path><path d="M469.312 768H512v42.688h-42.688z" fill="#994E24" p-id="3580"></path><path d="M512 725.312h42.688V768H512z" fill="#EE7A1B" p-id="3581"></path><path d="M512 768h42.688v42.688H512z" fill="#994E24" p-id="3582"></path><path d="M42.688 810.688h42.688v42.688H42.688z" fill="#F9C694" p-id="3583"></path><path d="M554.688 725.312h42.688V768h-42.688z" fill="#EE7A1B" p-id="3584"></path><path d="M426.688 810.688h42.688v42.688h-42.688zM213.312 768H256v42.688h-42.688z" fill="#994E24" p-id="3585"></path><path d="M256 768h42.688v42.688H256zM298.688 768h42.688v42.688h-42.688z" fill="#EE7A1B" p-id="3586"></path><path d="M256 810.688h42.688v42.688H256zM298.688 810.688h42.688v42.688h-42.688z" fill="#994E24" p-id="3587"></path><path d="M341.312 810.688H384v42.688h-42.688z" fill="#994E24" p-id="3588"></path><path d="M554.688 810.688h42.688v42.688h-42.688z" fill="#EE7A1B" p-id="3589"></path><path d="M597.312 810.688H640v42.688h-42.688zM512 853.312h42.688V896H512z" fill="#EE7A1B" p-id="3590"></path><path d="M554.688 853.312h42.688V896h-42.688z" fill="#F5A217" p-id="3591"></path><path d="M597.312 853.312H640V896h-42.688z" fill="#F5A217" p-id="3592"></path><path d="M256 896h42.688v42.688H256z" fill="#994E24" p-id="3593"></path><path d="M298.688 896h42.688v42.688h-42.688z" fill="#EE7A1B" p-id="3594"></path><path d="M341.312 896H384v42.688h-42.688zM384 896h42.688v42.688H384zM426.688 896h42.688v42.688h-42.688z" fill="#EE7A1B" p-id="3595"></path><path d="M469.312 896H512v42.688h-42.688z" fill="#F5A217" p-id="3596"></path><path d="M170.688 938.688h42.688v42.688h-42.688z" fill="#F9C694" p-id="3597"></path><path d="M256 938.688h42.688v42.688H256z" fill="#994E24" p-id="3598"></path><path d="M298.688 938.688h42.688v42.688h-42.688z" fill="#F5A217" p-id="3599"></path><path d="M341.312 938.688H384v42.688h-42.688zM384 938.688h42.688v42.688H384zM426.688 938.688h42.688v42.688h-42.688z" fill="#F5A217" p-id="3600"></path><path d="M469.312 938.688H512v42.688h-42.688zM512 896h42.688v42.688H512zM512 938.688h42.688v42.688H512zM554.688 896h42.688v42.688h-42.688z" fill="#F5A217" p-id="3601"></path><path d="M554.688 938.688h42.688v42.688h-42.688zM597.312 896H640v42.688h-42.688z" fill="#F8CE74" p-id="3602"></path><path d="M597.312 725.312H640V768h-42.688zM469.312 853.312H512V896h-42.688z" fill="#EE7A1B" p-id="3603"></path><path d="M341.312 128H384v42.688h-42.688z" fill="#F5A217" p-id="3604"></path><path d="M384 128h42.688v42.688H384z" fill="#EE7A1B" p-id="3605"></path><path d="M469.312 128H512v42.688h-42.688z" fill="#994E24" p-id="3606"></path><path d="M128 341.312h42.688V384H128zM170.688 341.312h42.688V384h-42.688z" fill="#F8CE74" p-id="3607"></path><path d="M213.312 341.312H256V384h-42.688z" fill="#EE7A1B" p-id="3608"></path><path d="M256 341.312h42.688V384H256z" fill="#221714" p-id="3609"></path><path d="M298.688 341.312h42.688V384h-42.688z" fill="#EE7A1B" p-id="3610"></path><path d="M341.312 341.312H384V384h-42.688zM384 341.312h42.688V384H384zM426.688 341.312h42.688V384h-42.688z" fill="#F5A217" p-id="3611"></path><path d="M469.312 341.312H512V384h-42.688z" fill="#F5A217" p-id="3612"></path><path d="M512 128h42.688v42.688H512z" fill="#EE7A1B" p-id="3613"></path><path d="M512 341.312h42.688V384H512z" fill="#F5A217" p-id="3614"></path><path d="M554.688 128h42.688v42.688h-42.688z" fill="#F8CE74" p-id="3615"></path><path d="M554.688 341.312h42.688V384h-42.688z" fill="#F5A217" p-id="3616"></path><path d="M597.312 128H640v42.688h-42.688z" fill="#F8CE74" p-id="3617"></path><path d="M597.312 341.312H640V384h-42.688z" fill="#F5A217" p-id="3618"></path><path d="M640 128h42.688v42.688H640z" fill="#F8CE74" p-id="3619"></path><path d="M640 298.688h42.688v42.688H640z" fill="#F5A217" p-id="3620"></path><path d="M640 341.312h42.688V384H640zM640 384h42.688v42.688H640zM640 426.688h42.688v42.688H640z" fill="#F5A217" p-id="3621"></path><path d="M640 469.312h42.688V512H640zM640 512h42.688v42.688H640zM640 554.688h42.688v42.688H640z" fill="#F5A217" p-id="3622"></path><path d="M640 597.312h42.688V640H640zM640 640h42.688v42.688H640z" fill="#F5A217" p-id="3623"></path><path d="M682.688 128h42.688v42.688h-42.688z" fill="#EE7A1B" p-id="3624"></path><path d="M682.688 256h42.688v42.688h-42.688zM682.688 341.312h42.688V384h-42.688zM725.312 213.312H768V256h-42.688z" fill="#F5A217" p-id="3625"></path><path d="M725.312 341.312H768V384h-42.688zM768 341.312h42.688V384H768z" fill="#F5A217" p-id="3626"></path><path d="M640 682.688h42.688v42.688H640z" fill="#EE7A1B" p-id="3627"></path><path d="M640 725.312h42.688V768H640z" fill="#221714" p-id="3628"></path><path d="M640 768h42.688v42.688H640z" fill="#EE7A1B" p-id="3629"></path><path d="M640 810.688h42.688v42.688H640z" fill="#F8CE74" p-id="3630"></path><path d="M810.688 341.312h42.688V384h-42.688z" fill="#F5A217" p-id="3631"></path><path d="M853.312 341.312H896V384h-42.688z" fill="#F5A217" p-id="3632"></path><path d="M896 341.312h42.688V384H896z" fill="#EE7A1B" p-id="3633"></path><path d="M640 853.312h42.688V896H640z" fill="#F8CE74" p-id="3634"></path><path d="M85.312 469.312H128V512h-42.688z" fill="#F5A217" p-id="3635"></path><path d="M128 469.312h42.688V512H128zM256 469.312h42.688V512H256z" fill="#EE7A1B" p-id="3636"></path><path d="M341.312 469.312H384V512h-42.688zM469.312 469.312H512V512h-42.688zM85.312 512H128v42.688h-42.688z" fill="#F5A217" p-id="3637"></path><path d="M128 512h42.688v42.688H128zM256 512h42.688v42.688H256z" fill="#EE7A1B" p-id="3638"></path><path d="M341.312 512H384v42.688h-42.688zM469.312 512H512v42.688h-42.688zM512 512h42.688v42.688H512zM554.688 469.312h42.688V512h-42.688z" fill="#F5A217" p-id="3639"></path><path d="M85.312 554.688H128v42.688h-42.688z" fill="#EE7A1B" p-id="3640"></path><path d="M170.688 554.688h42.688v42.688h-42.688z" fill="#994E24" p-id="3641"></path><path d="M256 554.688h42.688v42.688H256zM341.312 554.688H384v42.688h-42.688zM469.312 554.688H512v42.688h-42.688z" fill="#F5A217" p-id="3642"></path><path d="M85.312 597.312H128V640h-42.688z" fill="#EE7A1B" p-id="3643"></path><path d="M170.688 597.312h42.688V640h-42.688z" fill="#994E24" p-id="3644"></path><path d="M256 597.312h42.688V640H256zM341.312 597.312H384V640h-42.688zM384 597.312h42.688V640H384zM469.312 597.312H512V640h-42.688zM554.688 554.688h42.688v42.688h-42.688z" fill="#F5A217" p-id="3645"></path><path d="M554.688 597.312h42.688V640h-42.688z" fill="#F5A217" p-id="3646"></path><path d="M213.312 725.312H256V768h-42.688z" fill="#EE7A1B" p-id="3647"></path><path d="M256 725.312h42.688V768H256zM298.688 725.312h42.688V768h-42.688z" fill="#F5A217" p-id="3648"></path><path d="M341.312 768H384v42.688h-42.688z" fill="#EE7A1B" p-id="3649"></path><path d="M384 810.688h42.688v42.688H384z" fill="#994E24" p-id="3650"></path><path d="M298.688 170.688h42.688v42.688h-42.688zM384 170.688h42.688v42.688H384z" fill="#221714" p-id="3651"></path><path d="M298.688 213.312h42.688V256h-42.688z" fill="#221714" p-id="3652"></path><path d="M341.312 213.312H384V256h-42.688zM298.688 256h42.688v42.688h-42.688zM128 298.688h42.688v42.688H128zM170.688 298.688h42.688v42.688h-42.688z" fill="#221714" p-id="3653"></path><path d="M213.312 298.688H256v42.688h-42.688zM256 298.688h42.688v42.688H256zM341.312 42.688H384v42.688h-42.688zM469.312 42.688H512v42.688h-42.688z" fill="#221714" p-id="3654"></path><path d="M298.688 85.312h42.688V128h-42.688zM469.312 85.312H512V128h-42.688zM512 85.312h42.688V128H512zM554.688 42.688h42.688v42.688h-42.688z" fill="#221714" p-id="3655"></path><path d="M597.312 42.688H640v42.688h-42.688zM640 42.688h42.688v42.688H640zM682.688 85.312h42.688V128h-42.688zM810.688 213.312h42.688V256h-42.688zM853.312 256H896v42.688h-42.688zM896 298.688h42.688v42.688H896zM768 640h42.688v42.688H768zM725.312 682.688H768v42.688h-42.688zM768 682.688h42.688v42.688H768z" fill="#221714" p-id="3656"></path><path d="M682.688 725.312h42.688V768h-42.688zM810.688 597.312h42.688V640h-42.688zM810.688 682.688h42.688v42.688h-42.688zM896 469.312h42.688V512H896zM896 512h42.688v42.688H896zM938.688 384h42.688v42.688h-42.688zM938.688 426.688h42.688v42.688h-42.688zM938.688 512h42.688v42.688h-42.688z" fill="#221714" p-id="3657"></path><path d="M853.312 554.688H896v42.688h-42.688zM938.688 640h42.688v42.688h-42.688zM853.312 682.688H896v42.688h-42.688zM896 682.688h42.688v42.688H896zM42.688 384h42.688v42.688H42.688zM213.312 384H256v42.688h-42.688zM213.312 426.688H256v42.688h-42.688zM128 554.688h42.688v42.688H128z" fill="#221714" p-id="3658"></path><path d="M128 597.312h42.688V640H128zM128 640h42.688v42.688H128zM128 682.688h42.688v42.688H128z" fill="#221714" p-id="3659"></path><path d="M128 725.312h42.688V768H128zM42.688 768h42.688v42.688H42.688z" fill="#221714" p-id="3660"></path><path d="M85.312 768H128v42.688h-42.688zM469.312 810.688H512v42.688h-42.688zM213.312 810.688H256v42.688h-42.688zM597.312 768H640v42.688h-42.688zM256 853.312h42.688V896H256zM298.688 853.312h42.688V896h-42.688z" fill="#221714" p-id="3661"></path><path d="M341.312 853.312H384V896h-42.688zM384 853.312h42.688V896H384zM170.688 896h42.688v42.688h-42.688z" fill="#221714" p-id="3662"></path><path d="M213.312 896H256v42.688h-42.688zM128 938.688h42.688v42.688H128zM213.312 938.688H256v42.688h-42.688zM597.312 938.688H640v42.688h-42.688zM682.688 853.312h42.688V896h-42.688z" fill="#221714" p-id="3663"></path><path d="M682.688 810.688h42.688v42.688h-42.688zM512 810.688h42.688v42.688H512zM554.688 768h42.688v42.688h-42.688zM682.688 768h42.688v42.688h-42.688zM42.688 853.312h42.688V896H42.688zM426.688 853.312h42.688V896h-42.688zM384 0h42.688v42.688H384zM426.688 0h42.688v42.688h-42.688zM298.688 128h42.688v42.688h-42.688zM426.688 128h42.688v42.688h-42.688zM85.312 341.312H128V384h-42.688zM0 426.688h42.688v42.688H0z" fill="#221714" p-id="3664"></path><path d="M0 469.312h42.688V512H0zM0 512h42.688v42.688H0zM0 554.688h42.688v42.688H0z" fill="#221714" p-id="3665"></path><path d="M0 597.312h42.688V640H0zM0 640h42.688v42.688H0zM725.312 128H768v42.688h-42.688zM768 170.688h42.688v42.688H768zM0 682.688h42.688v42.688H0z" fill="#221714" p-id="3666"></path><path d="M0 725.312h42.688V768H0zM0 810.688h42.688v42.688H0zM938.688 341.312h42.688V384h-42.688zM981.312 554.688H1024v42.688h-42.688z" fill="#221714" p-id="3667"></path><path d="M981.312 597.312H1024V640h-42.688zM170.688 981.312h42.688V1024h-42.688zM256 981.312h42.688V1024H256zM298.688 981.312h42.688V1024h-42.688z" fill="#221714" p-id="3668"></path><path d="M341.312 981.312H384V1024h-42.688zM384 981.312h42.688V1024H384zM426.688 981.312h42.688V1024h-42.688z" fill="#221714" p-id="3669"></path><path d="M469.312 981.312H512V1024h-42.688zM512 981.312h42.688V1024H512zM554.688 981.312h42.688V1024h-42.688zM640 896h42.688v42.688H640zM170.688 469.312h42.688V512h-42.688zM170.688 512h42.688v42.688h-42.688zM170.688 768h42.688v42.688h-42.688zM85.312 810.688H128v42.688h-42.688z" fill="#221714" p-id="3670"></path></svg>