<svg xmlns="http://www.w3.org/2000/svg" viewBox="0 0 1024 1024" version="1.1"><path d="M469.04816 298.520082H511.712162v42.664002h-42.664002zM511.712162 213.192079h42.664001V255.856081H511.712162zM511.712162 255.856081h42.664001v42.664001H511.712162zM511.712162 298.520082h42.664001v42.664002H511.712162zM554.376163 170.592042h42.664002v42.664001h-42.664002z" fill="#F49F3F" p-id="5169"></path><path d="M554.376163 213.192079h42.664002V255.856081h-42.664002zM596.976201 170.592042H639.640202v42.600037h-42.664001zM596.976201 85.264039H639.640202V127.92804h-42.664001z" fill="#F49F3F" p-id="5170"></path><path d="M638.80867 42.664001h42.664002v42.664002h-42.664002z" fill="#F49F3F" p-id="5171"></path><path d="M638.80867 85.264039h42.664002V127.92804h-42.664002zM681.472672 42.664001h42.664001v42.664002h-42.664001zM383.784121 383.784121h42.664002v42.664002H383.784121zM426.448123 383.784121h42.664001v42.664002h-42.664001zM341.12012 426.448123H383.784121v42.664001h-42.664001zM383.784121 426.448123h42.664002v42.664001H383.784121z" fill="#F49F3F" p-id="5172"></path><path d="M298.520082 469.04816h42.664002V511.712162h-42.664002zM213.192079 511.712162H255.856081v42.664001h-42.664002zM298.520082 511.712162h42.664002v42.664001h-42.664002zM127.92804 554.376163h42.664002v42.664002H127.92804zM213.192079 554.376163H255.856081v42.664002h-42.664002z" fill="#F49F3F" p-id="5173"></path><path d="M127.92804 596.976201h42.664002V639.640202H127.92804zM85.264039 639.640202H127.92804v42.664002h-42.664001zM426.448123 341.12012h42.664001V383.784121h-42.664001z" fill="#F49F3F" p-id="5174"></path><path d="M469.04816 341.12012H511.712162V383.784121h-42.664002zM554.376163 127.92804h42.664002v42.664002h-42.664002z" fill="#F49F3F" p-id="5175"></path><path d="M596.976201 127.92804H639.640202v42.664002h-42.664001zM639.640202 127.92804h42.664002v42.664002H639.640202zM724.136673 0h42.664002v42.664001h-42.664002zM341.12012 469.04816H383.784121V511.712162h-42.664001zM255.856081 511.712162h42.664001v42.664001H255.856081zM170.592042 554.376163h42.664001v42.664002h-42.664001zM85.264039 596.976201H127.92804V639.640202h-42.664001z" fill="#F49F3F" p-id="5176"></path><path d="M170.592042 596.976201h42.664001V639.640202h-42.664001z" fill="#F49F3F" p-id="5177"></path><path d="M596.976201 255.856081H639.640202v42.664001h-42.664001z" fill="#EA4D07" p-id="5178"></path><path d="M596.976201 298.520082H639.640202v42.664002h-42.664001z" fill="#FDD030" p-id="5179"></path><path d="M639.640202 213.192079h42.664002V255.856081H639.640202z" fill="#EA4D07" p-id="5180"></path><path d="M639.640202 255.856081h42.664002v42.664001H639.640202zM682.304204 213.192079h42.600037V255.856081h-42.600037z" fill="#FDD030" p-id="5181"></path><path d="M682.304204 170.592042h42.664001v42.600037h-42.664001z" fill="#EA4D07" p-id="5182"></path><path d="M724.904241 170.592042H767.568243v42.600037h-42.664002z" fill="#FDD030" p-id="5183"></path><path d="M724.904241 85.264039H767.568243V127.92804h-42.664002zM767.568243 42.664001h42.664001v42.664002H767.568243z" fill="#EA4D07" p-id="5184"></path><path d="M767.568243 85.264039h42.664001V127.92804H767.568243z" fill="#FDD030" p-id="5185"></path><path d="M469.04816 426.448123H511.712162v42.664001h-42.664002z" fill="#EA4D07" p-id="5186"></path><path d="M426.448123 469.04816h42.664001V511.712162h-42.664001zM511.712162 383.784121h42.664001v42.664002H511.712162z" fill="#EA4D07" p-id="5187"></path><path d="M511.712162 426.448123h42.664001v42.664001H511.712162z" fill="#FDD030" p-id="5188"></path><path d="M511.712162 469.04816h42.664001V511.712162H511.712162zM383.784121 511.712162h42.664002v42.664001H383.784121z" fill="#EA4D07" p-id="5189"></path><path d="M426.448123 511.712162h42.664001v42.664001h-42.664001zM554.376163 383.784121h42.664002v42.664002h-42.664002z" fill="#FDD030" p-id="5190"></path><path d="M554.376163 426.448123h42.664002v42.664001h-42.664002zM596.976201 383.784121H639.640202v42.664002h-42.664001z" fill="#EA4D07" p-id="5191"></path><path d="M383.784121 554.376163h42.664002v42.664002H383.784121z" fill="#FDD030" p-id="5192"></path><path d="M426.448123 554.376163h42.664001v42.664002h-42.664001z" fill="#EA4D07" p-id="5193"></path><path d="M298.520082 596.976201h42.664002V639.640202h-42.664002z" fill="#FDD030" p-id="5194"></path><path d="M213.192079 639.640202H255.856081v42.664002h-42.664002z" fill="#EA4D07" p-id="5195"></path><path d="M255.856081 639.640202h42.664001v42.664002H255.856081z" fill="#FDD030" p-id="5196"></path><path d="M298.520082 639.640202h42.664002v42.664002h-42.664002zM127.92804 682.304204h42.664002v42.664001H127.92804z" fill="#EA4D07" p-id="5197"></path><path d="M170.592042 682.304204h42.664001v42.664001h-42.664001z" fill="#FDD030" p-id="5198"></path><path d="M213.192079 682.304204H255.856081v42.664001h-42.664002z" fill="#FDD030" p-id="5199"></path><path d="M42.664001 724.904241h42.664002V767.568243H42.664001z" fill="#EA4D07" p-id="5200"></path><path d="M85.264039 724.904241H127.92804V767.568243h-42.664001z" fill="#EA4D07" p-id="5201"></path><path d="M127.92804 724.904241h42.664002V767.568243H127.92804z" fill="#FDD030" p-id="5202"></path><path d="M170.592042 724.904241h42.664001V767.568243h-42.664001zM42.664001 767.568243h42.664002v42.664001H42.664001z" fill="#EA4D07" p-id="5203"></path><path d="M85.264039 767.568243H127.92804v42.664001h-42.664001zM127.92804 767.568243h42.664002v42.664001H127.92804zM42.664001 810.232244h42.664002v42.664002H42.664001z" fill="#FDD030" p-id="5204"></path><path d="M85.264039 852.832282H127.92804V895.496283h-42.664001z" fill="#EA4D07" p-id="5205"></path><path d="M42.664001 852.832282h42.664002V895.496283H42.664001zM554.376163 341.12012h42.664002V383.784121h-42.664002z" fill="#EA4D07" p-id="5206"></path><path d="M596.976201 341.12012H639.640202V383.784121h-42.664001z" fill="#FDD030" p-id="5207"></path><path d="M639.640202 298.520082h42.664002v42.664002H639.640202zM682.304204 255.856081h42.664001v42.664001h-42.664001z" fill="#EA4D07" p-id="5208"></path><path d="M724.904241 127.92804H767.568243v42.664002h-42.664002zM852.832282 42.664001H895.496283v42.664002h-42.664001z" fill="#FDD030" p-id="5209"></path><path d="M895.496283 42.664001h42.664002v42.664002H895.496283zM852.832282 85.264039H895.496283V127.92804h-42.664001z" fill="#EA4D07" p-id="5210"></path><path d="M895.496283 85.264039h42.664002V127.92804H895.496283z" fill="#FDD030" p-id="5211"></path><path d="M767.568243 127.92804h42.664001v42.664002H767.568243z" fill="#EA4D07" p-id="5212"></path><path d="M810.232244 42.664001h42.664002v42.664002h-42.664002z" fill="#FDD030" p-id="5213"></path><path d="M810.232244 85.264039h42.664002V127.92804h-42.664002zM810.232244 127.92804h42.664002v42.664002h-42.664002z" fill="#EA4D07" p-id="5214"></path><path d="M469.04816 469.04816H511.712162V511.712162h-42.664002z" fill="#FDD030" p-id="5215"></path><path d="M469.04816 511.712162H511.712162v42.664001h-42.664002zM341.12012 554.376163H383.784121v42.664002h-42.664001zM255.856081 596.976201h42.664001V639.640202H255.856081z" fill="#EA4D07" p-id="5216"></path><path d="M341.12012 596.976201H383.784121V639.640202h-42.664001z" fill="#FDD030" p-id="5217"></path><path d="M383.784121 596.976201h42.664002V639.640202H383.784121zM85.264039 810.232244H127.92804v42.664002h-42.664001zM127.92804 810.232244h42.664002v42.664002H127.92804z" fill="#EA4D07" p-id="5218"></path><path d="M724.904241 298.520082H767.568243v42.664002h-42.664002zM767.568243 213.192079h42.664001V255.856081H767.568243zM767.568243 255.856081h42.664001v42.664001H767.568243zM767.568243 298.520082h42.664001v42.664002H767.568243zM810.232244 213.192079h42.664002V255.856081h-42.664002zM810.232244 255.856081h42.664002v42.664001h-42.664002zM810.232244 298.520082h42.664002v42.664002h-42.664002z" fill="#F7B353" p-id="5219"></path><path d="M852.832282 213.192079H895.496283V255.856081h-42.664001zM852.832282 255.856081H895.496283v42.664001h-42.664001zM852.832282 298.520082H895.496283v42.664002h-42.664001zM895.496283 255.856081h42.664002v42.664001H895.496283zM895.496283 298.520082h42.664002v42.664002H895.496283zM938.160285 298.520082h42.664001v42.664002h-42.664001zM682.304204 383.784121h42.664001v42.664002h-42.664001zM682.304204 426.448123h42.664001v42.664001h-42.664001z" fill="#F7B353" p-id="5220"></path><path d="M682.304204 469.04816h42.664001V511.712162h-42.664001zM724.904241 383.784121H767.568243v42.664002h-42.664002z" fill="#F7B353" p-id="5221"></path><path d="M724.904241 426.448123H767.568243v42.664001h-42.664002z" fill="#F7B353" p-id="5222"></path><path d="M724.904241 469.04816H767.568243V511.712162h-42.664002zM682.304204 511.712162h42.664001v42.664001h-42.664001z" fill="#F7B353" p-id="5223"></path><path d="M724.904241 511.712162H767.568243v42.664001h-42.664002zM767.568243 383.784121h42.664001v42.664002H767.568243zM767.568243 426.448123h42.664001v42.664001H767.568243z" fill="#F7B353" p-id="5224"></path><path d="M767.568243 469.04816h42.664001V511.712162H767.568243zM767.568243 511.712162h42.664001v42.664001H767.568243zM682.304204 554.376163h42.664001v42.664002h-42.664001z" fill="#F7B353" p-id="5225"></path><path d="M682.304204 596.976201h42.664001V639.640202h-42.664001z" fill="#F7B353" p-id="5226"></path><path d="M724.904241 554.376163H767.568243v42.664002h-42.664002z" fill="#F7B353" p-id="5227"></path><path d="M724.904241 596.976201H767.568243V639.640202h-42.664002zM682.304204 639.640202h42.664001v42.664002h-42.664001z" fill="#F7B353" p-id="5228"></path><path d="M724.904241 639.640202H767.568243v42.664002h-42.664002zM767.568243 554.376163h42.664001v42.664002H767.568243z" fill="#F7B353" p-id="5229"></path><path d="M767.568243 596.976201h42.664001V639.640202H767.568243zM767.568243 639.640202h42.664001v42.664002H767.568243zM682.304204 682.304204h42.664001v42.664001h-42.664001z" fill="#F7B353" p-id="5230"></path><path d="M724.904241 682.304204H767.568243v42.664001h-42.664002z" fill="#F7B353" p-id="5231"></path><path d="M682.304204 724.904241h42.664001V767.568243h-42.664001zM810.232244 383.784121h42.664002v42.664002h-42.664002zM810.232244 426.448123h42.664002v42.664001h-42.664002z" fill="#F7B353" p-id="5232"></path><path d="M810.232244 469.04816h42.664002V511.712162h-42.664002zM810.232244 511.712162h42.664002v42.664001h-42.664002zM810.232244 554.376163h42.664002v42.664002h-42.664002z" fill="#F7B353" p-id="5233"></path><path d="M810.232244 596.976201h42.664002V639.640202h-42.664002zM852.832282 383.784121H895.496283v42.664002h-42.664001zM852.832282 426.448123H895.496283v42.664001h-42.664001z" fill="#F7B353" p-id="5234"></path><path d="M852.832282 469.04816H895.496283V511.712162h-42.664001zM895.496283 383.784121h42.664002v42.664002H895.496283zM895.496283 426.448123h42.664002v42.664001H895.496283z" fill="#F7B353" p-id="5235"></path><path d="M895.496283 469.04816h42.664002V511.712162H895.496283zM852.832282 511.712162H895.496283v42.664001h-42.664001zM938.160285 383.784121h42.664001v42.664002h-42.664001zM852.832282 554.376163H895.496283v42.664002h-42.664001zM596.976201 469.04816H639.640202V511.712162h-42.664001zM554.376163 511.712162h42.664002v42.664001h-42.664002z" fill="#F7B353" p-id="5236"></path><path d="M596.976201 511.712162H639.640202v42.664001h-42.664001zM511.712162 554.376163h42.664001v42.664002H511.712162z" fill="#F7B353" p-id="5237"></path><path d="M511.712162 596.976201h42.664001V639.640202H511.712162zM426.448123 639.640202h42.664001v42.664002h-42.664001z" fill="#F7B353" p-id="5238"></path><path d="M469.04816 639.640202H511.712162v42.664002h-42.664002zM511.712162 639.640202h42.664001v42.664002H511.712162zM596.976201 554.376163H639.640202v42.664002h-42.664001z" fill="#F7B353" p-id="5239"></path><path d="M596.976201 596.976201H639.640202V639.640202h-42.664001zM554.376163 639.640202h42.664002v42.664002h-42.664002z" fill="#F7B353" p-id="5240"></path><path d="M596.976201 639.640202H639.640202v42.664002h-42.664001zM341.12012 682.304204H383.784121v42.664001h-42.664001zM383.784121 682.304204h42.664002v42.664001H383.784121zM426.448123 682.304204h42.664001v42.664001h-42.664001z" fill="#F7B353" p-id="5241"></path><path d="M469.04816 682.304204H511.712162v42.664001h-42.664002zM511.712162 682.304204h42.664001v42.664001H511.712162zM554.376163 682.304204h42.664002v42.664001h-42.664002z" fill="#F7B353" p-id="5242"></path><path d="M596.976201 682.304204H639.640202v42.664001h-42.664001zM341.12012 724.904241H383.784121V767.568243h-42.664001zM383.784121 724.904241h42.664002V767.568243H383.784121zM426.448123 724.904241h42.664001V767.568243h-42.664001z" fill="#F7B353" p-id="5243"></path><path d="M469.04816 724.904241H511.712162V767.568243h-42.664002zM383.784121 767.568243h42.664002v42.664001H383.784121zM426.448123 767.568243h42.664001v42.664001h-42.664001z" fill="#F7B353" p-id="5244"></path><path d="M469.04816 767.568243H511.712162v42.664001h-42.664002zM511.712162 724.904241h42.664001V767.568243H511.712162zM511.712162 767.568243h42.664001v42.664001H511.712162zM554.376163 724.904241h42.664002V767.568243h-42.664002zM426.448123 810.232244h42.664001v42.664002h-42.664001z" fill="#F7B353" p-id="5245"></path><path d="M469.04816 810.232244H511.712162v42.664002h-42.664002zM213.192079 767.568243H255.856081v42.664001h-42.664002zM255.856081 767.568243h42.664001v42.664001H255.856081zM298.520082 767.568243h42.664002v42.664001h-42.664002zM213.192079 810.232244H255.856081v42.664002h-42.664002zM255.856081 810.232244h42.664001v42.664002H255.856081zM298.520082 810.232244h42.664002v42.664002h-42.664002z" fill="#F7B353" p-id="5246"></path><path d="M341.12012 810.232244H383.784121v42.664002h-42.664001zM596.976201 767.568243H639.640202v42.664001h-42.664001zM554.376163 810.232244h42.664002v42.664002h-42.664002z" fill="#F7B353" p-id="5247"></path><path d="M596.976201 810.232244H639.640202v42.664002h-42.664001zM170.592042 852.832282h42.664001V895.496283h-42.664001z" fill="#F7B353" p-id="5248"></path><path d="M213.192079 852.832282H255.856081V895.496283h-42.664002zM255.856081 852.832282h42.664001V895.496283H255.856081zM298.520082 852.832282h42.664002V895.496283h-42.664002z" fill="#F7B353" p-id="5249"></path><path d="M341.12012 852.832282H383.784121V895.496283h-42.664001zM383.784121 852.832282h42.664002V895.496283H383.784121zM511.712162 852.832282h42.664001V895.496283H511.712162zM554.376163 852.832282h42.664002V895.496283h-42.664002zM213.192079 895.496283H255.856081v42.664002h-42.664002zM255.856081 895.496283h42.664001v42.664002H255.856081zM298.520082 895.496283h42.664002v42.664002h-42.664002z" fill="#F7B353" p-id="5250"></path><path d="M341.12012 895.496283H383.784121v42.664002h-42.664001zM383.784121 895.496283h42.664002v42.664002H383.784121zM426.448123 895.496283h42.664001v42.664002h-42.664001z" fill="#F7B353" p-id="5251"></path><path d="M469.04816 895.496283H511.712162v42.664002h-42.664002zM213.192079 938.160285H255.856081v42.664001h-42.664002zM255.856081 938.160285h42.664001v42.664001H255.856081zM298.520082 938.160285h42.664002v42.664001h-42.664002z" fill="#F7B353" p-id="5252"></path><path d="M341.12012 938.160285H383.784121v42.664001h-42.664001zM383.784121 938.160285h42.664002v42.664001H383.784121zM511.712162 810.232244h42.664001v42.664002H511.712162zM554.376163 767.568243h42.664002v42.664001h-42.664002zM596.976201 724.904241H639.640202V767.568243h-42.664001zM426.448123 852.832282h42.664001V895.496283h-42.664001z" fill="#F7B353" p-id="5253"></path><path d="M469.04816 852.832282H511.712162V895.496283h-42.664002zM639.640202 426.448123h42.664002v42.664001H639.640202z" fill="#F7B353" p-id="5254"></path><path d="M639.640202 469.04816h42.664002V511.712162H639.640202zM639.640202 511.712162h42.664002v42.664001H639.640202zM639.640202 554.376163h42.664002v42.664002H639.640202z" fill="#F7B353" p-id="5255"></path><path d="M639.640202 596.976201h42.664002V639.640202H639.640202zM639.640202 639.640202h42.664002v42.664002H639.640202zM682.304204 341.12012h42.664001V383.784121h-42.664001z" fill="#F7B353" p-id="5256"></path><path d="M724.904241 341.12012H767.568243V383.784121h-42.664002zM895.496283 170.592042h42.664002v42.664001H895.496283z" fill="#F7B353" p-id="5257"></path><path d="M938.096321 213.192079h42.664001V255.856081h-42.664001zM767.568243 341.12012h42.664001V383.784121H767.568243zM639.640202 682.304204h42.664002v42.664001H639.640202z" fill="#F7B353" p-id="5258"></path><path d="M639.640202 724.904241h42.664002V767.568243H639.640202zM639.640202 767.568243h42.664002v42.664001H639.640202zM810.232244 341.12012h42.664002V383.784121h-42.664002zM852.832282 170.592042H895.496283v42.664001h-42.664001z" fill="#F7B353" p-id="5259"></path><path d="M852.832282 341.12012H895.496283V383.784121h-42.664001zM895.496283 213.192079h42.664002V255.856081H895.496283zM895.496283 341.12012h42.664002V383.784121H895.496283zM938.160285 255.856081h42.664001v42.664001h-42.664001zM938.160285 341.12012h42.664001V383.784121h-42.664001zM469.04816 596.976201H511.712162V639.640202h-42.664002zM554.376163 554.376163h42.664002v42.664002h-42.664002z" fill="#F7B353" p-id="5260"></path><path d="M554.376163 596.976201h42.664002V639.640202h-42.664002zM255.856081 724.904241h42.664001V767.568243H255.856081zM298.520082 724.904241h42.664002V767.568243h-42.664002zM341.12012 767.568243H383.784121v42.664001h-42.664001zM383.784121 810.232244h42.664002v42.664002H383.784121z" fill="#F7B353" p-id="5261"></path><path d="M469.623837 213.767756h42.664001v42.664001h-42.664001zM469.623837 256.431757h42.664001v42.664002h-42.664001zM426.959835 299.031795h42.664002v42.664001h-42.664002zM512.287838 171.103754h42.664002v42.664002h-42.664002zM554.376163 255.856081h42.664002v42.664001h-42.664002zM554.376163 298.520082h42.664002v42.664002h-42.664002zM596.976201 213.192079H639.640202V255.856081h-42.664001zM639.640202 170.592042h42.664002v42.600037H639.640202zM554.887876 85.839715h42.664001v42.664002h-42.664001zM597.551877 43.175714h42.664002v42.664001h-42.664002zM682.304204 85.264039h42.664001V127.92804h-42.664001zM725.479918 43.175714h42.664001v42.664001h-42.664001zM682.304204 298.520082h42.664001v42.664002h-42.664001zM724.904241 255.856081H767.568243v42.664001h-42.664002zM810.232244 170.592042h42.664002v42.664001h-42.664002zM767.568243 682.304204h42.664001v42.664001H767.568243zM724.904241 724.904241H767.568243V767.568243h-42.664002zM810.232244 639.640202h42.664002v42.664002h-42.664002zM895.496283 511.712162h42.664002v42.664001H895.496283zM938.160285 426.448123h42.664001v42.664001h-42.664001z" p-id="5262"></path><path d="M938.160285 469.04816h42.664001V511.712162h-42.664001zM852.832282 596.976201H895.496283V639.640202h-42.664001zM895.496283 554.376163h42.664002v42.664002H895.496283zM341.695796 384.359798h42.664002v42.664001h-42.664002zM469.04816 383.784121H511.712162v42.664002h-42.664002zM299.031795 426.959835h42.664001v42.664002h-42.664001zM426.448123 426.448123h42.664001v42.664001h-42.664001zM213.767756 469.623837h42.664001v42.664001h-42.664001zM383.784121 469.04816h42.664002V511.712162H383.784121zM596.976201 426.448123H639.640202v42.664001h-42.664001zM298.520082 554.376163h42.664002v42.664002h-42.664002zM43.175714 597.551877h42.664001v42.664002H43.175714zM213.192079 596.976201H255.856081V639.640202h-42.664002zM426.448123 596.976201h42.664001V639.640202h-42.664001zM43.175714 640.215879h42.664001v42.664001H43.175714zM127.92804 639.640202h42.664002v42.664002H127.92804zM170.592042 639.640202h42.664001v42.664002h-42.664001zM341.12012 639.640202H383.784121v42.664002h-42.664001zM383.784121 639.640202h42.664002v42.664002H383.784121z" p-id="5263"></path><path d="M43.175714 682.815916h42.664001v42.664002H43.175714z" p-id="5264"></path><path d="M85.264039 682.304204H127.92804v42.664001h-42.664001zM255.856081 682.304204h42.664001v42.664001H255.856081zM298.520082 682.304204h42.664002v42.664001h-42.664002zM170.592042 810.232244h42.664001v42.664002h-42.664001zM128.503717 853.407958h42.664001v42.664002h-42.664001zM596.976201 852.832282H639.640202V895.496283h-42.664001zM43.175714 896.07196h42.664001v42.664001H43.175714zM85.839715 896.07196h42.664002v42.664001h-42.664002zM171.103754 896.07196h42.664002v42.664001h-42.664002z" p-id="5265"></path><path d="M171.103754 938.671997h42.664002v42.664002h-42.664002zM426.448123 938.160285h42.664001v42.664001h-42.664001z" p-id="5266"></path><path d="M469.04816 938.160285H511.712162v42.664001h-42.664002zM511.712162 895.496283h42.664001v42.664002H511.712162zM554.376163 895.496283h42.664002v42.664002h-42.664002zM682.304204 767.568243h42.664001v42.664001h-42.664001zM384.359798 341.695796h42.664001v42.664002h-42.664001zM512.287838 128.503717h42.664002v42.664001h-42.664002zM511.712162 341.12012h42.664001V383.784121H511.712162zM640.215879 0.575676h42.664001v42.664002h-42.664001zM639.640202 341.12012h42.664002V383.784121H639.640202zM639.640202 383.784121h42.664002v42.664002H639.640202z" p-id="5267"></path><path d="M682.815916 0.575676h42.664002v42.664002h-42.664002zM682.304204 127.92804h42.664001v42.664002h-42.664001zM724.904241 213.192079H767.568243V255.856081h-42.664002zM768.143919 0.575676h42.664002v42.664002h-42.664002z" p-id="5268"></path><path d="M810.743957 0.575676h42.664001v42.664002h-42.664001zM853.407958 0.575676h42.664002v42.664002h-42.664002z" p-id="5269"></path><path d="M896.007996 0.575676h42.664001v42.664002h-42.664001zM938.671997 43.175714h42.664002v42.664001h-42.664002zM938.671997 85.839715h42.664002v42.664002h-42.664002zM852.832282 127.92804H895.496283v42.664002h-42.664001zM896.007996 128.439753h42.664001v42.664001h-42.664001zM938.671997 171.103754h42.664002v42.664002h-42.664002zM981.335999 213.767756h42.664001v42.664001h-42.664001zM981.335999 256.431757h42.664001v42.664002h-42.664001zM767.568243 170.592042h42.664001v42.664001H767.568243zM0.575676 725.479918h42.664002v42.664001H0.575676zM0.575676 768.143919h42.664002v42.664002H0.575676z" p-id="5270"></path><path d="M0.575676 810.743957h42.664002v42.664001H0.575676zM639.640202 810.232244h42.664002v42.664002H639.640202zM981.335999 299.031795h42.664001v42.664001h-42.664001z" p-id="5271"></path><path d="M980.760322 341.12012H1023.424324V383.784121h-42.664002zM980.760322 383.784121H1023.424324v42.664002h-42.664002zM0.575676 853.407958h42.664002v42.664002H0.575676zM213.767756 981.335999h42.664001v42.664001h-42.664001zM256.431757 981.335999h42.664002v42.664001h-42.664002z" p-id="5272"></path><path d="M299.031795 981.335999h42.664001v42.664001h-42.664001z" p-id="5273"></path><path d="M341.12012 980.760322H383.784121V1023.424324h-42.664001zM383.784121 980.760322h42.664002V1023.424324H383.784121zM256.431757 469.623837h42.664002v42.664001h-42.664002zM128.503717 512.287838h42.664001v42.664002h-42.664001z" p-id="5274"></path><path d="M171.103754 512.287838h42.664002v42.664002h-42.664002zM341.12012 511.712162H383.784121v42.664001h-42.664001zM511.712162 511.712162h42.664001v42.664001H511.712162zM554.376163 469.04816h42.664002V511.712162h-42.664002zM85.839715 554.887876h42.664002v42.664001h-42.664002zM255.856081 554.376163h42.664001v42.664002H255.856081zM469.04816 554.376163H511.712162v42.664002h-42.664002zM213.192079 724.904241H255.856081V767.568243h-42.664002zM170.592042 767.568243h42.664001v42.664001h-42.664001z" p-id="5275"></path></svg>