<svg xmlns="http://www.w3.org/2000/svg" viewBox="0 0 1024 1024" version="1.1"><path d="M170.688 170.688h42.688v42.688h-42.688z" fill="#7ECEF4" p-id="4434"></path><path d="M213.312 170.688H256v42.688h-42.688zM256 170.688h42.688v42.688H256zM298.688 170.688h42.688v42.688h-42.688z" fill="#7ECEF4" p-id="4435"></path><path d="M341.312 170.688H384v42.688h-42.688zM384 170.688h42.688v42.688H384zM426.688 170.688h42.688v42.688h-42.688z" fill="#7ECEF4" p-id="4436"></path><path d="M469.312 170.688H512v42.688h-42.688zM128 213.312h42.688V256H128zM170.688 213.312h42.688V256h-42.688z" fill="#7ECEF4" p-id="4437"></path><path d="M213.312 213.312H256V256h-42.688zM256 213.312h42.688V256H256zM298.688 213.312h42.688V256h-42.688z" fill="#7ECEF4" p-id="4438"></path><path d="M341.312 213.312H384V256h-42.688zM384 213.312h42.688V256H384zM426.688 213.312h42.688V256h-42.688z" fill="#7ECEF4" p-id="4439"></path><path d="M469.312 213.312H512V256h-42.688zM85.312 256H128v42.688h-42.688zM128 256h42.688v42.688H128zM170.688 256h42.688v42.688h-42.688z" fill="#7ECEF4" p-id="4440"></path><path d="M213.312 256H256v42.688h-42.688zM256 256h42.688v42.688H256zM298.688 256h42.688v42.688h-42.688z" fill="#7ECEF4" p-id="4441"></path><path d="M341.312 256H384v42.688h-42.688zM384 256h42.688v42.688H384zM426.688 256h42.688v42.688h-42.688z" fill="#7ECEF4" p-id="4442"></path><path d="M469.312 256H512v42.688h-42.688zM42.688 298.688h42.688v42.688H42.688z" fill="#7ECEF4" p-id="4443"></path><path d="M85.312 298.688H128v42.688h-42.688zM128 298.688h42.688v42.688H128zM170.688 298.688h42.688v42.688h-42.688z" fill="#7ECEF4" p-id="4444"></path><path d="M213.312 298.688H256v42.688h-42.688zM256 298.688h42.688v42.688H256zM298.688 298.688h42.688v42.688h-42.688z" fill="#7ECEF4" p-id="4445"></path><path d="M341.312 298.688H384v42.688h-42.688zM384 298.688h42.688v42.688H384zM426.688 298.688h42.688v42.688h-42.688z" fill="#7ECEF4" p-id="4446"></path><path d="M469.312 298.688H512v42.688h-42.688zM512 170.688h42.688v42.688H512z" fill="#7ECEF4" p-id="4447"></path><path d="M512 213.312h42.688V256H512zM512 256h42.688v42.688H512zM512 298.688h42.688v42.688H512zM554.688 170.688h42.688v42.688h-42.688z" fill="#7ECEF4" p-id="4448"></path><path d="M554.688 213.312h42.688V256h-42.688zM554.688 256h42.688v42.688h-42.688zM554.688 298.688h42.688v42.688h-42.688zM597.312 170.688H640v42.624h-42.688z" fill="#7ECEF4" p-id="4449"></path><path d="M597.312 213.312H640V256h-42.688zM597.312 256H640v42.688h-42.688zM597.312 298.688H640v42.688h-42.688zM640 213.312h42.688V256H640zM640 256h42.688v42.688H640zM682.688 213.312h42.624V256h-42.624zM640 170.688h128v42.624h-128z" fill="#7ECEF4" p-id="4450"></path><path d="M213.312 42.688H256v42.688h-42.688zM256 42.688h42.688v42.688H256zM298.688 42.688h42.688v42.688h-42.688z" fill="#54A3DA" p-id="4451"></path><path d="M341.312 42.688H384v42.688h-42.688zM384 42.688h42.688v42.688H384zM426.688 42.688h42.688v42.688h-42.688z" fill="#54A3DA" p-id="4452"></path><path d="M469.312 42.688H512v42.688h-42.688zM213.312 85.312H256V128h-42.688zM256 85.312h42.688V128H256zM298.688 85.312h42.688V128h-42.688z" fill="#54A3DA" p-id="4453"></path><path d="M341.312 85.312H384V128h-42.688zM384 85.312h42.688V128H384zM426.688 85.312h42.688V128h-42.688z" fill="#54A3DA" p-id="4454"></path><path d="M469.312 85.312H512V128h-42.688zM512 42.688h42.688v42.688H512z" fill="#54A3DA" p-id="4455"></path><path d="M512 85.312h42.688V128H512zM554.688 42.688h42.688v42.688h-42.688z" fill="#54A3DA" p-id="4456"></path><path d="M554.688 85.312h42.688V128h-42.688z" fill="#54A3DA" p-id="4457"></path><path d="M597.312 42.688H640v42.688h-42.688z" fill="#54A3DA" p-id="4458"></path><path d="M597.312 85.312H640V128h-42.688zM640 42.688h42.688v42.688H640z" fill="#54A3DA" p-id="4459"></path><path d="M640 85.312h42.688V128H640zM682.688 42.688h42.688v42.688h-42.688z" fill="#54A3DA" p-id="4460"></path><path d="M682.688 85.312h42.688V128h-42.688z" fill="#54A3DA" p-id="4461"></path><path d="M725.312 42.688H768v42.688h-42.688z" fill="#54A3DA" p-id="4462"></path><path d="M725.312 85.312H768V128h-42.688zM768 42.688h42.688v42.688H768z" fill="#54A3DA" p-id="4463"></path><path d="M768 85.312h42.688V128H768z" fill="#54A3DA" p-id="4464"></path><path d="M682.688 298.688h42.688v42.688h-42.688zM725.312 256H768v42.688h-42.688z" fill="#7ECEF4" p-id="4465"></path><path d="M725.312 298.688H768v42.688h-42.688zM768 213.312h42.688V256H768zM768 256h42.688v42.688H768zM768 298.688h42.688v42.688H768zM810.688 170.688h42.688v42.688h-42.688z" fill="#7ECEF4" p-id="4466"></path><path d="M810.688 213.312h42.688V256h-42.688zM810.688 256h42.688v42.688h-42.688zM810.688 298.688h42.688v42.688h-42.688z" fill="#7ECEF4" p-id="4467"></path><path d="M853.312 213.312H896V256h-42.688zM853.312 256H896v42.688h-42.688zM853.312 298.688H896v42.688h-42.688zM896 256h42.688v42.688H896zM896 298.688h42.688v42.688H896zM938.688 298.688h42.688v42.688h-42.688z" fill="#7ECEF4" p-id="4468"></path><path d="M682.688 384h42.688v42.688h-42.688zM682.688 426.688h42.688v42.688h-42.688z" fill="#BAE3F9" p-id="4469"></path><path d="M682.688 469.312h42.688V512h-42.688zM725.312 384H768v42.688h-42.688z" fill="#BAE3F9" p-id="4470"></path><path d="M725.312 426.688H768v42.688h-42.688z" fill="#BAE3F9" p-id="4471"></path><path d="M725.312 469.312H768V512h-42.688zM682.688 512h42.688v42.688h-42.688z" fill="#BAE3F9" p-id="4472"></path><path d="M725.312 512H768v42.688h-42.688zM768 384h42.688v42.688H768zM768 426.688h42.688v42.688H768z" fill="#BAE3F9" p-id="4473"></path><path d="M768 469.312h42.688V512H768zM768 512h42.688v42.688H768zM682.688 554.688h42.688v42.688h-42.688z" fill="#BAE3F9" p-id="4474"></path><path d="M682.688 597.312h42.688V640h-42.688z" fill="#BAE3F9" p-id="4475"></path><path d="M725.312 554.688H768v42.688h-42.688z" fill="#BAE3F9" p-id="4476"></path><path d="M725.312 597.312H768V640h-42.688zM682.688 640h42.688v42.688h-42.688z" fill="#BAE3F9" p-id="4477"></path><path d="M725.312 640H768v42.688h-42.688zM768 554.688h42.688v42.688H768z" fill="#BAE3F9" p-id="4478"></path><path d="M768 597.312h42.688V640H768zM768 640h42.688v42.688H768zM682.688 682.688h42.688v42.688h-42.688z" fill="#BAE3F9" p-id="4479"></path><path d="M725.312 682.688H768v42.688h-42.688zM768 682.688h42.688v42.688H768z" fill="#BAE3F9" p-id="4480"></path><path d="M682.688 725.312h42.688V768h-42.688z" fill="#BAE3F9" p-id="4481"></path><path d="M725.312 725.312H768V768h-42.688zM725.312 768H768v42.688h-42.688zM768 725.312h42.688V768H768zM768 768h42.688v42.688H768zM768 810.688h42.688v42.688H768zM810.688 384h42.688v42.688h-42.688zM810.688 426.688h42.688v42.688h-42.688z" fill="#BAE3F9" p-id="4482"></path><path d="M810.688 469.312h42.688V512h-42.688zM810.688 512h42.688v42.688h-42.688zM810.688 554.688h42.688v42.688h-42.688z" fill="#BAE3F9" p-id="4483"></path><path d="M810.688 597.312h42.688V640h-42.688zM810.688 640h42.688v42.688h-42.688zM810.688 682.688h42.688v42.688h-42.688z" fill="#BAE3F9" p-id="4484"></path><path d="M810.688 725.312h42.688V768h-42.688zM810.688 768h42.688v42.688h-42.688zM810.688 810.688h42.688v42.688h-42.688zM853.312 384H896v42.688h-42.688zM853.312 426.688H896v42.688h-42.688z" fill="#BAE3F9" p-id="4485"></path><path d="M853.312 469.312H896V512h-42.688zM896 384h42.688v42.688H896zM896 426.688h42.688v42.688H896z" fill="#BAE3F9" p-id="4486"></path><path d="M896 469.312h42.688V512H896zM853.312 512H896v42.688h-42.688zM896 512h42.688v42.688H896zM938.688 384h42.688v42.688h-42.688zM938.688 426.688h42.688v42.688h-42.688z" fill="#BAE3F9" p-id="4487"></path><path d="M938.688 469.312h42.688V512h-42.688zM938.688 512h42.688v42.688h-42.688zM853.312 554.688H896v42.688h-42.688z" fill="#BAE3F9" p-id="4488"></path><path d="M853.312 597.312H896V640h-42.688zM896 554.688h42.688v42.688H896z" fill="#BAE3F9" p-id="4489"></path><path d="M896 597.312h42.688V640H896zM853.312 640H896v42.688h-42.688zM896 640h42.688v42.688H896zM938.688 554.688h42.688v42.688h-42.688z" fill="#BAE3F9" p-id="4490"></path><path d="M938.688 597.312h42.688V640h-42.688zM938.688 640h42.688v42.688h-42.688zM853.312 682.688H896v42.688h-42.688zM896 682.688h42.688v42.688H896zM938.688 682.688h42.688v42.688h-42.688z" fill="#BAE3F9" p-id="4491"></path><path d="M853.312 725.312H896V768h-42.688zM853.312 768H896v42.688h-42.688zM896 725.312h42.688V768H896zM42.688 384h42.688v42.688H42.688z" fill="#BAE3F9" p-id="4492"></path><path d="M85.312 384H128v42.688h-42.688zM128 384h42.688v42.688H128zM170.688 384h42.688v42.688h-42.688z" fill="#BAE3F9" p-id="4493"></path><path d="M213.312 384H256v42.688h-42.688zM256 384h42.688v42.688H256zM298.688 384h42.688v42.688h-42.688z" fill="#BAE3F9" p-id="4494"></path><path d="M341.312 384H384v42.688h-42.688zM384 384h42.688v42.688H384zM426.688 384h42.688v42.688h-42.688z" fill="#BAE3F9" p-id="4495"></path><path d="M469.312 384H512v42.688h-42.688zM42.688 426.688h42.688v42.688H42.688z" fill="#BAE3F9" p-id="4496"></path><path d="M85.312 426.688H128v42.688h-42.688zM128 426.688h42.688v42.688H128zM170.688 426.688h42.688v42.688h-42.688z" fill="#BAE3F9" p-id="4497"></path><path d="M213.312 426.688H256v42.688h-42.688zM256 426.688h42.688v42.688H256zM298.688 426.688h42.688v42.688h-42.688z" fill="#BAE3F9" p-id="4498"></path><path d="M341.312 426.688H384v42.688h-42.688zM384 426.688h42.688v42.688H384zM426.688 426.688h42.688v42.688h-42.688z" fill="#BAE3F9" p-id="4499"></path><path d="M469.312 426.688H512v42.688h-42.688zM42.688 469.312h42.688V512H42.688zM213.312 469.312H256V512h-42.688zM298.688 469.312h42.688V512h-42.688zM384 469.312h42.688V512H384z" fill="#BAE3F9" p-id="4500"></path><path d="M426.688 469.312h42.688V512h-42.688zM512 384h42.688v42.688H512zM512 426.688h42.688v42.688H512z" fill="#BAE3F9" p-id="4501"></path><path d="M512 469.312h42.688V512H512zM42.688 512h42.688v42.688H42.688zM213.312 512H256v42.688h-42.688zM298.688 512h42.688v42.688h-42.688zM384 512h42.688v42.688H384zM426.688 512h42.688v42.688h-42.688zM554.688 384h42.688v42.688h-42.688zM554.688 426.688h42.688v42.688h-42.688z" fill="#BAE3F9" p-id="4502"></path><path d="M597.312 384H640v42.688h-42.688zM597.312 426.688H640v42.688h-42.688z" fill="#BAE3F9" p-id="4503"></path><path d="M597.312 469.312H640V512h-42.688zM554.688 512h42.688v42.688h-42.688z" fill="#BAE3F9" p-id="4504"></path><path d="M597.312 512H640v42.688h-42.688zM42.688 554.688h42.688v42.688H42.688zM128 554.688h42.688v42.688H128zM213.312 554.688H256v42.688h-42.688zM298.688 554.688h42.688v42.688h-42.688zM384 554.688h42.688v42.688H384zM426.688 554.688h42.688v42.688h-42.688z" fill="#BAE3F9" p-id="4505"></path><path d="M42.688 597.312h42.688V640H42.688zM128 597.312h42.688V640H128zM213.312 597.312H256V640h-42.688zM298.688 597.312h42.688V640h-42.688zM426.688 597.312h42.688V640h-42.688zM512 554.688h42.688v42.688H512z" fill="#BAE3F9" p-id="4506"></path><path d="M512 597.312h42.688V640H512zM42.688 640h42.688v42.688H42.688z" fill="#BAE3F9" p-id="4507"></path><path d="M85.312 640H128v42.688h-42.688zM128 640h42.688v42.688H128zM170.688 640h42.688v42.688h-42.688z" fill="#BAE3F9" p-id="4508"></path><path d="M213.312 640H256v42.688h-42.688zM256 640h42.688v42.688H256zM298.688 640h42.688v42.688h-42.688z" fill="#BAE3F9" p-id="4509"></path><path d="M341.312 640H384v42.688h-42.688zM384 640h42.688v42.688H384zM426.688 640h42.688v42.688h-42.688z" fill="#BAE3F9" p-id="4510"></path><path d="M469.312 640H512v42.688h-42.688zM512 640h42.688v42.688H512zM597.312 554.688H640v42.688h-42.688z" fill="#BAE3F9" p-id="4511"></path><path d="M597.312 597.312H640V640h-42.688zM554.688 640h42.688v42.688h-42.688z" fill="#BAE3F9" p-id="4512"></path><path d="M597.312 640H640v42.688h-42.688zM42.688 682.688h42.688v42.688H42.688z" fill="#BAE3F9" p-id="4513"></path><path d="M85.312 682.688H128v42.688h-42.688zM128 682.688h42.688v42.688H128zM170.688 682.688h42.688v42.688h-42.688z" fill="#BAE3F9" p-id="4514"></path><path d="M213.312 682.688H256v42.688h-42.688zM256 682.688h42.688v42.688H256zM298.688 682.688h42.688v42.688h-42.688z" fill="#BAE3F9" p-id="4515"></path><path d="M341.312 682.688H384v42.688h-42.688zM384 682.688h42.688v42.688H384zM426.688 682.688h42.688v42.688h-42.688z" fill="#BAE3F9" p-id="4516"></path><path d="M469.312 682.688H512v42.688h-42.688zM512 682.688h42.688v42.688H512zM554.688 682.688h42.688v42.688h-42.688z" fill="#BAE3F9" p-id="4517"></path><path d="M597.312 682.688H640v42.688h-42.688zM42.688 725.312h42.688V768H42.688z" fill="#BAE3F9" p-id="4518"></path><path d="M85.312 725.312H128V768h-42.688zM128 725.312h42.688V768H128zM170.688 725.312h42.688V768h-42.688zM341.312 725.312H384V768h-42.688zM384 725.312h42.688V768H384zM426.688 725.312h42.688V768h-42.688z" fill="#BAE3F9" p-id="4519"></path><path d="M469.312 725.312H512V768h-42.688zM42.688 768h42.688v42.688H42.688z" fill="#BAE3F9" p-id="4520"></path><path d="M85.312 768H128v42.688h-42.688zM128 768h42.688v42.688H128zM384 768h42.688v42.688H384zM426.688 768h42.688v42.688h-42.688z" fill="#BAE3F9" p-id="4521"></path><path d="M469.312 768H512v42.688h-42.688zM512 725.312h42.688V768H512zM512 768h42.688v42.688H512zM42.688 810.688h42.688v42.688H42.688zM554.688 725.312h42.688V768h-42.688zM426.688 810.688h42.688v42.688h-42.688z" fill="#BAE3F9" p-id="4522"></path><path d="M469.312 810.688H512v42.688h-42.688z" fill="#BAE3F9" p-id="4523"></path><path d="M213.312 768H256v42.688h-42.688zM256 768h42.688v42.688H256zM298.688 768h42.688v42.688h-42.688zM170.688 810.688h42.688v42.688h-42.688z" fill="#008AD4" p-id="4524"></path><path d="M213.312 810.688H256v42.688h-42.688zM256 810.688h42.688v42.688H256zM298.688 810.688h42.688v42.688h-42.688z" fill="#008AD4" p-id="4525"></path><path d="M341.312 810.688H384v42.688h-42.688zM597.312 768H640v42.688h-42.688zM554.688 810.688h42.688v42.688h-42.688z" fill="#008AD4" p-id="4526"></path><path d="M597.312 810.688H640v42.688h-42.688zM85.312 853.312H128V896h-42.688zM128 853.312h42.688V896H128zM170.688 853.312h42.688V896h-42.688z" fill="#008AD4" p-id="4527"></path><path d="M213.312 853.312H256V896h-42.688zM256 853.312h42.688V896H256zM298.688 853.312h42.688V896h-42.688z" fill="#008AD4" p-id="4528"></path><path d="M341.312 853.312H384V896h-42.688zM384 853.312h42.688V896H384zM512 853.312h42.688V896H512zM554.688 853.312h42.688V896h-42.688z" fill="#008AD4" p-id="4529"></path><path d="M597.312 853.312H640V896h-42.688zM42.688 896h42.688v42.688H42.688z" fill="#008AD4" p-id="4530"></path><path d="M85.312 896H128v42.688h-42.688zM128 896h42.688v42.688H128zM170.688 896h42.688v42.688h-42.688z" fill="#008AD4" p-id="4531"></path><path d="M213.312 896H256v42.688h-42.688zM256 896h42.688v42.688H256zM298.688 896h42.688v42.688h-42.688z" fill="#008AD4" p-id="4532"></path><path d="M341.312 896H384v42.688h-42.688zM384 896h42.688v42.688H384zM426.688 896h42.688v42.688h-42.688z" fill="#008AD4" p-id="4533"></path><path d="M469.312 896H512v42.688h-42.688zM42.688 938.688h42.688v42.688H42.688z" fill="#008AD4" p-id="4534"></path><path d="M85.312 938.688H128v42.688h-42.688zM128 938.688h42.688v42.688H128zM170.688 938.688h42.688v42.688h-42.688z" fill="#008AD4" p-id="4535"></path><path d="M213.312 938.688H256v42.688h-42.688zM256 938.688h42.688v42.688H256zM298.688 938.688h42.688v42.688h-42.688z" fill="#008AD4" p-id="4536"></path><path d="M341.312 938.688H384v42.688h-42.688zM384 938.688h42.688v42.688H384zM426.688 938.688h42.688v42.688h-42.688z" fill="#008AD4" p-id="4537"></path><path d="M469.312 938.688H512v42.688h-42.688zM512 896h42.688v42.688H512zM512 938.688h42.688v42.688H512zM554.688 896h42.688v42.688h-42.688zM554.688 938.688h42.688v42.688h-42.688z" fill="#008AD4" p-id="4538"></path><path d="M597.312 896H640v42.688h-42.688zM597.312 938.688H640v42.688h-42.688z" fill="#008AD4" p-id="4539"></path><path d="M682.688 853.312h42.688V896h-42.688zM682.688 896h42.688v42.688h-42.688zM682.688 938.688h42.688v42.688h-42.688z" fill="#008AD4" p-id="4540"></path><path d="M682.688 810.688h42.688v42.688h-42.688zM896 810.688h42.688v42.688H896zM938.688 768h42.688v42.688h-42.688zM938.688 810.688h42.688v42.688h-42.688z" fill="#008AD4" p-id="4541"></path><path d="M725.312 853.312H768V896h-42.688zM725.312 896H768v42.688h-42.688zM725.312 938.688H768v42.688h-42.688zM768 896h42.688v42.688H768zM768 938.688h42.688v42.688H768zM810.688 896h42.688v42.688h-42.688zM810.688 938.688h42.688v42.688h-42.688zM853.312 853.312H896V896h-42.688zM896 853.312h42.688V896H896zM938.688 853.312h42.688V896h-42.688z" fill="#008AD4" p-id="4542"></path><path d="M853.312 896H896v42.688h-42.688zM853.312 938.688H896v42.688h-42.688zM896 896h42.688v42.688H896zM896 938.688h42.688v42.688H896zM938.688 896h42.688v42.688h-42.688zM938.688 938.688h42.688v42.688h-42.688z" fill="#008AD4" p-id="4543"></path><path d="M512 810.688h42.688v42.688H512zM554.688 768h42.688v42.688h-42.688zM597.312 725.312H640V768h-42.688zM682.688 768h42.688v42.688h-42.688zM725.312 810.688H768v42.688h-42.688zM896 768h42.688v42.688H896zM853.312 810.688H896v42.688h-42.688zM938.688 725.312h42.688V768h-42.688zM42.688 853.312h42.688V896H42.688zM426.688 853.312h42.688V896h-42.688z" p-id="4544"></path><path d="M469.312 853.312H512V896h-42.688zM768 853.312h42.688V896H768zM810.688 853.312h42.688V896h-42.688zM213.312 0H256v42.688h-42.688zM256 0h42.688v42.688H256zM298.688 0h42.688v42.688h-42.688z" p-id="4545"></path><path d="M341.312 0H384v42.688h-42.688zM384 0h42.688v42.688H384zM426.688 0h42.688v42.688h-42.688z" p-id="4546"></path><path d="M469.312 0H512v42.688h-42.688zM170.688 42.688h42.688v42.688h-42.688z" p-id="4547"></path><path d="M170.688 85.312h42.688V128h-42.688zM170.688 128h42.688v42.688h-42.688z" p-id="4548"></path><path d="M213.312 128H256v42.688h-42.688zM256 128h42.688v42.688H256zM298.688 128h42.688v42.688h-42.688z" p-id="4549"></path><path d="M341.312 128H384v42.688h-42.688zM384 128h42.688v42.688H384zM426.688 128h42.688v42.688h-42.688z" p-id="4550"></path><path d="M469.312 128H512v42.688h-42.688zM128 170.688h42.688v42.688H128zM85.312 213.312H128V256h-42.688zM42.688 256h42.688v42.688H42.688zM0 298.688h42.688v42.688H0z" p-id="4551"></path><path d="M0 341.312h42.688V384H0zM42.688 341.312h42.688V384H42.688z" p-id="4552"></path><path d="M85.312 341.312H128V384h-42.688zM128 341.312h42.688V384H128zM170.688 341.312h42.688V384h-42.688z" p-id="4553"></path><path d="M213.312 341.312H256V384h-42.688zM256 341.312h42.688V384H256zM298.688 341.312h42.688V384h-42.688z" p-id="4554"></path><path d="M341.312 341.312H384V384h-42.688zM384 341.312h42.688V384H384zM426.688 341.312h42.688V384h-42.688z" p-id="4555"></path><path d="M469.312 341.312H512V384h-42.688zM0 384h42.688v42.688H0zM0 426.688h42.688v42.688H0z" p-id="4556"></path><path d="M0 469.312h42.688V512H0zM512 0h42.688v42.688H512zM512 128h42.688v42.688H512zM512 341.312h42.688V384H512zM0 512h42.688v42.688H0zM554.688 0h42.688v42.688h-42.688zM554.688 128h42.688v42.688h-42.688zM554.688 341.312h42.688V384h-42.688z" p-id="4557"></path><path d="M597.312 0H640v42.688h-42.688zM597.312 128H640v42.688h-42.688zM597.312 341.312H640V384h-42.688zM640 0h42.688v42.688H640zM640 128h42.688v42.688H640zM640 298.688h42.688v42.688H640z" p-id="4558"></path><path d="M640 341.312h42.688V384H640zM640 384h42.688v42.688H640zM640 426.688h42.688v42.688H640z" p-id="4559"></path><path d="M640 469.312h42.688V512H640zM640 512h42.688v42.688H640zM0 554.688h42.688v42.688H0z" p-id="4560"></path><path d="M0 597.312h42.688V640H0zM0 640h42.688v42.688H0zM640 554.688h42.688v42.688H640z" p-id="4561"></path><path d="M640 597.312h42.688V640H640zM640 640h42.688v42.688H640zM682.688 0h42.688v42.688h-42.688zM682.688 128h42.688v42.688h-42.688zM682.688 256h42.688v42.688h-42.688zM682.688 341.312h42.688V384h-42.688z" p-id="4562"></path><path d="M725.312 0H768v42.688h-42.688zM725.312 128H768v42.688h-42.688zM725.312 213.312H768V256h-42.688zM725.312 341.312H768V384h-42.688zM768 0h42.688v42.688H768zM768 128h42.688v42.688H768zM768 170.688h42.688v42.688H768zM768 341.312h42.688V384H768zM0 682.688h42.688v42.688H0zM640 682.688h42.688v42.688H640z" p-id="4563"></path><path d="M0 725.312h42.688V768H0zM0 768h42.688v42.688H0zM0 810.688h42.688v42.688H0zM640 725.312h42.688V768H640zM640 768h42.688v42.688H640zM640 810.688h42.688v42.688H640zM810.688 42.688h42.688v42.688h-42.688z" p-id="4564"></path><path d="M810.688 85.312h42.688V128h-42.688zM810.688 128h42.688v42.688h-42.688zM810.688 341.312h42.688V384h-42.688zM853.312 170.688H896v42.688h-42.688z" p-id="4565"></path><path d="M853.312 341.312H896V384h-42.688zM896 213.312h42.688V256H896zM896 341.312h42.688V384H896zM938.688 256h42.688v42.688h-42.688zM938.688 341.312h42.688V384h-42.688z" p-id="4566"></path><path d="M981.312 298.688H1024v42.688h-42.688z" p-id="4567"></path><path d="M981.312 341.312H1024V384h-42.688zM981.312 384H1024v42.688h-42.688zM981.312 426.688H1024v42.688h-42.688z" p-id="4568"></path><path d="M981.312 469.312H1024V512h-42.688zM981.312 512H1024v42.688h-42.688zM981.312 554.688H1024v42.688h-42.688z" p-id="4569"></path><path d="M981.312 597.312H1024V640h-42.688zM981.312 640H1024v42.688h-42.688zM981.312 682.688H1024v42.688h-42.688z" p-id="4570"></path><path d="M981.312 725.312H1024V768h-42.688zM981.312 768H1024v42.688h-42.688zM981.312 810.688H1024v42.688h-42.688zM0 853.312h42.688V896H0zM640 853.312h42.688V896H640zM0 896h42.688v42.688H0zM0 938.688h42.688v42.624H0zM0 981.312h42.688V1024H0zM42.688 981.312h42.688V1024H42.688z" p-id="4571"></path><path d="M85.312 981.312H128V1024h-42.688zM128 981.312h42.688V1024H128zM170.688 981.312h42.688V1024h-42.688z" p-id="4572"></path><path d="M213.312 981.312H256V1024h-42.688zM256 981.312h42.688V1024H256zM298.688 981.312h42.688V1024h-42.688z" p-id="4573"></path><path d="M341.312 981.312H384V1024h-42.688zM384 981.312h42.688V1024H384zM426.688 981.312h42.688V1024h-42.688z" p-id="4574"></path><path d="M469.312 981.312H512V1024h-42.688zM512 981.312h42.688V1024H512zM554.688 981.312h42.688V1024h-42.688z" p-id="4575"></path><path d="M597.312 981.312H640V1024h-42.688zM640 896h42.688v42.688H640zM640 938.688h42.688v42.688H640z" p-id="4576"></path><path d="M640 981.312h42.688V1024H640zM682.688 981.312h42.688V1024h-42.688z" p-id="4577"></path><path d="M725.312 981.312H768V1024h-42.688zM768 981.312h42.688V1024H768zM810.688 981.312h42.688V1024h-42.688z" p-id="4578"></path><path d="M853.312 981.312H896V1024h-42.688zM896 981.312h42.688V1024H896zM938.688 981.312h42.688V1024h-42.688zM981.312 853.312H1024V896h-42.688zM981.312 896H1024v42.688h-42.688zM981.312 938.688H1024v42.624h-42.688z" p-id="4579"></path><path d="M981.312 981.312H1024V1024h-42.688zM85.312 469.312H128V512h-42.688zM128 469.312h42.688V512H128zM170.688 469.312h42.688V512h-42.688zM256 469.312h42.688V512H256zM341.312 469.312H384V512h-42.688zM469.312 469.312H512V512h-42.688zM85.312 512H128v42.688h-42.688zM128 512h42.688v42.688H128zM170.688 512h42.688v42.688h-42.688zM256 512h42.688v42.688H256zM341.312 512H384v42.688h-42.688zM469.312 512H512v42.688h-42.688zM512 512h42.688v42.688H512zM554.688 469.312h42.688V512h-42.688zM85.312 554.688H128v42.688h-42.688zM170.688 554.688h42.688v42.688h-42.688zM256 554.688h42.688v42.688H256zM341.312 554.688H384v42.688h-42.688zM469.312 554.688H512v42.688h-42.688z" p-id="4580"></path><path d="M85.312 597.312H128V640h-42.688zM170.688 597.312h42.688V640h-42.688zM256 597.312h42.688V640H256zM341.312 597.312H384V640h-42.688zM384 597.312h42.688V640H384zM469.312 597.312H512V640h-42.688zM554.688 554.688h42.688v42.688h-42.688z" p-id="4581"></path><path d="M554.688 597.312h42.688V640h-42.688zM213.312 725.312H256V768h-42.688zM256 725.312h42.688V768H256zM298.688 725.312h42.688V768h-42.688zM170.688 768h42.688v42.688h-42.688zM341.312 768H384v42.688h-42.688zM85.312 810.688H128v42.688h-42.688zM128 810.688h42.688v42.688H128zM384 810.688h42.688v42.688H384z" p-id="4582"></path></svg>