<svg xmlns="http://www.w3.org/2000/svg" viewBox="0 0 1024 1024" version="1.1"><path d="M170.688 170.688h42.688v42.688h-42.688zM256 170.688h42.688v42.688H256z" fill="#DE821D" p-id="4315"></path><path d="M298.688 170.688h42.688v42.688h-42.688z" fill="#F7AC00" p-id="4316"></path><path d="M341.312 170.688H384v42.688h-42.688zM384 170.688h42.688v42.688H384zM426.688 170.688h42.688v42.688h-42.688z" fill="#F7AC00" p-id="4317"></path><path d="M469.312 170.688H512v42.688h-42.688zM128 213.312h42.688V256H128z" fill="#F7AC00" p-id="4318"></path><path d="M170.688 213.312h42.688V256h-42.688zM256 213.312h42.688V256H256z" fill="#DE821D" p-id="4319"></path><path d="M298.688 213.312h42.688V256h-42.688z" fill="#F7AC00" p-id="4320"></path><path d="M341.312 213.312H384V256h-42.688zM384 213.312h42.688V256H384zM426.688 213.312h42.688V256h-42.688z" fill="#F7AC00" p-id="4321"></path><path d="M469.312 213.312H512V256h-42.688zM85.312 256H128v42.688h-42.688zM128 256h42.688v42.688H128zM170.688 256h42.688v42.688h-42.688z" fill="#F7AC00" p-id="4322"></path><path d="M213.312 256H256v42.688h-42.688zM298.688 256h42.688v42.688h-42.688z" fill="#DE821D" p-id="4323"></path><path d="M341.312 256H384v42.688h-42.688zM384 256h42.688v42.688H384zM426.688 256h42.688v42.688h-42.688z" fill="#F7AC00" p-id="4324"></path><path d="M469.312 256H512v42.688h-42.688z" fill="#DE821D" p-id="4325"></path><path d="M42.688 298.688h42.688v42.688H42.688z" fill="#F7AC00" p-id="4326"></path><path d="M85.312 298.688H128v42.688h-42.688zM128 298.688h42.688v42.688H128z" fill="#F7AC00" p-id="4327"></path><path d="M170.688 298.688h42.688v42.688h-42.688zM298.688 298.688h42.688v42.688h-42.688z" fill="#DE821D" p-id="4328"></path><path d="M341.312 298.688H384v42.688h-42.688zM384 298.688h42.688v42.688H384zM426.688 298.688h42.688v42.688h-42.688z" fill="#F7AC00" p-id="4329"></path><path d="M469.312 298.688H512v42.688h-42.688zM512 170.688h42.688v42.688H512z" fill="#DE821D" p-id="4330"></path><path d="M512 213.312h42.688V256H512zM554.688 256h42.688v42.688h-42.688zM554.688 298.688h42.688v42.688h-42.688zM597.312 170.688H640v42.624h-42.688zM597.312 213.312H640V256h-42.688z" fill="#DE821D" p-id="4331"></path><path d="M597.312 256H640v42.688h-42.688zM597.312 298.688H640v42.688h-42.688zM640 213.312h42.688V256H640zM640 256h42.688v42.688H640zM682.688 213.312h42.624V256h-42.624zM640 170.688h42.688v42.624H640zM682.688 170.688h42.688v42.624h-42.688z" fill="#F7AC00" p-id="4332"></path><path d="M725.312 170.688H768v42.624h-42.688zM298.688 42.688h42.688v42.688h-42.688z" fill="#F7AC00" p-id="4333"></path><path d="M341.312 42.688H384v42.688h-42.688zM384 42.688h42.688v42.688H384zM426.688 42.688h42.688v42.688h-42.688z" fill="#F7AC00" p-id="4334"></path><path d="M469.312 42.688H512v42.688h-42.688z" fill="#F7AC00" p-id="4335"></path><path d="M213.312 85.312H256V128h-42.688z" fill="#DE821D" p-id="4336"></path><path d="M256 85.312h42.688V128H256zM298.688 85.312h42.688V128h-42.688z" fill="#F7AC00" p-id="4337"></path><path d="M341.312 85.312H384V128h-42.688zM384 85.312h42.688V128H384zM426.688 85.312h42.688V128h-42.688z" fill="#F7AC00" p-id="4338"></path><path d="M469.312 85.312H512V128h-42.688zM512 42.688h42.688v42.688H512z" fill="#F7AC00" p-id="4339"></path><path d="M512 85.312h42.688V128H512z" fill="#F7AC00" p-id="4340"></path><path d="M554.688 42.688h42.688v42.688h-42.688z" fill="#DE821D" p-id="4341"></path><path d="M554.688 85.312h42.688V128h-42.688zM640 85.312h42.688V128H640z" fill="#DE821D" p-id="4342"></path><path d="M682.688 85.312h42.688V128h-42.688zM682.688 298.688h42.688v42.688h-42.688zM725.312 256H768v42.688h-42.688z" fill="#F7AC00" p-id="4343"></path><path d="M725.312 298.688H768v42.688h-42.688zM768 213.312h42.688V256H768zM768 256h42.688v42.688H768zM768 298.688h42.688v42.688H768zM810.688 170.688h42.688v42.688h-42.688z" fill="#F7AC00" p-id="4344"></path><path d="M810.688 213.312h42.688V256h-42.688zM810.688 256h42.688v42.688h-42.688zM810.688 298.688h42.688v42.688h-42.688z" fill="#F7AC00" p-id="4345"></path><path d="M853.312 213.312H896V256h-42.688zM853.312 256H896v42.688h-42.688zM853.312 298.688H896v42.688h-42.688zM896 298.688h42.688v42.688H896zM682.688 384h42.688v42.688h-42.688zM682.688 426.688h42.688v42.688h-42.688z" fill="#F7AC00" p-id="4346"></path><path d="M682.688 469.312h42.688V512h-42.688z" fill="#DE821D" p-id="4347"></path><path d="M725.312 384H768v42.688h-42.688z" fill="#F7AC00" p-id="4348"></path><path d="M725.312 426.688H768v42.688h-42.688zM725.312 512H768v42.688h-42.688z" fill="#DE821D" p-id="4349"></path><path d="M768 384h42.688v42.688H768z" fill="#F7AC00" p-id="4350"></path><path d="M768 426.688h42.688v42.688H768zM768 512h42.688v42.688H768zM682.688 554.688h42.688v42.688h-42.688z" fill="#DE821D" p-id="4351"></path><path d="M682.688 597.312h42.688V640h-42.688z" fill="#F7AC00" p-id="4352"></path><path d="M725.312 554.688H768v42.688h-42.688z" fill="#F7AC00" p-id="4353"></path><path d="M725.312 597.312H768V640h-42.688z" fill="#F7AC00" p-id="4354"></path><path d="M682.688 640h42.688v42.688h-42.688z" fill="#DE821D" p-id="4355"></path><path d="M725.312 640H768v42.688h-42.688zM768 554.688h42.688v42.688H768z" fill="#F7AC00" p-id="4356"></path><path d="M768 597.312h42.688V640H768zM768 640h42.688v42.688H768z" fill="#F7AC00" p-id="4357"></path><path d="M725.312 682.688H768v42.688h-42.688z" fill="#DE821D" p-id="4358"></path><path d="M768 682.688h42.688v42.688H768z" fill="#F7AC00" p-id="4359"></path><path d="M725.312 768H768v42.688h-42.688zM768 725.312h42.688V768H768zM768 810.688h42.688v42.688H768zM810.688 384h42.688v42.688h-42.688zM810.688 469.312h42.688V512h-42.688z" fill="#DE821D" p-id="4360"></path><path d="M810.688 512h42.688v42.688h-42.688zM810.688 554.688h42.688v42.688h-42.688z" fill="#F7AC00" p-id="4361"></path><path d="M810.688 597.312h42.688V640h-42.688zM810.688 640h42.688v42.688h-42.688zM810.688 682.688h42.688v42.688h-42.688z" fill="#F7AC00" p-id="4362"></path><path d="M810.688 725.312h42.688V768h-42.688zM810.688 810.688h42.688v42.688h-42.688zM853.312 384H896v42.688h-42.688zM853.312 469.312H896V512h-42.688zM896 426.688h42.688v42.688H896z" fill="#DE821D" p-id="4363"></path><path d="M896 469.312h42.688V512H896zM853.312 512H896v42.688h-42.688zM896 512h42.688v42.688H896z" fill="#F7AC00" p-id="4364"></path><path d="M938.688 426.688h42.688v42.688h-42.688z" fill="#DE821D" p-id="4365"></path><path d="M938.688 469.312h42.688V512h-42.688zM938.688 512h42.688v42.688h-42.688zM853.312 554.688H896v42.688h-42.688z" fill="#F7AC00" p-id="4366"></path><path d="M853.312 597.312H896V640h-42.688zM896 554.688h42.688v42.688H896z" fill="#F7AC00" p-id="4367"></path><path d="M896 597.312h42.688V640H896zM853.312 640H896v42.688h-42.688zM896 640h42.688v42.688H896zM938.688 554.688h42.688v42.688h-42.688z" fill="#F7AC00" p-id="4368"></path><path d="M938.688 597.312h42.688V640h-42.688zM938.688 640h42.688v42.688h-42.688zM853.312 682.688H896v42.688h-42.688zM896 682.688h42.688v42.688H896zM938.688 682.688h42.688v42.688h-42.688z" fill="#F7AC00" p-id="4369"></path><path d="M853.312 725.312H896V768h-42.688z" fill="#F7AC00" p-id="4370"></path><path d="M853.312 768H896v42.688h-42.688z" fill="#DE821D" p-id="4371"></path><path d="M896 725.312h42.688V768H896z" fill="#F7AC00" p-id="4372"></path><path d="M512 384h42.688v42.688H512z" fill="#DE821D" p-id="4373"></path><path d="M554.688 384h42.688v42.688h-42.688zM554.688 426.688h42.688v42.688h-42.688z" fill="#F7AC00" p-id="4374"></path><path d="M597.312 384H640v42.688h-42.688zM597.312 426.688H640v42.688h-42.688z" fill="#F7AC00" p-id="4375"></path><path d="M597.312 469.312H640V512h-42.688z" fill="#DE821D" p-id="4376"></path><path d="M682.688 853.312h42.688V896h-42.688zM682.688 896h42.688v42.688h-42.688zM682.688 938.688h42.688v42.688h-42.688z" fill="#F7AC00" p-id="4377"></path><path d="M682.688 810.688h42.688v42.688h-42.688z" fill="#DE821D" p-id="4378"></path><path d="M725.312 853.312H768V896h-42.688zM725.312 896H768v42.688h-42.688zM725.312 938.688H768v42.688h-42.688zM768 896h42.688v42.688H768zM810.688 896h42.688v42.688h-42.688z" fill="#F7AC00" p-id="4379"></path><path d="M853.312 853.312H896V896h-42.688z" fill="#DE821D" p-id="4380"></path><path d="M725.312 810.688H768v42.688h-42.688z" fill="#F7AC00" p-id="4381"></path><path d="M896 768h42.688v42.688H896zM938.688 725.312h42.688V768h-42.688z" fill="#DE821D" p-id="4382"></path><path d="M768 853.312h42.688V896H768zM810.688 853.312h42.688V896h-42.688z" fill="#F7AC00" p-id="4383"></path><path d="M213.312 128H256v42.688h-42.688z" fill="#DE821D" p-id="4384"></path><path d="M256 128h42.688v42.688H256zM298.688 128h42.688v42.688h-42.688z" fill="#F7AC00" p-id="4385"></path><path d="M341.312 128H384v42.688h-42.688zM384 128h42.688v42.688H384zM426.688 128h42.688v42.688h-42.688z" fill="#F7AC00" p-id="4386"></path><path d="M469.312 128H512v42.688h-42.688zM128 170.688h42.688v42.688H128zM85.312 170.688H128v42.688h-42.688z" fill="#F7AC00" p-id="4387"></path><path d="M85.312 213.312H128V256h-42.688zM42.688 256h42.688v42.688H42.688z" fill="#F7AC00" p-id="4388"></path><path d="M42.688 213.312h42.688V256H42.688z" fill="#F7AC00" p-id="4389"></path><path d="M128 128h42.688v42.688H128z" fill="#DE821D" p-id="4390"></path><path d="M512 128h42.688v42.688H512z" fill="#F7AC00" p-id="4391"></path><path d="M512 341.312h42.688V384H512zM554.688 128h42.688v42.688h-42.688z" fill="#DE821D" p-id="4392"></path><path d="M554.688 341.312h42.688V384h-42.688z" fill="#F7AC00" p-id="4393"></path><path d="M597.312 341.312H640V384h-42.688z" fill="#F7AC00" p-id="4394"></path><path d="M640 128h42.688v42.688H640z" fill="#DE821D" p-id="4395"></path><path d="M640 298.688h42.688v42.688H640z" fill="#F7AC00" p-id="4396"></path><path d="M640 341.312h42.688V384H640zM640 384h42.688v42.688H640zM640 426.688h42.688v42.688H640z" fill="#F7AC00" p-id="4397"></path><path d="M640 469.312h42.688V512H640z" fill="#DE821D" p-id="4398"></path><path d="M682.688 128h42.688v42.688h-42.688zM682.688 256h42.688v42.688h-42.688zM682.688 341.312h42.688V384h-42.688z" fill="#F7AC00" p-id="4399"></path><path d="M725.312 128H768v42.688h-42.688zM725.312 213.312H768V256h-42.688zM725.312 341.312H768V384h-42.688zM768 128h42.688v42.688H768zM768 170.688h42.688v42.688H768zM768 341.312h42.688V384H768zM810.688 341.312h42.688V384h-42.688z" fill="#F7AC00" p-id="4400"></path><path d="M853.312 341.312H896V384h-42.688z" fill="#F7AC00" p-id="4401"></path><path d="M896 341.312h42.688V384H896z" fill="#DE821D" p-id="4402"></path><path d="M213.312 170.688H256v42.688h-42.688z" p-id="4403"></path><path d="M213.312 213.312H256V256h-42.688zM256 256h42.688v42.688H256zM213.312 298.688H256v42.688h-42.688zM256 298.688h42.688v42.688H256zM512 256h42.688v42.688H512zM512 298.688h42.688v42.688H512zM554.688 170.688h42.688v42.688h-42.688z" p-id="4404"></path><path d="M554.688 213.312h42.688V256h-42.688zM213.312 42.688H256v42.688h-42.688zM256 42.688h42.688v42.688H256zM597.312 42.688H640v42.688h-42.688z" p-id="4405"></path><path d="M597.312 85.312H640V128h-42.688zM640 42.688h42.688v42.688H640zM682.688 42.688h42.688v42.688h-42.688z" p-id="4406"></path><path d="M725.312 85.312H768V128h-42.688zM768 85.312h42.688V128H768zM896 256h42.688v42.688H896zM938.688 298.688h42.688v42.688h-42.688zM725.312 469.312H768V512h-42.688zM682.688 512h42.688v42.688h-42.688zM768 469.312h42.688V512H768zM682.688 682.688h42.688v42.688h-42.688z" p-id="4407"></path><path d="M682.688 725.312h42.688V768h-42.688z" p-id="4408"></path><path d="M725.312 725.312H768V768h-42.688zM768 768h42.688v42.688H768zM810.688 426.688h42.688v42.688h-42.688zM810.688 768h42.688v42.688h-42.688z" p-id="4409"></path><path d="M853.312 426.688H896v42.688h-42.688zM896 384h42.688v42.688H896zM938.688 384h42.688v42.688h-42.688zM469.312 384H512v42.688h-42.688zM512 426.688h42.688v42.688H512zM597.312 512H640v42.688h-42.688zM896 810.688h42.688v42.688H896zM938.688 768h42.688v42.688h-42.688zM938.688 810.688h42.688v42.688h-42.688zM768 938.688h42.688v42.688H768zM810.688 938.688h42.688v42.688h-42.688z" p-id="4410"></path><path d="M896 853.312h42.688V896H896zM853.312 896H896v42.688h-42.688zM682.688 768h42.688v42.688h-42.688zM853.312 810.688H896v42.688h-42.688zM298.688 0h42.688v42.688h-42.688z" p-id="4411"></path><path d="M341.312 0H384v42.688h-42.688zM384 0h42.688v42.688H384zM426.688 0h42.688v42.688h-42.688z" p-id="4412"></path><path d="M469.312 0H512v42.688h-42.688zM170.688 85.312h42.688V128h-42.688zM170.688 128h42.688v42.688h-42.688zM0 298.688h42.688v42.688H0zM0 256h42.688v42.688H0zM0 213.312h42.688V256H0zM42.688 170.688h42.688v42.688H42.688zM85.312 128H128v42.688h-42.688zM128 85.312h42.688V128H128z" p-id="4413"></path><path d="M0 341.312h42.688V384H0zM42.688 341.312h42.688V384H42.688z" p-id="4414"></path><path d="M85.312 341.312H128V384h-42.688zM128 341.312h42.688V384H128zM170.688 341.312h42.688V384h-42.688zM298.688 341.312h42.688V384h-42.688z" p-id="4415"></path><path d="M341.312 341.312H384V384h-42.688zM384 341.312h42.688V384H384zM426.688 341.312h42.688V384h-42.688z" p-id="4416"></path><path d="M469.312 341.312H512V384h-42.688zM512 0h42.688v42.688H512zM554.688 0h42.688v42.688h-42.688zM597.312 128H640v42.688h-42.688zM640 512h42.688v42.688H640zM640 554.688h42.688v42.688H640z" p-id="4417"></path><path d="M640 597.312h42.688V640H640zM640 640h42.688v42.688H640zM640 810.688h42.688v42.688H640zM810.688 128h42.688v42.688h-42.688zM853.312 170.688H896v42.688h-42.688zM896 213.312h42.688V256H896zM938.688 341.312h42.688V384h-42.688zM981.312 426.688H1024v42.688h-42.688z" p-id="4418"></path><path d="M981.312 469.312H1024V512h-42.688zM981.312 512H1024v42.688h-42.688zM981.312 554.688H1024v42.688h-42.688z" p-id="4419"></path><path d="M981.312 597.312H1024V640h-42.688zM981.312 640H1024v42.688h-42.688zM981.312 682.688H1024v42.688h-42.688z" p-id="4420"></path><path d="M981.312 725.312H1024V768h-42.688zM640 853.312h42.688V896H640zM640 896h42.688v42.688H640zM640 938.688h42.688v42.688H640z" p-id="4421"></path><path d="M640 981.312h42.688V1024H640zM682.688 981.312h42.688V1024h-42.688z" p-id="4422"></path><path d="M725.312 981.312H768V1024h-42.688zM554.688 469.312h42.688V512h-42.688z" p-id="4423"></path></svg>