<svg xmlns="http://www.w3.org/2000/svg" viewBox="0 0 1024 1024" version="1.1"><path d="M682.688 512h42.688v42.688h-42.688z" p-id="6327"></path><path d="M725.312 512H768v42.688h-42.688zM768 469.312h42.688V512H768z" p-id="6328"></path><path d="M768 512h42.688v42.688H768zM682.688 554.688h42.688v42.688h-42.688z" fill="#388F39" p-id="6329"></path><path d="M682.688 597.312h42.688V640h-42.688z" fill="#FDCD00" p-id="6330"></path><path d="M725.312 554.688H768v42.688h-42.688z" fill="#388F39" p-id="6331"></path><path d="M725.312 597.312H768V640h-42.688zM682.688 640h42.688v42.688h-42.688z" fill="#388F39" p-id="6332"></path><path d="M725.312 640H768v42.688h-42.688z" fill="#FDCD00" p-id="6333"></path><path d="M768 554.688h42.688v42.688H768z" fill="#388F39" p-id="6334"></path><path d="M768 597.312h42.688V640H768zM768 640h42.688v42.688H768z" fill="#388F39" p-id="6335"></path><path d="M682.688 682.688h42.688v42.688h-42.688z" fill="#FDCD00" p-id="6336"></path><path d="M725.312 682.688H768v42.688h-42.688zM768 682.688h42.688v42.688H768z" fill="#FDCD00" p-id="6337"></path><path d="M682.688 725.312h42.688V768h-42.688z" fill="#388F39" p-id="6338"></path><path d="M725.312 725.312H768V768h-42.688z" fill="#FDCD00" p-id="6339"></path><path d="M725.312 768H768v42.688h-42.688z" p-id="6340"></path><path d="M768 725.312h42.688V768H768zM768 768h42.688v42.688H768z" fill="#388F39" p-id="6341"></path><path d="M768 810.688h42.688v42.688H768zM810.688 469.312h42.688V512h-42.688z" p-id="6342"></path><path d="M810.688 512h42.688v42.688h-42.688zM810.688 554.688h42.688v42.688h-42.688z" fill="#388F39" p-id="6343"></path><path d="M810.688 597.312h42.688V640h-42.688z" fill="#388F39" p-id="6344"></path><path d="M810.688 640h42.688v42.688h-42.688z" fill="#FDCD00" p-id="6345"></path><path d="M810.688 682.688h42.688v42.688h-42.688z" fill="#388F39" p-id="6346"></path><path d="M810.688 725.312h42.688V768h-42.688zM810.688 768h42.688v42.688h-42.688z" fill="#388F39" p-id="6347"></path><path d="M810.688 810.688h42.688v42.688h-42.688z" p-id="6348"></path><path d="M853.312 469.312H896V512h-42.688zM853.312 512H896v42.688h-42.688zM853.312 554.688H896v42.688h-42.688z" fill="#388F39" p-id="6349"></path><path d="M853.312 597.312H896V640h-42.688zM896 554.688h42.688v42.688H896z" fill="#FDCD00" p-id="6350"></path><path d="M896 597.312h42.688V640H896zM853.312 640H896v42.688h-42.688zM896 640h42.688v42.688H896zM853.312 682.688H896v42.688h-42.688zM896 682.688h42.688v42.688H896zM938.688 682.688h42.688v42.688h-42.688z" fill="#388F39" p-id="6351"></path><path d="M853.312 725.312H896V768h-42.688zM853.312 768H896v42.688h-42.688zM896 725.312h42.688V768H896z" fill="#388F39" p-id="6352"></path><path d="M170.688 384h42.688v42.688h-42.688z" p-id="6353"></path><path d="M170.688 426.688h42.688v42.688h-42.688z" fill="#388F39" p-id="6354"></path><path d="M213.312 469.312H256V512h-42.688z" fill="#388F39" p-id="6355"></path><path d="M298.688 469.312h42.688V512h-42.688z" p-id="6356"></path><path d="M213.312 512H256v42.688h-42.688zM298.688 512h42.688v42.688h-42.688z" fill="#388F39" p-id="6357"></path><path d="M384 512h42.688v42.688H384z" p-id="6358"></path><path d="M128 554.688h42.688v42.688H128zM213.312 554.688H256v42.688h-42.688zM298.688 554.688h42.688v42.688h-42.688zM384 554.688h42.688v42.688H384z" fill="#388F39" p-id="6359"></path><path d="M426.688 554.688h42.688v42.688h-42.688z" p-id="6360"></path><path d="M128 597.312h42.688V640H128z" fill="#FDCD00" p-id="6361"></path><path d="M213.312 597.312H256V640h-42.688zM298.688 597.312h42.688V640h-42.688z" fill="#388F39" p-id="6362"></path><path d="M426.688 597.312h42.688V640h-42.688z" fill="#FDCD00" p-id="6363"></path><path d="M512 597.312h42.688V640H512z" fill="#FFFFFF" p-id="6364"></path><path d="M85.312 640H128v42.688h-42.688zM128 640h42.688v42.688H128zM170.688 640h42.688v42.688h-42.688z" fill="#388F39" p-id="6365"></path><path d="M213.312 640H256v42.688h-42.688z" fill="#FDCD00" p-id="6366"></path><path d="M256 640h42.688v42.688H256z" fill="#388F39" p-id="6367"></path><path d="M298.688 640h42.688v42.688h-42.688z" fill="#FDCD00" p-id="6368"></path><path d="M341.312 640H384v42.688h-42.688zM384 640h42.688v42.688H384zM426.688 640h42.688v42.688h-42.688z" fill="#388F39" p-id="6369"></path><path d="M469.312 640H512v42.688h-42.688z" fill="#FDCD00" p-id="6370"></path><path d="M512 640h42.688v42.688H512zM597.312 554.688H640v42.688h-42.688z" p-id="6371"></path><path d="M597.312 597.312H640V640h-42.688zM554.688 640h42.688v42.688h-42.688z" fill="#FDCD00" p-id="6372"></path><path d="M597.312 640H640v42.688h-42.688zM42.688 682.688h42.688v42.688H42.688z" fill="#388F39" p-id="6373"></path><path d="M85.312 682.688H128v42.688h-42.688zM128 682.688h42.688v42.688H128zM170.688 682.688h42.688v42.688h-42.688z" fill="#388F39" p-id="6374"></path><path d="M213.312 682.688H256v42.688h-42.688z" fill="#388F39" p-id="6375"></path><path d="M256 682.688h42.688v42.688H256zM298.688 682.688h42.688v42.688h-42.688z" fill="#FDCD00" p-id="6376"></path><path d="M341.312 682.688H384v42.688h-42.688zM384 682.688h42.688v42.688H384zM426.688 682.688h42.688v42.688h-42.688z" fill="#FDCD00" p-id="6377"></path><path d="M469.312 682.688H512v42.688h-42.688zM512 682.688h42.688v42.688H512zM554.688 682.688h42.688v42.688h-42.688z" fill="#FDCD00" p-id="6378"></path><path d="M597.312 682.688H640v42.688h-42.688z" fill="#FDCD00" p-id="6379"></path><path d="M42.688 725.312h42.688V768H42.688z" fill="#388F39" p-id="6380"></path><path d="M85.312 725.312H128V768h-42.688zM128 725.312h42.688V768H128zM170.688 725.312h42.688V768h-42.688z" fill="#388F39" p-id="6381"></path><path d="M341.312 725.312H384V768h-42.688zM384 725.312h42.688V768H384z" p-id="6382"></path><path d="M426.688 725.312h42.688V768h-42.688z" fill="#388F39" p-id="6383"></path><path d="M469.312 725.312H512V768h-42.688z" fill="#FDCD00" p-id="6384"></path><path d="M42.688 768h42.688v42.688H42.688z" fill="#388F39" p-id="6385"></path><path d="M85.312 768H128v42.688h-42.688zM128 768h42.688v42.688H128z" fill="#388F39" p-id="6386"></path><path d="M384 768h42.688v42.688H384zM426.688 768h42.688v42.688h-42.688z" fill="#FDCD00" p-id="6387"></path><path d="M469.312 768H512v42.688h-42.688z" fill="#388F39" p-id="6388"></path><path d="M512 725.312h42.688V768H512zM512 768h42.688v42.688H512z" fill="#FDCD00" p-id="6389"></path><path d="M42.688 810.688h42.688v42.688H42.688z" fill="#388F39" p-id="6390"></path><path d="M554.688 725.312h42.688V768h-42.688z" fill="#FDCD00" p-id="6391"></path><path d="M426.688 810.688h42.688v42.688h-42.688z" fill="#388F39" p-id="6392"></path><path d="M469.312 810.688H512v42.688h-42.688z" fill="#FDCD00" p-id="6393"></path><path d="M213.312 768H256v42.688h-42.688zM256 768h42.688v42.688H256z" fill="#388F39" p-id="6394"></path><path d="M298.688 768h42.688v42.688h-42.688z" p-id="6395"></path><path d="M170.688 810.688h42.688v42.688h-42.688z" fill="#388F39" p-id="6396"></path><path d="M213.312 810.688H256v42.688h-42.688zM256 810.688h42.688v42.688H256z" p-id="6397"></path><path d="M298.688 810.688h42.688v42.688h-42.688z" fill="#388F39" p-id="6398"></path><path d="M341.312 810.688H384v42.688h-42.688z" fill="#388F39" p-id="6399"></path><path d="M597.312 768H640v42.688h-42.688zM554.688 810.688h42.688v42.688h-42.688z" fill="#FDCD00" p-id="6400"></path><path d="M597.312 810.688H640v42.688h-42.688zM85.312 853.312H128V896h-42.688z" fill="#388F39" p-id="6401"></path><path d="M128 853.312h42.688V896H128zM170.688 853.312h42.688V896h-42.688z" p-id="6402"></path><path d="M213.312 853.312H256V896h-42.688zM256 853.312h42.688V896H256zM298.688 853.312h42.688V896h-42.688z" fill="#388F39" p-id="6403"></path><path d="M341.312 853.312H384V896h-42.688zM384 853.312h42.688V896H384zM512 853.312h42.688V896H512zM554.688 853.312h42.688V896h-42.688z" fill="#388F39" p-id="6404"></path><path d="M597.312 853.312H640V896h-42.688z" fill="#FDCD00" p-id="6405"></path><path d="M42.688 896h42.688v42.688H42.688z" p-id="6406"></path><path d="M85.312 896H128v42.688h-42.688z" p-id="6407"></path><path d="M128 896h42.688v42.688H128zM170.688 896h42.688v42.688h-42.688z" fill="#388F39" p-id="6408"></path><path d="M213.312 896H256v42.688h-42.688zM256 896h42.688v42.688H256zM298.688 896h42.688v42.688h-42.688z" fill="#388F39" p-id="6409"></path><path d="M341.312 896H384v42.688h-42.688zM384 896h42.688v42.688H384zM426.688 896h42.688v42.688h-42.688z" fill="#388F39" p-id="6410"></path><path d="M469.312 896H512v42.688h-42.688z" fill="#FDCD00" p-id="6411"></path><path d="M213.312 938.688H256v42.688h-42.688zM256 938.688h42.688v42.688H256zM298.688 938.688h42.688v42.688h-42.688z" fill="#388F39" p-id="6412"></path><path d="M341.312 938.688H384v42.688h-42.688zM384 938.688h42.688v42.688H384zM426.688 938.688h42.688v42.688h-42.688z" fill="#388F39" p-id="6413"></path><path d="M469.312 938.688H512v42.688h-42.688zM512 896h42.688v42.688H512z" fill="#388F39" p-id="6414"></path><path d="M512 938.688h42.688v42.688H512z" fill="#FDCD00" p-id="6415"></path><path d="M554.688 896h42.688v42.688h-42.688zM554.688 938.688h42.688v42.688h-42.688z" fill="#388F39" p-id="6416"></path><path d="M597.312 896H640v42.688h-42.688z" fill="#FDCD00" p-id="6417"></path><path d="M597.312 938.688H640v42.688h-42.688zM682.688 853.312h42.688V896h-42.688zM682.688 896h42.688v42.688h-42.688z" fill="#388F39" p-id="6418"></path><path d="M682.688 938.688h42.688v42.688h-42.688z" fill="#FDCD00" p-id="6419"></path><path d="M682.688 810.688h42.688v42.688h-42.688zM896 810.688h42.688v42.688H896zM938.688 768h42.688v42.688h-42.688zM938.688 810.688h42.688v42.688h-42.688z" fill="#388F39" p-id="6420"></path><path d="M725.312 853.312H768V896h-42.688zM725.312 896H768v42.688h-42.688zM725.312 938.688H768v42.688h-42.688zM768 896h42.688v42.688H768zM768 938.688h42.688v42.688H768zM810.688 896h42.688v42.688h-42.688z" fill="#388F39" p-id="6421"></path><path d="M853.312 853.312H896V896h-42.688z" p-id="6422"></path><path d="M896 853.312h42.688V896H896zM938.688 853.312h42.688V896h-42.688zM853.312 896H896v42.688h-42.688z" fill="#388F39" p-id="6423"></path><path d="M896 896h42.688v42.688H896zM938.688 896h42.688v42.688h-42.688z" p-id="6424"></path><path d="M512 810.688h42.688v42.688H512zM554.688 768h42.688v42.688h-42.688z" fill="#388F39" p-id="6425"></path><path d="M597.312 725.312H640V768h-42.688z" p-id="6426"></path><path d="M682.688 768h42.688v42.688h-42.688z" fill="#FDCD00" p-id="6427"></path><path d="M725.312 810.688H768v42.688h-42.688zM896 768h42.688v42.688H896zM853.312 810.688H896v42.688h-42.688zM938.688 725.312h42.688V768h-42.688zM42.688 853.312h42.688V896H42.688zM426.688 853.312h42.688V896h-42.688z" fill="#388F39" p-id="6428"></path><path d="M469.312 853.312H512V896h-42.688z" fill="#FDCD00" p-id="6429"></path><path d="M768 853.312h42.688V896H768zM810.688 853.312h42.688V896h-42.688z" fill="#388F39" p-id="6430"></path><path d="M640 554.688h42.688v42.688H640z" p-id="6431"></path><path d="M640 597.312h42.688V640H640z" fill="#FDCD00" p-id="6432"></path><path d="M640 640h42.688v42.688H640z" fill="#388F39" p-id="6433"></path><path d="M640 682.688h42.688v42.688H640z" fill="#FDCD00" p-id="6434"></path><path d="M640 725.312h42.688V768H640z" p-id="6435"></path><path d="M640 768h42.688v42.688H640z" fill="#FDCD00" p-id="6436"></path><path d="M640 810.688h42.688v42.688H640z" fill="#388F39" p-id="6437"></path><path d="M640 853.312h42.688V896H640zM640 896h42.688v42.688H640z" fill="#388F39" p-id="6438"></path><path d="M640 938.688h42.688v42.688H640z" fill="#FDCD00" p-id="6439"></path><path d="M128 469.312h42.688V512H128zM170.688 469.312h42.688V512h-42.688z" fill="#388F39" p-id="6440"></path><path d="M256 469.312h42.688V512H256z" p-id="6441"></path><path d="M128 512h42.688v42.688H128zM170.688 512h42.688v42.688h-42.688zM256 512h42.688v42.688H256z" fill="#388F39" p-id="6442"></path><path d="M341.312 512H384v42.688h-42.688z" p-id="6443"></path><path d="M85.312 554.688H128v42.688h-42.688z" fill="#FDCD00" p-id="6444"></path><path d="M170.688 554.688h42.688v42.688h-42.688zM256 554.688h42.688v42.688H256zM341.312 554.688H384v42.688h-42.688zM85.312 597.312H128V640h-42.688z" fill="#388F39" p-id="6445"></path><path d="M170.688 597.312h42.688V640h-42.688z" fill="#FDCD00" p-id="6446"></path><path d="M256 597.312h42.688V640H256z" fill="#388F39" p-id="6447"></path><path d="M341.312 597.312H384V640h-42.688zM384 597.312h42.688V640H384z" fill="#FDCD00" p-id="6448"></path><path d="M469.312 597.312H512V640h-42.688z" p-id="6449"></path><path d="M341.312 170.688H384v42.688h-42.688zM384 170.688h42.688v42.688H384zM426.688 170.688h42.688v42.688h-42.688z" fill="#FFFFFF" p-id="6450"></path><path d="M469.312 170.688H512v42.688h-42.688zM298.688 213.312h42.688V256h-42.688z" fill="#FFFFFF" p-id="6451"></path><path d="M341.312 213.312H384V256h-42.688zM384 213.312h42.688V256H384z" fill="#FFFFFF" p-id="6452"></path><path d="M426.688 213.312h42.688V256h-42.688z" fill="#E6E6E6" p-id="6453"></path><path d="M469.312 213.312H512V256h-42.688zM256 256h42.688v42.688H256zM298.688 256h42.688v42.688h-42.688z" fill="#FFFFFF" p-id="6454"></path><path d="M341.312 256H384v42.688h-42.688zM384 256h42.688v42.688H384zM426.688 256h42.688v42.688h-42.688z" fill="#FFFFFF" p-id="6455"></path><path d="M469.312 256H512v42.688h-42.688zM256 298.688h42.688v42.688H256z" fill="#FFFFFF" p-id="6456"></path><path d="M298.688 298.688h42.688v42.688h-42.688z" fill="#E6E6E6" p-id="6457"></path><path d="M341.312 298.688H384v42.688h-42.688zM384 298.688h42.688v42.688H384zM426.688 298.688h42.688v42.688h-42.688z" fill="#FFFFFF" p-id="6458"></path><path d="M469.312 298.688H512v42.688h-42.688zM512 170.688h42.688v42.688H512z" fill="#FFFFFF" p-id="6459"></path><path d="M512 213.312h42.688V256H512zM512 256h42.688v42.688H512zM512 298.688h42.688v42.688H512zM554.688 170.688h42.688v42.688h-42.688z" fill="#FFFFFF" p-id="6460"></path><path d="M554.688 213.312h42.688V256h-42.688zM554.688 256h42.688v42.688h-42.688zM554.688 298.688h42.688v42.688h-42.688zM597.312 170.688H640v42.624h-42.688z" fill="#FFFFFF" p-id="6461"></path><path d="M597.312 213.312H640V256h-42.688zM597.312 256H640v42.688h-42.688zM597.312 298.688H640v42.688h-42.688zM640 213.312h42.688V256H640z" fill="#FFFFFF" p-id="6462"></path><path d="M640 256h42.688v42.688H640z" fill="#E6E6E6" p-id="6463"></path><path d="M682.688 213.312h42.624V256h-42.624zM640 170.688h42.688v42.624H640zM426.688 42.688h42.688v42.688h-42.688z" fill="#FFFFFF" p-id="6464"></path><path d="M469.312 42.688H512v42.688h-42.688zM384 85.312h42.688V128H384z" fill="#FFFFFF" p-id="6465"></path><path d="M426.688 85.312h42.688V128h-42.688z" fill="#FFFFFF" p-id="6466"></path><path d="M469.312 85.312H512V128h-42.688zM512 42.688h42.688v42.688H512z" fill="#FFFFFF" p-id="6467"></path><path d="M512 85.312h42.688V128H512zM554.688 42.688h42.688v42.688h-42.688z" fill="#FFFFFF" p-id="6468"></path><path d="M554.688 85.312h42.688V128h-42.688z" fill="#FFFFFF" p-id="6469"></path><path d="M597.312 85.312H640V128h-42.688zM682.688 298.688h42.688v42.688h-42.688zM725.312 256H768v42.688h-42.688z" fill="#FFFFFF" p-id="6470"></path><path d="M725.312 298.688H768v42.688h-42.688zM682.688 384h42.688v42.688h-42.688zM682.688 426.688h42.688v42.688h-42.688z" fill="#FFFFFF" p-id="6471"></path><path d="M682.688 469.312h42.688V512h-42.688z" fill="#FFFFFF" p-id="6472"></path><path d="M725.312 384H768v42.688h-42.688z" fill="#E6E6E6" p-id="6473"></path><path d="M725.312 426.688H768v42.688h-42.688z" fill="#FFFFFF" p-id="6474"></path><path d="M725.312 469.312H768V512h-42.688zM768 384h42.688v42.688H768zM768 426.688h42.688v42.688H768zM810.688 384h42.688v42.688h-42.688zM810.688 426.688h42.688v42.688h-42.688zM213.312 384H256v42.688h-42.688zM256 384h42.688v42.688H256zM298.688 384h42.688v42.688h-42.688z" fill="#FFFFFF" p-id="6475"></path><path d="M341.312 384H384v42.688h-42.688zM384 384h42.688v42.688H384zM426.688 384h42.688v42.688h-42.688z" fill="#FFFFFF" p-id="6476"></path><path d="M469.312 384H512v42.688h-42.688z" fill="#FFFFFF" p-id="6477"></path><path d="M213.312 426.688H256v42.688h-42.688z" p-id="6478"></path><path d="M256 426.688h42.688v42.688H256zM298.688 426.688h42.688v42.688h-42.688z" fill="#FFFFFF" p-id="6479"></path><path d="M341.312 426.688H384v42.688h-42.688z" fill="#FFFFFF" p-id="6480"></path><path d="M384 426.688h42.688v42.688H384z" fill="#E6E6E6" p-id="6481"></path><path d="M426.688 426.688h42.688v42.688h-42.688z" fill="#FFFFFF" p-id="6482"></path><path d="M469.312 426.688H512v42.688h-42.688zM384 469.312h42.688V512H384z" fill="#FFFFFF" p-id="6483"></path><path d="M426.688 469.312h42.688V512h-42.688zM512 384h42.688v42.688H512zM512 426.688h42.688v42.688H512z" fill="#FFFFFF" p-id="6484"></path><path d="M512 469.312h42.688V512H512zM426.688 512h42.688v42.688h-42.688zM554.688 384h42.688v42.688h-42.688zM554.688 426.688h42.688v42.688h-42.688z" fill="#FFFFFF" p-id="6485"></path><path d="M597.312 384H640v42.688h-42.688zM597.312 426.688H640v42.688h-42.688z" fill="#FFFFFF" p-id="6486"></path><path d="M597.312 469.312H640V512h-42.688zM554.688 512h42.688v42.688h-42.688z" fill="#FFFFFF" p-id="6487"></path><path d="M597.312 512H640v42.688h-42.688zM512 554.688h42.688v42.688H512zM341.312 128H384v42.688h-42.688zM384 128h42.688v42.688H384zM426.688 128h42.688v42.688h-42.688z" fill="#FFFFFF" p-id="6488"></path><path d="M469.312 128H512v42.688h-42.688zM213.312 341.312H256V384h-42.688zM256 341.312h42.688V384H256zM298.688 341.312h42.688V384h-42.688z" fill="#FFFFFF" p-id="6489"></path><path d="M341.312 341.312H384V384h-42.688zM384 341.312h42.688V384H384zM426.688 341.312h42.688V384h-42.688z" fill="#FFFFFF" p-id="6490"></path><path d="M469.312 341.312H512V384h-42.688zM512 128h42.688v42.688H512zM512 341.312h42.688V384H512z" fill="#FFFFFF" p-id="6491"></path><path d="M554.688 128h42.688v42.688h-42.688zM554.688 341.312h42.688V384h-42.688z" fill="#E6E6E6" p-id="6492"></path><path d="M597.312 128H640v42.688h-42.688zM597.312 341.312H640V384h-42.688zM640 128h42.688v42.688H640zM640 298.688h42.688v42.688H640z" fill="#FFFFFF" p-id="6493"></path><path d="M640 341.312h42.688V384H640zM640 384h42.688v42.688H640zM640 426.688h42.688v42.688H640z" fill="#FFFFFF" p-id="6494"></path><path d="M640 469.312h42.688V512H640zM640 512h42.688v42.688H640zM682.688 256h42.688v42.688h-42.688zM682.688 341.312h42.688V384h-42.688z" fill="#FFFFFF" p-id="6495"></path><path d="M725.312 341.312H768V384h-42.688zM768 341.312h42.688V384H768zM341.312 469.312H384V512h-42.688zM469.312 469.312H512V512h-42.688zM469.312 512H512v42.688h-42.688zM512 512h42.688v42.688H512zM554.688 469.312h42.688V512h-42.688zM469.312 554.688H512v42.688h-42.688zM554.688 554.688h42.688v42.688h-42.688z" fill="#FFFFFF" p-id="6496"></path><path d="M554.688 597.312h42.688V640h-42.688z" p-id="6497"></path><path d="M213.312 725.312H256V768h-42.688zM256 725.312h42.688V768H256z" fill="#388F39" p-id="6498"></path><path d="M298.688 725.312h42.688V768h-42.688z" fill="#FDCD00" p-id="6499"></path><path d="M170.688 768h42.688v42.688h-42.688z" fill="#388F39" p-id="6500"></path><path d="M341.312 768H384v42.688h-42.688z" fill="#FDCD00" p-id="6501"></path><path d="M85.312 810.688H128v42.688h-42.688zM128 810.688h42.688v42.688H128zM384 810.688h42.688v42.688H384z" fill="#388F39" p-id="6502"></path><path d="M298.688 170.688h42.688v42.688h-42.688zM256 213.312h42.688V256H256zM213.312 256H256v42.688h-42.688zM213.312 298.688H256v42.688h-42.688zM682.688 170.688h42.688v42.624h-42.688zM384 42.688h42.688v42.688H384zM341.312 85.312H384V128h-42.688zM597.312 42.688H640v42.688h-42.688zM640 85.312h42.688V128H640zM768 256h42.688v42.688H768zM768 298.688h42.688v42.688H768zM853.312 384H896v42.688h-42.688zM853.312 426.688H896v42.688h-42.688zM896 469.312h42.688V512H896zM896 512h42.688v42.688H896zM938.688 554.688h42.688v42.688h-42.688z" p-id="6503"></path><path d="M938.688 597.312h42.688V640h-42.688zM938.688 640h42.688v42.688h-42.688zM128 384h42.688v42.688H128zM128 426.688h42.688v42.688H128zM42.688 554.688h42.688v42.688H42.688z" p-id="6504"></path><path d="M42.688 597.312h42.688V640H42.688zM42.688 640h42.688v42.688H42.688zM42.688 938.688h42.688v42.688H42.688z" p-id="6505"></path><path d="M85.312 938.688H128v42.688h-42.688zM128 938.688h42.688v42.688H128zM170.688 938.688h42.688v42.688h-42.688zM810.688 938.688h42.688v42.688h-42.688z" p-id="6506"></path><path d="M853.312 938.688H896v42.688h-42.688zM896 938.688h42.688v42.688H896zM938.688 938.688h42.688v42.688h-42.688zM426.688 0h42.688v42.688h-42.688z" p-id="6507"></path><path d="M469.312 0H512v42.688h-42.688zM298.688 128h42.688v42.688h-42.688zM170.688 341.312h42.688V384h-42.688zM512 0h42.688v42.688H512zM554.688 0h42.688v42.688h-42.688zM682.688 128h42.688v42.688h-42.688zM725.312 213.312H768V256h-42.688zM0 682.688h42.688v42.688H0z" p-id="6508"></path><path d="M0 725.312h42.688V768H0zM0 768h42.688v42.688H0zM0 810.688h42.688v42.688H0zM810.688 341.312h42.688V384h-42.688zM981.312 682.688H1024v42.688h-42.688z" p-id="6509"></path><path d="M981.312 725.312H1024V768h-42.688zM981.312 768H1024v42.688h-42.688zM981.312 810.688H1024v42.688h-42.688zM0 853.312h42.688V896H0zM0 896h42.688v42.688H0zM213.312 981.312H256V1024h-42.688zM256 981.312h42.688V1024H256zM298.688 981.312h42.688V1024h-42.688z" p-id="6510"></path><path d="M341.312 981.312H384V1024h-42.688zM384 981.312h42.688V1024H384zM426.688 981.312h42.688V1024h-42.688z" p-id="6511"></path><path d="M469.312 981.312H512V1024h-42.688zM512 981.312h42.688V1024H512zM554.688 981.312h42.688V1024h-42.688z" p-id="6512"></path><path d="M597.312 981.312H640V1024h-42.688zM640 981.312h42.688V1024H640zM682.688 981.312h42.688V1024h-42.688z" p-id="6513"></path><path d="M725.312 981.312H768V1024h-42.688zM768 981.312h42.688V1024H768zM981.312 853.312H1024V896h-42.688zM981.312 896H1024v42.688h-42.688zM85.312 469.312H128V512h-42.688zM85.312 512H128v42.688h-42.688z" p-id="6514"></path></svg>