<svg xmlns="http://www.w3.org/2000/svg" viewBox="0 0 1024 1024" version="1.1"><path d="M768 682.688h42.688v42.688H768zM725.312 725.312H768V768h-42.688zM725.312 768H768v42.688h-42.688z" fill="#EE7E80" p-id="5627"></path><path d="M768 725.312h42.688V768H768zM768 768h42.688v42.688H768zM768 810.688h42.688v42.688H768zM810.688 682.688h42.688v42.688h-42.688z" fill="#EE7E80" p-id="5628"></path><path d="M810.688 725.312h42.688V768h-42.688zM810.688 768h42.688v42.688h-42.688zM810.688 810.688h42.688v42.688h-42.688z" fill="#EE7E80" p-id="5629"></path><path d="M853.312 682.688H896v42.688h-42.688zM896 682.688h42.688v42.688H896zM938.688 682.688h42.688v42.688h-42.688z" fill="#EE7E80" p-id="5630"></path><path d="M853.312 725.312H896V768h-42.688zM853.312 768H896v42.688h-42.688zM896 725.312h42.688V768H896zM682.688 853.312h42.688V896h-42.688zM682.688 896h42.688v42.688h-42.688z" fill="#EE7E80" p-id="5631"></path><path d="M682.688 810.688h42.688v42.688h-42.688z" fill="#EE7E80" p-id="5632"></path><path d="M725.312 853.312H768V896h-42.688zM725.312 896H768v42.688h-42.688zM725.312 938.688H768v42.688h-42.688zM768 896h42.688v42.688H768zM682.688 768h42.688v42.688h-42.688z" fill="#EE7E80" p-id="5633"></path><path d="M725.312 810.688H768v42.688h-42.688zM896 768h42.688v42.688H896zM853.312 810.688H896v42.688h-42.688zM938.688 725.312h42.688V768h-42.688zM768 853.312h42.688V896H768z" fill="#EE7E80" p-id="5634"></path><path d="M810.688 853.312h42.688V896h-42.688zM170.688 170.688h42.688v42.688h-42.688z" fill="#EE7E80" p-id="5635"></path><path d="M213.312 170.688H256v42.688h-42.688zM256 170.688h42.688v42.688H256zM298.688 170.688h42.688v42.688h-42.688zM128 213.312h42.688V256H128z" fill="#EE7E80" p-id="5636"></path><path d="M170.688 213.312h42.688V256h-42.688z" fill="#EE7E80" p-id="5637"></path><path d="M213.312 213.312H256V256h-42.688zM256 213.312h42.688V256H256zM298.688 213.312h42.688V256h-42.688zM85.312 256H128v42.688h-42.688zM128 256h42.688v42.688H128zM170.688 256h42.688v42.688h-42.688z" fill="#EE7E80" p-id="5638"></path><path d="M213.312 256H256v42.688h-42.688zM256 256h42.688v42.688H256zM42.688 298.688h42.688v42.688H42.688z" fill="#EE7E80" p-id="5639"></path><path d="M85.312 298.688H128v42.688h-42.688zM128 298.688h42.688v42.688H128zM170.688 298.688h42.688v42.688h-42.688z" fill="#EE7E80" p-id="5640"></path><path d="M213.312 298.688H256v42.688h-42.688zM256 42.688h42.688v42.688H256zM213.312 85.312H256V128h-42.688z" fill="#EE7E80" p-id="5641"></path><path d="M256 85.312h42.688V128H256zM298.688 85.312h42.688V128h-42.688zM170.688 128h42.688v42.688h-42.688z" fill="#EE7E80" p-id="5642"></path><path d="M213.312 128H256v42.688h-42.688zM256 128h42.688v42.688H256zM298.688 128h42.688v42.688h-42.688zM128 170.688h42.688v42.688H128zM85.312 213.312H128V256h-42.688zM42.688 256h42.688v42.688H42.688z" fill="#EE7E80" p-id="5643"></path><path d="M341.312 256H384v42.688h-42.688zM384 256h42.688v42.688H384zM426.688 256h42.688v42.688h-42.688z" fill="#E94F5B" p-id="5644"></path><path d="M469.312 256H512v42.688h-42.688zM298.688 298.688h42.688v42.688h-42.688z" fill="#E94F5B" p-id="5645"></path><path d="M341.312 298.688H384v42.688h-42.688zM384 298.688h42.688v42.688H384zM426.688 298.688h42.688v42.688h-42.688z" fill="#E94F5B" p-id="5646"></path><path d="M469.312 298.688H512v42.688h-42.688zM512 256h42.688v42.688H512zM512 298.688h42.688v42.688H512zM554.688 256h42.688v42.688h-42.688zM554.688 298.688h42.688v42.688h-42.688z" fill="#E94F5B" p-id="5647"></path><path d="M597.312 298.688H640v42.688h-42.688zM256 384h42.688v42.688H256zM298.688 384h42.688v42.688h-42.688z" fill="#E94F5B" p-id="5648"></path><path d="M341.312 384H384v42.688h-42.688zM256 426.688h42.688v42.688H256zM256 341.312h42.688V384H256zM298.688 341.312h42.688V384h-42.688z" fill="#E94F5B" p-id="5649"></path><path d="M341.312 341.312H384V384h-42.688zM384 341.312h42.688V384H384zM426.688 341.312h42.688V384h-42.688z" fill="#E94F5B" p-id="5650"></path><path d="M469.312 341.312H512V384h-42.688zM640 298.688h42.688v42.688H640z" fill="#E94F5B" p-id="5651"></path><path d="M682.688 384h42.688v42.688h-42.688zM682.688 426.688h42.688v42.688h-42.688z" fill="#E6E741" p-id="5652"></path><path d="M725.312 426.688H768v42.688h-42.688zM384 426.688h42.688v42.688H384zM426.688 426.688h42.688v42.688h-42.688z" fill="#E6E741" p-id="5653"></path><path d="M469.312 426.688H512v42.688h-42.688zM298.688 469.312h42.688V512h-42.688zM384 469.312h42.688V512H384z" fill="#E6E741" p-id="5654"></path><path d="M426.688 469.312h42.688V512h-42.688zM512 384h42.688v42.688H512zM512 426.688h42.688v42.688H512z" fill="#E6E741" p-id="5655"></path><path d="M512 469.312h42.688V512H512zM298.688 512h42.688v42.688h-42.688zM384 512h42.688v42.688H384zM426.688 512h42.688v42.688h-42.688zM554.688 384h42.688v42.688h-42.688zM554.688 426.688h42.688v42.688h-42.688z" fill="#E6E741" p-id="5656"></path><path d="M597.312 384H640v42.688h-42.688zM597.312 426.688H640v42.688h-42.688z" fill="#E6E741" p-id="5657"></path><path d="M597.312 469.312H640V512h-42.688zM298.688 554.688h42.688v42.688h-42.688zM384 554.688h42.688v42.688H384z" fill="#E6E741" p-id="5658"></path><path d="M298.688 597.312h42.688V640h-42.688zM640 384h42.688v42.688H640zM640 426.688h42.688v42.688H640z" fill="#E6E741" p-id="5659"></path><path d="M640 469.312h42.688V512H640zM682.688 341.312h42.688V384h-42.688zM341.312 469.312H384V512h-42.688zM469.312 469.312H512V512h-42.688zM256 512h42.688v42.688H256zM341.312 512H384v42.688h-42.688zM469.312 512H512v42.688h-42.688zM512 512h42.688v42.688H512zM554.688 469.312h42.688V512h-42.688zM256 554.688h42.688v42.688H256zM341.312 554.688H384v42.688h-42.688z" fill="#E6E741" p-id="5660"></path><path d="M682.688 512h42.688v42.688h-42.688z" fill="#E94F5B" p-id="5661"></path><path d="M725.312 512H768v42.688h-42.688zM768 512h42.688v42.688H768zM682.688 554.688h42.688v42.688h-42.688z" fill="#E94F5B" p-id="5662"></path><path d="M682.688 597.312h42.688V640h-42.688z" fill="#E94F5B" p-id="5663"></path><path d="M725.312 554.688H768v42.688h-42.688z" fill="#E94F5B" p-id="5664"></path><path d="M725.312 597.312H768V640h-42.688zM682.688 640h42.688v42.688h-42.688z" fill="#E94F5B" p-id="5665"></path><path d="M725.312 640H768v42.688h-42.688zM768 554.688h42.688v42.688H768zM682.688 682.688h42.688v42.688h-42.688zM426.688 597.312h42.688V640h-42.688zM512 597.312h42.688V640H512zM341.312 640H384v42.688h-42.688zM384 640h42.688v42.688H384zM426.688 640h42.688v42.688h-42.688z" fill="#E94F5B" p-id="5666"></path><path d="M469.312 640H512v42.688h-42.688zM512 640h42.688v42.688H512zM597.312 554.688H640v42.688h-42.688z" fill="#E94F5B" p-id="5667"></path><path d="M597.312 597.312H640V640h-42.688zM554.688 640h42.688v42.688h-42.688z" fill="#E94F5B" p-id="5668"></path><path d="M597.312 640H640v42.688h-42.688zM341.312 682.688H384v42.688h-42.688zM384 682.688h42.688v42.688H384zM426.688 682.688h42.688v42.688h-42.688z" fill="#E94F5B" p-id="5669"></path><path d="M469.312 682.688H512v42.688h-42.688zM512 682.688h42.688v42.688H512zM554.688 682.688h42.688v42.688h-42.688z" fill="#E94F5B" p-id="5670"></path><path d="M597.312 682.688H640v42.688h-42.688zM426.688 725.312h42.688V768h-42.688z" fill="#E94F5B" p-id="5671"></path><path d="M469.312 725.312H512V768h-42.688zM512 725.312h42.688V768H512zM554.688 725.312h42.688V768h-42.688z" fill="#E94F5B" p-id="5672"></path><path d="M597.312 725.312H640V768h-42.688zM640 554.688h42.688v42.688H640z" fill="#E94F5B" p-id="5673"></path><path d="M640 597.312h42.688V640H640zM640 640h42.688v42.688H640zM640 682.688h42.688v42.688H640z" fill="#E94F5B" p-id="5674"></path><path d="M640 725.312h42.688V768H640zM469.312 597.312H512V640h-42.688zM554.688 554.688h42.688v42.688h-42.688z" fill="#E94F5B" p-id="5675"></path><path d="M554.688 597.312h42.688V640h-42.688z" fill="#E94F5B" p-id="5676"></path><path d="M341.312 170.688H384v42.688h-42.688z" p-id="5677"></path><path d="M341.312 213.312H384V256h-42.688zM384 213.312h42.688V256H384zM426.688 213.312h42.688V256h-42.688z" p-id="5678"></path><path d="M469.312 213.312H512V256h-42.688zM298.688 256h42.688v42.688h-42.688zM256 298.688h42.688v42.688H256zM512 213.312h42.688V256H512zM554.688 213.312h42.688V256h-42.688zM597.312 256H640v42.688h-42.688zM640 256h42.688v42.688H640zM213.312 42.688H256v42.688h-42.688zM298.688 42.688h42.688v42.688h-42.688z" p-id="5679"></path><path d="M341.312 85.312H384V128h-42.688zM682.688 298.688h42.688v42.688h-42.688zM682.688 469.312h42.688V512h-42.688zM725.312 384H768v42.688h-42.688z" p-id="5680"></path><path d="M725.312 469.312H768V512h-42.688zM768 426.688h42.688v42.688H768z" p-id="5681"></path><path d="M768 469.312h42.688V512H768zM768 597.312h42.688V640H768zM768 640h42.688v42.688H768zM725.312 682.688H768v42.688h-42.688z" p-id="5682"></path><path d="M682.688 725.312h42.688V768h-42.688zM810.688 512h42.688v42.688h-42.688zM810.688 554.688h42.688v42.688h-42.688zM810.688 640h42.688v42.688h-42.688z" p-id="5683"></path><path d="M853.312 640H896v42.688h-42.688zM896 640h42.688v42.688H896zM938.688 640h42.688v42.688h-42.688zM213.312 384H256v42.688h-42.688zM384 384h42.688v42.688H384zM426.688 384h42.688v42.688h-42.688z" p-id="5684"></path><path d="M469.312 384H512v42.688h-42.688zM213.312 426.688H256v42.688h-42.688zM298.688 426.688h42.688v42.688h-42.688z" p-id="5685"></path><path d="M341.312 426.688H384v42.688h-42.688zM213.312 469.312H256V512h-42.688zM213.312 512H256v42.688h-42.688zM554.688 512h42.688v42.688h-42.688z" p-id="5686"></path><path d="M597.312 512H640v42.688h-42.688zM213.312 554.688H256v42.688h-42.688zM426.688 554.688h42.688v42.688h-42.688zM512 554.688h42.688v42.688H512zM256 640h42.688v42.688H256zM298.688 640h42.688v42.688h-42.688zM298.688 682.688h42.688v42.688h-42.688z" p-id="5687"></path><path d="M341.312 725.312H384V768h-42.688zM384 725.312h42.688V768H384zM426.688 768h42.688v42.688h-42.688z" p-id="5688"></path><path d="M469.312 768H512v42.688h-42.688zM512 768h42.688v42.688H512zM597.312 768H640v42.688h-42.688zM682.688 938.688h42.688v42.688h-42.688zM896 810.688h42.688v42.688H896zM938.688 768h42.688v42.688h-42.688zM768 938.688h42.688v42.688H768zM810.688 896h42.688v42.688h-42.688zM853.312 853.312H896V896h-42.688z" p-id="5689"></path><path d="M554.688 768h42.688v42.688h-42.688zM256 0h42.688v42.688H256zM170.688 85.312h42.688V128h-42.688zM341.312 128H384v42.688h-42.688zM85.312 170.688H128v42.688h-42.688zM0 298.688h42.688v42.688H0zM0 256h42.688v42.688H0z" p-id="5690"></path><path d="M42.688 213.312h42.688V256H42.688zM128 128h42.688v42.688H128zM42.688 341.312h42.688V384H42.688z" p-id="5691"></path><path d="M85.312 341.312H128V384h-42.688zM128 341.312h42.688V384H128zM170.688 341.312h42.688V384h-42.688z" p-id="5692"></path><path d="M213.312 341.312H256V384h-42.688zM512 341.312h42.688V384H512zM554.688 341.312h42.688V384h-42.688z" p-id="5693"></path><path d="M597.312 341.312H640V384h-42.688zM640 341.312h42.688V384H640zM640 512h42.688v42.688H640zM725.312 341.312H768V384h-42.688zM640 768h42.688v42.688H640zM640 810.688h42.688v42.688H640zM981.312 682.688H1024v42.688h-42.688z" p-id="5694"></path><path d="M981.312 725.312H1024V768h-42.688zM640 853.312h42.688V896H640zM640 896h42.688v42.688H640zM725.312 981.312H768V1024h-42.688zM256 469.312h42.688V512H256zM469.312 554.688H512v42.688h-42.688zM256 597.312h42.688V640H256zM341.312 597.312H384V640h-42.688zM384 597.312h42.688V640H384z" p-id="5695"></path></svg>