<svg xmlns="http://www.w3.org/2000/svg" viewBox="0 0 1024 1024" version="1.1"><path d="M170.688 170.688h42.688v42.688h-42.688zM128 213.312h42.688V256H128zM256 213.312h42.688V256H256z" fill="#E60E11" p-id="5706"></path><path d="M298.688 213.312h42.688V256h-42.688z" fill="#FFFFFF" p-id="5707"></path><path d="M341.312 213.312H384V256h-42.688z" fill="#FFFFFF" p-id="5708"></path><path d="M213.312 256H256v42.688h-42.688zM256 256h42.688v42.688H256zM298.688 256h42.688v42.688h-42.688z" fill="#E60E11" p-id="5709"></path><path d="M341.312 256H384v42.688h-42.688z" fill="#E60E11" p-id="5710"></path><path d="M384 256h42.688v42.688H384z" fill="#FFFFFF" p-id="5711"></path><path d="M213.312 298.688H256v42.688h-42.688zM256 298.688h42.688v42.688H256zM298.688 298.688h42.688v42.688h-42.688z" fill="#E60E11" p-id="5712"></path><path d="M341.312 298.688H384v42.688h-42.688zM384 298.688h42.688v42.688H384z" fill="#E60E11" p-id="5713"></path><path d="M213.312 85.312H256V128h-42.688zM682.688 597.312h42.688V640h-42.688z" fill="#FFFFFF" p-id="5714"></path><path d="M725.312 597.312H768V640h-42.688z" fill="#FFFFFF" p-id="5715"></path><path d="M682.688 640h42.688v42.688h-42.688z" fill="#E60E11" p-id="5716"></path><path d="M725.312 640H768v42.688h-42.688z" fill="#E60E11" p-id="5717"></path><path d="M768 640h42.688v42.688H768z" fill="#FFFFFF" p-id="5718"></path><path d="M682.688 682.688h42.688v42.688h-42.688z" fill="#E60E11" p-id="5719"></path><path d="M725.312 682.688H768v42.688h-42.688zM768 682.688h42.688v42.688H768z" fill="#E60E11" p-id="5720"></path><path d="M682.688 725.312h42.688V768h-42.688z" fill="#E60E11" p-id="5721"></path><path d="M725.312 725.312H768V768h-42.688zM725.312 768H768v42.688h-42.688zM768 725.312h42.688V768H768zM256 384h42.688v42.688H256zM298.688 384h42.688v42.688h-42.688z" fill="#E60E11" p-id="5722"></path><path d="M341.312 384H384v42.688h-42.688z" fill="#E60E11" p-id="5723"></path><path d="M469.312 384H512v42.688h-42.688z" fill="#FFFFFF" p-id="5724"></path><path d="M426.688 426.688h42.688v42.688h-42.688z" fill="#E60E11" p-id="5725"></path><path d="M469.312 426.688H512v42.688h-42.688zM384 469.312h42.688V512H384z" fill="#E60E11" p-id="5726"></path><path d="M426.688 469.312h42.688V512h-42.688z" fill="#E60E11" p-id="5727"></path><path d="M512 384h42.688v42.688H512z" fill="#FFFFFF" p-id="5728"></path><path d="M512 426.688h42.688v42.688H512z" fill="#E60E11" p-id="5729"></path><path d="M512 469.312h42.688V512H512zM384 512h42.688v42.688H384zM426.688 512h42.688v42.688h-42.688z" fill="#E60E11" p-id="5730"></path><path d="M554.688 426.688h42.688v42.688h-42.688z" fill="#FFFFFF" p-id="5731"></path><path d="M597.312 469.312H640V512h-42.688zM554.688 512h42.688v42.688h-42.688z" fill="#E60E11" p-id="5732"></path><path d="M597.312 512H640v42.688h-42.688zM426.688 554.688h42.688v42.688h-42.688zM512 554.688h42.688v42.688H512z" fill="#E60E11" p-id="5733"></path><path d="M512 597.312h42.688V640H512zM597.312 640H640v42.688h-42.688zM597.312 682.688H640v42.688h-42.688z" fill="#E60E11" p-id="5734"></path><path d="M597.312 725.312H640V768h-42.688zM682.688 768h42.688v42.688h-42.688z" fill="#E60E11" p-id="5735"></path><path d="M170.688 42.688h42.688v42.688h-42.688z" fill="#FFFFFF" p-id="5736"></path><path d="M170.688 85.312h42.688V128h-42.688zM170.688 128h42.688v42.688h-42.688z" fill="#E60E11" p-id="5737"></path><path d="M213.312 128H256v42.688h-42.688zM128 170.688h42.688v42.688H128zM85.312 170.688H128v42.688h-42.688z" fill="#E60E11" p-id="5738"></path><path d="M85.312 213.312H128V256h-42.688z" fill="#E60E11" p-id="5739"></path><path d="M42.688 170.688h42.688v42.688H42.688zM42.688 128h42.688v42.688H42.688zM42.688 85.312h42.688V128H42.688z" fill="#E60E11" p-id="5740"></path><path d="M42.688 42.688h42.688v42.688H42.688z" fill="#E60E11" p-id="5741"></path><path d="M85.312 42.688H128v42.688h-42.688z" fill="#E60E11" p-id="5742"></path><path d="M128 42.688h42.688v42.688H128z" fill="#FFFFFF" p-id="5743"></path><path d="M85.312 128H128v42.688h-42.688zM85.312 85.312H128V128h-42.688zM128 128h42.688v42.688H128zM128 85.312h42.688V128H128zM213.312 341.312H256V384h-42.688zM256 341.312h42.688V384H256zM298.688 341.312h42.688V384h-42.688z" fill="#E60E11" p-id="5744"></path><path d="M341.312 341.312H384V384h-42.688zM384 341.312h42.688V384H384zM640 597.312h42.688V640H640zM640 640h42.688v42.688H640zM640 682.688h42.688v42.688H640z" fill="#E60E11" p-id="5745"></path><path d="M640 725.312h42.688V768H640zM640 768h42.688v42.688H640zM469.312 469.312H512V512h-42.688zM469.312 512H512v42.688h-42.688zM512 512h42.688v42.688H512zM554.688 469.312h42.688V512h-42.688zM469.312 554.688H512v42.688h-42.688z" fill="#E60E11" p-id="5746"></path><path d="M469.312 597.312H512V640h-42.688zM554.688 554.688h42.688v42.688h-42.688z" fill="#E60E11" p-id="5747"></path><path d="M213.312 170.688H256v42.688h-42.688zM256 170.688h42.688v42.688H256zM298.688 170.688h42.688v42.688h-42.688z" p-id="5748"></path><path d="M341.312 170.688H384v42.688h-42.688zM170.688 213.312h42.688V256h-42.688z" p-id="5749"></path><path d="M213.312 213.312H256V256h-42.688zM384 213.312h42.688V256H384zM85.312 256H128v42.688h-42.688zM128 256h42.688v42.688H128zM170.688 256h42.688v42.688h-42.688zM426.688 256h42.688v42.688h-42.688zM170.688 298.688h42.688v42.688h-42.688zM426.688 298.688h42.688v42.688h-42.688zM213.312 42.688H256v42.688h-42.688zM256 85.312h42.688V128H256zM682.688 554.688h42.688v42.688h-42.688z" p-id="5750"></path><path d="M725.312 554.688H768v42.688h-42.688zM768 597.312h42.688V640H768zM768 768h42.688v42.688H768zM810.688 640h42.688v42.688h-42.688zM810.688 682.688h42.688v42.688h-42.688z" p-id="5751"></path><path d="M810.688 725.312h42.688V768h-42.688zM810.688 810.688h42.688v42.688h-42.688zM213.312 384H256v42.688h-42.688zM384 384h42.688v42.688H384zM426.688 384h42.688v42.688h-42.688zM256 426.688h42.688v42.688H256zM298.688 426.688h42.688v42.688h-42.688z" p-id="5752"></path><path d="M341.312 426.688H384v42.688h-42.688zM384 426.688h42.688v42.688H384zM554.688 384h42.688v42.688h-42.688zM597.312 426.688H640v42.688h-42.688zM384 554.688h42.688v42.688H384zM426.688 597.312h42.688V640h-42.688zM469.312 640H512v42.688h-42.688zM512 640h42.688v42.688H512zM597.312 554.688H640v42.688h-42.688z" p-id="5753"></path><path d="M597.312 597.312H640V640h-42.688zM554.688 640h42.688v42.688h-42.688zM554.688 682.688h42.688v42.688h-42.688z" p-id="5754"></path><path d="M554.688 725.312h42.688V768h-42.688zM597.312 768H640v42.688h-42.688zM682.688 810.688h42.688v42.688h-42.688zM853.312 853.312H896V896h-42.688zM896 896h42.688v42.688H896zM938.688 938.688h42.688v42.688h-42.688z" p-id="5755"></path><path d="M725.312 810.688H768v42.688h-42.688zM170.688 0h42.688v42.688h-42.688zM256 128h42.688v42.688H256zM0 170.688h42.688v42.688H0zM0 128h42.688v42.688H0zM0 85.312h42.688V128H0z" p-id="5756"></path><path d="M0 42.688h42.688v42.688H0zM42.688 213.312h42.688V256H42.688zM42.688 0h42.688v42.624H42.688z" p-id="5757"></path><path d="M85.312 0H128v42.624h-42.688zM128 0h42.688v42.624H128zM170.688 341.312h42.688V384h-42.688zM426.688 341.312h42.688V384h-42.688z" p-id="5758"></path><path d="M469.312 341.312H512V384h-42.688zM512 341.312h42.688V384H512zM640 469.312h42.688V512H640zM640 512h42.688v42.688H640zM640 554.688h42.688v42.688H640zM640 810.688h42.688v42.688H640zM981.312 981.312H1024V1024h-42.688zM341.312 469.312H384V512h-42.688zM341.312 512H384v42.688h-42.688zM554.688 597.312h42.688V640h-42.688z" p-id="5759"></path></svg>