<svg xmlns="http://www.w3.org/2000/svg" viewBox="0 0 1024 1024" version="1.1"><path d="M469.312 810.688H512v42.688h-42.688z" fill="#FCD17D" p-id="6116"></path><path d="M512 853.312h42.688V896H512z" fill="#F8BD76" p-id="6117"></path><path d="M469.312 896H512v42.688h-42.688zM469.312 938.688H512v42.688h-42.688z" fill="#FCD17D" p-id="6118"></path><path d="M512 896h42.688v42.688H512zM512 938.688h42.688v42.688H512zM512 810.688h42.688v42.688H512z" fill="#F8BD76" p-id="6119"></path><path d="M469.312 853.312H512V896h-42.688z" fill="#FCD17D" p-id="6120"></path><path d="M298.688 170.688h42.688v42.688h-42.688z" fill="#E95175" p-id="6121"></path><path d="M341.312 170.688H384v42.688h-42.688zM384 170.688h42.688v42.688H384zM426.688 170.688h42.688v42.688h-42.688z" fill="#E95175" p-id="6122"></path><path d="M469.312 170.688H512v42.688h-42.688zM256 213.312h42.688V256H256z" fill="#E95175" p-id="6123"></path><path d="M298.688 213.312h42.688V256h-42.688z" fill="#EA68A2" p-id="6124"></path><path d="M341.312 213.312H384V256h-42.688zM384 213.312h42.688V256H384zM426.688 213.312h42.688V256h-42.688z" fill="#E95175" p-id="6125"></path><path d="M469.312 213.312H512V256h-42.688zM256 256h42.688v42.688H256zM298.688 256h42.688v42.688h-42.688z" fill="#E95175" p-id="6126"></path><path d="M341.312 256H384v42.688h-42.688zM384 256h42.688v42.688H384zM426.688 256h42.688v42.688h-42.688z" fill="#E95175" p-id="6127"></path><path d="M469.312 256H512v42.688h-42.688zM256 298.688h42.688v42.688H256zM298.688 298.688h42.688v42.688h-42.688z" fill="#E95175" p-id="6128"></path><path d="M341.312 298.688H384v42.688h-42.688zM384 298.688h42.688v42.688H384zM426.688 298.688h42.688v42.688h-42.688z" fill="#E95175" p-id="6129"></path><path d="M469.312 298.688H512v42.688h-42.688zM512 170.688h42.688v42.688H512z" fill="#E95175" p-id="6130"></path><path d="M512 213.312h42.688V256H512z" fill="#EA68A2" p-id="6131"></path><path d="M512 256h42.688v42.688H512zM512 298.688h42.688v42.688H512zM554.688 170.688h42.688v42.688h-42.688z" fill="#E95175" p-id="6132"></path><path d="M554.688 213.312h42.688V256h-42.688zM554.688 256h42.688v42.688h-42.688zM554.688 298.688h42.688v42.688h-42.688zM597.312 170.688H640v42.624h-42.688z" fill="#E95175" p-id="6133"></path><path d="M597.312 213.312H640V256h-42.688zM597.312 256H640v42.688h-42.688zM597.312 298.688H640v42.688h-42.688zM640 213.312h42.688V256H640zM640 256h42.688v42.688H640zM682.688 213.312h42.624V256h-42.624z" fill="#E95175" p-id="6134"></path><path d="M640 170.688h42.688v42.624H640z" fill="#EA68A2" p-id="6135"></path><path d="M682.688 170.688h42.688v42.624h-42.688zM384 42.688h42.688v42.688H384zM426.688 42.688h42.688v42.688h-42.688z" fill="#E95175" p-id="6136"></path><path d="M469.312 42.688H512v42.688h-42.688zM341.312 85.312H384V128h-42.688zM384 85.312h42.688V128H384z" fill="#E95175" p-id="6137"></path><path d="M426.688 85.312h42.688V128h-42.688z" fill="#E95175" p-id="6138"></path><path d="M469.312 85.312H512V128h-42.688zM512 42.688h42.688v42.688H512z" fill="#E95175" p-id="6139"></path><path d="M512 85.312h42.688V128H512zM554.688 42.688h42.688v42.688h-42.688z" fill="#E95175" p-id="6140"></path><path d="M554.688 85.312h42.688V128h-42.688z" fill="#EA68A2" p-id="6141"></path><path d="M597.312 42.688H640v42.688h-42.688z" fill="#E95175" p-id="6142"></path><path d="M597.312 85.312H640V128h-42.688zM640 85.312h42.688V128H640zM682.688 298.688h42.688v42.688h-42.688zM725.312 256H768v42.688h-42.688z" fill="#E95175" p-id="6143"></path><path d="M725.312 298.688H768v42.688h-42.688zM256 384h42.688v42.688H256zM384 384h42.688v42.688H384zM426.688 384h42.688v42.688h-42.688z" fill="#E95175" p-id="6144"></path><path d="M469.312 384H512v42.688h-42.688zM256 426.688h42.688v42.688H256zM426.688 426.688h42.688v42.688h-42.688z" fill="#E95175" p-id="6145"></path><path d="M469.312 426.688H512v42.688h-42.688z" fill="#E95175" p-id="6146"></path><path d="M426.688 469.312h42.688V512h-42.688zM512 384h42.688v42.688H512zM512 426.688h42.688v42.688H512zM426.688 512h42.688v42.688h-42.688zM554.688 384h42.688v42.688h-42.688zM554.688 426.688h42.688v42.688h-42.688z" fill="#E95175" p-id="6147"></path><path d="M597.312 384H640v42.688h-42.688zM597.312 426.688H640v42.688h-42.688z" fill="#E95175" p-id="6148"></path><path d="M597.312 469.312H640V512h-42.688zM597.312 512H640v42.688h-42.688zM426.688 554.688h42.688v42.688h-42.688z" fill="#E95175" p-id="6149"></path><path d="M426.688 597.312h42.688V640h-42.688zM597.312 554.688H640v42.688h-42.688zM298.688 128h42.688v42.688h-42.688z" fill="#E95175" p-id="6150"></path><path d="M341.312 128H384v42.688h-42.688z" fill="#E95175" p-id="6151"></path><path d="M384 128h42.688v42.688H384z" fill="#EA68A2" p-id="6152"></path><path d="M426.688 128h42.688v42.688h-42.688z" fill="#E95175" p-id="6153"></path><path d="M469.312 128H512v42.688h-42.688zM256 341.312h42.688V384H256zM298.688 341.312h42.688V384h-42.688z" fill="#E95175" p-id="6154"></path><path d="M341.312 341.312H384V384h-42.688zM384 341.312h42.688V384H384zM426.688 341.312h42.688V384h-42.688z" fill="#E95175" p-id="6155"></path><path d="M469.312 341.312H512V384h-42.688zM512 128h42.688v42.688H512zM512 341.312h42.688V384H512zM554.688 128h42.688v42.688h-42.688zM554.688 341.312h42.688V384h-42.688z" fill="#E95175" p-id="6156"></path><path d="M597.312 128H640v42.688h-42.688zM597.312 341.312H640V384h-42.688zM640 128h42.688v42.688H640zM640 298.688h42.688v42.688H640z" fill="#E95175" p-id="6157"></path><path d="M640 341.312h42.688V384H640zM640 384h42.688v42.688H640zM682.688 128h42.688v42.688h-42.688zM682.688 256h42.688v42.688h-42.688zM682.688 341.312h42.688V384h-42.688zM725.312 213.312H768V256h-42.688z" fill="#E95175" p-id="6158"></path><path d="M725.312 341.312H768V384h-42.688zM469.312 469.312H512V512h-42.688z" fill="#E95175" p-id="6159"></path><path d="M682.688 426.688h42.688v42.688h-42.688z" fill="#FDD554" p-id="6160"></path><path d="M682.688 469.312h42.688V512h-42.688z" fill="#FDD554" p-id="6161"></path><path d="M725.312 426.688H768v42.688h-42.688z" fill="#FDD554" p-id="6162"></path><path d="M725.312 469.312H768V512h-42.688z" fill="#FFF459" p-id="6163"></path><path d="M682.688 512h42.688v42.688h-42.688z" fill="#FDD554" p-id="6164"></path><path d="M725.312 512H768v42.688h-42.688z" fill="#FFF459" p-id="6165"></path><path d="M682.688 554.688h42.688v42.688h-42.688z" fill="#FDD554" p-id="6166"></path><path d="M682.688 597.312h42.688V640h-42.688z" fill="#FDD554" p-id="6167"></path><path d="M725.312 554.688H768v42.688h-42.688z" fill="#FFF459" p-id="6168"></path><path d="M725.312 597.312H768V640h-42.688zM682.688 640h42.688v42.688h-42.688z" fill="#FFF459" p-id="6169"></path><path d="M725.312 640H768v42.688h-42.688zM682.688 682.688h42.688v42.688h-42.688z" fill="#FFF459" p-id="6170"></path><path d="M725.312 682.688H768v42.688h-42.688z" fill="#FFF459" p-id="6171"></path><path d="M682.688 725.312h42.688V768h-42.688z" fill="#FFF459" p-id="6172"></path><path d="M725.312 725.312H768V768h-42.688z" fill="#FFF459" p-id="6173"></path><path d="M341.312 426.688H384v42.688h-42.688z" fill="#FDD554" p-id="6174"></path><path d="M298.688 469.312h42.688V512h-42.688z" fill="#FDD554" p-id="6175"></path><path d="M298.688 512h42.688v42.688h-42.688zM298.688 554.688h42.688v42.688h-42.688z" fill="#FFF459" p-id="6176"></path><path d="M298.688 597.312h42.688V640h-42.688z" fill="#FFF459" p-id="6177"></path><path d="M512 554.688h42.688v42.688H512z" fill="#FDD554" p-id="6178"></path><path d="M512 597.312h42.688V640H512z" fill="#FDD554" p-id="6179"></path><path d="M256 640h42.688v42.688H256zM298.688 640h42.688v42.688h-42.688z" fill="#FFF459" p-id="6180"></path><path d="M341.312 640H384v42.688h-42.688z" fill="#FFF459" p-id="6181"></path><path d="M384 640h42.688v42.688H384zM469.312 640H512v42.688h-42.688z" fill="#FDD554" p-id="6182"></path><path d="M512 640h42.688v42.688H512zM554.688 640h42.688v42.688h-42.688z" fill="#FFF459" p-id="6183"></path><path d="M597.312 640H640v42.688h-42.688z" fill="#FDD554" p-id="6184"></path><path d="M256 682.688h42.688v42.688H256zM298.688 682.688h42.688v42.688h-42.688z" fill="#FFF459" p-id="6185"></path><path d="M341.312 682.688H384v42.688h-42.688zM384 682.688h42.688v42.688H384z" fill="#FFF459" p-id="6186"></path><path d="M426.688 682.688h42.688v42.688h-42.688z" fill="#FDD554" p-id="6187"></path><path d="M469.312 682.688H512v42.688h-42.688zM512 682.688h42.688v42.688H512zM554.688 682.688h42.688v42.688h-42.688z" fill="#FFF459" p-id="6188"></path><path d="M597.312 682.688H640v42.688h-42.688zM341.312 725.312H384V768h-42.688zM384 725.312h42.688V768H384zM426.688 725.312h42.688V768h-42.688z" fill="#FFF459" p-id="6189"></path><path d="M469.312 725.312H512V768h-42.688zM512 725.312h42.688V768H512zM554.688 725.312h42.688V768h-42.688z" fill="#FFF459" p-id="6190"></path><path d="M597.312 725.312H640V768h-42.688z" fill="#FFF459" p-id="6191"></path><path d="M640 640h42.688v42.688H640z" fill="#FDD554" p-id="6192"></path><path d="M640 682.688h42.688v42.688H640z" fill="#FFF459" p-id="6193"></path><path d="M640 725.312h42.688V768H640z" fill="#FFF459" p-id="6194"></path><path d="M341.312 469.312H384V512h-42.688zM256 512h42.688v42.688H256zM341.312 512H384v42.688h-42.688zM512 512h42.688v42.688H512z" fill="#FDD554" p-id="6195"></path><path d="M256 554.688h42.688v42.688H256z" fill="#FFF459" p-id="6196"></path><path d="M341.312 554.688H384v42.688h-42.688z" fill="#FDD554" p-id="6197"></path><path d="M256 597.312h42.688V640H256z" fill="#FFF459" p-id="6198"></path><path d="M341.312 597.312H384V640h-42.688zM554.688 597.312h42.688V640h-42.688z" fill="#FDD554" p-id="6199"></path><path d="M256 725.312h42.688V768H256zM298.688 725.312h42.688V768h-42.688z" fill="#FFF459" p-id="6200"></path><path d="M256 170.688h42.688v42.688H256zM213.312 213.312H256V256h-42.688zM213.312 256H256v42.688h-42.688zM213.312 298.688H256v42.688h-42.688zM725.312 170.688H768v42.624h-42.688zM341.312 42.688H384v42.688h-42.688z" p-id="6201"></path><path d="M298.688 85.312h42.688V128h-42.688zM640 42.688h42.688v42.688H640zM682.688 85.312h42.688V128h-42.688zM768 213.312h42.688V256H768zM768 256h42.688v42.688H768zM768 298.688h42.688v42.688H768zM682.688 384h42.688v42.688h-42.688z" p-id="6202"></path><path d="M725.312 384H768v42.688h-42.688zM768 384h42.688v42.688H768zM768 426.688h42.688v42.688H768z" p-id="6203"></path><path d="M768 469.312h42.688V512H768zM768 512h42.688v42.688H768zM768 554.688h42.688v42.688H768z" p-id="6204"></path><path d="M768 597.312h42.688V640H768zM768 640h42.688v42.688H768zM768 682.688h42.688v42.688H768zM725.312 768H768v42.688h-42.688z" p-id="6205"></path><path d="M768 725.312h42.688V768H768zM213.312 384H256v42.688h-42.688zM298.688 384h42.688v42.688h-42.688z" p-id="6206"></path><path d="M341.312 384H384v42.688h-42.688zM213.312 426.688H256v42.688h-42.688zM298.688 426.688h42.688v42.688h-42.688zM384 426.688h42.688v42.688H384z" p-id="6207"></path><path d="M213.312 469.312H256V512h-42.688zM384 469.312h42.688V512H384zM512 469.312h42.688V512H512zM213.312 512H256v42.688h-42.688zM384 512h42.688v42.688H384zM554.688 512h42.688v42.688h-42.688zM213.312 554.688H256v42.688h-42.688zM384 554.688h42.688v42.688H384z" p-id="6208"></path><path d="M213.312 597.312H256V640h-42.688zM213.312 640H256v42.688h-42.688zM426.688 640h42.688v42.688h-42.688zM597.312 597.312H640V640h-42.688zM213.312 682.688H256v42.688h-42.688zM384 768h42.688v42.688H384zM426.688 768h42.688v42.688h-42.688z" p-id="6209"></path><path d="M469.312 768H512v42.688h-42.688zM512 768h42.688v42.688H512zM426.688 810.688h42.688v42.688h-42.688zM256 768h42.688v42.688H256zM298.688 768h42.688v42.688h-42.688zM597.312 768H640v42.688h-42.688zM554.688 810.688h42.688v42.688h-42.688z" p-id="6210"></path><path d="M554.688 853.312h42.688V896h-42.688zM426.688 896h42.688v42.688h-42.688zM426.688 938.688h42.688v42.688h-42.688zM554.688 896h42.688v42.688h-42.688zM554.688 938.688h42.688v42.688h-42.688zM554.688 768h42.688v42.688h-42.688zM682.688 768h42.688v42.688h-42.688zM426.688 853.312h42.688V896h-42.688zM384 0h42.688v42.688H384zM426.688 0h42.688v42.688h-42.688z" p-id="6211"></path><path d="M469.312 0H512v42.688h-42.688zM256 128h42.688v42.688H256zM213.312 341.312H256V384h-42.688zM512 0h42.688v42.688H512zM554.688 0h42.688v42.688h-42.688z" p-id="6212"></path><path d="M597.312 0H640v42.688h-42.688zM640 426.688h42.688v42.688H640z" p-id="6213"></path><path d="M640 469.312h42.688V512H640zM640 512h42.688v42.688H640zM640 554.688h42.688v42.688H640z" p-id="6214"></path><path d="M640 597.312h42.688V640H640zM725.312 128H768v42.688h-42.688zM768 341.312h42.688V384H768zM640 768h42.688v42.688H640zM469.312 981.312H512V1024h-42.688zM512 981.312h42.688V1024H512zM256 469.312h42.688V512H256zM469.312 512H512v42.688h-42.688zM554.688 469.312h42.688V512h-42.688zM469.312 554.688H512v42.688h-42.688zM384 597.312h42.688V640H384z" p-id="6215"></path><path d="M469.312 597.312H512V640h-42.688zM554.688 554.688h42.688v42.688h-42.688zM213.312 725.312H256V768h-42.688zM341.312 768H384v42.688h-42.688z" p-id="6216"></path></svg>