<svg xmlns="http://www.w3.org/2000/svg" viewBox="0 0 1024 1024" version="1.1"><path d="M384 170.688h42.688v42.688H384z" fill="#FBD6A7" p-id="4002"></path><path d="M384 213.312h42.688V256H384zM426.688 213.312h42.688V256h-42.688zM426.688 256h42.688v42.688h-42.688z" fill="#FBD6A7" p-id="4003"></path><path d="M469.312 256H512v42.688h-42.688zM469.312 298.688H512v42.688h-42.688zM512 298.688h42.688v42.688H512zM682.688 170.688h42.688v42.624h-42.688z" fill="#FBD6A7" p-id="4004"></path><path d="M725.312 170.688H768v42.624h-42.688zM597.312 85.312H640V128h-42.688zM640 85.312h42.688V128H640zM213.312 384H256v42.688h-42.688zM256 384h42.688v42.688H256zM256 426.688h42.688v42.688H256zM298.688 426.688h42.688v42.688h-42.688z" fill="#FBD6A7" p-id="4005"></path><path d="M298.688 469.312h42.688V512h-42.688zM384 512h42.688v42.688H384zM126.912 597.312h42.688V640h-42.688zM126.912 640h42.688v42.688h-42.688zM169.6 640h42.688v42.688H169.6zM170.688 682.688h42.688v42.688h-42.688z" fill="#FBD6A7" p-id="4006"></path><path d="M212.224 682.688h42.688v42.688h-42.688zM212.224 341.312h42.688V384h-42.688zM512 341.312h42.688V384H512zM554.688 341.312h42.688V384h-42.688zM640 128h42.688v42.688H640zM682.688 128h42.688v42.688h-42.688zM341.312 469.312H384V512h-42.688zM341.312 512H384v42.688h-42.688zM84.224 554.688h42.688v42.688h-42.688z" fill="#FBD6A7" p-id="4007"></path><path d="M84.224 597.312h42.688V640h-42.688z" fill="#FBD6A7" p-id="4008"></path><path d="M469.312 170.688H512v42.688h-42.688zM298.688 256h42.688v42.688h-42.688z" fill="#F7B14B" p-id="4009"></path><path d="M341.312 256H384v42.688h-42.688zM256 298.688h42.688v42.688H256zM298.688 298.688h42.688v42.688h-42.688z" fill="#F7B14B" p-id="4010"></path><path d="M341.312 298.688H384v42.688h-42.688zM384 298.688h42.688v42.688H384zM512 170.688h42.688v42.688H512z" fill="#F7B14B" p-id="4011"></path><path d="M512 213.312h42.688V256H512zM554.688 170.688h42.688v42.688h-42.688z" fill="#F7B14B" p-id="4012"></path><path d="M554.688 213.312h42.688V256h-42.688zM554.688 256h42.688v42.688h-42.688zM597.312 170.688H640v42.624h-42.688z" fill="#F7B14B" p-id="4013"></path><path d="M597.312 213.312H640V256h-42.688zM597.312 256H640v42.688h-42.688zM597.312 298.688H640v42.688h-42.688zM640 213.312h42.688V256H640zM640 256h42.688v42.688H640zM682.688 42.688h42.688v42.688h-42.688z" fill="#F7B14B" p-id="4014"></path><path d="M725.312 42.688H768v42.688h-42.688z" fill="#F7B14B" p-id="4015"></path><path d="M725.312 85.312H768V128h-42.688zM768 42.688h42.688v42.688H768z" fill="#F7B14B" p-id="4016"></path><path d="M768 85.312h42.688V128H768zM682.688 298.688h42.688v42.688h-42.688zM725.312 256H768v42.688h-42.688z" fill="#F7B14B" p-id="4017"></path><path d="M725.312 298.688H768v42.688h-42.688zM768 213.312h42.688V256H768zM768 256h42.688v42.688H768zM768 298.688h42.688v42.688H768zM810.688 170.688h42.688v42.688h-42.688z" fill="#F7B14B" p-id="4018"></path><path d="M810.688 213.312h42.688V256h-42.688zM810.688 256h42.688v42.688h-42.688zM810.688 298.688h42.688v42.688h-42.688z" fill="#F7B14B" p-id="4019"></path><path d="M853.312 213.312H896V256h-42.688zM853.312 256H896v42.688h-42.688zM853.312 298.688H896v42.688h-42.688zM896 256h42.688v42.688H896zM896 298.688h42.688v42.688H896zM682.688 384h42.688v42.688h-42.688zM682.688 426.688h42.688v42.688h-42.688z" fill="#F7B14B" p-id="4020"></path><path d="M682.688 469.312h42.688V512h-42.688zM725.312 384H768v42.688h-42.688z" fill="#F7B14B" p-id="4021"></path><path d="M725.312 426.688H768v42.688h-42.688z" fill="#F7B14B" p-id="4022"></path><path d="M725.312 469.312H768V512h-42.688zM682.688 512h42.688v42.688h-42.688z" fill="#F7B14B" p-id="4023"></path><path d="M725.312 512H768v42.688h-42.688zM768 384h42.688v42.688H768zM768 426.688h42.688v42.688H768z" fill="#F7B14B" p-id="4024"></path><path d="M768 469.312h42.688V512H768zM768 512h42.688v42.688H768zM682.688 554.688h42.688v42.688h-42.688z" fill="#F7B14B" p-id="4025"></path><path d="M682.688 597.312h42.688V640h-42.688z" fill="#F7B14B" p-id="4026"></path><path d="M725.312 554.688H768v42.688h-42.688zM810.688 384h42.688v42.688h-42.688zM810.688 426.688h42.688v42.688h-42.688z" fill="#F7B14B" p-id="4027"></path><path d="M810.688 469.312h42.688V512h-42.688zM853.312 384H896v42.688h-42.688zM341.312 384H384v42.688h-42.688zM384 384h42.688v42.688H384zM426.688 384h42.688v42.688h-42.688z" fill="#F7B14B" p-id="4028"></path><path d="M469.312 384H512v42.688h-42.688zM170.688 426.688h42.688v42.688h-42.688zM384 426.688h42.688v42.688H384zM426.688 426.688h42.688v42.688h-42.688z" fill="#F7B14B" p-id="4029"></path><path d="M469.312 426.688H512v42.688h-42.688zM213.312 469.312H256V512h-42.688z" fill="#F7B14B" p-id="4030"></path><path d="M426.688 469.312h42.688V512h-42.688zM512 426.688h42.688v42.688H512z" fill="#F7B14B" p-id="4031"></path><path d="M512 469.312h42.688V512H512zM213.312 512H256v42.688h-42.688zM554.688 426.688h42.688v42.688h-42.688zM597.312 384H640v42.688h-42.688z" fill="#F7B14B" p-id="4032"></path><path d="M597.312 426.688H640v42.688h-42.688z" fill="#F7B14B" p-id="4033"></path><path d="M597.312 469.312H640V512h-42.688zM554.688 512h42.688v42.688h-42.688z" fill="#F7B14B" p-id="4034"></path><path d="M597.312 512H640v42.688h-42.688zM213.312 554.688H256v42.688h-42.688zM298.688 554.688h42.688v42.688h-42.688zM426.688 554.688h42.688v42.688h-42.688z" fill="#F7B14B" p-id="4035"></path><path d="M213.312 597.312H256V640h-42.688zM298.688 597.312h42.688V640h-42.688zM426.688 597.312h42.688V640h-42.688zM512 554.688h42.688v42.688H512z" fill="#F7B14B" p-id="4036"></path><path d="M512 597.312h42.688V640H512zM42.688 640h42.688v42.688H42.688zM256 640h42.688v42.688H256zM298.688 640h42.688v42.688h-42.688z" fill="#F7B14B" p-id="4037"></path><path d="M341.312 640H384v42.688h-42.688zM384 640h42.688v42.688H384zM426.688 640h42.688v42.688h-42.688z" fill="#F7B14B" p-id="4038"></path><path d="M469.312 640H512v42.688h-42.688zM512 640h42.688v42.688H512zM597.312 554.688H640v42.688h-42.688z" fill="#F7B14B" p-id="4039"></path><path d="M597.312 597.312H640V640h-42.688zM554.688 640h42.688v42.688h-42.688z" fill="#F7B14B" p-id="4040"></path><path d="M597.312 640H640v42.688h-42.688zM42.688 682.688h42.688v42.688H42.688z" fill="#F7B14B" p-id="4041"></path><path d="M85.312 682.688H128v42.688h-42.688zM298.688 682.688h42.688v42.688h-42.688z" fill="#F7B14B" p-id="4042"></path><path d="M341.312 682.688H384v42.688h-42.688zM384 682.688h42.688v42.688H384zM426.688 682.688h42.688v42.688h-42.688z" fill="#F7B14B" p-id="4043"></path><path d="M469.312 682.688H512v42.688h-42.688zM512 682.688h42.688v42.688H512zM554.688 682.688h42.688v42.688h-42.688z" fill="#F7B14B" p-id="4044"></path><path d="M597.312 682.688H640v42.688h-42.688zM42.688 725.312h42.688V768H42.688z" fill="#F7B14B" p-id="4045"></path><path d="M85.312 725.312H128V768h-42.688zM128 725.312h42.688V768H128zM341.312 725.312H384V768h-42.688zM384 725.312h42.688V768H384zM426.688 725.312h42.688V768h-42.688z" fill="#F7B14B" p-id="4046"></path><path d="M469.312 725.312H512V768h-42.688zM42.688 768h42.688v42.688H42.688z" fill="#F7B14B" p-id="4047"></path><path d="M85.312 768H128v42.688h-42.688zM128 768h42.688v42.688H128zM384 768h42.688v42.688H384zM426.688 768h42.688v42.688h-42.688z" fill="#F7B14B" p-id="4048"></path><path d="M469.312 768H512v42.688h-42.688zM512 725.312h42.688V768H512zM512 768h42.688v42.688H512zM42.688 810.688h42.688v42.688H42.688zM554.688 725.312h42.688V768h-42.688zM426.688 810.688h42.688v42.688h-42.688z" fill="#F7B14B" p-id="4049"></path><path d="M469.312 810.688H512v42.688h-42.688zM213.312 768H256v42.688h-42.688zM256 768h42.688v42.688H256zM298.688 768h42.688v42.688h-42.688zM170.688 810.688h42.688v42.688h-42.688z" fill="#F7B14B" p-id="4050"></path><path d="M213.312 810.688H256v42.688h-42.688zM256 810.688h42.688v42.688H256zM298.688 810.688h42.688v42.688h-42.688z" fill="#F7B14B" p-id="4051"></path><path d="M341.312 810.688H384v42.688h-42.688zM85.312 853.312H128V896h-42.688zM128 853.312h42.688V896H128zM170.688 853.312h42.688V896h-42.688z" fill="#F7B14B" p-id="4052"></path><path d="M213.312 853.312H256V896h-42.688zM256 853.312h42.688V896H256zM298.688 853.312h42.688V896h-42.688z" fill="#F7B14B" p-id="4053"></path><path d="M341.312 853.312H384V896h-42.688zM384 853.312h42.688V896H384zM85.312 896H128v42.688h-42.688zM128 896h42.688v42.688H128zM170.688 896h42.688v42.688h-42.688z" fill="#F7B14B" p-id="4054"></path><path d="M213.312 896H256v42.688h-42.688zM256 896h42.688v42.688H256zM298.688 896h42.688v42.688h-42.688z" fill="#F7B14B" p-id="4055"></path><path d="M341.312 896H384v42.688h-42.688zM128 938.688h42.688v42.688H128zM170.688 938.688h42.688v42.688h-42.688z" fill="#F7B14B" p-id="4056"></path><path d="M213.312 938.688H256v42.688h-42.688zM256 938.688h42.688v42.688H256zM42.688 853.312h42.688V896H42.688zM469.312 128H512v42.688h-42.688zM298.688 341.312h42.688V384h-42.688z" fill="#F7B14B" p-id="4057"></path><path d="M341.312 341.312H384V384h-42.688zM384 341.312h42.688V384H384zM426.688 341.312h42.688V384h-42.688zM512 128h42.688v42.688H512zM554.688 128h42.688v42.688h-42.688zM640 298.688h42.688v42.688H640z" fill="#F7B14B" p-id="4058"></path><path d="M640 341.312h42.688V384H640zM640 384h42.688v42.688H640zM640 426.688h42.688v42.688H640z" fill="#F7B14B" p-id="4059"></path><path d="M640 469.312h42.688V512H640zM640 512h42.688v42.688H640zM640 554.688h42.688v42.688H640z" fill="#F7B14B" p-id="4060"></path><path d="M640 597.312h42.688V640H640zM640 640h42.688v42.688H640zM682.688 256h42.688v42.688h-42.688zM682.688 341.312h42.688V384h-42.688z" fill="#F7B14B" p-id="4061"></path><path d="M725.312 341.312H768V384h-42.688zM853.312 42.688H896v42.688h-42.688z" fill="#F7B14B" p-id="4062"></path><path d="M853.312 85.312H896V128h-42.688zM896 85.312h42.688V128H896z" fill="#F7B14B" p-id="4063"></path><path d="M938.624 85.312h42.688V128h-42.688zM853.312 128H896v42.688h-42.688zM896 128h42.688v42.688H896z" fill="#F7B14B" p-id="4064"></path><path d="M938.624 128h42.688v42.688h-42.688zM896 170.688h42.688v42.688H896z" fill="#F7B14B" p-id="4065"></path><path d="M938.624 170.688h42.688v42.688h-42.688z" fill="#F7B14B" p-id="4066"></path><path d="M938.624 213.312h42.688V256h-42.688zM768 128h42.688v42.688H768zM768 341.312h42.688V384H768zM810.688 42.688h42.688v42.688h-42.688z" fill="#F7B14B" p-id="4067"></path><path d="M810.688 85.312h42.688V128h-42.688zM810.688 128h42.688v42.688h-42.688zM810.688 341.312h42.688V384h-42.688zM853.312 170.688H896v42.688h-42.688z" fill="#F7B14B" p-id="4068"></path><path d="M853.312 341.312H896V384h-42.688zM896 213.312h42.688V256H896zM896 341.312h42.688V384H896zM938.688 256h42.688v42.688h-42.688zM128 469.312h42.688V512H128zM170.688 469.312h42.688V512h-42.688zM469.312 469.312H512V512h-42.688zM128 512h42.688v42.688H128zM170.688 512h42.688v42.688h-42.688zM256 512h42.688v42.688H256zM469.312 512H512v42.688h-42.688zM512 512h42.688v42.688H512zM554.688 469.312h42.688V512h-42.688zM170.688 554.688h42.688v42.688h-42.688zM256 554.688h42.688v42.688H256zM469.312 554.688H512v42.688h-42.688z" fill="#F7B14B" p-id="4069"></path><path d="M256 597.312h42.688V640H256zM341.312 597.312H384V640h-42.688zM384 597.312h42.688V640H384zM469.312 597.312H512V640h-42.688zM554.688 554.688h42.688v42.688h-42.688z" fill="#F7B14B" p-id="4070"></path><path d="M554.688 597.312h42.688V640h-42.688zM256 725.312h42.688V768H256zM298.688 725.312h42.688V768h-42.688zM170.688 768h42.688v42.688h-42.688zM341.312 768H384v42.688h-42.688zM85.312 810.688H128v42.688h-42.688zM128 810.688h42.688v42.688H128zM384 810.688h42.688v42.688H384z" fill="#F7B14B" p-id="4071"></path><path d="M341.312 170.688H384v42.688h-42.688zM426.688 170.688h42.688v42.688h-42.688z" p-id="4072"></path><path d="M298.688 213.312h42.688V256h-42.688z" p-id="4073"></path><path d="M341.312 213.312H384V256h-42.688zM469.312 213.312H512V256h-42.688zM256 256h42.688v42.688H256zM384 256h42.688v42.688H384zM213.312 298.688H256v42.688h-42.688zM426.688 298.688h42.688v42.688h-42.688zM512 256h42.688v42.688H512zM554.688 298.688h42.688v42.688h-42.688zM682.688 213.312h42.624V256h-42.624zM640 170.688h42.688v42.624H640zM469.312 85.312H512V128h-42.688zM512 85.312h42.688V128H512zM554.688 42.688h42.688v42.688h-42.688z" p-id="4074"></path><path d="M554.688 85.312h42.688V128h-42.688z" p-id="4075"></path><path d="M597.312 42.688H640v42.688h-42.688zM640 42.688h42.688v42.688H640zM682.688 85.312h42.688V128h-42.688zM938.688 298.688h42.688v42.688h-42.688zM725.312 597.312H768V640h-42.688zM682.688 640h42.688v42.688h-42.688zM768 554.688h42.688v42.688H768zM810.688 512h42.688v42.688h-42.688zM853.312 426.688H896v42.688h-42.688z" p-id="4076"></path><path d="M853.312 469.312H896V512h-42.688zM896 384h42.688v42.688H896zM128 384h42.688v42.688H128zM170.688 384h42.688v42.688h-42.688zM298.688 384h42.688v42.688h-42.688zM128 426.688h42.688v42.688H128zM213.312 426.688H256v42.688h-42.688zM341.312 426.688H384v42.688h-42.688zM384 469.312h42.688V512H384zM512 384h42.688v42.688H512zM298.688 512h42.688v42.688h-42.688zM426.688 512h42.688v42.688h-42.688zM554.688 384h42.688v42.688h-42.688zM42.688 554.688h42.688v42.688H42.688zM128 554.688h42.688v42.688H128zM384 554.688h42.688v42.688H384z" p-id="4077"></path><path d="M42.688 597.312h42.688V640H42.688zM85.312 640H128v42.688h-42.688zM213.312 640H256v42.688h-42.688zM128 682.688h42.688v42.688H128zM256 682.688h42.688v42.688H256zM170.688 725.312h42.688V768h-42.688zM42.688 896h42.688v42.688H42.688zM384 896h42.688v42.688H384zM85.312 938.688H128v42.688h-42.688zM298.688 938.688h42.688v42.688h-42.688z" p-id="4078"></path><path d="M341.312 938.688H384v42.688h-42.688zM512 810.688h42.688v42.688H512zM554.688 768h42.688v42.688h-42.688zM597.312 725.312H640V768h-42.688zM426.688 853.312h42.688V896h-42.688z" p-id="4079"></path><path d="M469.312 853.312H512V896h-42.688zM384 128h42.688v42.688H384zM426.688 128h42.688v42.688h-42.688zM170.688 341.312h42.688V384h-42.688zM256 341.312h42.688V384H256zM469.312 341.312H512V384h-42.688zM597.312 128H640v42.688h-42.688zM597.312 341.312H640V384h-42.688zM0 640h42.688v42.688H0zM682.688 0h42.688v42.688h-42.688z" p-id="4080"></path><path d="M725.312 0H768v42.688h-42.688zM725.312 128H768v42.688h-42.688zM725.312 213.312H768V256h-42.688zM768 0h42.688v42.688H768zM810.688 0h42.688v42.688h-42.688z" p-id="4081"></path><path d="M853.312 0H896v42.688h-42.688zM896 42.688h42.688v42.688H896z" p-id="4082"></path><path d="M938.624 42.688h42.688v42.688h-42.688zM981.312 85.312H1024V128h-42.688zM981.312 128H1024v42.688h-42.688zM981.312 170.688H1024v42.688h-42.688z" p-id="4083"></path><path d="M981.312 213.312H1024V256h-42.688zM981.312 256H1024v42.688h-42.688zM768 170.688h42.688v42.688H768zM0 682.688h42.688v42.688H0zM640 682.688h42.688v42.688H640z" p-id="4084"></path><path d="M0 725.312h42.688V768H0zM0 768h42.688v42.688H0zM0 810.688h42.688v42.688H0zM938.688 341.312h42.688V384h-42.688z" p-id="4085"></path><path d="M0 853.312h42.688V896H0zM128 981.312h42.688V1024H128zM170.688 981.312h42.688V1024h-42.688z" p-id="4086"></path><path d="M213.312 981.312H256V1024h-42.688zM256 981.312h42.688V1024H256zM85.312 469.312H128V512h-42.688zM256 469.312h42.688V512H256zM85.312 512H128v42.688h-42.688zM341.312 554.688H384v42.688h-42.688zM170.688 597.312h42.688V640h-42.688zM213.312 725.312H256V768h-42.688z" p-id="4087"></path></svg>