<svg xmlns="http://www.w3.org/2000/svg" viewBox="0 0 1024 1024" version="1.1"><path d="M341.312 256H384v42.688h-42.688zM384 256h42.688v42.688H384zM426.688 256h42.688v42.688h-42.688zM298.688 298.688h42.688v42.688h-42.688z" fill="#F0E090" p-id="3294"></path><path d="M341.312 298.688H384v42.688h-42.688zM384 298.688h42.688v42.688H384zM426.688 298.688h42.688v42.688h-42.688z" fill="#FBFBEA" p-id="3295"></path><path d="M469.312 298.688H512v42.688h-42.688zM512 298.688h42.688v42.688H512zM554.688 256h42.688v42.688h-42.688zM554.688 298.688h42.688v42.688h-42.688z" fill="#FBFBEA" p-id="3296"></path><path d="M597.312 256H640v42.688h-42.688zM597.312 298.688H640v42.688h-42.688zM640 256h42.688v42.688H640zM682.688 298.688h42.688v42.688h-42.688z" fill="#FBFBEA" p-id="3297"></path><path d="M682.688 384h42.688v42.688h-42.688z" fill="#F0E090" p-id="3298"></path><path d="M682.688 469.312h42.688V512h-42.688zM725.312 384H768v42.688h-42.688z" fill="#FBFBEA" p-id="3299"></path><path d="M725.312 426.688H768v42.688h-42.688z" fill="#F0E090" p-id="3300"></path><path d="M682.688 512h42.688v42.688h-42.688z" fill="#FBFBEA" p-id="3301"></path><path d="M725.312 512H768v42.688h-42.688zM768 384h42.688v42.688H768zM768 426.688h42.688v42.688H768z" fill="#FBFBEA" p-id="3302"></path><path d="M768 469.312h42.688V512H768z" fill="#F0E090" p-id="3303"></path><path d="M682.688 554.688h42.688v42.688h-42.688z" fill="#FBFBEA" p-id="3304"></path><path d="M682.688 597.312h42.688V640h-42.688z" fill="#FBFBEA" p-id="3305"></path><path d="M725.312 554.688H768v42.688h-42.688z" fill="#FBFBEA" p-id="3306"></path><path d="M725.312 597.312H768V640h-42.688zM682.688 640h42.688v42.688h-42.688z" fill="#FBFBEA" p-id="3307"></path><path d="M725.312 640H768v42.688h-42.688zM768 597.312h42.688V640H768zM768 640h42.688v42.688H768zM682.688 682.688h42.688v42.688h-42.688z" fill="#FBFBEA" p-id="3308"></path><path d="M725.312 682.688H768v42.688h-42.688zM768 682.688h42.688v42.688H768zM810.688 384h42.688v42.688h-42.688zM810.688 426.688h42.688v42.688h-42.688z" fill="#FBFBEA" p-id="3309"></path><path d="M810.688 469.312h42.688V512h-42.688z" fill="#FBFBEA" p-id="3310"></path><path d="M810.688 512h42.688v42.688h-42.688zM810.688 554.688h42.688v42.688h-42.688z" fill="#F0E090" p-id="3311"></path><path d="M810.688 640h42.688v42.688h-42.688zM810.688 682.688h42.688v42.688h-42.688zM853.312 426.688H896v42.688h-42.688z" fill="#FBFBEA" p-id="3312"></path><path d="M853.312 469.312H896V512h-42.688zM853.312 512H896v42.688h-42.688zM853.312 554.688H896v42.688h-42.688z" fill="#FBFBEA" p-id="3313"></path><path d="M853.312 597.312H896V640h-42.688z" fill="#F0E090" p-id="3314"></path><path d="M896 554.688h42.688v42.688H896z" fill="#FBFBEA" p-id="3315"></path><path d="M896 597.312h42.688V640H896zM853.312 640H896v42.688h-42.688zM896 640h42.688v42.688H896zM938.688 597.312h42.688V640h-42.688zM938.688 640h42.688v42.688h-42.688zM853.312 682.688H896v42.688h-42.688zM896 682.688h42.688v42.688H896zM938.688 682.688h42.688v42.688h-42.688z" fill="#FBFBEA" p-id="3316"></path><path d="M853.312 725.312H896V768h-42.688zM896 725.312h42.688V768H896z" fill="#FBFBEA" p-id="3317"></path><path d="M170.688 384h42.688v42.688h-42.688z" fill="#F0E090" p-id="3318"></path><path d="M213.312 384H256v42.688h-42.688zM256 384h42.688v42.688H256z" fill="#F0E090" p-id="3319"></path><path d="M298.688 384h42.688v42.688h-42.688z" fill="#FBFBEA" p-id="3320"></path><path d="M341.312 384H384v42.688h-42.688z" fill="#FBFBEA" p-id="3321"></path><path d="M128 426.688h42.688v42.688H128z" fill="#F0E090" p-id="3322"></path><path d="M170.688 426.688h42.688v42.688h-42.688z" fill="#FBFBEA" p-id="3323"></path><path d="M213.312 426.688H256v42.688h-42.688zM256 426.688h42.688v42.688H256zM384 426.688h42.688v42.688H384zM426.688 426.688h42.688v42.688h-42.688z" fill="#FBFBEA" p-id="3324"></path><path d="M469.312 426.688H512v42.688h-42.688zM213.312 469.312H256V512h-42.688zM298.688 469.312h42.688V512h-42.688zM384 469.312h42.688V512H384z" fill="#FBFBEA" p-id="3325"></path><path d="M426.688 469.312h42.688V512h-42.688zM512 426.688h42.688v42.688H512z" fill="#FBFBEA" p-id="3326"></path><path d="M512 469.312h42.688V512H512zM298.688 512h42.688v42.688h-42.688zM384 512h42.688v42.688H384zM426.688 512h42.688v42.688h-42.688zM554.688 426.688h42.688v42.688h-42.688z" fill="#FBFBEA" p-id="3327"></path><path d="M597.312 426.688H640v42.688h-42.688z" fill="#FBFBEA" p-id="3328"></path><path d="M597.312 469.312H640V512h-42.688zM554.688 512h42.688v42.688h-42.688z" fill="#FBFBEA" p-id="3329"></path><path d="M597.312 512H640v42.688h-42.688zM128 554.688h42.688v42.688H128zM298.688 554.688h42.688v42.688h-42.688zM384 554.688h42.688v42.688H384zM426.688 554.688h42.688v42.688h-42.688z" fill="#FBFBEA" p-id="3330"></path><path d="M42.688 597.312h42.688V640H42.688z" fill="#F0E090" p-id="3331"></path><path d="M128 597.312h42.688V640H128zM213.312 597.312H256V640h-42.688zM298.688 597.312h42.688V640h-42.688zM426.688 597.312h42.688V640h-42.688zM512 554.688h42.688v42.688H512z" fill="#FBFBEA" p-id="3332"></path><path d="M512 597.312h42.688V640H512z" fill="#FBFBEA" p-id="3333"></path><path d="M42.688 640h42.688v42.688H42.688z" fill="#F0E090" p-id="3334"></path><path d="M85.312 640H128v42.688h-42.688z" fill="#F0E090" p-id="3335"></path><path d="M128 640h42.688v42.688H128zM170.688 640h42.688v42.688h-42.688z" fill="#FBFBEA" p-id="3336"></path><path d="M213.312 640H256v42.688h-42.688zM256 640h42.688v42.688H256zM298.688 640h42.688v42.688h-42.688z" fill="#FBFBEA" p-id="3337"></path><path d="M341.312 640H384v42.688h-42.688zM384 640h42.688v42.688H384zM426.688 640h42.688v42.688h-42.688z" fill="#FBFBEA" p-id="3338"></path><path d="M469.312 640H512v42.688h-42.688zM512 640h42.688v42.688H512zM597.312 554.688H640v42.688h-42.688z" fill="#FBFBEA" p-id="3339"></path><path d="M597.312 597.312H640V640h-42.688zM554.688 640h42.688v42.688h-42.688z" fill="#FBFBEA" p-id="3340"></path><path d="M597.312 640H640v42.688h-42.688z" fill="#FBFBEA" p-id="3341"></path><path d="M42.688 682.688h42.688v42.688H42.688z" fill="#F0E090" p-id="3342"></path><path d="M85.312 682.688H128v42.688h-42.688zM128 682.688h42.688v42.688H128z" fill="#F0E090" p-id="3343"></path><path d="M170.688 682.688h42.688v42.688h-42.688z" fill="#FBFBEA" p-id="3344"></path><path d="M213.312 682.688H256v42.688h-42.688zM256 682.688h42.688v42.688H256zM298.688 682.688h42.688v42.688h-42.688z" fill="#FBFBEA" p-id="3345"></path><path d="M341.312 682.688H384v42.688h-42.688zM384 682.688h42.688v42.688H384zM426.688 682.688h42.688v42.688h-42.688z" fill="#FBFBEA" p-id="3346"></path><path d="M469.312 682.688H512v42.688h-42.688zM512 682.688h42.688v42.688H512zM554.688 682.688h42.688v42.688h-42.688z" fill="#FBFBEA" p-id="3347"></path><path d="M597.312 682.688H640v42.688h-42.688z" fill="#FBFBEA" p-id="3348"></path><path d="M85.312 725.312H128V768h-42.688zM128 725.312h42.688V768H128zM384 725.312h42.688V768H384zM426.688 725.312h42.688V768h-42.688z" fill="#F0E090" p-id="3349"></path><path d="M469.312 725.312H512V768h-42.688zM512 725.312h42.688V768H512zM554.688 725.312h42.688V768h-42.688z" fill="#F0E090" p-id="3350"></path><path d="M597.312 725.312H640V768h-42.688zM298.688 341.312h42.688V384h-42.688z" fill="#F0E090" p-id="3351"></path><path d="M341.312 341.312H384V384h-42.688z" fill="#FBFBEA" p-id="3352"></path><path d="M384 341.312h42.688V384H384zM426.688 341.312h42.688V384h-42.688z" fill="#F0E090" p-id="3353"></path><path d="M469.312 341.312H512V384h-42.688zM512 341.312h42.688V384H512zM554.688 341.312h42.688V384h-42.688z" fill="#F0E090" p-id="3354"></path><path d="M597.312 341.312H640V384h-42.688z" fill="#F0E090" p-id="3355"></path><path d="M640 298.688h42.688v42.688H640z" fill="#FBFBEA" p-id="3356"></path><path d="M640 341.312h42.688V384H640z" fill="#FBFBEA" p-id="3357"></path><path d="M640 384h42.688v42.688H640z" fill="#F0E090" p-id="3358"></path><path d="M640 469.312h42.688V512H640zM640 512h42.688v42.688H640zM640 554.688h42.688v42.688H640z" fill="#FBFBEA" p-id="3359"></path><path d="M640 597.312h42.688V640H640zM640 640h42.688v42.688H640zM682.688 341.312h42.688V384h-42.688zM640 682.688h42.688v42.688H640z" fill="#FBFBEA" p-id="3360"></path><path d="M128 469.312h42.688V512H128z" fill="#F0E090" p-id="3361"></path><path d="M170.688 469.312h42.688V512h-42.688zM341.312 469.312H384V512h-42.688zM469.312 469.312H512V512h-42.688z" fill="#FBFBEA" p-id="3362"></path><path d="M128 512h42.688v42.688H128z" fill="#F0E090" p-id="3363"></path><path d="M170.688 512h42.688v42.688h-42.688zM256 512h42.688v42.688H256zM341.312 512H384v42.688h-42.688zM469.312 512H512v42.688h-42.688zM512 512h42.688v42.688H512zM554.688 469.312h42.688V512h-42.688z" fill="#FBFBEA" p-id="3364"></path><path d="M85.312 554.688H128v42.688h-42.688z" fill="#F0E090" p-id="3365"></path><path d="M170.688 554.688h42.688v42.688h-42.688zM256 554.688h42.688v42.688H256zM341.312 554.688H384v42.688h-42.688zM469.312 554.688H512v42.688h-42.688z" fill="#FBFBEA" p-id="3366"></path><path d="M85.312 597.312H128V640h-42.688z" fill="#F0E090" p-id="3367"></path><path d="M256 597.312h42.688V640H256zM341.312 597.312H384V640h-42.688zM384 597.312h42.688V640H384zM469.312 597.312H512V640h-42.688zM554.688 554.688h42.688v42.688h-42.688z" fill="#FBFBEA" p-id="3368"></path><path d="M554.688 597.312h42.688V640h-42.688z" fill="#FBFBEA" p-id="3369"></path><path d="M341.312 213.312H384V256h-42.688zM384 213.312h42.688V256H384zM426.688 213.312h42.688V256h-42.688zM298.688 256h42.688v42.688h-42.688zM469.312 256H512v42.688h-42.688zM256 298.688h42.688v42.688H256zM512 256h42.688v42.688H512zM554.688 213.312h42.688V256h-42.688z" p-id="3370"></path><path d="M597.312 213.312H640V256h-42.688zM640 213.312h42.688V256H640zM725.312 298.688H768v42.688h-42.688zM682.688 426.688h42.688v42.688h-42.688z" p-id="3371"></path><path d="M725.312 469.312H768V512h-42.688zM768 512h42.688v42.688H768zM768 554.688h42.688v42.688H768zM682.688 725.312h42.688V768h-42.688z" p-id="3372"></path><path d="M725.312 725.312H768V768h-42.688zM768 725.312h42.688V768H768zM810.688 597.312h42.688V640h-42.688z" p-id="3373"></path><path d="M810.688 725.312h42.688V768h-42.688z" fill="#FBFBEA" p-id="3374"></path><path d="M810.688 768h42.688v42.688h-42.688zM853.312 384H896v42.688h-42.688zM896 426.688h42.688v42.688H896z" p-id="3375"></path><path d="M896 469.312h42.688V512H896zM896 512h42.688v42.688H896zM938.688 554.688h42.688v42.688h-42.688zM853.312 768H896v42.688h-42.688zM128 384h42.688v42.688H128zM384 384h42.688v42.688H384zM426.688 384h42.688v42.688h-42.688z" p-id="3376"></path><path d="M469.312 384H512v42.688h-42.688zM85.312 426.688H128v42.688h-42.688zM298.688 426.688h42.688v42.688h-42.688z" p-id="3377"></path><path d="M341.312 426.688H384v42.688h-42.688zM512 384h42.688v42.688H512zM213.312 512H256v42.688h-42.688zM554.688 384h42.688v42.688h-42.688z" p-id="3378"></path><path d="M597.312 384H640v42.688h-42.688zM42.688 554.688h42.688v42.688H42.688zM213.312 554.688H256v42.688h-42.688zM42.688 725.312h42.688V768H42.688z" p-id="3379"></path><path d="M170.688 725.312h42.688V768h-42.688z" fill="#F0E090" p-id="3380"></path><path d="M170.688 768h42.688v42.688h-42.688zM341.312 725.312H384V768h-42.688zM85.312 768H128v42.688h-42.688zM128 768h42.688v42.688H128zM384 768h42.688v42.688H384zM426.688 768h42.688v42.688h-42.688z" p-id="3381"></path><path d="M469.312 768H512v42.688h-42.688zM512 768h42.688v42.688H512zM597.312 768H640v42.688h-42.688z" p-id="3382"></path><path d="M554.688 768h42.688v42.688h-42.688zM896 768h42.688v42.688H896zM938.688 725.312h42.688V768h-42.688zM170.688 341.312h42.688V384h-42.688z" p-id="3383"></path><path d="M213.312 341.312H256V384h-42.688zM256 341.312h42.688V384H256zM640 426.688h42.688v42.688H640zM0 597.312h42.688V640H0zM0 640h42.688v42.688H0zM682.688 256h42.688v42.688h-42.688zM725.312 341.312H768V384h-42.688zM768 341.312h42.688V384H768zM0 682.688h42.688v42.688H0z" p-id="3384"></path><path d="M0 725.312h42.688V768H0zM640 725.312h42.688V768H640zM810.688 341.312h42.688V384h-42.688zM981.312 597.312H1024V640h-42.688zM981.312 640H1024v42.688h-42.688zM981.312 682.688H1024v42.688h-42.688z" p-id="3385"></path><path d="M981.312 725.312H1024V768h-42.688zM85.312 469.312H128V512h-42.688zM256 469.312h42.688V512H256zM85.312 512H128v42.688h-42.688zM170.688 597.312h42.688V640h-42.688zM213.312 725.312H256V768h-42.688zM256 725.312h42.688V768H256zM298.688 725.312h42.688V768h-42.688z" p-id="3386"></path></svg>