<svg xmlns="http://www.w3.org/2000/svg" viewBox="0 0 1024 1024" version="1.1"><path d="M384 213.312h42.688V256H384zM426.688 213.312h42.688V256h-42.688z" fill="#FABD00" p-id="1754"></path><path d="M469.312 213.312H512V256h-42.688zM426.688 256h42.688v42.688h-42.688z" fill="#F5A400" p-id="1755"></path><path d="M469.312 256H512v42.688h-42.688zM170.688 298.688h42.688v42.688h-42.688z" fill="#FABD00" p-id="1756"></path><path d="M213.312 298.688H256v42.688h-42.688zM256 298.688h42.688v42.688H256zM298.688 298.688h42.688v42.688h-42.688z" fill="#FABD00" p-id="1757"></path><path d="M341.312 298.688H384v42.688h-42.688zM384 298.688h42.688v42.688H384zM512 256h42.688v42.688H512z" fill="#FABD00" p-id="1758"></path><path d="M512 298.688h42.688v42.688H512z" fill="#F5A400" p-id="1759"></path><path d="M554.688 298.688h42.688v42.688h-42.688z" fill="#FABD00" p-id="1760"></path><path d="M810.688 298.688h42.688v42.688h-42.688z" fill="#F5A400" p-id="1761"></path><path d="M682.688 469.312h42.688V512h-42.688z" fill="#FABD00" p-id="1762"></path><path d="M725.312 469.312H768V512h-42.688z" fill="#FABD00" p-id="1763"></path><path d="M682.688 512h42.688v42.688h-42.688z" fill="#F5A400" p-id="1764"></path><path d="M725.312 512H768v42.688h-42.688z" fill="#FABD00" p-id="1765"></path><path d="M768 384h42.688v42.688H768z" fill="#F5A400" p-id="1766"></path><path d="M768 426.688h42.688v42.688H768z" fill="#FABD00" p-id="1767"></path><path d="M768 469.312h42.688V512H768z" fill="#FABD00" p-id="1768"></path><path d="M768 512h42.688v42.688H768zM682.688 554.688h42.688v42.688h-42.688z" fill="#F5A400" p-id="1769"></path><path d="M682.688 597.312h42.688V640h-42.688z" fill="#F5A400" p-id="1770"></path><path d="M725.312 554.688H768v42.688h-42.688z" fill="#FABD00" p-id="1771"></path><path d="M725.312 597.312H768V640h-42.688zM682.688 640h42.688v42.688h-42.688z" fill="#FABD00" p-id="1772"></path><path d="M725.312 640H768v42.688h-42.688zM768 554.688h42.688v42.688H768z" fill="#FABD00" p-id="1773"></path><path d="M768 597.312h42.688V640H768z" fill="#F5A400" p-id="1774"></path><path d="M768 640h42.688v42.688H768zM725.312 682.688H768v42.688h-42.688z" fill="#FABD00" p-id="1775"></path><path d="M768 682.688h42.688v42.688H768z" fill="#F5A400" p-id="1776"></path><path d="M810.688 384h42.688v42.688h-42.688zM810.688 426.688h42.688v42.688h-42.688z" fill="#FABD00" p-id="1777"></path><path d="M810.688 469.312h42.688V512h-42.688z" fill="#F5A400" p-id="1778"></path><path d="M810.688 512h42.688v42.688h-42.688zM810.688 554.688h42.688v42.688h-42.688z" fill="#FABD00" p-id="1779"></path><path d="M810.688 597.312h42.688V640h-42.688z" fill="#F5A400" p-id="1780"></path><path d="M810.688 640h42.688v42.688h-42.688z" fill="#FABD00" p-id="1781"></path><path d="M810.688 682.688h42.688v42.688h-42.688z" fill="#F5A400" p-id="1782"></path><path d="M810.688 725.312h42.688V768h-42.688zM853.312 384H896v42.688h-42.688z" fill="#FABD00" p-id="1783"></path><path d="M853.312 426.688H896v42.688h-42.688z" fill="#F5A400" p-id="1784"></path><path d="M853.312 469.312H896V512h-42.688zM853.312 512H896v42.688h-42.688zM896 512h42.688v42.688H896z" fill="#FABD00" p-id="1785"></path><path d="M853.312 554.688H896v42.688h-42.688z" fill="#F5A400" p-id="1786"></path><path d="M853.312 597.312H896V640h-42.688z" fill="#FABD00" p-id="1787"></path><path d="M896 554.688h42.688v42.688H896z" fill="#F5A400" p-id="1788"></path><path d="M896 597.312h42.688V640H896zM853.312 640H896v42.688h-42.688zM896 640h42.688v42.688H896z" fill="#FABD00" p-id="1789"></path><path d="M938.688 640h42.688v42.688h-42.688z" fill="#F5A400" p-id="1790"></path><path d="M853.312 682.688H896v42.688h-42.688z" fill="#FABD00" p-id="1791"></path><path d="M896 682.688h42.688v42.688H896z" fill="#F5A400" p-id="1792"></path><path d="M938.688 682.688h42.688v42.688h-42.688z" fill="#FABD00" p-id="1793"></path><path d="M853.312 725.312H896V768h-42.688z" fill="#F5A400" p-id="1794"></path><path d="M896 725.312h42.688V768H896zM42.688 384h42.688v42.688H42.688z" fill="#FABD00" p-id="1795"></path><path d="M85.312 384H128v42.688h-42.688zM128 384h42.688v42.688H128zM170.688 384h42.688v42.688h-42.688z" fill="#FABD00" p-id="1796"></path><path d="M213.312 384H256v42.688h-42.688zM256 384h42.688v42.688H256zM298.688 384h42.688v42.688h-42.688z" fill="#FABD00" p-id="1797"></path><path d="M341.312 384H384v42.688h-42.688z" fill="#F5A400" p-id="1798"></path><path d="M384 384h42.688v42.688H384zM426.688 384h42.688v42.688h-42.688z" fill="#FABD00" p-id="1799"></path><path d="M469.312 384H512v42.688h-42.688zM42.688 426.688h42.688v42.688H42.688z" fill="#FABD00" p-id="1800"></path><path d="M85.312 426.688H128v42.688h-42.688z" fill="#FABD00" p-id="1801"></path><path d="M128.384 426.24h42.688v42.688h-42.688zM171.072 426.24h42.688v42.688h-42.688z" fill="#F5A400" p-id="1802"></path><path d="M213.312 426.688H256v42.688h-42.688zM256 426.688h42.688v42.688H256zM298.688 426.688h42.688v42.688h-42.688z" fill="#FABD00" p-id="1803"></path><path d="M341.312 426.688H384v42.688h-42.688zM384 426.688h42.688v42.688H384zM426.688 426.688h42.688v42.688h-42.688z" fill="#F5A400" p-id="1804"></path><path d="M469.312 426.688H512v42.688h-42.688zM42.688 469.312h42.688V512H42.688zM213.312 469.312H256V512h-42.688zM298.688 469.312h42.688V512h-42.688zM384 469.312h42.688V512H384z" fill="#FABD00" p-id="1805"></path><path d="M426.688 469.312h42.688V512h-42.688zM512 384h42.688v42.688H512zM512 426.688h42.688v42.688H512z" fill="#FABD00" p-id="1806"></path><path d="M512 469.312h42.688V512H512z" fill="#F5A400" p-id="1807"></path><path d="M42.688 512h42.688v42.688H42.688zM213.312 512H256v42.688h-42.688z" fill="#FABD00" p-id="1808"></path><path d="M298.688 512h42.688v42.688h-42.688zM384 512h42.688v42.688H384z" fill="#F5A400" p-id="1809"></path><path d="M426.688 512h42.688v42.688h-42.688zM554.688 384h42.688v42.688h-42.688zM554.688 426.688h42.688v42.688h-42.688z" fill="#FABD00" p-id="1810"></path><path d="M597.312 426.688H640v42.688h-42.688z" fill="#FABD00" p-id="1811"></path><path d="M597.312 469.312H640V512h-42.688z" fill="#FABD00" p-id="1812"></path><path d="M554.688 512h42.688v42.688h-42.688z" fill="#F5A400" p-id="1813"></path><path d="M597.312 512H640v42.688h-42.688zM42.688 554.688h42.688v42.688H42.688zM128 554.688h42.688v42.688H128zM213.312 554.688H256v42.688h-42.688z" fill="#FABD00" p-id="1814"></path><path d="M298.688 554.688h42.688v42.688h-42.688z" fill="#F5A400" p-id="1815"></path><path d="M384 554.688h42.688v42.688H384z" fill="#FABD00" p-id="1816"></path><path d="M426.688 554.688h42.688v42.688h-42.688z" fill="#F5A400" p-id="1817"></path><path d="M128 597.312h42.688V640H128zM213.312 597.312H256V640h-42.688zM298.688 597.312h42.688V640h-42.688zM426.688 597.312h42.688V640h-42.688zM512 554.688h42.688v42.688H512z" fill="#FABD00" p-id="1818"></path><path d="M512 597.312h42.688V640H512z" fill="#F5A400" p-id="1819"></path><path d="M85.312 640H128v42.688h-42.688zM128 640h42.688v42.688H128zM170.688 640h42.688v42.688h-42.688z" fill="#FABD00" p-id="1820"></path><path d="M213.312 640H256v42.688h-42.688z" fill="#F5A400" p-id="1821"></path><path d="M256 640h42.688v42.688H256zM298.688 640h42.688v42.688h-42.688z" fill="#FABD00" p-id="1822"></path><path d="M341.312 640H384v42.688h-42.688zM384 640h42.688v42.688H384z" fill="#FABD00" p-id="1823"></path><path d="M426.688 640h42.688v42.688h-42.688z" fill="#F5A400" p-id="1824"></path><path d="M469.312 640H512v42.688h-42.688z" fill="#F5A400" p-id="1825"></path><path d="M512 640h42.688v42.688H512zM597.312 554.688H640v42.688h-42.688z" fill="#FABD00" p-id="1826"></path><path d="M597.312 597.312H640V640h-42.688zM554.688 640h42.688v42.688h-42.688z" fill="#FABD00" p-id="1827"></path><path d="M597.312 640H640v42.688h-42.688zM170.688 682.688h42.688v42.688h-42.688z" fill="#FABD00" p-id="1828"></path><path d="M213.312 682.688H256v42.688h-42.688zM256 682.688h42.688v42.688H256zM298.688 682.688h42.688v42.688h-42.688z" fill="#FABD00" p-id="1829"></path><path d="M341.312 682.688H384v42.688h-42.688zM384 682.688h42.688v42.688H384zM426.688 682.688h42.688v42.688h-42.688z" fill="#FABD00" p-id="1830"></path><path d="M469.312 682.688H512v42.688h-42.688zM512 682.688h42.688v42.688H512zM554.688 682.688h42.688v42.688h-42.688z" fill="#FABD00" p-id="1831"></path><path d="M597.312 682.688H640v42.688h-42.688z" fill="#F5A400" p-id="1832"></path><path d="M341.312 725.312H384V768h-42.688zM384 725.312h42.688V768H384zM426.688 725.312h42.688V768h-42.688z" fill="#FABD00" p-id="1833"></path><path d="M469.312 725.312H512V768h-42.688zM384 768h42.688v42.688H384zM426.688 768h42.688v42.688h-42.688z" fill="#FABD00" p-id="1834"></path><path d="M469.312 768H512v42.688h-42.688zM512 725.312h42.688V768H512zM512 768h42.688v42.688H512zM554.688 725.312h42.688V768h-42.688z" fill="#FABD00" p-id="1835"></path><path d="M597.312 725.312H640V768h-42.688zM85.312 341.312H128V384h-42.688zM128 341.312h42.688V384H128zM170.688 341.312h42.688V384h-42.688z" fill="#FABD00" p-id="1836"></path><path d="M213.312 341.312H256V384h-42.688zM256 341.312h42.688V384H256z" fill="#FABD00" p-id="1837"></path><path d="M298.688 341.312h42.688V384h-42.688z" fill="#F5A400" p-id="1838"></path><path d="M341.312 341.312H384V384h-42.688zM384 341.312h42.688V384H384zM426.688 341.312h42.688V384h-42.688z" fill="#FABD00" p-id="1839"></path><path d="M469.312 341.312H512V384h-42.688zM597.312 341.312H640V384h-42.688z" fill="#FABD00" p-id="1840"></path><path d="M640 469.312h42.688V512H640z" fill="#F5A400" p-id="1841"></path><path d="M640 512h42.688v42.688H640zM640 554.688h42.688v42.688H640z" fill="#FABD00" p-id="1842"></path><path d="M640 597.312h42.688V640H640z" fill="#FABD00" p-id="1843"></path><path d="M640 640h42.688v42.688H640z" fill="#F5A400" p-id="1844"></path><path d="M768 341.312h42.688V384H768zM640 682.688h42.688v42.688H640z" fill="#FABD00" p-id="1845"></path><path d="M810.688 341.312h42.688V384h-42.688z" fill="#F5A400" p-id="1846"></path><path d="M85.312 469.312H128V512h-42.688z" fill="#FABD00" p-id="1847"></path><path d="M128.384 468.928h42.688v42.688h-42.688zM171.072 468.928h42.688v42.688h-42.688z" fill="#F5A400" p-id="1848"></path><path d="M256 469.312h42.688V512H256z" fill="#FABD00" p-id="1849"></path><path d="M341.312 469.312H384V512h-42.688zM469.312 469.312H512V512h-42.688z" fill="#F5A400" p-id="1850"></path><path d="M85.312 512H128v42.688h-42.688zM128 512h42.688v42.688H128zM170.688 512h42.688v42.688h-42.688zM256 512h42.688v42.688H256zM341.312 512H384v42.688h-42.688zM469.312 512H512v42.688h-42.688zM512 512h42.688v42.688H512zM554.688 469.312h42.688V512h-42.688zM85.312 554.688H128v42.688h-42.688zM170.688 554.688h42.688v42.688h-42.688zM256 554.688h42.688v42.688H256z" fill="#FABD00" p-id="1851"></path><path d="M341.312 554.688H384v42.688h-42.688zM469.312 554.688H512v42.688h-42.688z" fill="#F5A400" p-id="1852"></path><path d="M85.312 597.312H128V640h-42.688zM170.688 597.312h42.688V640h-42.688z" fill="#FABD00" p-id="1853"></path><path d="M256 597.312h42.688V640H256z" fill="#F5A400" p-id="1854"></path><path d="M341.312 597.312H384V640h-42.688z" fill="#FABD00" p-id="1855"></path><path d="M384 597.312h42.688V640H384z" fill="#F5A400" p-id="1856"></path><path d="M469.312 597.312H512V640h-42.688z" fill="#FABD00" p-id="1857"></path><path d="M554.688 554.688h42.688v42.688h-42.688z" fill="#F5A400" p-id="1858"></path><path d="M554.688 597.312h42.688V640h-42.688zM256 725.312h42.688V768H256zM298.688 725.312h42.688V768h-42.688z" fill="#FABD00" p-id="1859"></path><path d="M384 170.688h42.688v42.688H384zM426.688 170.688h42.688v42.688h-42.688z" p-id="1860"></path><path d="M469.312 170.688H512v42.688h-42.688zM341.312 213.312H384V256h-42.688zM170.688 256h42.688v42.688h-42.688z" p-id="1861"></path><path d="M213.312 256H256v42.688h-42.688zM256 256h42.688v42.688H256zM298.688 256h42.688v42.688h-42.688z" p-id="1862"></path><path d="M341.312 256H384v42.688h-42.688zM384 256h42.688v42.688H384zM85.312 298.688H128v42.688h-42.688zM128 298.688h42.688v42.688H128zM426.688 298.688h42.688v42.688h-42.688z" p-id="1863"></path><path d="M469.312 298.688H512v42.688h-42.688zM512 213.312h42.688V256H512zM554.688 256h42.688v42.688h-42.688zM597.312 298.688H640v42.688h-42.688zM768 298.688h42.688v42.688H768zM810.688 256h42.688v42.688h-42.688zM853.312 213.312H896V256h-42.688z" p-id="1864"></path><path d="M853.312 256H896v42.688h-42.688zM853.312 298.688H896v42.688h-42.688zM682.688 426.688h42.688v42.688h-42.688zM725.312 384H768v42.688h-42.688z" p-id="1865"></path><path d="M725.312 426.688H768v42.688h-42.688zM682.688 682.688h42.688v42.688h-42.688z" p-id="1866"></path><path d="M725.312 725.312H768V768h-42.688zM768 725.312h42.688V768H768zM810.688 768h42.688v42.688h-42.688zM896 384h42.688v42.688H896zM896 426.688h42.688v42.688H896z" p-id="1867"></path><path d="M896 469.312h42.688V512H896zM938.688 512h42.688v42.688h-42.688zM938.688 554.688h42.688v42.688h-42.688z" p-id="1868"></path><path d="M938.688 597.312h42.688V640h-42.688zM853.312 768H896v42.688h-42.688zM597.312 384H640v42.688h-42.688zM42.688 597.312h42.688V640H42.688zM42.688 640h42.688v42.688H42.688zM85.312 682.688H128v42.688h-42.688zM128 682.688h42.688v42.688H128zM170.688 725.312h42.688V768h-42.688zM426.688 810.688h42.688v42.688h-42.688z" p-id="1869"></path><path d="M469.312 810.688H512v42.688h-42.688zM256 768h42.688v42.688H256zM298.688 768h42.688v42.688h-42.688zM597.312 768H640v42.688h-42.688zM512 810.688h42.688v42.688H512z" p-id="1870"></path><path d="M554.688 768h42.688v42.688h-42.688zM896 768h42.688v42.688H896zM938.688 725.312h42.688V768h-42.688zM42.688 341.312h42.688V384H42.688zM0 384h42.688v42.688H0zM0 426.688h42.688v42.688H0z" p-id="1871"></path><path d="M0 469.312h42.688V512H0zM512 341.312h42.688V384H512zM0 512h42.688v42.688H0zM554.688 341.312h42.688V384h-42.688zM640 341.312h42.688V384H640zM640 384h42.688v42.688H640zM640 426.688h42.688v42.688H640zM0 554.688h42.688v42.688H0zM725.312 341.312H768V384h-42.688zM640 725.312h42.688V768H640zM853.312 341.312H896V384h-42.688zM981.312 640H1024v42.688h-42.688zM981.312 682.688H1024v42.688h-42.688zM213.312 725.312H256V768h-42.688zM341.312 768H384v42.688h-42.688zM384 810.688h42.688v42.688H384z" p-id="1872"></path></svg>