<svg xmlns="http://www.w3.org/2000/svg" viewBox="0 0 1024 1024" version="1.1"><path d="M341.312 170.688H384v42.688h-42.688zM384 170.688h42.688v42.688H384z" fill="#AA2024" p-id="2704"></path><path d="M426.688 170.688h42.688v42.688h-42.688z" fill="#221714" p-id="2705"></path><path d="M469.312 170.688H512v42.688h-42.688z" fill="#F5C51D" p-id="2706"></path><path d="M298.688 213.312h42.688V256h-42.688z" fill="#AA2024" p-id="2707"></path><path d="M341.312 213.312H384V256h-42.688zM384 213.312h42.688V256H384z" fill="#AA2024" p-id="2708"></path><path d="M426.688 213.312h42.688V256h-42.688z" fill="#221714" p-id="2709"></path><path d="M469.312 213.312H512V256h-42.688z" fill="#F5C51D" p-id="2710"></path><path d="M384 256h42.688v42.688H384zM426.688 256h42.688v42.688h-42.688z" fill="#AA2024" p-id="2711"></path><path d="M469.312 256H512v42.688h-42.688zM469.312 298.688H512v42.688h-42.688zM512 170.688h42.688v42.688H512z" fill="#221714" p-id="2712"></path><path d="M512 213.312h42.688V256H512z" fill="#221714" p-id="2713"></path><path d="M512 256h42.688v42.688H512zM512 298.688h42.688v42.688H512zM554.688 170.688h42.688v42.688h-42.688z" fill="#E72830" p-id="2714"></path><path d="M554.688 213.312h42.688V256h-42.688zM554.688 256h42.688v42.688h-42.688zM597.312 170.688H640v42.624h-42.688z" fill="#E72830" p-id="2715"></path><path d="M597.312 213.312H640V256h-42.688zM597.312 256H640v42.688h-42.688zM640 213.312h42.688V256H640zM682.688 213.312h42.624V256h-42.624zM640 170.688h42.688v42.624H640z" fill="#E72830" p-id="2716"></path><path d="M469.312 128H512v42.688h-42.688zM512 128h42.688v42.688H512z" fill="#F5C51D" p-id="2717"></path><path d="M469.312 42.688H512v42.688h-42.688zM341.312 85.312H384V128h-42.688zM384 85.312h42.688V128H384z" fill="#72B42C" p-id="2718"></path><path d="M426.688 85.312h42.688V128h-42.688zM512 42.688h42.688v42.688H512zM554.688 85.312h42.688V128h-42.688z" fill="#72B42C" p-id="2719"></path><path d="M597.312 85.312H640V128h-42.688zM640 85.312h42.688V128H640zM298.688 128h42.688v42.688h-42.688zM682.688 128h42.688v42.688h-42.688z" fill="#72B42C" p-id="2720"></path><path d="M682.688 298.688h42.688v42.688h-42.688zM682.688 384h42.688v42.688h-42.688zM682.688 426.688h42.688v42.688h-42.688z" fill="#F8C38B" p-id="2721"></path><path d="M682.688 469.312h42.688V512h-42.688zM682.688 512h42.688v42.688h-42.688zM682.688 554.688h42.688v42.688h-42.688z" fill="#F8C38B" p-id="2722"></path><path d="M682.688 597.312h42.688V640h-42.688z" fill="#F6B371" p-id="2723"></path><path d="M682.688 640h42.688v42.688h-42.688zM682.688 682.688h42.688v42.688h-42.688z" fill="#F8C38B" p-id="2724"></path><path d="M682.688 725.312h42.688V768h-42.688zM512 384h42.688v42.688H512zM512 426.688h42.688v42.688H512z" fill="#F8C38B" p-id="2725"></path><path d="M512 469.312h42.688V512H512zM554.688 384h42.688v42.688h-42.688z" fill="#F8C38B" p-id="2726"></path><path d="M554.688 426.688h42.688v42.688h-42.688z" fill="#F6B371" p-id="2727"></path><path d="M597.312 384H640v42.688h-42.688z" fill="#F8C38B" p-id="2728"></path><path d="M597.312 426.688H640v42.688h-42.688z" fill="#F6B371" p-id="2729"></path><path d="M597.312 469.312H640V512h-42.688z" fill="#F6B371" p-id="2730"></path><path d="M554.688 512h42.688v42.688h-42.688z" fill="#F8C38B" p-id="2731"></path><path d="M597.312 512H640v42.688h-42.688zM512 554.688h42.688v42.688H512z" fill="#F8C38B" p-id="2732"></path><path d="M512 597.312h42.688V640H512zM469.312 640H512v42.688h-42.688zM512 640h42.688v42.688H512z" fill="#F8C38B" p-id="2733"></path><path d="M597.312 554.688H640v42.688h-42.688z" fill="#F6B371" p-id="2734"></path><path d="M597.312 597.312H640V640h-42.688zM554.688 640h42.688v42.688h-42.688z" fill="#F8C38B" p-id="2735"></path><path d="M597.312 640H640v42.688h-42.688zM469.312 682.688H512v42.688h-42.688z" fill="#F8C38B" p-id="2736"></path><path d="M512 682.688h42.688v42.688H512zM554.688 682.688h42.688v42.688h-42.688z" fill="#F6B371" p-id="2737"></path><path d="M597.312 682.688H640v42.688h-42.688zM469.312 725.312H512V768h-42.688zM469.312 768H512v42.688h-42.688z" fill="#F8C38B" p-id="2738"></path><path d="M512 725.312h42.688V768H512z" fill="#F6B371" p-id="2739"></path><path d="M512 768h42.688v42.688H512z" fill="#F8C38B" p-id="2740"></path><path d="M554.688 725.312h42.688V768h-42.688z" fill="#F6B371" p-id="2741"></path><path d="M597.312 768H640v42.688h-42.688zM554.688 810.688h42.688v42.688h-42.688z" fill="#F8C38B" p-id="2742"></path><path d="M597.312 810.688H640v42.688h-42.688zM512 853.312h42.688V896H512z" fill="#F6B371" p-id="2743"></path><path d="M554.688 853.312h42.688V896h-42.688z" fill="#F8C38B" p-id="2744"></path><path d="M597.312 853.312H640V896h-42.688z" fill="#F6B371" p-id="2745"></path><path d="M512 896h42.688v42.688H512zM554.688 896h42.688v42.688h-42.688zM554.688 938.688h42.688v42.688h-42.688z" fill="#F8C38B" p-id="2746"></path><path d="M597.312 896H640v42.688h-42.688zM597.312 938.688H640v42.688h-42.688zM682.688 853.312h42.688V896h-42.688zM682.688 896h42.688v42.688h-42.688z" fill="#F8C38B" p-id="2747"></path><path d="M682.688 938.688h42.688v42.688h-42.688z" fill="#F6B371" p-id="2748"></path><path d="M682.688 810.688h42.688v42.688h-42.688zM512 810.688h42.688v42.688H512zM554.688 768h42.688v42.688h-42.688zM597.312 725.312H640V768h-42.688zM682.688 768h42.688v42.688h-42.688zM554.688 341.312h42.688V384h-42.688z" fill="#F8C38B" p-id="2749"></path><path d="M597.312 341.312H640V384h-42.688zM640 298.688h42.688v42.688H640z" fill="#F8C38B" p-id="2750"></path><path d="M640 341.312h42.688V384H640zM640 384h42.688v42.688H640zM640 426.688h42.688v42.688H640z" fill="#F8C38B" p-id="2751"></path><path d="M640 469.312h42.688V512H640zM640 512h42.688v42.688H640zM640 554.688h42.688v42.688H640z" fill="#F8C38B" p-id="2752"></path><path d="M640 597.312h42.688V640H640zM640 640h42.688v42.688H640z" fill="#F8C38B" p-id="2753"></path><path d="M682.688 341.312h42.688V384h-42.688z" fill="#F6B371" p-id="2754"></path><path d="M640 682.688h42.688v42.688H640z" fill="#F8C38B" p-id="2755"></path><path d="M640 725.312h42.688V768H640z" fill="#F6B371" p-id="2756"></path><path d="M640 768h42.688v42.688H640z" fill="#F8C38B" p-id="2757"></path><path d="M640 810.688h42.688v42.688H640z" fill="#F6B371" p-id="2758"></path><path d="M640 853.312h42.688V896H640z" fill="#F6B371" p-id="2759"></path><path d="M640 896h42.688v42.688H640z" fill="#F8C38B" p-id="2760"></path><path d="M640 938.688h42.688v42.688H640z" fill="#F6B371" p-id="2761"></path><path d="M469.312 469.312H512V512h-42.688zM469.312 512H512v42.688h-42.688zM512 512h42.688v42.688H512z" fill="#F8C38B" p-id="2762"></path><path d="M554.688 469.312h42.688V512h-42.688zM469.312 554.688H512v42.688h-42.688z" fill="#F6B371" p-id="2763"></path><path d="M469.312 597.312H512V640h-42.688z" fill="#F6B371" p-id="2764"></path><path d="M554.688 554.688h42.688v42.688h-42.688z" fill="#F8C38B" p-id="2765"></path><path d="M554.688 597.312h42.688V640h-42.688z" fill="#F8C38B" p-id="2766"></path><path d="M298.688 298.688h42.688v42.688h-42.688z" fill="#F5AB66" p-id="2767"></path><path d="M341.312 298.688H384v42.688h-42.688z" fill="#F5AB66" p-id="2768"></path><path d="M298.688 384h42.688v42.688h-42.688z" fill="#EC9C64" p-id="2769"></path><path d="M341.312 384H384v42.688h-42.688zM384 384h42.688v42.688H384zM426.688 384h42.688v42.688h-42.688zM298.688 426.688h42.688v42.688h-42.688z" fill="#F5AB66" p-id="2770"></path><path d="M341.312 426.688H384v42.688h-42.688z" fill="#F5AB66" p-id="2771"></path><path d="M384 426.688h42.688v42.688H384zM426.688 426.688h42.688v42.688h-42.688z" fill="#EC9C64" p-id="2772"></path><path d="M298.688 469.312h42.688V512h-42.688z" fill="#F5AB66" p-id="2773"></path><path d="M384 469.312h42.688V512H384z" fill="#EC9C64" p-id="2774"></path><path d="M298.688 512h42.688v42.688h-42.688zM384 512h42.688v42.688H384zM298.688 554.688h42.688v42.688h-42.688zM384 554.688h42.688v42.688H384z" fill="#F5AB66" p-id="2775"></path><path d="M298.688 597.312h42.688V640h-42.688zM298.688 640h42.688v42.688h-42.688z" fill="#EC9C64" p-id="2776"></path><path d="M341.312 640H384v42.688h-42.688z" fill="#EC9C64" p-id="2777"></path><path d="M384 640h42.688v42.688H384zM298.688 682.688h42.688v42.688h-42.688z" fill="#F5AB66" p-id="2778"></path><path d="M341.312 682.688H384v42.688h-42.688zM384 682.688h42.688v42.688H384z" fill="#F5AB66" p-id="2779"></path><path d="M341.312 725.312H384V768h-42.688z" fill="#F5AB66" p-id="2780"></path><path d="M384 725.312h42.688V768H384z" fill="#EC9C64" p-id="2781"></path><path d="M384 768h42.688v42.688H384zM426.688 810.688h42.688v42.688h-42.688zM298.688 768h42.688v42.688h-42.688zM298.688 810.688h42.688v42.688h-42.688z" fill="#F5AB66" p-id="2782"></path><path d="M341.312 810.688H384v42.688h-42.688z" fill="#F5AB66" p-id="2783"></path><path d="M298.688 853.312h42.688V896h-42.688z" fill="#F5AB66" p-id="2784"></path><path d="M341.312 853.312H384V896h-42.688zM384 853.312h42.688V896H384z" fill="#EC9C64" p-id="2785"></path><path d="M298.688 896h42.688v42.688h-42.688z" fill="#F5AB66" p-id="2786"></path><path d="M341.312 896H384v42.688h-42.688zM384 896h42.688v42.688H384zM426.688 896h42.688v42.688h-42.688zM298.688 938.688h42.688v42.688h-42.688z" fill="#F5AB66" p-id="2787"></path><path d="M341.312 938.688H384v42.688h-42.688z" fill="#F5AB66" p-id="2788"></path><path d="M384 938.688h42.688v42.688H384zM426.688 938.688h42.688v42.688h-42.688z" fill="#EC9C64" p-id="2789"></path><path d="M469.312 938.688H512v42.688h-42.688zM426.688 853.312h42.688V896h-42.688z" fill="#F5AB66" p-id="2790"></path><path d="M298.688 341.312h42.688V384h-42.688z" fill="#EC9C64" p-id="2791"></path><path d="M341.312 341.312H384V384h-42.688zM384 341.312h42.688V384H384zM426.688 341.312h42.688V384h-42.688zM341.312 469.312H384V512h-42.688zM341.312 512H384v42.688h-42.688zM341.312 554.688H384v42.688h-42.688z" fill="#F5AB66" p-id="2792"></path><path d="M341.312 597.312H384V640h-42.688z" fill="#EC9C64" p-id="2793"></path><path d="M384 597.312h42.688V640H384zM298.688 725.312h42.688V768h-42.688zM341.312 768H384v42.688h-42.688zM384 810.688h42.688v42.688H384z" fill="#F5AB66" p-id="2794"></path><path d="M256 170.688h42.688v42.688H256zM298.688 170.688h42.688v42.688h-42.688z" fill="#221714" p-id="2795"></path><path d="M256 213.312h42.688V256H256zM256 256h42.688v42.688H256zM298.688 256h42.688v42.688h-42.688z" fill="#221714" p-id="2796"></path><path d="M341.312 256H384v42.688h-42.688zM256 298.688h42.688v42.688H256zM384 298.688h42.688v42.688H384zM426.688 298.688h42.688v42.688h-42.688zM554.688 298.688h42.688v42.688h-42.688z" fill="#221714" p-id="2797"></path><path d="M597.312 298.688H640v42.688h-42.688zM640 256h42.688v42.688H640zM682.688 170.688h42.688v42.624h-42.688z" fill="#221714" p-id="2798"></path><path d="M725.312 170.688H768v42.624h-42.688zM341.312 42.688H384v42.688h-42.688zM384 42.688h42.688v42.688H384zM426.688 42.688h42.688v42.688h-42.688z" fill="#221714" p-id="2799"></path><path d="M298.688 85.312h42.688V128h-42.688zM469.312 85.312H512V128h-42.688zM512 85.312h42.688V128H512zM554.688 42.688h42.688v42.688h-42.688z" fill="#221714" p-id="2800"></path><path d="M597.312 42.688H640v42.688h-42.688zM640 42.688h42.688v42.688H640zM682.688 85.312h42.688V128h-42.688zM725.312 256H768v42.688h-42.688zM725.312 298.688H768v42.688h-42.688zM725.312 384H768v42.688h-42.688zM725.312 426.688H768v42.688h-42.688z" fill="#221714" p-id="2801"></path><path d="M725.312 469.312H768V512h-42.688zM725.312 512H768v42.688h-42.688zM725.312 554.688H768v42.688h-42.688z" fill="#221714" p-id="2802"></path><path d="M725.312 597.312H768V640h-42.688zM725.312 640H768v42.688h-42.688zM725.312 682.688H768v42.688h-42.688z" fill="#221714" p-id="2803"></path><path d="M725.312 725.312H768V768h-42.688zM725.312 768H768v42.688h-42.688zM256 384h42.688v42.688H256zM469.312 384H512v42.688h-42.688zM256 426.688h42.688v42.688H256zM469.312 426.688H512v42.688h-42.688z" fill="#221714" p-id="2804"></path><path d="M426.688 469.312h42.688V512h-42.688zM426.688 512h42.688v42.688h-42.688zM426.688 554.688h42.688v42.688h-42.688z" fill="#221714" p-id="2805"></path><path d="M426.688 597.312h42.688V640h-42.688zM256 640h42.688v42.688H256zM426.688 640h42.688v42.688h-42.688zM256 682.688h42.688v42.688H256zM426.688 682.688h42.688v42.688h-42.688z" fill="#221714" p-id="2806"></path><path d="M426.688 725.312h42.688V768h-42.688zM426.688 768h42.688v42.688h-42.688zM469.312 810.688H512v42.688h-42.688zM256 768h42.688v42.688H256zM256 810.688h42.688v42.688H256z" fill="#221714" p-id="2807"></path><path d="M256 853.312h42.688V896H256zM256 896h42.688v42.688H256zM469.312 896H512v42.688h-42.688zM256 938.688h42.688v42.688H256zM512 938.688h42.688v42.688H512zM725.312 853.312H768V896h-42.688zM725.312 896H768v42.688h-42.688zM725.312 938.688H768v42.688h-42.688z" fill="#221714" p-id="2808"></path><path d="M725.312 810.688H768v42.688h-42.688zM469.312 853.312H512V896h-42.688zM469.312 0H512v42.688h-42.688zM256 128h42.688v42.688H256zM341.312 128H384v42.688h-42.688zM384 128h42.688v42.688H384zM426.688 128h42.688v42.688h-42.688zM256 341.312h42.688V384H256zM469.312 341.312H512V384h-42.688zM512 0h42.688v42.688H512zM512 341.312h42.688V384H512zM554.688 128h42.688v42.688h-42.688z" fill="#221714" p-id="2809"></path><path d="M597.312 128H640v42.688h-42.688zM640 128h42.688v42.688H640zM682.688 256h42.688v42.688h-42.688zM725.312 128H768v42.688h-42.688zM725.312 213.312H768V256h-42.688zM725.312 341.312H768V384h-42.688zM298.688 981.312h42.688V1024h-42.688z" fill="#221714" p-id="2810"></path><path d="M341.312 981.312H384V1024h-42.688zM384 981.312h42.688V1024H384zM426.688 981.312h42.688V1024h-42.688z" fill="#221714" p-id="2811"></path><path d="M469.312 981.312H512V1024h-42.688zM512 981.312h42.688V1024H512zM554.688 981.312h42.688V1024h-42.688z" fill="#221714" p-id="2812"></path><path d="M597.312 981.312H640V1024h-42.688zM640 981.312h42.688V1024H640zM682.688 981.312h42.688V1024h-42.688zM256 469.312h42.688V512H256zM256 512h42.688v42.688H256zM256 554.688h42.688v42.688H256z" fill="#221714" p-id="2813"></path><path d="M256 597.312h42.688V640H256zM256 725.312h42.688V768H256z" fill="#221714" p-id="2814"></path></svg>