<?xml version="1.0" standalone="no"?><!DOCTYPE svg PUBLIC "-//W3C//DTD SVG 1.1//EN" "http://www.w3.org/Graphics/SVG/1.1/DTD/svg11.dtd"><svg height="1024" node-id="1" sillyvg="true" template-height="1024" template-width="1024" version="1.1" viewBox="0 0 1024 1024" width="1024" xmlns="http://www.w3.org/2000/svg" xmlns:xlink="http://www.w3.org/1999/xlink"><defs node-id="80"></defs><path d="M 541.67 433.11 L 488.73 433.11 L 488.73 485.87 L 435.70 485.87 L 435.70 538.11 L 382.89 538.11 L 382.89 591.05 L 118.82 591.05 L 118.82 643.86 L 171.63 643.86 L 171.63 696.68 L 224.45 696.68 L 224.45 749.74 L 276.86 749.74 L 276.86 802.55 L 382.49 802.55 L 382.49 855.37 L 646.57 855.37 L 646.57 802.55 L 752.20 802.55 L 752.20 749.74 L 805.01 749.74 L 805.01 696.80 L 857.83 696.80 L 857.83 643.63 L 910.64 643.63 L 910.64 590.81 L 645.00 590.81 L 645.00 538.11 L 593.75 538.11 L 593.75 485.30 L 540.95 485.30 Z" fill="#fdfdfd" fill-rule="nonzero" node-id="82" stroke="none" target-height="422.26" target-width="791.82" target-x="118.82" target-y="433.11"></path><path d="M 541.67 433.11 L 488.73 433.11 L 488.73 485.87 L 435.70 485.87 L 435.70 538.11 L 382.89 538.11 L 382.89 591.05 L 118.82 591.05 L 118.82 379.82 L 171.63 379.82 L 171.63 327.00 L 118.82 327.00 L 118.82 168.56 L 277.26 168.56 L 277.26 221.34 L 330.07 221.34 L 330.07 247.74 L 382.89 247.74 L 382.89 194.97 L 646.58 194.97 L 646.58 247.74 L 699.40 247.74 L 699.40 221.38 L 752.21 221.38 L 752.21 168.56 L 910.65 168.56 L 910.65 327.00 L 857.83 327.00 L 857.83 379.82 L 910.64 379.82 L 910.64 590.81 L 646.57 590.81 L 646.57 538.11 L 593.75 538.11 L 593.75 485.30 L 540.95 485.30 Z" fill="#ecab44" fill-rule="nonzero" node-id="84" stroke="none" target-height="422.49" target-width="791.83" target-x="118.82" target-y="168.56"></path><path d="M 118.81 115.75 L 171.62 115.75 L 171.62 168.56 L 118.81 168.56 Z" fill="#472712" fill-rule="nonzero" node-id="86" stroke="none" target-height="52.809998" target-width="52.809998" target-x="118.81" target-y="115.75"></path><path d="M 66.00 168.56 L 118.81 168.56 L 118.81 221.37 L 66.00 221.37 Z" fill="#472712" fill-rule="nonzero" node-id="88" stroke="none" target-height="52.809998" target-width="52.809998" target-x="66" target-y="168.56"></path><path d="M 66.00 221.37 L 118.81 221.37 L 118.81 274.18 L 66.00 274.18 Z" fill="#472712" fill-rule="nonzero" node-id="90" stroke="none" target-height="52.809998" target-width="52.809998" target-x="66" target-y="221.37"></path><path d="M 66.00 274.19 L 118.81 274.19 L 118.81 327.00 L 66.00 327.00 Z" fill="#472712" fill-rule="nonzero" node-id="92" stroke="none" target-height="52.809998" target-width="52.809998" target-x="66" target-y="274.19"></path><path d="M 910.65 168.56 L 963.46 168.56 L 963.46 221.37 L 910.65 221.37 Z" fill="#472712" fill-rule="nonzero" node-id="94" stroke="none" target-height="52.809998" target-width="52.809998" target-x="910.65" target-y="168.56"></path><path d="M 910.65 221.37 L 963.46 221.37 L 963.46 274.18 L 910.65 274.18 Z" fill="#472712" fill-rule="nonzero" node-id="96" stroke="none" target-height="52.809998" target-width="52.809998" target-x="910.65" target-y="221.37"></path><path d="M 910.65 274.19 L 963.46 274.19 L 963.46 327.00 L 910.65 327.00 Z" fill="#472712" fill-rule="nonzero" node-id="98" stroke="none" target-height="52.809998" target-width="52.809998" target-x="910.65" target-y="274.19"></path><path d="M 118.82 327.00 L 171.63 327.00 L 171.63 379.81 L 118.82 379.81 Z" fill="#472712" fill-rule="nonzero" node-id="100" stroke="none" target-height="52.809998" target-width="52.810005" target-x="118.82" target-y="327"></path><path d="M 857.84 327.00 L 910.65 327.00 L 910.65 379.81 L 857.84 379.81 Z" fill="#472712" fill-rule="nonzero" node-id="102" stroke="none" target-height="52.809998" target-width="52.809998" target-x="857.84" target-y="327"></path><path d="M 66.00 379.82 L 118.81 379.82 L 118.81 432.63 L 66.00 432.63 Z" fill="#472712" fill-rule="nonzero" node-id="104" stroke="none" target-height="52.809998" target-width="52.809998" target-x="66" target-y="379.82"></path><path d="M 66.00 432.63 L 118.81 432.63 L 118.81 485.44 L 66.00 485.44 Z" fill="#472712" fill-rule="nonzero" node-id="106" stroke="none" target-height="52.809998" target-width="52.809998" target-x="66" target-y="432.63"></path><path d="M 66.00 485.30 L 118.81 485.30 L 118.81 538.11 L 66.00 538.11 Z" fill="#472712" fill-rule="nonzero" node-id="108" stroke="none" target-height="52.809998" target-width="52.809998" target-x="66" target-y="485.3"></path><path d="M 66.00 538.11 L 118.81 538.11 L 118.81 590.92 L 66.00 590.92 Z" fill="#472712" fill-rule="nonzero" node-id="110" stroke="none" target-height="52.809998" target-width="52.809998" target-x="66" target-y="538.11"></path><path d="M 910.64 379.82 L 963.45 379.82 L 963.45 432.63 L 910.64 432.63 Z" fill="#472712" fill-rule="nonzero" node-id="112" stroke="none" target-height="52.809998" target-width="52.809998" target-x="910.64" target-y="379.82"></path><path d="M 910.64 432.63 L 963.45 432.63 L 963.45 485.44 L 910.64 485.44 Z" fill="#472712" fill-rule="nonzero" node-id="114" stroke="none" target-height="52.809998" target-width="52.809998" target-x="910.64" target-y="432.63"></path><path d="M 910.64 485.30 L 963.45 485.30 L 963.45 538.11 L 910.64 538.11 Z" fill="#472712" fill-rule="nonzero" node-id="116" stroke="none" target-height="52.809998" target-width="52.809998" target-x="910.64" target-y="485.3"></path><path d="M 910.64 538.11 L 963.45 538.11 L 963.45 590.92 L 910.64 590.92 Z" fill="#472712" fill-rule="nonzero" node-id="118" stroke="none" target-height="52.809998" target-width="52.809998" target-x="910.64" target-y="538.11"></path><path d="M 66.00 591.05 L 118.81 591.05 L 118.81 643.86 L 66.00 643.86 Z" fill="#472712" fill-rule="nonzero" node-id="120" stroke="none" target-height="52.809998" target-width="52.809998" target-x="66" target-y="591.05"></path><path d="M 66.00 643.86 L 118.81 643.86 L 118.81 696.67 L 66.00 696.67 Z" fill="#472712" fill-rule="nonzero" node-id="122" stroke="none" target-height="52.809998" target-width="52.809998" target-x="66" target-y="643.86"></path><path d="M 119.01 696.68 L 171.82 696.68 L 171.82 749.49 L 119.01 749.49 Z" fill="#472712" fill-rule="nonzero" node-id="124" stroke="none" target-height="52.809998" target-width="52.810005" target-x="119.01" target-y="696.68"></path><path d="M 119.01 749.74 L 171.82 749.74 L 171.82 802.55 L 119.01 802.55 Z" fill="#472712" fill-rule="nonzero" node-id="126" stroke="none" target-height="52.809998" target-width="52.810005" target-x="119.01" target-y="749.74"></path><path d="M 171.43 749.74 L 224.24 749.74 L 224.24 802.55 L 171.43 802.55 Z" fill="#472712" fill-rule="nonzero" node-id="128" stroke="none" target-height="52.809998" target-width="52.810013" target-x="171.43" target-y="749.74"></path><path d="M 224.25 802.55 L 277.06 802.55 L 277.06 855.36 L 224.25 855.36 Z" fill="#472712" fill-rule="nonzero" node-id="130" stroke="none" target-height="52.809998" target-width="52.809998" target-x="224.25" target-y="802.55"></path><path d="M 277.06 802.55 L 329.87 802.55 L 329.87 855.36 L 277.06 855.36 Z" fill="#472712" fill-rule="nonzero" node-id="132" stroke="none" target-height="52.809998" target-width="52.809998" target-x="277.06" target-y="802.55"></path><path d="M 382.49 855.37 L 435.30 855.37 L 435.30 908.18 L 382.49 908.18 Z" fill="#472712" fill-rule="nonzero" node-id="134" stroke="none" target-height="52.809998" target-width="52.809998" target-x="382.49" target-y="855.37"></path><path d="M 329.68 855.37 L 382.49 855.37 L 382.49 908.18 L 329.68 908.18 Z" fill="#472712" fill-rule="nonzero" node-id="136" stroke="none" target-height="52.809998" target-width="52.809998" target-x="329.68" target-y="855.37"></path><path d="M 435.31 855.37 L 488.12 855.37 L 488.12 908.18 L 435.31 908.18 Z" fill="#472712" fill-rule="nonzero" node-id="138" stroke="none" target-height="52.809998" target-width="52.809998" target-x="435.31" target-y="855.37"></path><path d="M 488.12 855.37 L 540.93 855.37 L 540.93 908.18 L 488.12 908.18 Z" fill="#472712" fill-rule="nonzero" node-id="140" stroke="none" target-height="52.809998" target-width="52.809998" target-x="488.12" target-y="855.37"></path><path d="M 540.94 855.37 L 593.75 855.37 L 593.75 908.18 L 540.94 908.18 Z" fill="#472712" fill-rule="nonzero" node-id="142" stroke="none" target-height="52.809998" target-width="52.809998" target-x="540.94" target-y="855.37"></path><path d="M 593.75 855.37 L 646.56 855.37 L 646.56 908.18 L 593.75 908.18 Z" fill="#472712" fill-rule="nonzero" node-id="144" stroke="none" target-height="52.809998" target-width="52.809998" target-x="593.75" target-y="855.37"></path><path d="M 646.57 855.37 L 699.38 855.37 L 699.38 908.18 L 646.57 908.18 Z" fill="#472712" fill-rule="nonzero" node-id="146" stroke="none" target-height="52.809998" target-width="52.809998" target-x="646.57" target-y="855.37"></path><path d="M 699.38 802.55 L 752.19 802.55 L 752.19 855.36 L 699.38 855.36 Z" fill="#472712" fill-rule="nonzero" node-id="148" stroke="none" target-height="52.809998" target-width="52.809998" target-x="699.38" target-y="802.55"></path><path d="M 752.20 802.55 L 805.01 802.55 L 805.01 855.36 L 752.20 855.36 Z" fill="#472712" fill-rule="nonzero" node-id="150" stroke="none" target-height="52.809998" target-width="52.809998" target-x="752.2" target-y="802.55"></path><path d="M 805.03 749.26 L 857.84 749.26 L 857.84 802.07 L 805.03 802.07 Z" fill="#472712" fill-rule="nonzero" node-id="152" stroke="none" target-height="52.809998" target-width="52.809998" target-x="805.03" target-y="749.26"></path><path d="M 857.84 749.26 L 910.65 749.26 L 910.65 802.07 L 857.84 802.07 Z" fill="#472712" fill-rule="nonzero" node-id="154" stroke="none" target-height="52.809998" target-width="52.809998" target-x="857.84" target-y="749.26"></path><path d="M 857.84 696.44 L 910.65 696.44 L 910.65 749.25 L 857.84 749.25 Z" fill="#472712" fill-rule="nonzero" node-id="156" stroke="none" target-height="52.809998" target-width="52.809998" target-x="857.84" target-y="696.44"></path><path d="M 910.64 643.63 L 963.45 643.63 L 963.45 696.44 L 910.64 696.44 Z" fill="#472712" fill-rule="nonzero" node-id="158" stroke="none" target-height="52.809998" target-width="52.809998" target-x="910.64" target-y="643.63"></path><path d="M 910.64 590.81 L 963.45 590.81 L 963.45 643.62 L 910.64 643.62 Z" fill="#472712" fill-rule="nonzero" node-id="160" stroke="none" target-height="52.809998" target-width="52.809998" target-x="910.64" target-y="590.81"></path><path d="M 171.63 115.75 L 224.44 115.75 L 224.44 168.56 L 171.63 168.56 Z" fill="#472712" fill-rule="nonzero" node-id="162" stroke="none" target-height="52.809998" target-width="52.809998" target-x="171.63" target-y="115.75"></path><path d="M 224.44 115.75 L 277.25 115.75 L 277.25 168.56 L 224.44 168.56 Z" fill="#472712" fill-rule="nonzero" node-id="164" stroke="none" target-height="52.809998" target-width="52.809998" target-x="224.44" target-y="115.75"></path><path d="M 277.26 168.56 L 330.07 168.56 L 330.07 221.37 L 277.26 221.37 Z" fill="#472712" fill-rule="nonzero" node-id="166" stroke="none" target-height="52.809998" target-width="52.809998" target-x="277.26" target-y="168.56"></path><path d="M 224.45 221.34 L 277.26 221.34 L 277.26 274.15 L 224.45 274.15 Z" fill="#fcf6e6" fill-rule="nonzero" node-id="168" stroke="none" target-height="52.809998" target-width="52.810013" target-x="224.45" target-y="221.34"></path><path d="M 171.63 221.34 L 224.44 221.34 L 224.44 274.15 L 171.63 274.15 Z" fill="#fcf6e6" fill-rule="nonzero" node-id="170" stroke="none" target-height="52.809998" target-width="52.809998" target-x="171.63" target-y="221.34"></path><path d="M 171.63 274.19 L 224.44 274.19 L 224.44 327.00 L 171.63 327.00 Z" fill="#fcf6e6" fill-rule="nonzero" node-id="172" stroke="none" target-height="52.809998" target-width="52.809998" target-x="171.63" target-y="274.19"></path><g node-id="241"><path d="M 805.01 274.15 L 752.20 274.15 L 752.20 221.34 L 805.01 221.34 Z" fill="#fcf6e6" fill-rule="nonzero" group-id="1" node-id="176" stroke="none" target-height="52.809998" target-width="52.809998" target-x="752.19946" target-y="221.33911"></path></g><g node-id="242"><path d="M 857.83 274.15 L 805.02 274.15 L 805.02 221.34 L 857.83 221.34 Z" fill="#fcf6e6" fill-rule="nonzero" group-id="2" node-id="181" stroke="none" target-height="52.809998" target-width="52.809998" target-x="805.0213" target-y="221.33911"></path></g><g node-id="243"><path d="M 857.83 327.00 L 805.02 327.00 L 805.02 274.19 L 857.83 274.19 Z" fill="#fcf6e6" fill-rule="nonzero" group-id="3" node-id="186" stroke="none" target-height="52.809998" target-width="52.809998" target-x="805.0213" target-y="274.1928"></path></g><path d="M 330.07 194.93 L 382.88 194.93 L 382.88 247.74 L 330.07 247.74 Z" fill="#472712" fill-rule="nonzero" node-id="189" stroke="none" target-height="52.810013" target-width="52.809998" target-x="330.07" target-y="194.93"></path><path d="M 330.07 432.63 L 382.88 432.63 L 382.88 485.44 L 330.07 485.44 Z" fill="#fdfdfd" fill-rule="nonzero" node-id="191" stroke="none" target-height="52.809998" target-width="52.809998" target-x="330.07" target-y="432.63"></path><path d="M 330.07 485.30 L 382.88 485.30 L 382.88 538.11 L 330.07 538.11 Z" fill="#472712" fill-rule="nonzero" node-id="193" stroke="none" target-height="52.809998" target-width="52.809998" target-x="330.07" target-y="485.3"></path><path d="M 382.89 485.30 L 435.70 485.30 L 435.70 538.11 L 382.89 538.11 Z" fill="#472712" fill-rule="nonzero" node-id="195" stroke="none" target-height="52.809998" target-width="52.809998" target-x="382.89" target-y="485.3"></path><path d="M 382.89 432.63 L 435.70 432.63 L 435.70 485.44 L 382.89 485.44 Z" fill="#472712" fill-rule="nonzero" node-id="197" stroke="none" target-height="52.809998" target-width="52.809998" target-x="382.89" target-y="432.63"></path><path d="M 593.75 432.63 L 646.56 432.63 L 646.56 485.44 L 593.75 485.44 Z" fill="#fdfdfd" fill-rule="nonzero" node-id="199" stroke="none" target-height="52.809998" target-width="52.809998" target-x="593.75" target-y="432.63"></path><path d="M 593.75 485.30 L 646.56 485.30 L 646.56 538.11 L 593.75 538.11 Z" fill="#472712" fill-rule="nonzero" node-id="201" stroke="none" target-height="52.809998" target-width="52.809998" target-x="593.75" target-y="485.3"></path><path d="M 461.73 590.75 L 514.54 590.75 L 514.54 643.56 L 461.73 643.56 Z" fill="#472712" fill-rule="nonzero" node-id="203" stroke="none" target-height="52.809998" target-width="52.809967" target-x="461.73" target-y="590.75"></path><path d="M 514.54 590.75 L 567.35 590.75 L 567.35 643.56 L 514.54 643.56 Z" fill="#472712" fill-rule="nonzero" node-id="205" stroke="none" target-height="52.809998" target-width="52.809998" target-x="514.54" target-y="590.75"></path><path d="M 488.14 643.69 L 540.95 643.69 L 540.95 696.50 L 488.14 696.50 Z" fill="#472712" fill-rule="nonzero" node-id="207" stroke="none" target-height="52.809998" target-width="52.809998" target-x="488.14" target-y="643.69"></path><path d="M 435.32 696.50 L 488.13 696.50 L 488.13 749.31 L 435.32 749.31 Z" fill="#472712" fill-rule="nonzero" node-id="209" stroke="none" target-height="52.809998" target-width="52.809998" target-x="435.32" target-y="696.5"></path><path d="M 540.95 696.50 L 593.76 696.50 L 593.76 749.31 L 540.95 749.31 Z" fill="#472712" fill-rule="nonzero" node-id="211" stroke="none" target-height="52.809998" target-width="52.809998" target-x="540.95" target-y="696.5"></path><path d="M 593.75 643.69 L 646.56 643.69 L 646.56 696.50 L 593.75 696.50 Z" fill="#472712" fill-rule="nonzero" node-id="213" stroke="none" target-height="52.809998" target-width="52.809998" target-x="593.75" target-y="643.69"></path><path d="M 382.89 643.69 L 435.70 643.69 L 435.70 696.50 L 382.89 696.50 Z" fill="#472712" fill-rule="nonzero" node-id="215" stroke="none" target-height="52.809998" target-width="52.809998" target-x="382.89" target-y="643.69"></path><path d="M 646.57 485.30 L 699.38 485.30 L 699.38 538.11 L 646.57 538.11 Z" fill="#472712" fill-rule="nonzero" node-id="217" stroke="none" target-height="52.809998" target-width="52.809998" target-x="646.57" target-y="485.3"></path><path d="M 646.57 432.63 L 699.38 432.63 L 699.38 485.44 L 646.57 485.44 Z" fill="#472712" fill-rule="nonzero" node-id="219" stroke="none" target-height="52.809998" target-width="52.809998" target-x="646.57" target-y="432.63"></path><path d="M 382.89 142.15 L 435.70 142.15 L 435.70 194.96 L 382.89 194.96 Z" fill="#472712" fill-rule="nonzero" node-id="221" stroke="none" target-height="52.810013" target-width="52.809998" target-x="382.89" target-y="142.15"></path><path d="M 435.32 142.15 L 488.13 142.15 L 488.13 194.96 L 435.32 194.96 Z" fill="#472712" fill-rule="nonzero" node-id="223" stroke="none" target-height="52.810013" target-width="52.809998" target-x="435.32" target-y="142.15"></path><path d="M 488.14 142.15 L 540.95 142.15 L 540.95 194.96 L 488.14 194.96 Z" fill="#472712" fill-rule="nonzero" node-id="225" stroke="none" target-height="52.810013" target-width="52.809998" target-x="488.14" target-y="142.15"></path><path d="M 540.95 142.15 L 593.76 142.15 L 593.76 194.96 L 540.95 194.96 Z" fill="#472712" fill-rule="nonzero" node-id="227" stroke="none" target-height="52.810013" target-width="52.809998" target-x="540.95" target-y="142.15"></path><path d="M 593.77 142.15 L 646.58 142.15 L 646.58 194.96 L 593.77 194.96 Z" fill="#472712" fill-rule="nonzero" node-id="229" stroke="none" target-height="52.810013" target-width="52.809998" target-x="593.77" target-y="142.15"></path><path d="M 646.58 194.93 L 699.39 194.93 L 699.39 247.74 L 646.58 247.74 Z" fill="#472712" fill-rule="nonzero" node-id="231" stroke="none" target-height="52.810013" target-width="52.809998" target-x="646.58" target-y="194.93"></path><path d="M 699.40 168.56 L 752.21 168.56 L 752.21 221.37 L 699.40 221.37 Z" fill="#472712" fill-rule="nonzero" node-id="233" stroke="none" target-height="52.809998" target-width="52.809998" target-x="699.4" target-y="168.56"></path><path d="M 752.21 115.75 L 805.02 115.75 L 805.02 168.56 L 752.21 168.56 Z" fill="#472712" fill-rule="nonzero" node-id="235" stroke="none" target-height="52.809998" target-width="52.809998" target-x="752.21" target-y="115.75"></path><path d="M 805.03 115.75 L 857.84 115.75 L 857.84 168.56 L 805.03 168.56 Z" fill="#472712" fill-rule="nonzero" node-id="237" stroke="none" target-height="52.809998" target-width="52.809998" target-x="805.03" target-y="115.75"></path><path d="M 857.84 115.75 L 910.65 115.75 L 910.65 168.56 L 857.84 168.56 Z" fill="#472712" fill-rule="nonzero" node-id="239" stroke="none" target-height="52.809998" target-width="52.809998" target-x="857.84" target-y="115.75"></path></svg>