<?xml version="1.0" standalone="no"?><!DOCTYPE svg PUBLIC "-//W3C//DTD SVG 1.1//EN" "http://www.w3.org/Graphics/SVG/1.1/DTD/svg11.dtd"><svg height="1024" node-id="1" sillyvg="true" template-height="1024" template-width="1024" version="1.1" viewBox="0 0 1024 1024" width="1024" xmlns="http://www.w3.org/2000/svg" xmlns:xlink="http://www.w3.org/1999/xlink"><defs node-id="86"></defs><path d="M 433.88 301.67 L 275.43 301.67 L 275.43 354.49 L 222.62 354.49 L 222.62 460.11 L 169.80 460.11 L 169.80 724.16 L 222.22 724.16 L 222.22 776.73 L 274.79 776.73 L 274.79 829.55 L 380.42 829.55 L 380.42 882.36 L 643.90 882.36 L 643.90 829.55 L 749.53 829.55 L 749.53 776.73 L 802.35 776.73 L 802.35 723.92 L 855.16 723.92 L 855.16 459.90 L 803.56 459.90 L 803.56 354.49 L 750.75 354.49 L 750.75 301.67 L 592.32 301.67 L 592.32 354.49 L 539.51 354.49 L 539.51 407.30 L 486.69 407.30 L 486.69 354.49 L 433.88 354.49 Z" fill="#ffffff" fill-rule="nonzero" node-id="88" stroke="none" target-height="580.68994" target-width="685.36" target-x="169.8" target-y="301.67"></path><path d="M 433.88 143.23 L 381.06 143.23 L 381.06 248.86 L 433.88 248.86 L 433.88 301.67 L 486.69 301.67 L 486.69 354.49 L 539.51 354.49 L 539.51 301.67 L 592.32 301.67 L 592.32 248.86 L 645.14 248.86 L 645.14 143.23 L 592.32 143.23 L 592.32 196.04 L 539.51 196.04 L 539.51 143.23 L 486.69 143.23 L 486.69 196.04 L 433.88 196.04 Z" fill="#fd8383" fill-rule="nonzero" node-id="90" stroke="none" target-height="211.26" target-width="264.08002" target-x="381.06" target-y="143.23"></path><path d="M 381.06 90.41 L 433.87 90.41 L 433.87 143.22 L 381.06 143.22 Z" fill="#472712" fill-rule="nonzero" node-id="92" stroke="none" target-height="52.809998" target-width="52.809998" target-x="381.06" target-y="90.41"></path><path d="M 328.25 143.23 L 381.06 143.23 L 381.06 196.04 L 328.25 196.04 Z" fill="#472712" fill-rule="nonzero" node-id="94" stroke="none" target-height="52.809998" target-width="52.809998" target-x="328.25" target-y="143.23"></path><path d="M 433.88 143.23 L 486.69 143.23 L 486.69 196.04 L 433.88 196.04 Z" fill="#472712" fill-rule="nonzero" node-id="96" stroke="none" target-height="52.809998" target-width="52.809998" target-x="433.88" target-y="143.23"></path><path d="M 539.51 143.23 L 592.32 143.23 L 592.32 196.04 L 539.51 196.04 Z" fill="#472712" fill-rule="nonzero" node-id="98" stroke="none" target-height="52.809998" target-width="52.809998" target-x="539.51" target-y="143.23"></path><path d="M 328.25 196.04 L 381.06 196.04 L 381.06 248.85 L 328.25 248.85 Z" fill="#472712" fill-rule="nonzero" node-id="100" stroke="none" target-height="52.810013" target-width="52.809998" target-x="328.25" target-y="196.04"></path><path d="M 328.25 248.86 L 381.06 248.86 L 381.06 301.67 L 328.25 301.67 Z" fill="#472712" fill-rule="nonzero" node-id="102" stroke="none" target-height="52.810013" target-width="52.809998" target-x="328.25" target-y="248.86"></path><path d="M 275.43 248.86 L 328.24 248.86 L 328.24 301.67 L 275.43 301.67 Z" fill="#472712" fill-rule="nonzero" node-id="104" stroke="none" target-height="52.810013" target-width="52.809998" target-x="275.43" target-y="248.86"></path><path d="M 697.95 248.86 L 750.76 248.86 L 750.76 301.67 L 697.95 301.67 Z" fill="#472712" fill-rule="nonzero" node-id="106" stroke="none" target-height="52.810013" target-width="52.809998" target-x="697.95" target-y="248.86"></path><path d="M 222.62 301.67 L 275.43 301.67 L 275.43 354.48 L 222.62 354.48 Z" fill="#472712" fill-rule="nonzero" node-id="108" stroke="none" target-height="52.809998" target-width="52.809998" target-x="222.62" target-y="301.67"></path><path d="M 750.75 301.67 L 803.56 301.67 L 803.56 354.48 L 750.75 354.48 Z" fill="#472712" fill-rule="nonzero" node-id="110" stroke="none" target-height="52.809998" target-width="52.809998" target-x="750.75" target-y="301.67"></path><path d="M 169.80 354.49 L 222.61 354.49 L 222.61 407.30 L 169.80 407.30 Z" fill="#472712" fill-rule="nonzero" node-id="112" stroke="none" target-height="52.809998" target-width="52.809998" target-x="169.8" target-y="354.49"></path><path d="M 169.80 407.30 L 222.61 407.30 L 222.61 460.11 L 169.80 460.11 Z" fill="#472712" fill-rule="nonzero" node-id="114" stroke="none" target-height="52.809998" target-width="52.809998" target-x="169.8" target-y="407.3"></path><path d="M 803.56 354.49 L 856.37 354.49 L 856.37 407.30 L 803.56 407.30 Z" fill="#472712" fill-rule="nonzero" node-id="116" stroke="none" target-height="52.809998" target-width="52.809998" target-x="803.56" target-y="354.49"></path><path d="M 803.56 407.30 L 856.37 407.30 L 856.37 460.11 L 803.56 460.11 Z" fill="#472712" fill-rule="nonzero" node-id="118" stroke="none" target-height="52.809998" target-width="52.809998" target-x="803.56" target-y="407.3"></path><path d="M 116.99 407.30 L 169.80 407.30 L 169.80 460.11 L 116.99 460.11 Z" fill="#472712" fill-rule="nonzero" node-id="120" stroke="none" target-height="52.809998" target-width="52.810005" target-x="116.99" target-y="407.3"></path><path d="M 116.99 460.11 L 169.80 460.11 L 169.80 512.92 L 116.99 512.92 Z" fill="#472712" fill-rule="nonzero" node-id="122" stroke="none" target-height="52.809998" target-width="52.810005" target-x="116.99" target-y="460.11"></path><path d="M 116.99 512.90 L 169.80 512.90 L 169.80 565.71 L 116.99 565.71 Z" fill="#472712" fill-rule="nonzero" node-id="124" stroke="none" target-height="52.809998" target-width="52.810005" target-x="116.99" target-y="512.9"></path><path d="M 116.99 565.72 L 169.80 565.72 L 169.80 618.53 L 116.99 618.53 Z" fill="#472712" fill-rule="nonzero" node-id="126" stroke="none" target-height="52.81006" target-width="52.810005" target-x="116.99" target-y="565.72"></path><path d="M 116.99 618.53 L 169.80 618.53 L 169.80 671.34 L 116.99 671.34 Z" fill="#472712" fill-rule="nonzero" node-id="128" stroke="none" target-height="52.809998" target-width="52.810005" target-x="116.99" target-y="618.53"></path><path d="M 116.99 671.32 L 169.80 671.32 L 169.80 724.13 L 116.99 724.13 Z" fill="#472712" fill-rule="nonzero" node-id="130" stroke="none" target-height="52.809998" target-width="52.810005" target-x="116.99" target-y="671.32"></path><path d="M 855.16 407.08 L 907.97 407.08 L 907.97 459.89 L 855.16 459.89 Z" fill="#472712" fill-rule="nonzero" node-id="132" stroke="none" target-height="52.810028" target-width="52.809998" target-x="855.16" target-y="407.08"></path><path d="M 855.16 459.90 L 907.97 459.90 L 907.97 512.71 L 855.16 512.71 Z" fill="#472712" fill-rule="nonzero" node-id="134" stroke="none" target-height="52.810028" target-width="52.809998" target-x="855.16" target-y="459.9"></path><path d="M 855.16 512.68 L 907.97 512.68 L 907.97 565.49 L 855.16 565.49 Z" fill="#472712" fill-rule="nonzero" node-id="136" stroke="none" target-height="52.809998" target-width="52.809998" target-x="855.16" target-y="512.68"></path><path d="M 855.16 565.50 L 907.97 565.50 L 907.97 618.31 L 855.16 618.31 Z" fill="#472712" fill-rule="nonzero" node-id="138" stroke="none" target-height="52.809998" target-width="52.809998" target-x="855.16" target-y="565.5"></path><path d="M 855.16 618.31 L 907.97 618.31 L 907.97 671.12 L 855.16 671.12 Z" fill="#472712" fill-rule="nonzero" node-id="140" stroke="none" target-height="52.809998" target-width="52.809998" target-x="855.16" target-y="618.31"></path><path d="M 855.16 671.10 L 907.97 671.10 L 907.97 723.91 L 855.16 723.91 Z" fill="#472712" fill-rule="nonzero" node-id="142" stroke="none" target-height="52.809998" target-width="52.809998" target-x="855.16" target-y="671.1"></path><path d="M 169.40 724.16 L 222.21 724.16 L 222.21 776.97 L 169.40 776.97 Z" fill="#472712" fill-rule="nonzero" node-id="144" stroke="none" target-height="52.809998" target-width="52.810013" target-x="169.4" target-y="724.16"></path><path d="M 221.97 776.73 L 274.78 776.73 L 274.78 829.54 L 221.97 829.54 Z" fill="#472712" fill-rule="nonzero" node-id="146" stroke="none" target-height="52.809998" target-width="52.809998" target-x="221.97" target-y="776.73"></path><path d="M 274.79 829.55 L 327.60 829.55 L 327.60 882.36 L 274.79 882.36 Z" fill="#472712" fill-rule="nonzero" node-id="148" stroke="none" target-height="52.809998" target-width="52.809998" target-x="274.79" target-y="829.55"></path><path d="M 327.60 829.55 L 380.41 829.55 L 380.41 882.36 L 327.60 882.36 Z" fill="#472712" fill-rule="nonzero" node-id="150" stroke="none" target-height="52.809998" target-width="52.809998" target-x="327.6" target-y="829.55"></path><path d="M 380.42 882.36 L 433.23 882.36 L 433.23 935.17 L 380.42 935.17 Z" fill="#472712" fill-rule="nonzero" node-id="152" stroke="none" target-height="52.809998" target-width="52.809998" target-x="380.42" target-y="882.36"></path><path d="M 432.65 882.36 L 485.46 882.36 L 485.46 935.17 L 432.65 935.17 Z" fill="#472712" fill-rule="nonzero" node-id="154" stroke="none" target-height="52.809998" target-width="52.809998" target-x="432.65" target-y="882.36"></path><path d="M 485.46 882.36 L 538.27 882.36 L 538.27 935.17 L 485.46 935.17 Z" fill="#472712" fill-rule="nonzero" node-id="156" stroke="none" target-height="52.809998" target-width="52.810028" target-x="485.46" target-y="882.36"></path><path d="M 538.27 882.36 L 591.08 882.36 L 591.08 935.17 L 538.27 935.17 Z" fill="#472712" fill-rule="nonzero" node-id="158" stroke="none" target-height="52.809998" target-width="52.809998" target-x="538.27" target-y="882.36"></path><path d="M 591.09 882.36 L 643.90 882.36 L 643.90 935.17 L 591.09 935.17 Z" fill="#472712" fill-rule="nonzero" node-id="160" stroke="none" target-height="52.809998" target-width="52.809998" target-x="591.09" target-y="882.36"></path><path d="M 643.90 829.55 L 696.71 829.55 L 696.71 882.36 L 643.90 882.36 Z" fill="#472712" fill-rule="nonzero" node-id="162" stroke="none" target-height="52.809998" target-width="52.809998" target-x="643.9" target-y="829.55"></path><path d="M 696.72 829.55 L 749.53 829.55 L 749.53 882.36 L 696.72 882.36 Z" fill="#472712" fill-rule="nonzero" node-id="164" stroke="none" target-height="52.809998" target-width="52.81006" target-x="696.72" target-y="829.55"></path><path d="M 749.53 776.73 L 802.34 776.73 L 802.34 829.54 L 749.53 829.54 Z" fill="#472712" fill-rule="nonzero" node-id="166" stroke="none" target-height="52.809998" target-width="52.809998" target-x="749.53" target-y="776.73"></path><path d="M 802.35 723.92 L 855.16 723.92 L 855.16 776.73 L 802.35 776.73 Z" fill="#472712" fill-rule="nonzero" node-id="168" stroke="none" target-height="52.809998" target-width="52.809998" target-x="802.35" target-y="723.92"></path><path d="M 645.14 143.23 L 697.95 143.23 L 697.95 196.04 L 645.14 196.04 Z" fill="#472712" fill-rule="nonzero" node-id="170" stroke="none" target-height="52.809998" target-width="52.809998" target-x="645.14" target-y="143.23"></path><path d="M 645.14 196.04 L 697.95 196.04 L 697.95 248.85 L 645.14 248.85 Z" fill="#472712" fill-rule="nonzero" node-id="172" stroke="none" target-height="52.810013" target-width="52.809998" target-x="645.14" target-y="196.04"></path><path d="M 645.14 248.86 L 697.95 248.86 L 697.95 301.67 L 645.14 301.67 Z" fill="#472712" fill-rule="nonzero" node-id="174" stroke="none" target-height="52.810013" target-width="52.809998" target-x="645.14" target-y="248.86"></path><path d="M 381.06 248.86 L 433.87 248.86 L 433.87 301.67 L 381.06 301.67 Z" fill="#472712" fill-rule="nonzero" node-id="176" stroke="none" target-height="52.810013" target-width="52.809998" target-x="381.06" target-y="248.86"></path><path d="M 275.43 451.62 L 328.24 451.62 L 328.24 504.43 L 275.43 504.43 Z" fill="#472712" fill-rule="nonzero" node-id="178" stroke="none" target-height="52.809998" target-width="52.809998" target-x="275.43" target-y="451.62"></path><path d="M 328.25 451.62 L 381.06 451.62 L 381.06 504.43 L 328.25 504.43 Z" fill="#ede9e6" fill-rule="nonzero" node-id="180" stroke="none" target-height="52.809998" target-width="52.809998" target-x="328.25" target-y="451.62"></path><path d="M 275.43 504.43 L 328.24 504.43 L 328.24 557.24 L 275.43 557.24 Z" fill="#472712" fill-rule="nonzero" node-id="182" stroke="none" target-height="52.809998" target-width="52.809998" target-x="275.43" target-y="504.43"></path><path d="M 328.25 504.43 L 381.06 504.43 L 381.06 557.24 L 328.25 557.24 Z" fill="#472712" fill-rule="nonzero" node-id="184" stroke="none" target-height="52.809998" target-width="52.809998" target-x="328.25" target-y="504.43"></path><path d="M 643.14 451.62 L 695.95 451.62 L 695.95 504.43 L 643.14 504.43 Z" fill="#472712" fill-rule="nonzero" node-id="186" stroke="none" target-height="52.809998" target-width="52.809998" target-x="643.14" target-y="451.62"></path><path d="M 695.95 451.62 L 748.76 451.62 L 748.76 504.43 L 695.95 504.43 Z" fill="#ede9e6" fill-rule="nonzero" node-id="188" stroke="none" target-height="52.809998" target-width="52.809998" target-x="695.95" target-y="451.62"></path><path d="M 643.14 504.43 L 695.95 504.43 L 695.95 557.24 L 643.14 557.24 Z" fill="#472712" fill-rule="nonzero" node-id="190" stroke="none" target-height="52.809998" target-width="52.809998" target-x="643.14" target-y="504.43"></path><path d="M 695.95 504.43 L 748.76 504.43 L 748.76 557.24 L 695.95 557.24 Z" fill="#472712" fill-rule="nonzero" node-id="192" stroke="none" target-height="52.809998" target-width="52.809998" target-x="695.95" target-y="504.43"></path><path d="M 592.32 248.86 L 645.13 248.86 L 645.13 301.67 L 592.32 301.67 Z" fill="#472712" fill-rule="nonzero" node-id="194" stroke="none" target-height="52.810013" target-width="52.809998" target-x="592.32" target-y="248.86"></path><path d="M 539.51 301.67 L 592.32 301.67 L 592.32 354.48 L 539.51 354.48 Z" fill="#472712" fill-rule="nonzero" node-id="196" stroke="none" target-height="52.809998" target-width="52.809998" target-x="539.51" target-y="301.67"></path><path d="M 433.88 301.67 L 486.69 301.67 L 486.69 354.48 L 433.88 354.48 Z" fill="#472712" fill-rule="nonzero" node-id="198" stroke="none" target-height="52.809998" target-width="52.809998" target-x="433.88" target-y="301.67"></path><path d="M 486.69 354.49 L 539.50 354.49 L 539.50 407.30 L 486.69 407.30 Z" fill="#472712" fill-rule="nonzero" node-id="200" stroke="none" target-height="52.809998" target-width="52.809998" target-x="486.69" target-y="354.49"></path><path d="M 459.53 502.60 L 512.34 502.60 L 512.34 555.41 L 459.53 555.41 Z" fill="#472712" fill-rule="nonzero" node-id="202" stroke="none" target-height="52.809967" target-width="52.810028" target-x="459.53" target-y="502.6"></path><path d="M 512.35 502.60 L 565.16 502.60 L 565.16 555.41 L 512.35 555.41 Z" fill="#472712" fill-rule="nonzero" node-id="204" stroke="none" target-height="52.809967" target-width="52.809998" target-x="512.35" target-y="502.6"></path><path d="M 459.53 555.42 L 512.34 555.42 L 512.34 608.23 L 459.53 608.23 Z" fill="#e09027" fill-rule="nonzero" node-id="206" stroke="none" target-height="52.809998" target-width="52.810028" target-x="459.53" target-y="555.42"></path><path d="M 406.72 555.42 L 459.53 555.42 L 459.53 608.23 L 406.72 608.23 Z" fill="#472712" fill-rule="nonzero" node-id="208" stroke="none" target-height="52.809998" target-width="52.809998" target-x="406.72" target-y="555.42"></path><path d="M 512.35 555.42 L 565.16 555.42 L 565.16 608.23 L 512.35 608.23 Z" fill="#e09027" fill-rule="nonzero" node-id="210" stroke="none" target-height="52.809998" target-width="52.809998" target-x="512.35" target-y="555.42"></path><path d="M 565.16 555.42 L 617.97 555.42 L 617.97 608.23 L 565.16 608.23 Z" fill="#472712" fill-rule="nonzero" node-id="212" stroke="none" target-height="52.809998" target-width="52.809998" target-x="565.16" target-y="555.42"></path><path d="M 459.53 608.23 L 512.34 608.23 L 512.34 661.04 L 459.53 661.04 Z" fill="#472712" fill-rule="nonzero" node-id="214" stroke="none" target-height="52.809998" target-width="52.810028" target-x="459.53" target-y="608.23"></path><path d="M 485.94 661.05 L 538.75 661.05 L 538.75 713.86 L 485.94 713.86 Z" fill="#ed7f7c" fill-rule="nonzero" node-id="216" stroke="none" target-height="52.809998" target-width="52.809998" target-x="485.94" target-y="661.05"></path><path d="M 485.94 713.82 L 538.75 713.82 L 538.75 766.63 L 485.94 766.63 Z" fill="#ed7f7c" fill-rule="nonzero" node-id="218" stroke="none" target-height="52.809998" target-width="52.809998" target-x="485.94" target-y="713.82"></path><path d="M 485.94 766.58 L 538.75 766.58 L 538.75 819.39 L 485.94 819.39 Z" fill="#ed7f7c" fill-rule="nonzero" node-id="220" stroke="none" target-height="52.809998" target-width="52.809998" target-x="485.94" target-y="766.58"></path><path d="M 485.94 819.40 L 538.75 819.40 L 538.75 872.21 L 485.94 872.21 Z" fill="#472712" fill-rule="nonzero" node-id="222" stroke="none" target-height="52.809998" target-width="52.809998" target-x="485.94" target-y="819.4"></path><path d="M 433.13 661.05 L 485.94 661.05 L 485.94 713.86 L 433.13 713.86 Z" fill="#472712" fill-rule="nonzero" node-id="224" stroke="none" target-height="52.809998" target-width="52.809998" target-x="433.13" target-y="661.05"></path><path d="M 433.13 713.82 L 485.94 713.82 L 485.94 766.63 L 433.13 766.63 Z" fill="#472712" fill-rule="nonzero" node-id="226" stroke="none" target-height="52.809998" target-width="52.809998" target-x="433.13" target-y="713.82"></path><path d="M 433.13 766.58 L 485.94 766.58 L 485.94 819.39 L 433.13 819.39 Z" fill="#472712" fill-rule="nonzero" node-id="228" stroke="none" target-height="52.809998" target-width="52.809998" target-x="433.13" target-y="766.58"></path><path d="M 433.13 819.40 L 485.94 819.40 L 485.94 872.21 L 433.13 872.21 Z" fill="#472712" fill-rule="nonzero" node-id="230" stroke="none" target-height="52.809998" target-width="52.809998" target-x="433.13" target-y="819.4"></path><path d="M 538.76 661.05 L 591.57 661.05 L 591.57 713.86 L 538.76 713.86 Z" fill="#472712" fill-rule="nonzero" node-id="232" stroke="none" target-height="52.809998" target-width="52.809998" target-x="538.76" target-y="661.05"></path><path d="M 538.76 713.82 L 591.57 713.82 L 591.57 766.63 L 538.76 766.63 Z" fill="#472712" fill-rule="nonzero" node-id="234" stroke="none" target-height="52.809998" target-width="52.809998" target-x="538.76" target-y="713.82"></path><path d="M 538.76 766.58 L 591.57 766.58 L 591.57 819.39 L 538.76 819.39 Z" fill="#472712" fill-rule="nonzero" node-id="236" stroke="none" target-height="52.809998" target-width="52.809998" target-x="538.76" target-y="766.58"></path><path d="M 538.76 819.40 L 591.57 819.40 L 591.57 872.21 L 538.76 872.21 Z" fill="#472712" fill-rule="nonzero" node-id="238" stroke="none" target-height="52.809998" target-width="52.809998" target-x="538.76" target-y="819.4"></path><path d="M 406.72 608.23 L 459.53 608.23 L 459.53 661.04 L 406.72 661.04 Z" fill="#472712" fill-rule="nonzero" node-id="240" stroke="none" target-height="52.809998" target-width="52.809998" target-x="406.72" target-y="608.23"></path><path d="M 512.35 608.23 L 565.16 608.23 L 565.16 661.04 L 512.35 661.04 Z" fill="#472712" fill-rule="nonzero" node-id="242" stroke="none" target-height="52.809998" target-width="52.809998" target-x="512.35" target-y="608.23"></path><path d="M 565.16 608.23 L 617.97 608.23 L 617.97 661.04 L 565.16 661.04 Z" fill="#472712" fill-rule="nonzero" node-id="244" stroke="none" target-height="52.809998" target-width="52.809998" target-x="565.16" target-y="608.23"></path><path d="M 486.69 90.41 L 539.50 90.41 L 539.50 143.22 L 486.69 143.22 Z" fill="#472712" fill-rule="nonzero" node-id="246" stroke="none" target-height="52.809998" target-width="52.809998" target-x="486.69" target-y="90.41"></path><path d="M 592.32 90.41 L 645.13 90.41 L 645.13 143.22 L 592.32 143.22 Z" fill="#472712" fill-rule="nonzero" node-id="248" stroke="none" target-height="52.809998" target-width="52.809998" target-x="592.32" target-y="90.41"></path></svg>