<?xml version="1.0" standalone="no"?><!DOCTYPE svg PUBLIC "-//W3C//DTD SVG 1.1//EN" "http://www.w3.org/Graphics/SVG/1.1/DTD/svg11.dtd"><svg height="1024" node-id="1" sillyvg="true" template-height="1024" template-width="1024" version="1.1" viewBox="0 0 1024 1024" width="1024" xmlns="http://www.w3.org/2000/svg" xmlns:xlink="http://www.w3.org/1999/xlink"><defs node-id="110"></defs><path d="M 446.97 382.47 L 360.86 382.47 L 360.86 425.53 L 317.80 425.53 L 317.80 468.58 L 274.75 468.58 L 274.75 683.64 L 317.80 683.64 L 317.80 726.71 L 403.91 726.71 L 403.91 769.77 L 619.19 769.77 L 619.19 726.70 L 705.30 726.70 L 705.30 683.64 L 748.36 683.64 L 748.36 468.58 L 705.30 468.58 L 705.30 425.53 L 662.25 425.53 L 662.25 382.47 L 576.14 382.47 L 576.14 425.53 L 533.08 425.53 L 533.08 468.58 L 490.02 468.58 L 490.02 425.53 L 446.97 425.53 Z" fill="#fdf3c9" fill-rule="nonzero" node-id="112" stroke="none" target-height="387.30002" target-width="473.61" target-x="274.75" target-y="382.47"></path><path d="M 360.86 253.17 L 403.92 253.17 L 403.92 296.23 L 360.86 296.23 Z" fill="#472712" fill-rule="nonzero" node-id="114" stroke="none" target-height="43.060013" target-width="43.060028" target-x="360.86" target-y="253.17"></path><path d="M 317.80 253.17 L 360.86 253.17 L 360.86 296.23 L 317.80 296.23 Z" fill="#472712" fill-rule="nonzero" node-id="116" stroke="none" target-height="43.060013" target-width="43.059998" target-x="317.8" target-y="253.17"></path><path d="M 274.75 296.22 L 317.81 296.22 L 317.81 339.28 L 274.75 339.28 Z" fill="#472712" fill-rule="nonzero" node-id="118" stroke="none" target-height="43.059998" target-width="43.059998" target-x="274.75" target-y="296.22"></path><path d="M 231.69 339.28 L 274.75 339.28 L 274.75 382.34 L 231.69 382.34 Z" fill="#472712" fill-rule="nonzero" node-id="120" stroke="none" target-height="43.059998" target-width="43.059998" target-x="231.69" target-y="339.28"></path><path d="M 188.64 339.28 L 231.70 339.28 L 231.70 382.34 L 188.64 382.34 Z" fill="#472712" fill-rule="nonzero" node-id="122" stroke="none" target-height="43.059998" target-width="43.059998" target-x="188.64" target-y="339.28"></path><path d="M 145.58 382.33 L 188.64 382.33 L 188.64 425.39 L 145.58 425.39 Z" fill="#472712" fill-rule="nonzero" node-id="124" stroke="none" target-height="43.060028" target-width="43.059998" target-x="145.58" target-y="382.33"></path><path d="M 102.52 382.33 L 145.58 382.33 L 145.58 425.39 L 102.52 425.39 Z" fill="#472712" fill-rule="nonzero" node-id="126" stroke="none" target-height="43.060028" target-width="43.060005" target-x="102.52" target-y="382.33"></path><path d="M 102.52 425.44 L 145.58 425.44 L 145.58 468.50 L 102.52 468.50 Z" fill="#fdf3c9" fill-rule="nonzero" node-id="128" stroke="none" target-height="43.059998" target-width="43.060005" target-x="102.52" target-y="425.44"></path><path d="M 145.55 425.44 L 188.61 425.44 L 188.61 468.50 L 145.55 468.50 Z" fill="#fdf3c9" fill-rule="nonzero" node-id="130" stroke="none" target-height="43.059998" target-width="43.059998" target-x="145.55" target-y="425.44"></path><path d="M 102.52 468.56 L 145.58 468.56 L 145.58 511.62 L 102.52 511.62 Z" fill="#fdf3c9" fill-rule="nonzero" node-id="132" stroke="none" target-height="43.059998" target-width="43.060005" target-x="102.52" target-y="468.56"></path><path d="M 145.55 468.56 L 188.61 468.56 L 188.61 511.62 L 145.55 511.62 Z" fill="#fdf3c9" fill-rule="nonzero" node-id="134" stroke="none" target-height="43.059998" target-width="43.059998" target-x="145.55" target-y="468.56"></path><path d="M 102.52 511.40 L 145.58 511.40 L 145.58 554.46 L 102.52 554.46 Z" fill="#fdf3c9" fill-rule="nonzero" node-id="136" stroke="none" target-height="43.060028" target-width="43.060005" target-x="102.52" target-y="511.4"></path><path d="M 145.55 511.40 L 188.61 511.40 L 188.61 554.46 L 145.55 554.46 Z" fill="#fdf3c9" fill-rule="nonzero" node-id="138" stroke="none" target-height="43.060028" target-width="43.059998" target-x="145.55" target-y="511.4"></path><path d="M 102.52 554.51 L 145.58 554.51 L 145.58 597.57 L 102.52 597.57 Z" fill="#fdf3c9" fill-rule="nonzero" node-id="140" stroke="none" target-height="43.059998" target-width="43.060005" target-x="102.52" target-y="554.51"></path><path d="M 145.55 554.51 L 188.61 554.51 L 188.61 597.57 L 145.55 597.57 Z" fill="#fdf3c9" fill-rule="nonzero" node-id="142" stroke="none" target-height="43.059998" target-width="43.059998" target-x="145.55" target-y="554.51"></path><path d="M 145.55 597.62 L 188.61 597.62 L 188.61 640.68 L 145.55 640.68 Z" fill="#fdf3c9" fill-rule="nonzero" node-id="144" stroke="none" target-height="43.059998" target-width="43.059998" target-x="145.55" target-y="597.62"></path><path d="M 59.44 425.44 L 102.50 425.44 L 102.50 468.50 L 59.44 468.50 Z" fill="#472712" fill-rule="nonzero" node-id="146" stroke="none" target-height="43.059998" target-width="43.06" target-x="59.44" target-y="425.44"></path><path d="M 59.44 468.37 L 102.50 468.37 L 102.50 511.43 L 59.44 511.43 Z" fill="#472712" fill-rule="nonzero" node-id="148" stroke="none" target-height="43.059998" target-width="43.06" target-x="59.44" target-y="468.37"></path><path d="M 59.44 511.43 L 102.50 511.43 L 102.50 554.49 L 59.44 554.49 Z" fill="#472712" fill-rule="nonzero" node-id="150" stroke="none" target-height="43.059998" target-width="43.06" target-x="59.44" target-y="511.43"></path><path d="M 59.44 554.49 L 102.50 554.49 L 102.50 597.55 L 59.44 597.55 Z" fill="#472712" fill-rule="nonzero" node-id="152" stroke="none" target-height="43.059998" target-width="43.06" target-x="59.44" target-y="554.49"></path><path d="M 102.50 597.55 L 145.56 597.55 L 145.56 640.61 L 102.50 640.61 Z" fill="#472712" fill-rule="nonzero" node-id="154" stroke="none" target-height="43.059998" target-width="43.059998" target-x="102.5" target-y="597.55"></path><path d="M 188.63 640.60 L 231.69 640.60 L 231.69 683.66 L 188.63 683.66 Z" fill="#472712" fill-rule="nonzero" node-id="156" stroke="none" target-height="43.059998" target-width="43.059998" target-x="188.63" target-y="640.6"></path><path d="M 231.69 683.66 L 274.75 683.66 L 274.75 726.72 L 231.69 726.72 Z" fill="#472712" fill-rule="nonzero" node-id="158" stroke="none" target-height="43.059998" target-width="43.059998" target-x="231.69" target-y="683.66"></path><path d="M 274.75 683.66 L 317.81 683.66 L 317.81 726.72 L 274.75 726.72 Z" fill="#472712" fill-rule="nonzero" node-id="160" stroke="none" target-height="43.059998" target-width="43.059998" target-x="274.75" target-y="683.66"></path><path d="M 317.80 726.71 L 360.86 726.71 L 360.86 769.77 L 317.80 769.77 Z" fill="#472712" fill-rule="nonzero" node-id="162" stroke="none" target-height="43.059998" target-width="43.059998" target-x="317.8" target-y="726.71"></path><path d="M 360.86 726.71 L 403.92 726.71 L 403.92 769.77 L 360.86 769.77 Z" fill="#472712" fill-rule="nonzero" node-id="164" stroke="none" target-height="43.059998" target-width="43.060028" target-x="360.86" target-y="726.71"></path><path d="M 403.91 769.77 L 446.97 769.77 L 446.97 812.83 L 403.91 812.83 Z" fill="#472712" fill-rule="nonzero" node-id="166" stroke="none" target-height="43.059998" target-width="43.059998" target-x="403.91" target-y="769.77"></path><path d="M 446.97 769.77 L 490.03 769.77 L 490.03 812.83 L 446.97 812.83 Z" fill="#472712" fill-rule="nonzero" node-id="168" stroke="none" target-height="43.059998" target-width="43.059998" target-x="446.97" target-y="769.77"></path><path d="M 490.02 769.77 L 533.08 769.77 L 533.08 812.83 L 490.02 812.83 Z" fill="#472712" fill-rule="nonzero" node-id="170" stroke="none" target-height="43.059998" target-width="43.060028" target-x="490.02" target-y="769.77"></path><path d="M 533.08 769.75 L 576.14 769.75 L 576.14 812.81 L 533.08 812.81 Z" fill="#472712" fill-rule="nonzero" node-id="172" stroke="none" target-height="43.059998" target-width="43.059998" target-x="533.08" target-y="769.75"></path><path d="M 576.14 769.75 L 619.20 769.75 L 619.20 812.81 L 576.14 812.81 Z" fill="#472712" fill-rule="nonzero" node-id="174" stroke="none" target-height="43.059998" target-width="43.059998" target-x="576.14" target-y="769.75"></path><path d="M 619.19 726.70 L 662.25 726.70 L 662.25 769.76 L 619.19 769.76 Z" fill="#472712" fill-rule="nonzero" node-id="176" stroke="none" target-height="43.059998" target-width="43.059998" target-x="619.19" target-y="726.7"></path><path d="M 662.25 726.70 L 705.31 726.70 L 705.31 769.76 L 662.25 769.76 Z" fill="#472712" fill-rule="nonzero" node-id="178" stroke="none" target-height="43.059998" target-width="43.059998" target-x="662.25" target-y="726.7"></path><path d="M 705.30 683.64 L 748.36 683.64 L 748.36 726.70 L 705.30 726.70 Z" fill="#472712" fill-rule="nonzero" node-id="180" stroke="none" target-height="43.059998" target-width="43.059998" target-x="705.3" target-y="683.64"></path><path d="M 748.36 683.64 L 791.42 683.64 L 791.42 726.70 L 748.36 726.70 Z" fill="#472712" fill-rule="nonzero" node-id="182" stroke="none" target-height="43.059998" target-width="43.059998" target-x="748.36" target-y="683.64"></path><path d="M 791.41 640.59 L 834.47 640.59 L 834.47 683.65 L 791.41 683.65 Z" fill="#472712" fill-rule="nonzero" node-id="184" stroke="none" target-height="43.059998" target-width="43.059998" target-x="791.41" target-y="640.59"></path><path d="M 834.47 640.59 L 877.53 640.59 L 877.53 683.65 L 834.47 683.65 Z" fill="#472712" fill-rule="nonzero" node-id="186" stroke="none" target-height="43.059998" target-width="43.06006" target-x="834.47" target-y="640.59"></path><path d="M 877.53 597.53 L 920.59 597.53 L 920.59 640.59 L 877.53 640.59 Z" fill="#472712" fill-rule="nonzero" node-id="188" stroke="none" target-height="43.059998" target-width="43.059998" target-x="877.53" target-y="597.53"></path><path d="M 920.58 554.48 L 963.64 554.48 L 963.64 597.54 L 920.58 597.54 Z" fill="#472712" fill-rule="nonzero" node-id="190" stroke="none" target-height="43.059998" target-width="43.059998" target-x="920.58" target-y="554.48"></path><path d="M 920.58 511.42 L 963.64 511.42 L 963.64 554.48 L 920.58 554.48 Z" fill="#472712" fill-rule="nonzero" node-id="192" stroke="none" target-height="43.059967" target-width="43.059998" target-x="920.58" target-y="511.42"></path><path d="M 920.58 468.36 L 963.64 468.36 L 963.64 511.42 L 920.58 511.42 Z" fill="#472712" fill-rule="nonzero" node-id="194" stroke="none" target-height="43.060028" target-width="43.059998" target-x="920.58" target-y="468.36"></path><path d="M 920.58 425.31 L 963.64 425.31 L 963.64 468.37 L 920.58 468.37 Z" fill="#472712" fill-rule="nonzero" node-id="196" stroke="none" target-height="43.059998" target-width="43.059998" target-x="920.58" target-y="425.31"></path><path d="M 877.53 382.25 L 920.59 382.25 L 920.59 425.31 L 877.53 425.31 Z" fill="#472712" fill-rule="nonzero" node-id="198" stroke="none" target-height="43.059998" target-width="43.059998" target-x="877.53" target-y="382.25"></path><path d="M 834.47 382.25 L 877.53 382.25 L 877.53 425.31 L 834.47 425.31 Z" fill="#472712" fill-rule="nonzero" node-id="200" stroke="none" target-height="43.059998" target-width="43.06006" target-x="834.47" target-y="382.25"></path><path d="M 791.41 339.28 L 834.47 339.28 L 834.47 382.34 L 791.41 382.34 Z" fill="#472712" fill-rule="nonzero" node-id="202" stroke="none" target-height="43.059998" target-width="43.059998" target-x="791.41" target-y="339.28"></path><path d="M 748.36 339.28 L 791.42 339.28 L 791.42 382.34 L 748.36 382.34 Z" fill="#472712" fill-rule="nonzero" node-id="204" stroke="none" target-height="43.059998" target-width="43.059998" target-x="748.36" target-y="339.28"></path><path d="M 145.55 640.60 L 188.61 640.60 L 188.61 683.66 L 145.55 683.66 Z" fill="#472712" fill-rule="nonzero" node-id="206" stroke="none" target-height="43.059998" target-width="43.059998" target-x="145.55" target-y="640.6"></path><path d="M 403.91 210.11 L 446.97 210.11 L 446.97 253.17 L 403.91 253.17 Z" fill="#472712" fill-rule="nonzero" node-id="208" stroke="none" target-height="43.059998" target-width="43.059998" target-x="403.91" target-y="210.11"></path><path d="M 446.97 210.11 L 490.03 210.11 L 490.03 253.17 L 446.97 253.17 Z" fill="#472712" fill-rule="nonzero" node-id="210" stroke="none" target-height="43.059998" target-width="43.059998" target-x="446.97" target-y="210.11"></path><path d="M 490.02 210.11 L 533.08 210.11 L 533.08 253.17 L 490.02 253.17 Z" fill="#472712" fill-rule="nonzero" node-id="212" stroke="none" target-height="43.059998" target-width="43.060028" target-x="490.02" target-y="210.11"></path><path d="M 231.69 640.59 L 274.75 640.59 L 274.75 683.65 L 231.69 683.65 Z" fill="#472712" fill-rule="nonzero" node-id="214" stroke="none" target-height="43.059998" target-width="43.059998" target-x="231.69" target-y="640.59"></path><path d="M 231.69 597.55 L 274.75 597.55 L 274.75 640.61 L 231.69 640.61 Z" fill="#472712" fill-rule="nonzero" node-id="216" stroke="none" target-height="43.059998" target-width="43.059998" target-x="231.69" target-y="597.55"></path><path d="M 834.47 425.39 L 877.53 425.39 L 877.53 468.45 L 834.47 468.45 Z" fill="#fdf3c9" fill-rule="nonzero" node-id="218" stroke="none" target-height="43.059998" target-width="43.06006" target-x="834.47" target-y="425.39"></path><path d="M 834.47 468.45 L 877.53 468.45 L 877.53 511.51 L 834.47 511.51 Z" fill="#fdf3c9" fill-rule="nonzero" node-id="220" stroke="none" target-height="43.059998" target-width="43.06006" target-x="834.47" target-y="468.45"></path><path d="M 834.47 511.50 L 877.53 511.50 L 877.53 554.56 L 834.47 554.56 Z" fill="#fdf3c9" fill-rule="nonzero" node-id="222" stroke="none" target-height="43.059998" target-width="43.06006" target-x="834.47" target-y="511.5"></path><path d="M 834.47 554.56 L 877.53 554.56 L 877.53 597.62 L 834.47 597.62 Z" fill="#fdf3c9" fill-rule="nonzero" node-id="224" stroke="none" target-height="43.059998" target-width="43.06006" target-x="834.47" target-y="554.56"></path><path d="M 877.53 468.45 L 920.59 468.45 L 920.59 511.51 L 877.53 511.51 Z" fill="#fdf3c9" fill-rule="nonzero" node-id="226" stroke="none" target-height="43.059998" target-width="43.059998" target-x="877.53" target-y="468.45"></path><path d="M 877.53 425.35 L 920.59 425.35 L 920.59 468.41 L 877.53 468.41 Z" fill="#fdf3c9" fill-rule="nonzero" node-id="228" stroke="none" target-height="43.059998" target-width="43.059998" target-x="877.53" target-y="425.35"></path><path d="M 877.53 511.50 L 920.59 511.50 L 920.59 554.56 L 877.53 554.56 Z" fill="#fdf3c9" fill-rule="nonzero" node-id="230" stroke="none" target-height="43.059998" target-width="43.059998" target-x="877.53" target-y="511.5"></path><path d="M 877.53 554.56 L 920.59 554.56 L 920.59 597.62 L 877.53 597.62 Z" fill="#fdf3c9" fill-rule="nonzero" node-id="232" stroke="none" target-height="43.059998" target-width="43.059998" target-x="877.53" target-y="554.56"></path><path d="M 834.47 597.61 L 877.53 597.61 L 877.53 640.67 L 834.47 640.67 Z" fill="#fdf3c9" fill-rule="nonzero" node-id="234" stroke="none" target-height="43.059998" target-width="43.06006" target-x="834.47" target-y="597.61"></path><path d="M 231.69 554.49 L 274.75 554.49 L 274.75 597.55 L 231.69 597.55 Z" fill="#472712" fill-rule="nonzero" node-id="236" stroke="none" target-height="43.059998" target-width="43.059998" target-x="231.69" target-y="554.49"></path><path d="M 231.69 511.64 L 274.75 511.64 L 274.75 554.70 L 231.69 554.70 Z" fill="#472712" fill-rule="nonzero" node-id="238" stroke="none" target-height="43.059998" target-width="43.059998" target-x="231.69" target-y="511.64"></path><path d="M 231.69 468.58 L 274.75 468.58 L 274.75 511.64 L 231.69 511.64 Z" fill="#472712" fill-rule="nonzero" node-id="240" stroke="none" target-height="43.060028" target-width="43.059998" target-x="231.69" target-y="468.58"></path><path d="M 274.75 425.53 L 317.81 425.53 L 317.81 468.59 L 274.75 468.59 Z" fill="#472712" fill-rule="nonzero" node-id="242" stroke="none" target-height="43.059998" target-width="43.059998" target-x="274.75" target-y="425.53"></path><path d="M 317.80 382.47 L 360.86 382.47 L 360.86 425.53 L 317.80 425.53 Z" fill="#472712" fill-rule="nonzero" node-id="244" stroke="none" target-height="43.059998" target-width="43.059998" target-x="317.8" target-y="382.47"></path><path d="M 360.86 339.42 L 403.92 339.42 L 403.92 382.48 L 360.86 382.48 Z" fill="#472712" fill-rule="nonzero" node-id="246" stroke="none" target-height="43.059998" target-width="43.060028" target-x="360.86" target-y="339.42"></path><path d="M 403.91 339.42 L 446.97 339.42 L 446.97 382.48 L 403.91 382.48 Z" fill="#472712" fill-rule="nonzero" node-id="248" stroke="none" target-height="43.059998" target-width="43.059998" target-x="403.91" target-y="339.42"></path><path d="M 360.86 469.15 L 403.92 469.15 L 403.92 512.21 L 360.86 512.21 Z" fill="#472712" fill-rule="nonzero" node-id="250" stroke="none" target-height="43.060028" target-width="43.060028" target-x="360.86" target-y="469.15"></path><path d="M 403.91 469.15 L 446.97 469.15 L 446.97 512.21 L 403.91 512.21 Z" fill="#ffffff" fill-rule="nonzero" node-id="252" stroke="none" target-height="43.060028" target-width="43.059998" target-x="403.91" target-y="469.15"></path><path d="M 360.86 512.21 L 403.92 512.21 L 403.92 555.27 L 360.86 555.27 Z" fill="#472712" fill-rule="nonzero" node-id="254" stroke="none" target-height="43.059998" target-width="43.060028" target-x="360.86" target-y="512.21"></path><path d="M 403.91 512.21 L 446.97 512.21 L 446.97 555.27 L 403.91 555.27 Z" fill="#472712" fill-rule="nonzero" node-id="256" stroke="none" target-height="43.059998" target-width="43.059998" target-x="403.91" target-y="512.21"></path><path d="M 446.97 339.42 L 490.03 339.42 L 490.03 382.48 L 446.97 382.48 Z" fill="#472712" fill-rule="nonzero" node-id="258" stroke="none" target-height="43.059998" target-width="43.059998" target-x="446.97" target-y="339.42"></path><path d="M 446.97 382.47 L 490.03 382.47 L 490.03 425.53 L 446.97 425.53 Z" fill="#472712" fill-rule="nonzero" node-id="260" stroke="none" target-height="43.059998" target-width="43.059998" target-x="446.97" target-y="382.47"></path><path d="M 490.02 382.47 L 533.08 382.47 L 533.08 425.53 L 490.02 425.53 Z" fill="#472712" fill-rule="nonzero" node-id="262" stroke="none" target-height="43.059998" target-width="43.060028" target-x="490.02" target-y="382.47"></path><path d="M 490.02 425.53 L 533.08 425.53 L 533.08 468.59 L 490.02 468.59 Z" fill="#472712" fill-rule="nonzero" node-id="264" stroke="none" target-height="43.059998" target-width="43.060028" target-x="490.02" target-y="425.53"></path><path d="M 490.02 597.39 L 533.08 597.39 L 533.08 640.45 L 490.02 640.45 Z" fill="#472712" fill-rule="nonzero" node-id="266" stroke="none" target-height="43.059998" target-width="43.060028" target-x="490.02" target-y="597.39"></path><path d="M 533.08 640.45 L 576.14 640.45 L 576.14 683.51 L 533.08 683.51 Z" fill="#472712" fill-rule="nonzero" node-id="268" stroke="none" target-height="43.059998" target-width="43.059998" target-x="533.08" target-y="640.45"></path><path d="M 576.14 597.39 L 619.20 597.39 L 619.20 640.45 L 576.14 640.45 Z" fill="#472712" fill-rule="nonzero" node-id="270" stroke="none" target-height="43.059998" target-width="43.059998" target-x="576.14" target-y="597.39"></path><path d="M 446.97 640.45 L 490.03 640.45 L 490.03 683.51 L 446.97 683.51 Z" fill="#472712" fill-rule="nonzero" node-id="272" stroke="none" target-height="43.059998" target-width="43.059998" target-x="446.97" target-y="640.45"></path><path d="M 403.91 597.39 L 446.97 597.39 L 446.97 640.45 L 403.91 640.45 Z" fill="#472712" fill-rule="nonzero" node-id="274" stroke="none" target-height="43.059998" target-width="43.059998" target-x="403.91" target-y="597.39"></path><path d="M 468.28 554.34 L 511.34 554.34 L 511.34 597.40 L 468.28 597.40 Z" fill="#472712" fill-rule="nonzero" node-id="276" stroke="none" target-height="43.059998" target-width="43.059998" target-x="468.28" target-y="554.34"></path><path d="M 511.33 554.34 L 554.39 554.34 L 554.39 597.40 L 511.33 597.40 Z" fill="#472712" fill-rule="nonzero" node-id="278" stroke="none" target-height="43.059998" target-width="43.060028" target-x="511.33" target-y="554.34"></path><path d="M 533.08 382.47 L 576.14 382.47 L 576.14 425.53 L 533.08 425.53 Z" fill="#472712" fill-rule="nonzero" node-id="280" stroke="none" target-height="43.059998" target-width="43.059998" target-x="533.08" target-y="382.47"></path><path d="M 533.08 339.42 L 576.14 339.42 L 576.14 382.48 L 533.08 382.48 Z" fill="#472712" fill-rule="nonzero" node-id="282" stroke="none" target-height="43.059998" target-width="43.059998" target-x="533.08" target-y="339.42"></path><path d="M 576.14 339.42 L 619.20 339.42 L 619.20 382.48 L 576.14 382.48 Z" fill="#472712" fill-rule="nonzero" node-id="284" stroke="none" target-height="43.059998" target-width="43.059998" target-x="576.14" target-y="339.42"></path><path d="M 619.19 339.42 L 662.25 339.42 L 662.25 382.48 L 619.19 382.48 Z" fill="#472712" fill-rule="nonzero" node-id="286" stroke="none" target-height="43.059998" target-width="43.059998" target-x="619.19" target-y="339.42"></path><path d="M 576.14 468.22 L 619.20 468.22 L 619.20 511.28 L 576.14 511.28 Z" fill="#472712" fill-rule="nonzero" node-id="288" stroke="none" target-height="43.059998" target-width="43.059998" target-x="576.14" target-y="468.22"></path><path d="M 619.19 468.22 L 662.25 468.22 L 662.25 511.28 L 619.19 511.28 Z" fill="#ffffff" fill-rule="nonzero" node-id="290" stroke="none" target-height="43.059998" target-width="43.059998" target-x="619.19" target-y="468.22"></path><path d="M 576.14 511.28 L 619.20 511.28 L 619.20 554.34 L 576.14 554.34 Z" fill="#472712" fill-rule="nonzero" node-id="292" stroke="none" target-height="43.060028" target-width="43.059998" target-x="576.14" target-y="511.28"></path><path d="M 619.19 511.28 L 662.25 511.28 L 662.25 554.34 L 619.19 554.34 Z" fill="#472712" fill-rule="nonzero" node-id="294" stroke="none" target-height="43.060028" target-width="43.059998" target-x="619.19" target-y="511.28"></path><path d="M 662.25 382.47 L 705.31 382.47 L 705.31 425.53 L 662.25 425.53 Z" fill="#472712" fill-rule="nonzero" node-id="296" stroke="none" target-height="43.059998" target-width="43.059998" target-x="662.25" target-y="382.47"></path><path d="M 705.30 425.53 L 748.36 425.53 L 748.36 468.59 L 705.30 468.59 Z" fill="#472712" fill-rule="nonzero" node-id="298" stroke="none" target-height="43.059998" target-width="43.059998" target-x="705.3" target-y="425.53"></path><path d="M 748.36 468.58 L 791.42 468.58 L 791.42 511.64 L 748.36 511.64 Z" fill="#472712" fill-rule="nonzero" node-id="300" stroke="none" target-height="43.060028" target-width="43.059998" target-x="748.36" target-y="468.58"></path><path d="M 748.36 511.64 L 791.42 511.64 L 791.42 554.70 L 748.36 554.70 Z" fill="#472712" fill-rule="nonzero" node-id="302" stroke="none" target-height="43.059998" target-width="43.059998" target-x="748.36" target-y="511.64"></path><path d="M 748.36 554.70 L 791.42 554.70 L 791.42 597.76 L 748.36 597.76 Z" fill="#472712" fill-rule="nonzero" node-id="304" stroke="none" target-height="43.059998" target-width="43.059998" target-x="748.36" target-y="554.7"></path><path d="M 748.36 597.75 L 791.42 597.75 L 791.42 640.81 L 748.36 640.81 Z" fill="#472712" fill-rule="nonzero" node-id="306" stroke="none" target-height="43.059998" target-width="43.059998" target-x="748.36" target-y="597.75"></path><path d="M 748.36 640.81 L 791.42 640.81 L 791.42 683.87 L 748.36 683.87 Z" fill="#472712" fill-rule="nonzero" node-id="308" stroke="none" target-height="43.059998" target-width="43.059998" target-x="748.36" target-y="640.81"></path><path d="M 533.08 210.11 L 576.14 210.11 L 576.14 253.17 L 533.08 253.17 Z" fill="#472712" fill-rule="nonzero" node-id="310" stroke="none" target-height="43.059998" target-width="43.059998" target-x="533.08" target-y="210.11"></path><path d="M 576.14 210.11 L 619.20 210.11 L 619.20 253.17 L 576.14 253.17 Z" fill="#472712" fill-rule="nonzero" node-id="312" stroke="none" target-height="43.059998" target-width="43.059998" target-x="576.14" target-y="210.11"></path><path d="M 619.19 253.17 L 662.25 253.17 L 662.25 296.23 L 619.19 296.23 Z" fill="#472712" fill-rule="nonzero" node-id="314" stroke="none" target-height="43.060013" target-width="43.059998" target-x="619.19" target-y="253.17"></path><path d="M 662.25 253.17 L 705.31 253.17 L 705.31 296.23 L 662.25 296.23 Z" fill="#472712" fill-rule="nonzero" node-id="316" stroke="none" target-height="43.060013" target-width="43.059998" target-x="662.25" target-y="253.17"></path><path d="M 705.30 296.22 L 748.36 296.22 L 748.36 339.28 L 705.30 339.28 Z" fill="#472712" fill-rule="nonzero" node-id="318" stroke="none" target-height="43.059998" target-width="43.059998" target-x="705.3" target-y="296.22"></path><path d="M 619.19 253.17 L 403.91 253.17 L 403.91 296.23 L 317.80 296.23 L 317.80 339.29 L 274.74 339.29 L 274.74 382.35 L 188.63 382.35 L 188.63 640.60 L 231.69 640.60 L 231.69 468.58 L 274.75 468.58 L 274.75 425.52 L 317.81 425.52 L 317.81 382.46 L 360.87 382.46 L 360.87 339.40 L 490.04 339.40 L 490.04 382.46 C 490.04 382.46 533.09 383.19 533.09 382.46 C 533.09 381.73 533.09 339.40 533.09 339.40 L 662.26 339.40 L 662.26 382.46 L 705.32 382.46 L 705.32 425.52 L 748.38 425.52 L 748.38 468.58 L 791.44 468.58 L 791.44 640.80 L 834.50 640.80 L 834.50 382.33 L 748.39 382.33 L 748.39 339.27 L 705.30 339.27 L 705.30 296.21 L 619.19 296.21 L 619.19 253.17 Z" fill="#bb975c" fill-rule="nonzero" node-id="320" stroke="none" target-height="387.63" target-width="645.87" target-x="188.63" target-y="253.17"></path></svg>