<?xml version="1.0" standalone="no"?><!DOCTYPE svg PUBLIC "-//W3C//DTD SVG 1.1//EN" "http://www.w3.org/Graphics/SVG/1.1/DTD/svg11.dtd"><svg height="1024" node-id="1" sillyvg="true" template-height="1024" template-width="1024" version="1.1" viewBox="0 0 1024 1024" width="1024" xmlns="http://www.w3.org/2000/svg" xmlns:xlink="http://www.w3.org/1999/xlink"><defs node-id="112"></defs><path d="M 142.41 169.15 L 300.91 169.15 L 300.91 221.96 L 353.72 221.96 L 353.72 274.78 L 406.54 274.78 L 406.54 221.96 L 617.33 221.96 L 617.33 274.78 L 670.14 274.78 L 670.14 221.96 L 722.96 221.96 L 722.96 169.15 L 881.46 169.15 L 881.46 380.41 L 828.64 380.41 L 828.64 433.22 L 881.46 433.22 L 881.46 697.59 L 828.64 697.59 L 828.64 750.40 L 775.83 750.40 L 775.83 803.22 L 670.20 803.22 L 670.20 856.03 L 353.31 856.03 L 353.31 803.22 L 247.68 803.22 L 247.68 750.40 L 194.86 750.40 L 194.86 697.59 L 142.05 697.59 L 142.05 433.22 L 195.22 433.22 L 195.22 380.41 L 142.41 380.41 Z" fill="#fddd82" fill-rule="nonzero" node-id="114" stroke="none" target-height="686.88" target-width="739.41003" target-x="142.05" target-y="169.15"></path><path d="M 142.41 116.33 L 195.22 116.33 L 195.22 169.14 L 142.41 169.14 Z" fill="#472712" fill-rule="nonzero" node-id="116" stroke="none" target-height="52.809998" target-width="52.809998" target-x="142.41" target-y="116.33"></path><path d="M 195.28 221.96 L 248.09 221.96 L 248.09 274.77 L 195.28 274.77 Z" fill="#ffffff" fill-rule="nonzero" node-id="118" stroke="none" target-height="52.809982" target-width="52.809998" target-x="195.28" target-y="221.96"></path><path d="M 195.07 274.78 L 247.88 274.78 L 247.88 327.59 L 195.07 327.59 Z" fill="#ffffff" fill-rule="nonzero" node-id="120" stroke="none" target-height="52.809998" target-width="52.809998" target-x="195.07" target-y="274.78"></path><path d="M 247.88 221.96 L 300.69 221.96 L 300.69 274.77 L 247.88 274.77 Z" fill="#ffffff" fill-rule="nonzero" node-id="122" stroke="none" target-height="52.809982" target-width="52.809998" target-x="247.88" target-y="221.96"></path><g node-id="346"><path d="M 828.38 274.78 L 775.57 274.78 L 775.57 221.97 L 828.38 221.97 Z" fill="#ffffff" fill-rule="nonzero" group-id="1" node-id="126" stroke="none" target-height="52.809998" target-width="52.809998" target-x="775.56714" target-y="221.97083"></path></g><g node-id="347"><path d="M 828.59 327.59 L 775.78 327.59 L 775.78 274.78 L 828.59 274.78 Z" fill="#ffffff" fill-rule="nonzero" group-id="2" node-id="131" stroke="none" target-height="52.809998" target-width="52.809998" target-x="775.77936" target-y="274.78043"></path></g><g node-id="348"><path d="M 775.77 274.78 L 722.96 274.78 L 722.96 221.97 L 775.77 221.97 Z" fill="#ffffff" fill-rule="nonzero" group-id="3" node-id="136" stroke="none" target-height="52.809998" target-width="52.809998" target-x="722.95984" target-y="221.97083"></path></g><path d="M 195.28 116.33 L 248.09 116.33 L 248.09 169.14 L 195.28 169.14 Z" fill="#472712" fill-rule="nonzero" node-id="139" stroke="none" target-height="52.809998" target-width="52.809998" target-x="195.28" target-y="116.33"></path><path d="M 248.09 116.33 L 300.90 116.33 L 300.90 169.14 L 248.09 169.14 Z" fill="#472712" fill-rule="nonzero" node-id="141" stroke="none" target-height="52.809998" target-width="52.809998" target-x="248.09" target-y="116.33"></path><path d="M 722.96 116.33 L 775.77 116.33 L 775.77 169.14 L 722.96 169.14 Z" fill="#472712" fill-rule="nonzero" node-id="143" stroke="none" target-height="52.809998" target-width="52.809998" target-x="722.96" target-y="116.33"></path><path d="M 775.83 116.33 L 828.64 116.33 L 828.64 169.14 L 775.83 169.14 Z" fill="#472712" fill-rule="nonzero" node-id="145" stroke="none" target-height="52.809998" target-width="52.809998" target-x="775.83" target-y="116.33"></path><path d="M 828.64 116.33 L 881.45 116.33 L 881.45 169.14 L 828.64 169.14 Z" fill="#472712" fill-rule="nonzero" node-id="147" stroke="none" target-height="52.809998" target-width="52.809998" target-x="828.64" target-y="116.33"></path><path d="M 881.46 169.15 L 934.27 169.15 L 934.27 221.96 L 881.46 221.96 Z" fill="#472712" fill-rule="nonzero" node-id="149" stroke="none" target-height="52.810013" target-width="52.809998" target-x="881.46" target-y="169.15"></path><path d="M 881.46 221.96 L 934.27 221.96 L 934.27 274.77 L 881.46 274.77 Z" fill="#472712" fill-rule="nonzero" node-id="151" stroke="none" target-height="52.809982" target-width="52.809998" target-x="881.46" target-y="221.96"></path><path d="M 881.46 274.78 L 934.27 274.78 L 934.27 327.59 L 881.46 327.59 Z" fill="#472712" fill-rule="nonzero" node-id="153" stroke="none" target-height="52.809998" target-width="52.809998" target-x="881.46" target-y="274.78"></path><path d="M 881.46 327.59 L 934.27 327.59 L 934.27 380.40 L 881.46 380.40 Z" fill="#472712" fill-rule="nonzero" node-id="155" stroke="none" target-height="52.809998" target-width="52.809998" target-x="881.46" target-y="327.59"></path><path d="M 89.59 169.15 L 142.40 169.15 L 142.40 221.96 L 89.59 221.96 Z" fill="#472712" fill-rule="nonzero" node-id="157" stroke="none" target-height="52.810013" target-width="52.809998" target-x="89.59" target-y="169.15"></path><path d="M 89.59 221.96 L 142.40 221.96 L 142.40 274.77 L 89.59 274.77 Z" fill="#472712" fill-rule="nonzero" node-id="159" stroke="none" target-height="52.809982" target-width="52.809998" target-x="89.59" target-y="221.96"></path><path d="M 89.59 274.78 L 142.40 274.78 L 142.40 327.59 L 89.59 327.59 Z" fill="#472712" fill-rule="nonzero" node-id="161" stroke="none" target-height="52.809998" target-width="52.809998" target-x="89.59" target-y="274.78"></path><path d="M 89.59 327.59 L 142.40 327.59 L 142.40 380.40 L 89.59 380.40 Z" fill="#472712" fill-rule="nonzero" node-id="163" stroke="none" target-height="52.809998" target-width="52.809998" target-x="89.59" target-y="327.59"></path><path d="M 828.64 380.41 L 881.45 380.41 L 881.45 433.22 L 828.64 433.22 Z" fill="#472712" fill-rule="nonzero" node-id="165" stroke="none" target-height="52.809998" target-width="52.809998" target-x="828.64" target-y="380.41"></path><path d="M 142.41 380.41 L 195.22 380.41 L 195.22 433.22 L 142.41 433.22 Z" fill="#472712" fill-rule="nonzero" node-id="167" stroke="none" target-height="52.809998" target-width="52.809998" target-x="142.41" target-y="380.41"></path><path d="M 881.46 433.22 L 934.27 433.22 L 934.27 486.03 L 881.46 486.03 Z" fill="#472712" fill-rule="nonzero" node-id="169" stroke="none" target-height="52.809998" target-width="52.809998" target-x="881.46" target-y="433.22"></path><path d="M 881.46 486.04 L 934.27 486.04 L 934.27 538.85 L 881.46 538.85 Z" fill="#472712" fill-rule="nonzero" node-id="171" stroke="none" target-height="52.809967" target-width="52.809998" target-x="881.46" target-y="486.04"></path><path d="M 881.46 538.85 L 934.27 538.85 L 934.27 591.66 L 881.46 591.66 Z" fill="#472712" fill-rule="nonzero" node-id="173" stroke="none" target-height="52.809998" target-width="52.809998" target-x="881.46" target-y="538.85"></path><path d="M 881.46 591.96 L 934.27 591.96 L 934.27 644.77 L 881.46 644.77 Z" fill="#472712" fill-rule="nonzero" node-id="175" stroke="none" target-height="52.809998" target-width="52.809998" target-x="881.46" target-y="591.96"></path><path d="M 881.46 644.77 L 934.27 644.77 L 934.27 697.58 L 881.46 697.58 Z" fill="#472712" fill-rule="nonzero" node-id="177" stroke="none" target-height="52.809998" target-width="52.809998" target-x="881.46" target-y="644.77"></path><path d="M 89.23 433.22 L 142.04 433.22 L 142.04 486.03 L 89.23 486.03 Z" fill="#472712" fill-rule="nonzero" node-id="179" stroke="none" target-height="52.809998" target-width="52.80999" target-x="89.23" target-y="433.22"></path><path d="M 89.23 486.04 L 142.04 486.04 L 142.04 538.85 L 89.23 538.85 Z" fill="#472712" fill-rule="nonzero" node-id="181" stroke="none" target-height="52.809967" target-width="52.80999" target-x="89.23" target-y="486.04"></path><path d="M 89.23 538.85 L 142.04 538.85 L 142.04 591.66 L 89.23 591.66 Z" fill="#472712" fill-rule="nonzero" node-id="183" stroke="none" target-height="52.809998" target-width="52.80999" target-x="89.23" target-y="538.85"></path><path d="M 89.23 591.96 L 142.04 591.96 L 142.04 644.77 L 89.23 644.77 Z" fill="#472712" fill-rule="nonzero" node-id="185" stroke="none" target-height="52.809998" target-width="52.80999" target-x="89.23" target-y="591.96"></path><path d="M 89.23 644.77 L 142.04 644.77 L 142.04 697.58 L 89.23 697.58 Z" fill="#472712" fill-rule="nonzero" node-id="187" stroke="none" target-height="52.809998" target-width="52.80999" target-x="89.23" target-y="644.77"></path><path d="M 828.64 697.59 L 881.45 697.59 L 881.45 750.40 L 828.64 750.40 Z" fill="#472712" fill-rule="nonzero" node-id="189" stroke="none" target-height="52.809998" target-width="52.809998" target-x="828.64" target-y="697.59"></path><path d="M 828.64 750.40 L 881.45 750.40 L 881.45 803.21 L 828.64 803.21 Z" fill="#472712" fill-rule="nonzero" node-id="191" stroke="none" target-height="52.809998" target-width="52.809998" target-x="828.64" target-y="750.4"></path><path d="M 775.83 750.40 L 828.64 750.40 L 828.64 803.21 L 775.83 803.21 Z" fill="#472712" fill-rule="nonzero" node-id="193" stroke="none" target-height="52.809998" target-width="52.809998" target-x="775.83" target-y="750.4"></path><path d="M 194.86 750.40 L 142.05 750.40 L 142.05 697.59 L 194.86 697.59 Z" fill="#472712" fill-rule="nonzero" group-id="4" node-id="197" stroke="none" target-height="52.809998" target-width="52.809998" target-x="142.05379" target-y="697.59436"></path><path d="M 194.86 803.22 L 142.05 803.22 L 142.05 750.41 L 194.86 750.41 Z" fill="#472712" fill-rule="nonzero" group-id="5" node-id="202" stroke="none" target-height="52.809998" target-width="52.809998" target-x="142.05379" target-y="750.414"></path><path d="M 247.68 803.22 L 194.87 803.22 L 194.87 750.41 L 247.68 750.41 Z" fill="#472712" fill-rule="nonzero" group-id="6" node-id="207" stroke="none" target-height="52.809998" target-width="52.809998" target-x="194.8734" target-y="750.414"></path><path d="M 723.01 803.22 L 775.82 803.22 L 775.82 856.03 L 723.01 856.03 Z" fill="#472712" fill-rule="nonzero" node-id="210" stroke="none" target-height="52.81006" target-width="52.809998" target-x="723.01" target-y="803.22"></path><path d="M 670.20 803.22 L 723.01 803.22 L 723.01 856.03 L 670.20 856.03 Z" fill="#472712" fill-rule="nonzero" node-id="212" stroke="none" target-height="52.81006" target-width="52.809998" target-x="670.2" target-y="803.22"></path><path d="M 300.49 803.22 L 353.30 803.22 L 353.30 856.03 L 300.49 856.03 Z" fill="#472712" fill-rule="nonzero" node-id="214" stroke="none" target-height="52.81006" target-width="52.809998" target-x="300.49" target-y="803.22"></path><path d="M 247.68 803.22 L 300.49 803.22 L 300.49 856.03 L 247.68 856.03 Z" fill="#472712" fill-rule="nonzero" node-id="216" stroke="none" target-height="52.81006" target-width="52.809998" target-x="247.68" target-y="803.22"></path><path d="M 617.38 856.03 L 670.19 856.03 L 670.19 908.84 L 617.38 908.84 Z" fill="#472712" fill-rule="nonzero" node-id="218" stroke="none" target-height="52.809998" target-width="52.809998" target-x="617.38" target-y="856.03"></path><path d="M 564.57 856.03 L 617.38 856.03 L 617.38 908.84 L 564.57 908.84 Z" fill="#472712" fill-rule="nonzero" node-id="220" stroke="none" target-height="52.809998" target-width="52.809998" target-x="564.57" target-y="856.03"></path><path d="M 511.75 856.03 L 564.56 856.03 L 564.56 908.84 L 511.75 908.84 Z" fill="#472712" fill-rule="nonzero" node-id="222" stroke="none" target-height="52.809998" target-width="52.809998" target-x="511.75" target-y="856.03"></path><path d="M 458.94 856.03 L 511.75 856.03 L 511.75 908.84 L 458.94 908.84 Z" fill="#472712" fill-rule="nonzero" node-id="224" stroke="none" target-height="52.809998" target-width="52.809998" target-x="458.94" target-y="856.03"></path><path d="M 406.12 856.03 L 458.93 856.03 L 458.93 908.84 L 406.12 908.84 Z" fill="#472712" fill-rule="nonzero" node-id="226" stroke="none" target-height="52.809998" target-width="52.809998" target-x="406.12" target-y="856.03"></path><path d="M 353.31 856.03 L 406.12 856.03 L 406.12 908.84 L 353.31 908.84 Z" fill="#472712" fill-rule="nonzero" node-id="228" stroke="none" target-height="52.809998" target-width="52.809998" target-x="353.31" target-y="856.03"></path><path d="M 300.91 169.15 L 353.72 169.15 L 353.72 221.96 L 300.91 221.96 Z" fill="#472712" fill-rule="nonzero" node-id="230" stroke="none" target-height="52.810013" target-width="52.809998" target-x="300.91" target-y="169.15"></path><path d="M 353.72 221.96 L 406.53 221.96 L 406.53 274.77 L 353.72 274.77 Z" fill="#472712" fill-rule="nonzero" node-id="232" stroke="none" target-height="52.809982" target-width="52.809998" target-x="353.72" target-y="221.96"></path><path d="M 274.50 486.02 L 327.31 486.02 L 327.31 538.83 L 274.50 538.83 Z" fill="#472712" fill-rule="nonzero" node-id="234" stroke="none" target-height="52.810028" target-width="52.809998" target-x="274.5" target-y="486.02"></path><path d="M 327.31 486.02 L 380.12 486.02 L 380.12 538.83 L 327.31 538.83 Z" fill="#eae8e8" fill-rule="nonzero" node-id="236" stroke="none" target-height="52.810028" target-width="52.809998" target-x="327.31" target-y="486.02"></path><path d="M 274.50 538.87 L 327.31 538.87 L 327.31 591.68 L 274.50 591.68 Z" fill="#472712" fill-rule="nonzero" node-id="238" stroke="none" target-height="52.809998" target-width="52.809998" target-x="274.5" target-y="538.87"></path><path d="M 327.31 538.87 L 380.12 538.87 L 380.12 591.68 L 327.31 591.68 Z" fill="#472712" fill-rule="nonzero" node-id="240" stroke="none" target-height="52.809998" target-width="52.809998" target-x="327.31" target-y="538.87"></path><path d="M 645.32 486.02 L 698.13 486.02 L 698.13 538.83 L 645.32 538.83 Z" fill="#472712" fill-rule="nonzero" node-id="242" stroke="none" target-height="52.810028" target-width="52.809998" target-x="645.32" target-y="486.02"></path><path d="M 591.39 433.19 L 644.20 433.19 L 644.20 486.00 L 591.39 486.00 Z" fill="#ffffff" fill-rule="nonzero" node-id="244" stroke="none" target-height="52.809998" target-width="52.809998" target-x="591.39" target-y="433.19"></path><path d="M 380.13 433.19 L 432.94 433.19 L 432.94 486.00 L 380.13 486.00 Z" fill="#ffffff" fill-rule="nonzero" node-id="246" stroke="none" target-height="52.809998" target-width="52.809998" target-x="380.13" target-y="433.19"></path><path d="M 698.14 486.02 L 750.95 486.02 L 750.95 538.83 L 698.14 538.83 Z" fill="#eae8e8" fill-rule="nonzero" node-id="248" stroke="none" target-height="52.810028" target-width="52.809998" target-x="698.14" target-y="486.02"></path><path d="M 645.32 538.87 L 698.13 538.87 L 698.13 591.68 L 645.32 591.68 Z" fill="#472712" fill-rule="nonzero" node-id="250" stroke="none" target-height="52.809998" target-width="52.809998" target-x="645.32" target-y="538.87"></path><path d="M 698.14 538.87 L 750.95 538.87 L 750.95 591.68 L 698.14 591.68 Z" fill="#472712" fill-rule="nonzero" node-id="252" stroke="none" target-height="52.809998" target-width="52.809998" target-x="698.14" target-y="538.87"></path><path d="M 722.75 602.56 L 775.56 602.56 L 775.56 655.37 L 722.75 655.37 Z" fill="#472712" fill-rule="nonzero" node-id="254" stroke="none" target-height="52.809998" target-width="52.809998" target-x="722.75" target-y="602.56"></path><path d="M 775.57 602.56 L 828.38 602.56 L 828.38 655.37 L 775.57 655.37 Z" fill="#472712" fill-rule="nonzero" node-id="256" stroke="none" target-height="52.809998" target-width="52.809998" target-x="775.57" target-y="602.56"></path><path d="M 722.75 660.93 L 775.56 660.93 L 775.56 713.74 L 722.75 713.74 Z" fill="#472712" fill-rule="nonzero" node-id="258" stroke="none" target-height="52.809998" target-width="52.809998" target-x="722.75" target-y="660.93"></path><path d="M 775.57 660.93 L 828.38 660.93 L 828.38 713.74 L 775.57 713.74 Z" fill="#472712" fill-rule="nonzero" node-id="260" stroke="none" target-height="52.809998" target-width="52.809998" target-x="775.57" target-y="660.93"></path><path d="M 194.86 602.56 L 247.67 602.56 L 247.67 655.37 L 194.86 655.37 Z" fill="#472712" fill-rule="nonzero" node-id="262" stroke="none" target-height="52.809998" target-width="52.809998" target-x="194.86" target-y="602.56"></path><path d="M 247.68 602.56 L 300.49 602.56 L 300.49 655.37 L 247.68 655.37 Z" fill="#472712" fill-rule="nonzero" node-id="264" stroke="none" target-height="52.809998" target-width="52.809998" target-x="247.68" target-y="602.56"></path><path d="M 194.86 660.93 L 247.67 660.93 L 247.67 713.74 L 194.86 713.74 Z" fill="#472712" fill-rule="nonzero" node-id="266" stroke="none" target-height="52.809998" target-width="52.809998" target-x="194.86" target-y="660.93"></path><path d="M 247.68 660.93 L 300.49 660.93 L 300.49 713.74 L 247.68 713.74 Z" fill="#472712" fill-rule="nonzero" node-id="268" stroke="none" target-height="52.809998" target-width="52.809998" target-x="247.68" target-y="660.93"></path><path d="M 406.54 169.15 L 459.35 169.15 L 459.35 221.96 L 406.54 221.96 Z" fill="#472712" fill-rule="nonzero" node-id="270" stroke="none" target-height="52.810013" target-width="52.809998" target-x="406.54" target-y="169.15"></path><path d="M 459.35 169.15 L 512.16 169.15 L 512.16 221.96 L 459.35 221.96 Z" fill="#472712" fill-rule="nonzero" node-id="272" stroke="none" target-height="52.810013" target-width="52.809967" target-x="459.35" target-y="169.15"></path><path d="M 511.70 169.15 L 564.51 169.15 L 564.51 221.96 L 511.70 221.96 Z" fill="#472712" fill-rule="nonzero" node-id="274" stroke="none" target-height="52.810013" target-width="52.809998" target-x="511.7" target-y="169.15"></path><path d="M 485.76 221.96 L 538.57 221.96 L 538.57 274.77 L 485.76 274.77 Z" fill="#472712" fill-rule="nonzero" node-id="276" stroke="none" target-height="52.809982" target-width="52.809998" target-x="485.76" target-y="221.96"></path><path d="M 485.76 274.78 L 538.57 274.78 L 538.57 327.59 L 485.76 327.59 Z" fill="#472712" fill-rule="nonzero" node-id="278" stroke="none" target-height="52.809998" target-width="52.809998" target-x="485.76" target-y="274.78"></path><path d="M 432.94 274.78 L 485.75 274.78 L 485.75 327.59 L 432.94 327.59 Z" fill="#472712" fill-rule="nonzero" node-id="280" stroke="none" target-height="52.809998" target-width="52.809998" target-x="432.94" target-y="274.78"></path><path d="M 538.11 274.78 L 590.92 274.78 L 590.92 327.59 L 538.11 327.59 Z" fill="#472712" fill-rule="nonzero" node-id="282" stroke="none" target-height="52.809998" target-width="52.809998" target-x="538.11" target-y="274.78"></path><path d="M 485.76 327.59 L 538.57 327.59 L 538.57 380.40 L 485.76 380.40 Z" fill="#472712" fill-rule="nonzero" node-id="284" stroke="none" target-height="52.809998" target-width="52.809998" target-x="485.76" target-y="327.59"></path><path d="M 432.94 380.41 L 485.75 380.41 L 485.75 433.22 L 432.94 433.22 Z" fill="#472712" fill-rule="nonzero" node-id="286" stroke="none" target-height="52.809998" target-width="52.809998" target-x="432.94" target-y="380.41"></path><path d="M 538.57 380.41 L 591.38 380.41 L 591.38 433.22 L 538.57 433.22 Z" fill="#472712" fill-rule="nonzero" node-id="288" stroke="none" target-height="52.809998" target-width="52.809998" target-x="538.57" target-y="380.41"></path><path d="M 485.76 380.41 L 538.57 380.41 L 538.57 433.22 L 485.76 433.22 Z" fill="#472712" fill-rule="nonzero" node-id="290" stroke="none" target-height="52.809998" target-width="52.809998" target-x="485.76" target-y="380.41"></path><path d="M 485.76 433.22 L 538.57 433.22 L 538.57 486.03 L 485.76 486.03 Z" fill="#472712" fill-rule="nonzero" node-id="292" stroke="none" target-height="52.809998" target-width="52.809998" target-x="485.76" target-y="433.22"></path><path d="M 458.94 590.98 L 511.75 590.98 L 511.75 643.79 L 458.94 643.79 Z" fill="#472712" fill-rule="nonzero" node-id="294" stroke="none" target-height="52.809998" target-width="52.809998" target-x="458.94" target-y="590.98"></path><path d="M 482.63 643.80 L 535.44 643.80 L 535.44 696.61 L 482.63 696.61 Z" fill="#472712" fill-rule="nonzero" node-id="296" stroke="none" target-height="52.809998" target-width="52.809998" target-x="482.63" target-y="643.8"></path><path d="M 429.82 696.61 L 482.63 696.61 L 482.63 749.42 L 429.82 749.42 Z" fill="#472712" fill-rule="nonzero" node-id="298" stroke="none" target-height="52.809998" target-width="52.809998" target-x="429.82" target-y="696.61"></path><path d="M 535.45 696.61 L 588.26 696.61 L 588.26 749.42 L 535.45 749.42 Z" fill="#472712" fill-rule="nonzero" node-id="300" stroke="none" target-height="52.809998" target-width="52.809998" target-x="535.45" target-y="696.61"></path><path d="M 482.63 696.61 L 535.44 696.61 L 535.44 749.42 L 482.63 749.42 Z" fill="#ffffff" fill-rule="nonzero" node-id="302" stroke="none" target-height="52.809998" target-width="52.809998" target-x="482.63" target-y="696.61"></path><path d="M 406.12 590.98 L 458.93 590.98 L 458.93 643.79 L 406.12 643.79 Z" fill="#ffffff" fill-rule="nonzero" node-id="304" stroke="none" target-height="52.809998" target-width="52.809998" target-x="406.12" target-y="590.98"></path><path d="M 564.57 590.98 L 617.38 590.98 L 617.38 643.79 L 564.57 643.79 Z" fill="#ffffff" fill-rule="nonzero" node-id="306" stroke="none" target-height="52.809998" target-width="52.809998" target-x="564.57" target-y="590.98"></path><path d="M 429.82 643.80 L 482.63 643.80 L 482.63 696.61 L 429.82 696.61 Z" fill="#ffffff" fill-rule="nonzero" node-id="308" stroke="none" target-height="52.809998" target-width="52.809998" target-x="429.82" target-y="643.8"></path><path d="M 377.00 696.61 L 429.81 696.61 L 429.81 749.42 L 377.00 749.42 Z" fill="#ffffff" fill-rule="nonzero" node-id="310" stroke="none" target-height="52.809998" target-width="52.809998" target-x="377" target-y="696.61"></path><path d="M 377.00 749.43 L 429.81 749.43 L 429.81 802.24 L 377.00 802.24 Z" fill="#ffffff" fill-rule="nonzero" node-id="312" stroke="none" target-height="52.809998" target-width="52.809998" target-x="377" target-y="749.43"></path><path d="M 429.82 749.43 L 482.63 749.43 L 482.63 802.24 L 429.82 802.24 Z" fill="#ffffff" fill-rule="nonzero" node-id="314" stroke="none" target-height="52.809998" target-width="52.809998" target-x="429.82" target-y="749.43"></path><path d="M 482.63 749.43 L 535.44 749.43 L 535.44 802.24 L 482.63 802.24 Z" fill="#ffffff" fill-rule="nonzero" node-id="316" stroke="none" target-height="52.809998" target-width="52.809998" target-x="482.63" target-y="749.43"></path><path d="M 535.45 749.43 L 588.26 749.43 L 588.26 802.24 L 535.45 802.24 Z" fill="#ffffff" fill-rule="nonzero" node-id="318" stroke="none" target-height="52.809998" target-width="52.809998" target-x="535.45" target-y="749.43"></path><path d="M 588.26 749.43 L 641.07 749.43 L 641.07 802.24 L 588.26 802.24 Z" fill="#ffffff" fill-rule="nonzero" node-id="320" stroke="none" target-height="52.809998" target-width="52.809998" target-x="588.26" target-y="749.43"></path><path d="M 641.07 696.61 L 693.88 696.61 L 693.88 749.42 L 641.07 749.42 Z" fill="#ffffff" fill-rule="nonzero" node-id="322" stroke="none" target-height="52.809998" target-width="52.809998" target-x="641.07" target-y="696.61"></path><path d="M 641.07 643.80 L 693.88 643.80 L 693.88 696.61 L 641.07 696.61 Z" fill="#ffffff" fill-rule="nonzero" node-id="324" stroke="none" target-height="52.809998" target-width="52.809998" target-x="641.07" target-y="643.8"></path><path d="M 324.19 696.61 L 377.00 696.61 L 377.00 749.42 L 324.19 749.42 Z" fill="#ffffff" fill-rule="nonzero" node-id="326" stroke="none" target-height="52.809998" target-width="52.809998" target-x="324.19" target-y="696.61"></path><path d="M 324.19 643.80 L 377.00 643.80 L 377.00 696.61 L 324.19 696.61 Z" fill="#ffffff" fill-rule="nonzero" node-id="328" stroke="none" target-height="52.809998" target-width="52.809998" target-x="324.19" target-y="643.8"></path><path d="M 588.26 696.61 L 641.07 696.61 L 641.07 749.42 L 588.26 749.42 Z" fill="#ffffff" fill-rule="nonzero" node-id="330" stroke="none" target-height="52.809998" target-width="52.809998" target-x="588.26" target-y="696.61"></path><path d="M 535.45 643.80 L 588.26 643.80 L 588.26 696.61 L 535.45 696.61 Z" fill="#ffffff" fill-rule="nonzero" node-id="332" stroke="none" target-height="52.809998" target-width="52.809998" target-x="535.45" target-y="643.8"></path><path d="M 377.00 643.80 L 429.81 643.80 L 429.81 696.61 L 377.00 696.61 Z" fill="#472712" fill-rule="nonzero" node-id="334" stroke="none" target-height="52.809998" target-width="52.809998" target-x="377" target-y="643.8"></path><path d="M 588.26 643.80 L 641.07 643.80 L 641.07 696.61 L 588.26 696.61 Z" fill="#472712" fill-rule="nonzero" node-id="336" stroke="none" target-height="52.809998" target-width="52.809998" target-x="588.26" target-y="643.8"></path><path d="M 511.75 590.98 L 564.56 590.98 L 564.56 643.79 L 511.75 643.79 Z" fill="#472712" fill-rule="nonzero" node-id="338" stroke="none" target-height="52.809998" target-width="52.809998" target-x="511.75" target-y="590.98"></path><path d="M 564.51 169.15 L 617.32 169.15 L 617.32 221.96 L 564.51 221.96 Z" fill="#472712" fill-rule="nonzero" node-id="340" stroke="none" target-height="52.810013" target-width="52.809998" target-x="564.51" target-y="169.15"></path><path d="M 617.33 221.96 L 670.14 221.96 L 670.14 274.77 L 617.33 274.77 Z" fill="#472712" fill-rule="nonzero" node-id="342" stroke="none" target-height="52.809982" target-width="52.809998" target-x="617.33" target-y="221.96"></path><path d="M 670.14 169.15 L 722.95 169.15 L 722.95 221.96 L 670.14 221.96 Z" fill="#472712" fill-rule="nonzero" node-id="344" stroke="none" target-height="52.810013" target-width="52.809998" target-x="670.14" target-y="169.15"></path></svg>