<?xml version="1.0" standalone="no"?><!DOCTYPE svg PUBLIC "-//W3C//DTD SVG 1.1//EN" "http://www.w3.org/Graphics/SVG/1.1/DTD/svg11.dtd"><svg height="1024" node-id="1" sillyvg="true" template-height="1024" template-width="1024" version="1.1" viewBox="0 0 1024 1024" width="1024" xmlns="http://www.w3.org/2000/svg" xmlns:xlink="http://www.w3.org/1999/xlink"><defs node-id="64"></defs><path d="M 407.52 168.48 L 301.89 168.48 L 301.89 221.30 L 249.07 221.30 L 249.07 379.74 L 196.26 379.74 L 196.26 432.56 L 143.44 432.56 L 143.44 749.44 L 196.26 749.44 L 196.26 802.26 L 301.89 802.26 L 301.89 855.07 L 724.41 855.07 L 724.41 802.26 L 830.04 802.26 L 830.04 749.44 L 882.85 749.44 L 882.85 432.56 L 830.04 432.56 L 830.04 379.74 L 777.22 379.74 L 777.22 221.30 L 724.41 221.30 L 724.41 168.48 L 618.78 168.48 L 618.78 221.30 L 565.96 221.30 L 565.96 274.11 L 460.33 274.11 L 460.33 221.30 L 407.52 221.30 Z" fill="#b1e2b4" fill-rule="nonzero" node-id="66" stroke="none" target-height="686.59" target-width="739.41" target-x="143.44" target-y="168.48"></path><path d="M 301.89 115.67 L 354.70 115.67 L 354.70 168.48 L 301.89 168.48 Z" fill="#472712" fill-rule="nonzero" node-id="68" stroke="none" target-height="52.809998" target-width="52.809998" target-x="301.89" target-y="115.67"></path><path d="M 249.07 168.48 L 301.88 168.48 L 301.88 221.29 L 249.07 221.29 Z" fill="#472712" fill-rule="nonzero" node-id="70" stroke="none" target-height="52.809998" target-width="52.809998" target-x="249.07" target-y="168.48"></path><path d="M 724.41 168.48 L 777.22 168.48 L 777.22 221.29 L 724.41 221.29 Z" fill="#472712" fill-rule="nonzero" node-id="72" stroke="none" target-height="52.809998" target-width="52.809998" target-x="724.41" target-y="168.48"></path><path d="M 196.26 221.30 L 249.07 221.30 L 249.07 274.11 L 196.26 274.11 Z" fill="#472712" fill-rule="nonzero" node-id="74" stroke="none" target-height="52.809982" target-width="52.810013" target-x="196.26" target-y="221.3"></path><path d="M 196.26 274.11 L 249.07 274.11 L 249.07 326.92 L 196.26 326.92 Z" fill="#472712" fill-rule="nonzero" node-id="76" stroke="none" target-height="52.810028" target-width="52.810013" target-x="196.26" target-y="274.11"></path><path d="M 196.26 326.93 L 249.07 326.93 L 249.07 379.74 L 196.26 379.74 Z" fill="#472712" fill-rule="nonzero" node-id="78" stroke="none" target-height="52.809998" target-width="52.810013" target-x="196.26" target-y="326.93"></path><path d="M 777.22 221.30 L 830.03 221.30 L 830.03 274.11 L 777.22 274.11 Z" fill="#472712" fill-rule="nonzero" node-id="80" stroke="none" target-height="52.809982" target-width="52.81006" target-x="777.22" target-y="221.3"></path><path d="M 777.22 274.11 L 830.03 274.11 L 830.03 326.92 L 777.22 326.92 Z" fill="#472712" fill-rule="nonzero" node-id="82" stroke="none" target-height="52.810028" target-width="52.81006" target-x="777.22" target-y="274.11"></path><path d="M 777.22 326.93 L 830.03 326.93 L 830.03 379.74 L 777.22 379.74 Z" fill="#472712" fill-rule="nonzero" node-id="84" stroke="none" target-height="52.809998" target-width="52.81006" target-x="777.22" target-y="326.93"></path><path d="M 143.44 379.74 L 196.25 379.74 L 196.25 432.55 L 143.44 432.55 Z" fill="#472712" fill-rule="nonzero" node-id="86" stroke="none" target-height="52.809998" target-width="52.809998" target-x="143.44" target-y="379.74"></path><path d="M 830.04 379.74 L 882.85 379.74 L 882.85 432.55 L 830.04 432.55 Z" fill="#472712" fill-rule="nonzero" node-id="88" stroke="none" target-height="52.809998" target-width="52.809998" target-x="830.04" target-y="379.74"></path><path d="M 90.63 432.56 L 143.44 432.56 L 143.44 485.37 L 90.63 485.37 Z" fill="#472712" fill-rule="nonzero" node-id="90" stroke="none" target-height="52.809998" target-width="52.810005" target-x="90.63" target-y="432.56"></path><path d="M 90.63 485.37 L 143.44 485.37 L 143.44 538.18 L 90.63 538.18 Z" fill="#472712" fill-rule="nonzero" node-id="92" stroke="none" target-height="52.809998" target-width="52.810005" target-x="90.63" target-y="485.37"></path><path d="M 90.63 538.19 L 143.44 538.19 L 143.44 591.00 L 90.63 591.00 Z" fill="#472712" fill-rule="nonzero" node-id="94" stroke="none" target-height="52.809998" target-width="52.810005" target-x="90.63" target-y="538.19"></path><path d="M 90.63 591.00 L 143.44 591.00 L 143.44 643.81 L 90.63 643.81 Z" fill="#472712" fill-rule="nonzero" node-id="96" stroke="none" target-height="52.809998" target-width="52.810005" target-x="90.63" target-y="591"></path><path d="M 90.63 643.81 L 143.44 643.81 L 143.44 696.62 L 90.63 696.62 Z" fill="#472712" fill-rule="nonzero" node-id="98" stroke="none" target-height="52.809998" target-width="52.810005" target-x="90.63" target-y="643.81"></path><path d="M 882.85 432.56 L 935.66 432.56 L 935.66 485.37 L 882.85 485.37 Z" fill="#472712" fill-rule="nonzero" node-id="100" stroke="none" target-height="52.809998" target-width="52.809998" target-x="882.85" target-y="432.56"></path><path d="M 882.85 485.37 L 935.66 485.37 L 935.66 538.18 L 882.85 538.18 Z" fill="#472712" fill-rule="nonzero" node-id="102" stroke="none" target-height="52.809998" target-width="52.809998" target-x="882.85" target-y="485.37"></path><path d="M 882.85 538.19 L 935.66 538.19 L 935.66 591.00 L 882.85 591.00 Z" fill="#472712" fill-rule="nonzero" node-id="104" stroke="none" target-height="52.809998" target-width="52.809998" target-x="882.85" target-y="538.19"></path><path d="M 882.85 591.00 L 935.66 591.00 L 935.66 643.81 L 882.85 643.81 Z" fill="#472712" fill-rule="nonzero" node-id="106" stroke="none" target-height="52.809998" target-width="52.809998" target-x="882.85" target-y="591"></path><path d="M 882.85 643.81 L 935.66 643.81 L 935.66 696.62 L 882.85 696.62 Z" fill="#472712" fill-rule="nonzero" node-id="108" stroke="none" target-height="52.809998" target-width="52.809998" target-x="882.85" target-y="643.81"></path><path d="M 90.63 696.63 L 143.44 696.63 L 143.44 749.44 L 90.63 749.44 Z" fill="#472712" fill-rule="nonzero" node-id="110" stroke="none" target-height="52.809998" target-width="52.810005" target-x="90.63" target-y="696.63"></path><path d="M 143.44 749.44 L 196.25 749.44 L 196.25 802.25 L 143.44 802.25 Z" fill="#472712" fill-rule="nonzero" node-id="112" stroke="none" target-height="52.809998" target-width="52.809998" target-x="143.44" target-y="749.44"></path><path d="M 196.26 802.26 L 249.07 802.26 L 249.07 855.07 L 196.26 855.07 Z" fill="#472712" fill-rule="nonzero" node-id="114" stroke="none" target-height="52.809998" target-width="52.810013" target-x="196.26" target-y="802.26"></path><path d="M 249.07 802.26 L 301.88 802.26 L 301.88 855.07 L 249.07 855.07 Z" fill="#472712" fill-rule="nonzero" node-id="116" stroke="none" target-height="52.809998" target-width="52.809998" target-x="249.07" target-y="802.26"></path><path d="M 301.89 855.07 L 354.70 855.07 L 354.70 907.88 L 301.89 907.88 Z" fill="#472712" fill-rule="nonzero" node-id="118" stroke="none" target-height="52.809998" target-width="52.809998" target-x="301.89" target-y="855.07"></path><path d="M 354.70 855.07 L 407.51 855.07 L 407.51 907.88 L 354.70 907.88 Z" fill="#472712" fill-rule="nonzero" node-id="120" stroke="none" target-height="52.809998" target-width="52.809998" target-x="354.7" target-y="855.07"></path><path d="M 407.52 855.07 L 460.33 855.07 L 460.33 907.88 L 407.52 907.88 Z" fill="#472712" fill-rule="nonzero" node-id="122" stroke="none" target-height="52.809998" target-width="52.809998" target-x="407.52" target-y="855.07"></path><path d="M 460.33 855.07 L 513.14 855.07 L 513.14 907.88 L 460.33 907.88 Z" fill="#472712" fill-rule="nonzero" node-id="124" stroke="none" target-height="52.809998" target-width="52.810028" target-x="460.33" target-y="855.07"></path><path d="M 513.15 855.07 L 565.96 855.07 L 565.96 907.88 L 513.15 907.88 Z" fill="#472712" fill-rule="nonzero" node-id="126" stroke="none" target-height="52.809998" target-width="52.809998" target-x="513.15" target-y="855.07"></path><path d="M 565.96 855.07 L 618.77 855.07 L 618.77 907.88 L 565.96 907.88 Z" fill="#472712" fill-rule="nonzero" node-id="128" stroke="none" target-height="52.809998" target-width="52.809998" target-x="565.96" target-y="855.07"></path><path d="M 618.78 855.07 L 671.59 855.07 L 671.59 907.88 L 618.78 907.88 Z" fill="#472712" fill-rule="nonzero" node-id="130" stroke="none" target-height="52.809998" target-width="52.809998" target-x="618.78" target-y="855.07"></path><path d="M 671.59 855.07 L 724.40 855.07 L 724.40 907.88 L 671.59 907.88 Z" fill="#472712" fill-rule="nonzero" node-id="132" stroke="none" target-height="52.809998" target-width="52.809998" target-x="671.59" target-y="855.07"></path><path d="M 724.41 802.26 L 777.22 802.26 L 777.22 855.07 L 724.41 855.07 Z" fill="#472712" fill-rule="nonzero" node-id="134" stroke="none" target-height="52.809998" target-width="52.809998" target-x="724.41" target-y="802.26"></path><path d="M 777.22 802.26 L 830.03 802.26 L 830.03 855.07 L 777.22 855.07 Z" fill="#472712" fill-rule="nonzero" node-id="136" stroke="none" target-height="52.809998" target-width="52.81006" target-x="777.22" target-y="802.26"></path><path d="M 830.04 749.44 L 882.85 749.44 L 882.85 802.25 L 830.04 802.25 Z" fill="#472712" fill-rule="nonzero" node-id="138" stroke="none" target-height="52.809998" target-width="52.809998" target-x="830.04" target-y="749.44"></path><path d="M 882.85 696.63 L 935.66 696.63 L 935.66 749.44 L 882.85 749.44 Z" fill="#472712" fill-rule="nonzero" node-id="140" stroke="none" target-height="52.809998" target-width="52.809998" target-x="882.85" target-y="696.63"></path><path d="M 354.70 115.67 L 407.51 115.67 L 407.51 168.48 L 354.70 168.48 Z" fill="#472712" fill-rule="nonzero" node-id="142" stroke="none" target-height="52.809998" target-width="52.809998" target-x="354.7" target-y="115.67"></path><path d="M 407.52 168.48 L 460.33 168.48 L 460.33 221.29 L 407.52 221.29 Z" fill="#472712" fill-rule="nonzero" node-id="144" stroke="none" target-height="52.809998" target-width="52.809998" target-x="407.52" target-y="168.48"></path><path d="M 460.33 221.30 L 513.14 221.30 L 513.14 274.11 L 460.33 274.11 Z" fill="#472712" fill-rule="nonzero" node-id="146" stroke="none" target-height="52.809982" target-width="52.810028" target-x="460.33" target-y="221.3"></path><path d="M 301.89 221.30 L 354.70 221.30 L 354.70 274.11 L 301.89 274.11 Z" fill="#472712" fill-rule="nonzero" node-id="148" stroke="none" target-height="52.809982" target-width="52.809998" target-x="301.89" target-y="221.3"></path><path d="M 354.70 221.30 L 407.51 221.30 L 407.51 274.11 L 354.70 274.11 Z" fill="#ffffff" fill-rule="nonzero" node-id="150" stroke="none" target-height="52.809982" target-width="52.809998" target-x="354.7" target-y="221.3"></path><path d="M 301.89 274.11 L 354.70 274.11 L 354.70 326.92 L 301.89 326.92 Z" fill="#472712" fill-rule="nonzero" node-id="152" stroke="none" target-height="52.810028" target-width="52.809998" target-x="301.89" target-y="274.11"></path><path d="M 354.70 274.11 L 407.51 274.11 L 407.51 326.92 L 354.70 326.92 Z" fill="#472712" fill-rule="nonzero" node-id="154" stroke="none" target-height="52.810028" target-width="52.809998" target-x="354.7" target-y="274.11"></path><path d="M 618.78 221.30 L 671.59 221.30 L 671.59 274.11 L 618.78 274.11 Z" fill="#472712" fill-rule="nonzero" node-id="156" stroke="none" target-height="52.809982" target-width="52.809998" target-x="618.78" target-y="221.3"></path><path d="M 671.59 221.30 L 724.40 221.30 L 724.40 274.11 L 671.59 274.11 Z" fill="#ffffff" fill-rule="nonzero" node-id="158" stroke="none" target-height="52.809982" target-width="52.809998" target-x="671.59" target-y="221.3"></path><path d="M 618.78 274.11 L 671.59 274.11 L 671.59 326.92 L 618.78 326.92 Z" fill="#472712" fill-rule="nonzero" node-id="160" stroke="none" target-height="52.810028" target-width="52.809998" target-x="618.78" target-y="274.11"></path><path d="M 671.59 274.11 L 724.40 274.11 L 724.40 326.92 L 671.59 326.92 Z" fill="#472712" fill-rule="nonzero" node-id="162" stroke="none" target-height="52.810028" target-width="52.809998" target-x="671.59" target-y="274.11"></path><path d="M 513.15 221.30 L 565.96 221.30 L 565.96 274.11 L 513.15 274.11 Z" fill="#472712" fill-rule="nonzero" node-id="164" stroke="none" target-height="52.809982" target-width="52.809998" target-x="513.15" target-y="221.3"></path><path d="M 460.33 426.58 L 513.14 426.58 L 513.14 479.39 L 460.33 479.39 Z" fill="#472712" fill-rule="nonzero" node-id="166" stroke="none" target-height="52.810028" target-width="52.810028" target-x="460.33" target-y="426.58"></path><path d="M 407.52 400.18 L 460.33 400.18 L 460.33 452.99 L 407.52 452.99 Z" fill="#472712" fill-rule="nonzero" node-id="168" stroke="none" target-height="52.809998" target-width="52.809998" target-x="407.52" target-y="400.18"></path><path d="M 565.96 400.18 L 618.77 400.18 L 618.77 452.99 L 565.96 452.99 Z" fill="#472712" fill-rule="nonzero" node-id="170" stroke="none" target-height="52.809998" target-width="52.809998" target-x="565.96" target-y="400.18"></path><path d="M 353.74 373.77 L 406.55 373.77 L 406.55 426.58 L 353.74 426.58 Z" fill="#472712" fill-rule="nonzero" node-id="172" stroke="none" target-height="52.809998" target-width="52.809998" target-x="353.74" target-y="373.77"></path><path d="M 618.78 373.77 L 671.59 373.77 L 671.59 426.58 L 618.78 426.58 Z" fill="#472712" fill-rule="nonzero" node-id="174" stroke="none" target-height="52.809998" target-width="52.809998" target-x="618.78" target-y="373.77"></path><path d="M 513.15 426.58 L 565.96 426.58 L 565.96 479.39 L 513.15 479.39 Z" fill="#472712" fill-rule="nonzero" node-id="176" stroke="none" target-height="52.810028" target-width="52.809998" target-x="513.15" target-y="426.58"></path><path d="M 618.78 115.67 L 671.59 115.67 L 671.59 168.48 L 618.78 168.48 Z" fill="#472712" fill-rule="nonzero" node-id="178" stroke="none" target-height="52.809998" target-width="52.809998" target-x="618.78" target-y="115.67"></path><path d="M 565.96 168.48 L 618.77 168.48 L 618.77 221.29 L 565.96 221.29 Z" fill="#472712" fill-rule="nonzero" node-id="180" stroke="none" target-height="52.809998" target-width="52.809998" target-x="565.96" target-y="168.48"></path><path d="M 671.59 115.67 L 724.40 115.67 L 724.40 168.48 L 671.59 168.48 Z" fill="#472712" fill-rule="nonzero" node-id="182" stroke="none" target-height="52.809998" target-width="52.809998" target-x="671.59" target-y="115.67"></path></svg>